<svg id="Layer_1" data-name="Layer 1" xmlns="http://www.w3.org/2000/svg" viewBox="0 0 32 32"><defs><style>.cls-1{fill:#747987;}</style></defs><title>Approved</title><path class="cls-1" d="M22.32,7.88l-2,2.75-1-1.05a1,1,0,0,0-1.48,1.34l1.79,2a1,1,0,0,0,.74.33h.06a1,1,0,0,0,.75-.42L23.94,9a1,1,0,0,0-1.62-1.16Z"/><path class="cls-1" d="M8.65,12.54H11.9a1,1,0,0,0,0-2H8.65a1,1,0,1,0,0,2Z"/><path class="cls-1" d="M8.65,16.53h4.87a1,1,0,0,0,0-2H8.65a1,1,0,1,0,0,2Z"/><path class="cls-1" d="M19.38,18.52H8.65a1,1,0,0,0,0,2H19.38a1,1,0,0,0,0-2Z"/><path class="cls-1" d="M19.38,22.51H8.65a1,1,0,0,0,0,2H19.38a1,1,0,0,0,0-2Z"/><path class="cls-1" d="M21,3.36a6.88,6.88,0,0,0-5,2.11h-11a1,1,0,0,0-1,1V27.64a1,1,0,0,0,1,1h18a1,1,0,0,0,1-1V16.4a6.89,6.89,0,0,0-3.1-13Zm1.1,23.28h-16V7.47h8.64A6.89,6.89,0,0,0,21,17.15a6.72,6.72,0,0,0,1.1-.1ZM24,14.1a4.8,4.8,0,0,1-3,1.05,4.89,4.89,0,0,1-4.86-4.52V9.87a4.88,4.88,0,0,1,2.07-3.63A4.8,4.8,0,0,1,21,5.36a4.89,4.89,0,0,1,4.89,4.89A4.84,4.84,0,0,1,24,14.1Z"/></svg>