<svg id="Layer_1" data-name="Layer 1" xmlns="http://www.w3.org/2000/svg" viewBox="0 0 32 32"><defs><style>.cls-1{fill:#747987;}</style></defs><title>Balance</title><path class="cls-1" d="M28.61,15v0h0L25.93,8.2h0s0,0,0-.06a.87.87,0,0,0-.16-.23.27.27,0,0,0-.08-.07.66.66,0,0,0-.2-.14l-.1-.05A1,1,0,0,0,25,7.57H19.2A2.34,2.34,0,0,0,18,6.42a2.09,2.09,0,0,0-3.94,0A2.34,2.34,0,0,0,12.8,7.57H7a1.28,1.28,0,0,0-.34.06h0l0,0a1.14,1.14,0,0,0-.23.15l-.08.07a1.14,1.14,0,0,0-.15.23.43.43,0,0,0,0,.07h0L3.4,15h0v0a1.13,1.13,0,0,0,0,.18,1.16,1.16,0,0,0,0,.18v.05a3.67,3.67,0,0,0,7.34,0v-.05a1.16,1.16,0,0,0,0-.18,1.13,1.13,0,0,0,0-.18v0h0L8.47,9.57h6.29V24.19H12.81a6.35,6.35,0,0,0-3.79,1,1,1,0,0,0-.31,1.1,1,1,0,0,0,.95.67H22.34a1,1,0,0,0,.6-1.8,6.35,6.35,0,0,0-3.75-1h-2V9.57h6.29L21.4,15h0v0a1.13,1.13,0,0,0,0,.18,1.16,1.16,0,0,0,0,.18v.05a3.67,3.67,0,0,0,7.34,0v-.05a1.16,1.16,0,0,0,0-.18A1.13,1.13,0,0,0,28.61,15ZM5.79,14.35,7,11.29l1.21,3.06Zm18,0L25,11.29l1.21,3.06Z"/></svg>