<svg id="Layer_1" data-name="Layer 1" xmlns="http://www.w3.org/2000/svg" viewBox="0 0 32 32"><defs><style>.cls-1{fill:#747987;}</style></defs><title>Bank</title><path class="cls-1" d="M7,25.73H25a1,1,0,0,0,0-2H7a1,1,0,0,0,0,2Z"/><path class="cls-1" d="M26.29,26.23H5.71a1,1,0,1,0,0,2H26.29a1,1,0,0,0,0-2Z"/><path class="cls-1" d="M7.67,12.27H24.33a1,1,0,0,0,1-.67A1,1,0,0,0,25,10.48L16.62,4a1,1,0,0,0-1.24,0l-8.33,6.5a1,1,0,0,0-.33,1.12A1,1,0,0,0,7.67,12.27ZM16,6l5.42,4.23H10.58Z"/><path class="cls-1" d="M15,14v7.82a1,1,0,0,0,2,0V14a1,1,0,0,0-2,0Z"/><path class="cls-1" d="M19,14v7.82a1,1,0,0,0,2,0V14a1,1,0,0,0-2,0Z"/><path class="cls-1" d="M23,14v7.82a1,1,0,0,0,2,0V14a1,1,0,0,0-2,0Z"/><path class="cls-1" d="M11,14v7.82a1,1,0,0,0,2,0V14a1,1,0,0,0-2,0Z"/><path class="cls-1" d="M7,14v7.82a1,1,0,0,0,2,0V14a1,1,0,0,0-2,0Z"/></svg>