<svg id="Layer_1" data-name="Layer 1" xmlns="http://www.w3.org/2000/svg" viewBox="0 0 32 32"><defs><style>.cls-1{fill:#747987;}</style></defs><title>Brainstorming</title><path class="cls-1" d="M27.54,13a3.54,3.54,0,0,0-2.17-3.41c0-.11,0-.22,0-.33a3.34,3.34,0,0,0-3.17-3.55c-.9-1.47-2.77-3.16-5.39-2.07A2.72,2.72,0,0,0,16,4.2a2.52,2.52,0,0,0-.82-.55c-2.62-1.11-4.49.59-5.39,2.06A3.33,3.33,0,0,0,6.62,9.26c0,.11,0,.22,0,.33A3.54,3.54,0,0,0,4.46,13a4,4,0,0,0,.3,1.54,5,5,0,0,0-.9,5.14A3.81,3.81,0,0,0,6.11,22a3.15,3.15,0,0,0,0,.53,3.51,3.51,0,0,0,2,3,2.72,2.72,0,0,0,1.92.09,4.52,4.52,0,0,0,4.25,3.05h.4A2.32,2.32,0,0,0,16,28.11a2.32,2.32,0,0,0,1.34.58h.4A4.52,4.52,0,0,0,22,25.65a2.72,2.72,0,0,0,1.92-.09,3.51,3.51,0,0,0,2-3,3.15,3.15,0,0,0,0-.53,3.79,3.79,0,0,0,2.25-2.31,5,5,0,0,0-.9-5.14A4,4,0,0,0,27.54,13ZM15.82,18.82l.25-2.34a1,1,0,0,0-.25-.77,1,1,0,0,0-.74-.34h-1l1.6-4.58h1.05L16,13.24a1,1,0,0,0,.15.89,1,1,0,0,0,.8.4h1.52Zm-1.31,7.87a2.72,2.72,0,0,1-2.82-2.34,5.12,5.12,0,0,0,1.2-3.06,1,1,0,0,0-1-1,1,1,0,0,0-1,1,3.34,3.34,0,0,1-1,2.07s0,0,0,0l-.06.05a.82.82,0,0,1-1,.29,1.57,1.57,0,0,1-.74-1.32,2.44,2.44,0,0,1,.05-.62,3.57,3.57,0,0,0,1.29-2.69,1,1,0,0,0-2,0A1.51,1.51,0,0,1,7,20.14,1.72,1.72,0,0,1,5.74,19a2.9,2.9,0,0,1,.69-3.25,4,4,0,0,1,3.23.92,1,1,0,0,0,1.5-1.32A5.69,5.69,0,0,0,6.6,13.72,2.1,2.1,0,0,1,6.46,13c0-.85.49-1.57,1.07-1.57h.18c.27,0,1.07.27,1.25.79a1,1,0,0,0,.94.67,1,1,0,0,0,.33-.06,1,1,0,0,0,.62-1.27A3.32,3.32,0,0,0,8.66,9.64a2.45,2.45,0,0,1,0-.38c0-.79.44-1.5,1-1.54a2.34,2.34,0,0,0,.94.9,1,1,0,0,0,.46.11,1,1,0,0,0,.46-1.89h0a2.36,2.36,0,0,1,3-1.34A1.31,1.31,0,0,1,15,6.68V8.8h0a1,1,0,0,0-.94.67L11.73,16a1,1,0,0,0,.13.9,1,1,0,0,0,.81.43H14L13.35,23A1,1,0,0,0,14,24.05a1.26,1.26,0,0,0,.33.05,1,1,0,0,0,.65-.25v2C15,26.33,14.71,26.68,14.51,26.69ZM26.26,19A1.69,1.69,0,0,1,25,20.13a1.46,1.46,0,0,1-.47-1.05,1,1,0,0,0-2,0,3.57,3.57,0,0,0,1.29,2.69,2.44,2.44,0,0,1,.05.62,1.57,1.57,0,0,1-.74,1.32.82.82,0,0,1-1-.29l-.06-.05s0,0,0,0a3.32,3.32,0,0,1-1-2.07,1,1,0,0,0-2,0,5.12,5.12,0,0,0,1.2,3.06,2.71,2.71,0,0,1-2.82,2.34c-.2,0-.49-.36-.49-.86V20.7L21.12,14a1,1,0,0,0,0-1,1.08,1.08,0,0,0-.87-.51h-2L19,10.07a1,1,0,0,0-.16-.88,1,1,0,0,0-.8-.4H17V6.68a1.31,1.31,0,0,1,.59-1.19c1.56-.65,2.55.64,3,1.34h0A1,1,0,0,0,21,8.73a1,1,0,0,0,.46-.11,2.34,2.34,0,0,0,.94-.9c.55,0,1,.75,1,1.54a2.45,2.45,0,0,1,0,.38,3.32,3.32,0,0,0-2.19,1.95,1,1,0,0,0,.62,1.27,1,1,0,0,0,.33.06,1,1,0,0,0,.94-.67c.18-.52,1-.75,1.25-.79h.18c.58,0,1.07.72,1.07,1.57a2.1,2.1,0,0,1-.14.72,5.69,5.69,0,0,0-4.56,1.62,1,1,0,1,0,1.5,1.32,3.93,3.93,0,0,1,3.23-.92A2.9,2.9,0,0,1,26.26,19Z"/></svg>