<svg id="Layer_1" data-name="Layer 1" xmlns="http://www.w3.org/2000/svg" viewBox="0 0 32 32"><defs><style>.cls-1{fill:#747987;}</style></defs><title>Calculator</title><path class="cls-1" d="M23.76,3.74H8.24a2.71,2.71,0,0,0-2.7,2.71v19.1a2.71,2.71,0,0,0,2.7,2.71H23.76a2.71,2.71,0,0,0,2.7-2.71V6.45A2.71,2.71,0,0,0,23.76,3.74Zm.7,21.81a.7.7,0,0,1-.7.71H8.24a.7.7,0,0,1-.7-.71V6.45a.7.7,0,0,1,.7-.71H23.76a.7.7,0,0,1,.7.71Z"/><path class="cls-1" d="M22.39,6.57H9.9a1,1,0,0,0-1,1v5.89a1,1,0,0,0,1,1H22.39a1,1,0,0,0,1-1V7.57A1,1,0,0,0,22.39,6.57Zm-1,5.89H10.9V8.57H21.39Z"/><rect class="cls-1" x="8.85" y="14.99" width="2.83" height="2.83" rx="1"/><rect class="cls-1" x="12.73" y="14.99" width="2.83" height="2.83" rx="1"/><rect class="cls-1" x="16.61" y="14.99" width="2.83" height="2.83" rx="1"/><rect class="cls-1" x="8.85" y="18.63" width="2.83" height="2.83" rx="1"/><rect class="cls-1" x="12.73" y="18.63" width="2.83" height="2.83" rx="1"/><rect class="cls-1" x="16.61" y="18.63" width="2.83" height="2.83" rx="1"/><rect class="cls-1" x="8.85" y="22.26" width="2.83" height="2.83" rx="1"/><rect class="cls-1" x="12.73" y="22.26" width="2.83" height="2.83" rx="1"/><rect class="cls-1" x="16.61" y="22.26" width="2.83" height="2.83" rx="1"/><rect class="cls-1" x="20.48" y="15.01" width="2.83" height="2.83" rx="1"/><rect class="cls-1" x="20.48" y="18.74" width="2.83" height="6.35" rx="1"/></svg>