<svg id="Layer_1" data-name="Layer 1" xmlns="http://www.w3.org/2000/svg" viewBox="0 0 32 32"><defs><style>.cls-1{fill:#747987;}</style></defs><title>Commission</title><path class="cls-1" d="M16,3.54A12.46,12.46,0,1,0,28.46,16,12.47,12.47,0,0,0,16,3.54Zm0,22.92A10.46,10.46,0,1,1,26.46,16,10.47,10.47,0,0,1,16,26.46Z"/><path class="cls-1" d="M12.12,14.83A2.79,2.79,0,1,0,9.33,12,2.79,2.79,0,0,0,12.12,14.83Zm0-3.58a.79.79,0,1,1-.79.79A.79.79,0,0,1,12.12,11.25Z"/><path class="cls-1" d="M19.88,17.17A2.79,2.79,0,1,0,22.67,20,2.79,2.79,0,0,0,19.88,17.17Zm0,3.58a.79.79,0,1,1,.79-.79A.79.79,0,0,1,19.88,20.75Z"/><path class="cls-1" d="M21.83,10.17a1,1,0,0,0-1.41,0L10.17,20.42a1,1,0,0,0,0,1.41,1,1,0,0,0,.7.3,1,1,0,0,0,.71-.3L21.83,11.58A1,1,0,0,0,21.83,10.17Z"/></svg>