<svg id="Layer_1" data-name="Layer 1" xmlns="http://www.w3.org/2000/svg" viewBox="0 0 32 32"><defs><style>.cls-1{fill:#747987;}</style></defs><title>Contact Book</title><path class="cls-1" d="M24.61,4H9.94A2.43,2.43,0,0,0,7.51,6.4v.74H6a1,1,0,0,0,0,2H7.51v3.33H6a1,1,0,0,0,0,2H7.51V17.8H6a1,1,0,1,0,0,2H7.51v3.34H6a1,1,0,1,0,0,2H7.51v.46A2.43,2.43,0,0,0,9.94,28H24.61a2.43,2.43,0,0,0,2.44-2.43V6.4A2.43,2.43,0,0,0,24.61,4Zm.44,21.63a.44.44,0,0,1-.44.43H9.94a.43.43,0,0,1-.43-.43v-.46h1.14a1,1,0,0,0,0-2H9.51V19.8h1.14a1,1,0,1,0,0-2H9.51V14.47h1.14a1,1,0,0,0,0-2H9.51V9.14h1.14a1,1,0,0,0,0-2H9.51V6.4A.43.43,0,0,1,9.94,6H24.61a.44.44,0,0,1,.44.43Z"/><path class="cls-1" d="M18.11,15.26h-.53a4.25,4.25,0,0,0-4.25,4.25v1.56a1,1,0,0,0,1,1h7a1,1,0,0,0,1-1V19.51A4.25,4.25,0,0,0,18.11,15.26Zm2.25,4.81h-5v-.56a2.25,2.25,0,0,1,2.25-2.25h.53a2.25,2.25,0,0,1,2.25,2.25Z"/><path class="cls-1" d="M17.85,14.91a2.64,2.64,0,1,0-2.64-2.64A2.64,2.64,0,0,0,17.85,14.91Zm0-3.27a.63.63,0,0,1,.63.63.64.64,0,0,1-.63.64.64.64,0,0,1-.64-.64A.64.64,0,0,1,17.85,11.64Z"/></svg>