<svg id="Layer_1" data-name="Layer 1" xmlns="http://www.w3.org/2000/svg" viewBox="0 0 32 32"><defs><style>.cls-1{fill:#747987;}</style></defs><title>Deadline</title><path class="cls-1" d="M22.25,13.68a6.33,6.33,0,0,0-.76.05v-3a3.28,3.28,0,0,0-3.27-3.27h-.89V6.85a1,1,0,0,0-2,0v.57H9.67V6.85a1,1,0,0,0-2,0v.57H6.79a3.28,3.28,0,0,0-3.27,3.27V21.82a3.27,3.27,0,0,0,3.27,3.27H18.22a2.63,2.63,0,0,0,.49-.05,6.23,6.23,0,1,0,3.54-11.36Zm-16.73-3A1.27,1.27,0,0,1,6.79,9.42h.88v.19a1,1,0,0,0,2,0V9.42h5.66v.19a1,1,0,0,0,2,0V9.42h.89a1.27,1.27,0,0,1,1.27,1.27v1.57h-14Zm1.27,12.4a1.27,1.27,0,0,1-1.27-1.27V14.26h14v.07A6.25,6.25,0,0,0,16,19.92a6.12,6.12,0,0,0,.89,3.17Zm15.46,1.06a4.17,4.17,0,0,1-1.5-.29,4.1,4.1,0,0,1-1.64-1.13,4.16,4.16,0,0,1,.38-6,4.26,4.26,0,0,1,2-1,3.77,3.77,0,0,1,.76-.08,4.24,4.24,0,0,1,0,8.47Z"/><path class="cls-1" d="M24.23,20.3H22.49V18.53a1,1,0,0,0-2,0V21.3a1,1,0,0,0,1,1h2.74a1,1,0,0,0,0-2Z"/><path class="cls-1" d="M8.21,15.78H7.79a1,1,0,0,0,0,2h.42a1,1,0,0,0,0-2Z"/><path class="cls-1" d="M8.21,19.42H7.79a1,1,0,1,0,0,2h.42a1,1,0,0,0,0-2Z"/><path class="cls-1" d="M11.33,15.78h-.42a1,1,0,0,0,0,2h.42a1,1,0,0,0,0-2Z"/><path class="cls-1" d="M11.33,19.42h-.42a1,1,0,0,0,0,2h.42a1,1,0,0,0,0-2Z"/><path class="cls-1" d="M14.45,15.78H14a1,1,0,0,0,0,2h.41a1,1,0,0,0,0-2Z"/><path class="cls-1" d="M14.45,19.42H14a1,1,0,0,0,0,2h.41a1,1,0,1,0,0-2Z"/></svg>