<svg id="Layer_1" data-name="Layer 1" xmlns="http://www.w3.org/2000/svg" viewBox="0 0 32 32"><defs><style>.cls-1{fill:#747987;}</style></defs><title>Document</title><path class="cls-1" d="M20.15,3.88l0,0a1,1,0,0,0-.32-.26.88.88,0,0,0-.4-.1H6.17a1,1,0,0,0-1,1V27.54a1,1,0,0,0,1,1H25.83a1,1,0,0,0,1-1V13.27h0a.94.94,0,0,0-.2-.6Zm.19,3.62,3.51,4.77H20.34Zm4.49,19H7.17V5.46H18.34v7.81a1,1,0,0,0,1,1h5.49Z"/><path class="cls-1" d="M10.06,11h4.68a1,1,0,0,0,0-2H10.06a1,1,0,0,0,0,2Z"/><path class="cls-1" d="M10.06,15.34h5.87a1,1,0,0,0,0-2H10.06a1,1,0,1,0,0,2Z"/><path class="cls-1" d="M9.06,18.68a1,1,0,0,0,1,1H20.67a1,1,0,0,0,0-2H10.06A1,1,0,0,0,9.06,18.68Z"/><path class="cls-1" d="M20.67,22H10.06a1,1,0,0,0,0,2H20.67a1,1,0,0,0,0-2Z"/></svg>