<svg id="Layer_1" data-name="Layer 1" xmlns="http://www.w3.org/2000/svg" viewBox="0 0 32 32"><defs><style>.cls-1{fill:#747987;}</style></defs><title>E-Commerce</title><path class="cls-1" d="M18.24,25a1.87,1.87,0,1,0,1.86,1.87A1.87,1.87,0,0,0,18.24,25Zm-.14,1.87a.14.14,0,0,1,.14-.14.13.13,0,0,1,.13.14C18.37,27.06,18.1,27.06,18.1,26.91Z"/><path class="cls-1" d="M11.25,25a1.87,1.87,0,1,0,1.87,1.87A1.87,1.87,0,0,0,11.25,25Zm-.13,1.87a.13.13,0,0,1,.13-.14.14.14,0,0,1,.14.14C11.39,27.06,11.12,27.06,11.12,26.91Z"/><path class="cls-1" d="M20.22,3.23a8.57,8.57,0,0,0-8.57,8.57,8.46,8.46,0,0,0,.5,2.85l-4,.06-.89-3.12a1,1,0,0,0-1-.72H4.21a1,1,0,1,0,0,2H5.58L6.46,16s0,0,0,.06l2.21,7.76a1,1,0,0,0,1,.73H19.79a1,1,0,0,0,1-.73l1-3.56a8.57,8.57,0,0,0-1.55-17Zm-1,3.5V8.49H18.1A10.23,10.23,0,0,1,19.22,6.73Zm0,3.76v2.29H17.31a6.58,6.58,0,0,1-.07-1.09,6.79,6.79,0,0,1,.15-1.2ZM17.33,5.91a11.87,11.87,0,0,0-1.42,2.58H14.55A6.6,6.6,0,0,1,17.33,5.91Zm-3.55,4.58h1.58a8.31,8.31,0,0,0-.12,1.13,9,9,0,0,0,0,1.16H13.73a6.37,6.37,0,0,1-.08-1A7,7,0,0,1,13.78,10.49Zm6.59,7.34-.07.23-.08.3-.52,1.83h0l0,.13L19,22.51H10.4L8.75,16.7l4.4-.07,2.6,0h.85l2.37,0h.25l1.52,0Zm5.51-9.34H24.53a11.87,11.87,0,0,0-1.42-2.58A6.57,6.57,0,0,1,25.88,8.49ZM21.22,6.73a10.88,10.88,0,0,1,1.12,1.76H21.22Zm0,6V10.49H23a6,6,0,0,1,.15,1.2,6.58,6.58,0,0,1-.07,1.09Zm1.89,4.9a11,11,0,0,0,1.58-2.9h1.37A6.52,6.52,0,0,1,23.11,17.68Zm2-4.9a9,9,0,0,0,0-1.16,8.32,8.32,0,0,0-.11-1.13h1.57a6.26,6.26,0,0,1,.14,1.31,6.38,6.38,0,0,1-.09,1Z"/></svg>