<svg id="Layer_1" data-name="Layer 1" xmlns="http://www.w3.org/2000/svg" viewBox="0 0 32 32"><defs><style>.cls-1{fill:#747987;}</style></defs><title>Education</title><path class="cls-1" d="M28.61,16.44l-.76-.75V12.34a1,1,0,0,0-.07-.35.2.2,0,0,0,0-.08,1.07,1.07,0,0,0-.16-.25l0,0-.23-.17-11.38-6a1,1,0,0,0-.93,0l-11.38,6a1,1,0,0,0-.53.89,1,1,0,0,0,.53.88L8,15.5v7.77a2.63,2.63,0,0,0,2,2.65l2.53.48a15.73,15.73,0,0,0,5.91,0L21,25.92a2.63,2.63,0,0,0,2-2.65V15.5L25.85,14v1.69l-.76.75a1,1,0,0,0-.15,1.23l1,1.73a1,1,0,0,0,.86.48,1,1,0,0,0,.85-.48l1.05-1.73A1,1,0,0,0,28.61,16.44Zm-13.13-9,7.34,3.88H15.48a1,1,0,0,0,0,2h7.34l-7.34,3.88L6.24,12.34ZM21,23.27a.68.68,0,0,1-.41.69l-2.53.47a13.62,13.62,0,0,1-5.17,0L10.36,24a.69.69,0,0,1-.41-.69V16.56L15,19.23a1,1,0,0,0,.47.12.93.93,0,0,0,.46-.12L21,16.56Z"/></svg>