<svg id="Layer_1" data-name="Layer 1" xmlns="http://www.w3.org/2000/svg" viewBox="0 0 32 32"><defs><style>.cls-1{fill:#747987;}</style></defs><title>Email</title><path class="cls-1" d="M28,7.47a1.46,1.46,0,0,0-.22-.33h0s-.05,0-.06,0a1,1,0,0,0-.27-.17.94.94,0,0,0-.28-.06l-.1,0H4.92l-.09,0a.94.94,0,0,0-.29.06.9.9,0,0,0-.26.17l-.07,0h0A1.46,1.46,0,0,0,4,7.47a1,1,0,0,0-.07.38h0v16.3s0,0,0,0a.78.78,0,0,0,0,.21.64.64,0,0,0,0,.17,1.1,1.1,0,0,0,.09.14c0,.06.09.12.14.17l0,0a.75.75,0,0,0,.15.09.75.75,0,0,0,.12.07,1,1,0,0,0,.37.08H27.08a1,1,0,0,0,.37-.08l.12-.07a.75.75,0,0,0,.15-.09l0,0c.05-.05.09-.11.14-.17a1.1,1.1,0,0,0,.09-.14A.64.64,0,0,0,28,24.4a.78.78,0,0,0,0-.21s0,0,0,0V7.85h0A1,1,0,0,0,28,7.47ZM24.69,8.85,17,16.7a1.43,1.43,0,0,1-1.88,0L7.31,8.85ZM5.92,10.29l5,5.1-5,6ZM7.06,23.15l5.29-6.33,1.35,1.36a3.4,3.4,0,0,0,2.29.87,3.48,3.48,0,0,0,2.35-.91l1.31-1.32,5.29,6.33Zm19-1.76-5-6,5-5.1Z"/></svg>