<svg id="Layer_1" data-name="Layer 1" xmlns="http://www.w3.org/2000/svg" viewBox="0 0 32 32"><defs><style>.cls-1{fill:#747987;}</style></defs><title>Financial Plan</title><path class="cls-1" d="M25,5.73H19.42a3.56,3.56,0,0,0-6.84,0H7a1,1,0,0,0-1,1v21.1a1,1,0,0,0,1,1H25a1,1,0,0,0,1-1V6.73A1,1,0,0,0,25,5.73Zm-1,21.1H8V7.73h5.44a1,1,0,0,0,1-1,1.56,1.56,0,1,1,3.12,0,1,1,0,0,0,1,1H24Z"/><path class="cls-1" d="M9.11,9.8V25a1,1,0,0,0,1,1H21.89a1,1,0,0,0,1-1V9.8a1,1,0,0,0-1-1H10.11A1,1,0,0,0,9.11,9.8Zm2,1h9.78V24H11.11Z"/><path class="cls-1" d="M16,7.38a.56.56,0,1,0-.56-.56A.56.56,0,0,0,16,7.38Z"/><path class="cls-1" d="M19.11,14a1,1,0,0,0-1,1v7a1,1,0,0,0,2,0V15A1,1,0,0,0,19.11,14Z"/><path class="cls-1" d="M16.51,16.51a1,1,0,0,0-1,1V22a1,1,0,1,0,2,0V17.51A1,1,0,0,0,16.51,16.51Z"/><path class="cls-1" d="M13.91,18.79a1,1,0,0,0-1,1V22a1,1,0,0,0,2,0V19.79A1,1,0,0,0,13.91,18.79Z"/><path class="cls-1" d="M14.57,13.71H12.89v-.25h1.9a.53.53,0,0,0,.52-.52.52.52,0,0,0-.52-.52h-.62v-.27a.52.52,0,0,0-.52-.52.52.52,0,0,0-.52.52v.27h-.41a.87.87,0,0,0-.87.87v.59a.86.86,0,0,0,.87.86H14.4V15h-2a.52.52,0,1,0,0,1h.76v.27a.52.52,0,0,0,.52.52.52.52,0,0,0,.52-.52V16h.4a.87.87,0,0,0,.87-.86v-.59A.87.87,0,0,0,14.57,13.71Z"/></svg>