<svg id="Layer_1" data-name="Layer 1" xmlns="http://www.w3.org/2000/svg" viewBox="0 0 32 32"><defs><style>.cls-1{fill:#747987;}</style></defs><title>Graphic Design</title><path class="cls-1" d="M25.15,3.25H6.85A2.9,2.9,0,0,0,4,6.14V21a2.89,2.89,0,0,0,2.89,2.88h6L12,26.75H10.59a1,1,0,0,0,0,2H21.41a1,1,0,0,0,0-2H20l-.8-2.87h5.95A2.89,2.89,0,0,0,28,21V6.14A2.9,2.9,0,0,0,25.15,3.25ZM14.08,26.75l.8-2.87h2.24l.8,2.87ZM26,21a.88.88,0,0,1-.89.88H6.85A.88.88,0,0,1,6,21V19H26Zm0-4H6V6.14a.89.89,0,0,1,.89-.89h18.3a.89.89,0,0,1,.89.89Z"/><path class="cls-1" d="M16,21.39a1,1,0,1,0-1-1A1,1,0,0,0,16,21.39Z"/><path class="cls-1" d="M24.31,10.06c0-.05,0-.1-.07-.14L21.56,6.29a1.05,1.05,0,0,0-1.61,0L17.27,9.92s0,.09-.07.14a.31.31,0,0,0-.05.1.84.84,0,0,0-.07.35v5.08a1,1,0,1,0,2,0V11.51h.67v4.08a1,1,0,1,0,2,0V11.51h.68v4.08a1,1,0,0,0,2,0V10.51a.84.84,0,0,0-.07-.35A.31.31,0,0,0,24.31,10.06Zm-4.25-.55.69-.94.7.94Z"/><path class="cls-1" d="M14.06,7.78H8.67a1,1,0,0,0,0,2h5.39a1,1,0,1,0,0-2Z"/><path class="cls-1" d="M14.06,11.78H8.67a1,1,0,0,0,0,2h5.39a1,1,0,0,0,0-2Z"/></svg>