<svg id="Layer_1" data-name="Layer 1" xmlns="http://www.w3.org/2000/svg" viewBox="0 0 32 32"><defs><style>.cls-1{fill:#747987;}</style></defs><title>Income</title><path class="cls-1" d="M27,17.34a2.74,2.74,0,0,0-2.37-.46l-.13,0-7.46,3.13a2.84,2.84,0,0,0,.38-1.44,3,3,0,0,0-1.8-2.69l-5.06-2.23a2.27,2.27,0,0,0-1.36-.15L6,14.15v-.53a1,1,0,0,0-2,0V25.48a1,1,0,0,0,2,0v-.54l8.39,2.91a4.47,4.47,0,0,0,1.53.26,4.57,4.57,0,0,0,2.62-.82l8.42-5.91a2.49,2.49,0,0,0,.09-4Zm-1.24,2.4-8.42,5.91A2.62,2.62,0,0,1,15,26L6,22.82V16.18L9.6,15.5a.36.36,0,0,1,.18,0l5.06,2.23a1,1,0,0,1,.61.86.9.9,0,0,1-.4.74,1.19,1.19,0,0,1-1.05.17l-2.44-.8a1,1,0,0,0-.63,1.9l2.4.79.06,0,2.75.91a.94.94,0,0,0,.7,0l8.39-3.51a.67.67,0,0,1,.58.13.5.5,0,0,1,.21.4A.49.49,0,0,1,25.79,19.74Z"/><path class="cls-1" d="M20.94,16.42a6.27,6.27,0,1,0-6.26-6.27A6.27,6.27,0,0,0,20.94,16.42Zm0-10.53a4.27,4.27,0,1,1-4.26,4.26A4.27,4.27,0,0,1,20.94,5.89Z"/><path class="cls-1" d="M19.51,11a.58.58,0,1,0,0,1.16h.85v.3a.59.59,0,0,0,1.17,0v-.3H22a1,1,0,0,0,1-1v-.67a1,1,0,0,0-1-1H20.09V9.29h2.13a.58.58,0,0,0,0-1.16h-.69V7.82a.59.59,0,0,0-1.17,0v.31h-.45a1,1,0,0,0-1,1v.66a1,1,0,0,0,1,1h1.88V11Z"/></svg>