<svg id="Layer_1" data-name="Layer 1" xmlns="http://www.w3.org/2000/svg" viewBox="0 0 32 32"><defs><style>.cls-1{fill:#747987;}</style></defs><title>Info</title><path class="cls-1" d="M16,4.92A11.08,11.08,0,1,0,27.08,16,11.09,11.09,0,0,0,16,4.92Zm0,20.16A9.08,9.08,0,1,1,25.08,16,9.1,9.1,0,0,1,16,25.08Z"/><path class="cls-1" d="M16.35,9.84a1.28,1.28,0,1,0,1.29,1.28A1.28,1.28,0,0,0,16.35,9.84Z"/><path class="cls-1" d="M16.73,13.36a1.5,1.5,0,0,0-1.53-.12l-.94.47a1,1,0,0,0-.44,1.34,1,1,0,0,0,1.24.49l-1.38,5a.68.68,0,0,0,0,.14,1.47,1.47,0,0,0,1.47,1.67,1.38,1.38,0,0,0,.63-.14l.84-.39a1,1,0,0,0,.48-1.33A1,1,0,0,0,15.92,20l1.39-5.06a.58.58,0,0,0,0-.14A1.48,1.48,0,0,0,16.73,13.36Z"/></svg>