<svg id="Layer_1" data-name="Layer 1" xmlns="http://www.w3.org/2000/svg" viewBox="0 0 32 32"><defs><style>.cls-1{fill:#747987;}</style></defs><title>Insurance</title><path class="cls-1" d="M25,8.27H23.52a1.84,1.84,0,0,1-1.28-.54,1.81,1.81,0,0,1-.51-1.28,1,1,0,0,0-.46-.86,9.88,9.88,0,0,0-10.54,0,1,1,0,0,0-.46.83A1.88,1.88,0,0,1,8.41,8.26H7a1,1,0,0,0-1,1V17c0,.35.11,8.53,9.73,10.94A1,1,0,0,0,16,28H16a1,1,0,0,0,.24,0C25.89,25.51,26,17.33,26,17V9.27A1,1,0,0,0,25,8.27ZM24,17c0,.28-.1,6.85-8,9C8.1,23.83,8,17.26,8,17V10.26h.43A3.91,3.91,0,0,0,12.22,7a7.85,7.85,0,0,1,7.55,0,3.85,3.85,0,0,0,1,2.1,3.79,3.79,0,0,0,2.69,1.14H24Z"/><path class="cls-1" d="M21.1,13.71H18.47V11.09a1,1,0,0,0-1-1h-3a1,1,0,0,0-1,1v2.62H10.85a1,1,0,0,0-1,1v3a1,1,0,0,0,1,1h2.63v2.62a1,1,0,0,0,1,1h3a1,1,0,0,0,1-1V18.71H21.1a1,1,0,0,0,1-1v-3A1,1,0,0,0,21.1,13.71Zm-1,3H17.47a1,1,0,0,0-1,1v2.62h-1V17.71a1,1,0,0,0-1-1H11.85v-1h2.63a1,1,0,0,0,1-1V12.09h1v2.62a1,1,0,0,0,1,1H20.1Z"/></svg>