<svg id="Layer_1" data-name="Layer 1" xmlns="http://www.w3.org/2000/svg" viewBox="0 0 32 32"><defs><style>.cls-1{fill:#747987;}</style></defs><title>Invoice</title><path class="cls-1" d="M16.06,17a1,1,0,0,0,1,1H22.7a1,1,0,1,0,0-2H17.06A1,1,0,0,0,16.06,17Z"/><path class="cls-1" d="M22.7,19.51H10a1,1,0,1,0,0,2H22.7a1,1,0,0,0,0-2Z"/><path class="cls-1" d="M22.7,23H10a1,1,0,0,0,0,2H22.7a1,1,0,1,0,0-2Z"/><path class="cls-1" d="M26.76,12.89a1.28,1.28,0,0,0-.14-.21.49.49,0,0,0-.07-.11l-8.49-8.8h0a.88.88,0,0,0-.25-.18s0,0-.07,0h0a.8.8,0,0,0-.34-.07H6.17a1,1,0,0,0-1,1V27.54a1,1,0,0,0,1,1H25.83a1,1,0,0,0,1-1V13.27s0-.08,0-.12A1.19,1.19,0,0,0,26.76,12.89ZM18.34,6.94l5.14,5.33H18.34Zm6.49,19.6H7.17V5.46h9.17v7.81a1,1,0,0,0,1,1h7.49Z"/><path class="cls-1" d="M9.71,13.67a.88.88,0,1,0,0,1.76H11v.46a.88.88,0,0,0,1.76,0v-.46h.69A1.47,1.47,0,0,0,14.92,14V13a1.47,1.47,0,0,0-1.47-1.48H10.59v-.42h3.22a.88.88,0,0,0,0-1.76H12.76V8.84a.88.88,0,1,0-1.76,0V9.3h-.69a1.47,1.47,0,0,0-1.48,1.47v1a1.47,1.47,0,0,0,1.48,1.47h2.85v.43Z"/></svg>