<svg id="Layer_1" data-name="Layer 1" xmlns="http://www.w3.org/2000/svg" viewBox="0 0 32 32"><defs><style>.cls-1{fill:#747987;}</style></defs><title>Location</title><path class="cls-1" d="M21.88,5.56A8.32,8.32,0,0,0,9,15.89l2.8,4.41c-2.46.8-3.94,2.26-3.94,4,0,2.63,3.51,4.61,8.17,4.61s8.17-2,8.17-4.61c0-1.7-1.48-3.16-3.94-4L23,15.89A8.28,8.28,0,0,0,21.88,5.56Zm.29,18.71c0,1.23-2.64,2.61-6.17,2.61S9.83,25.5,9.83,24.27c0-.73,1.05-1.68,3.05-2.21l2.27,3.59a1,1,0,0,0,1.7,0l2.27-3.59C21.12,22.6,22.17,23.56,22.17,24.27Zm-.83-9.45L16,23.25l-5.34-8.43a6.32,6.32,0,1,1,10.68,0Z"/><path class="cls-1" d="M16,8a3.4,3.4,0,1,0,3.4,3.39A3.4,3.4,0,0,0,16,8Zm0,4.79a1.4,1.4,0,1,1,1.4-1.4A1.4,1.4,0,0,1,16,12.76Z"/></svg>