<svg id="Layer_1" data-name="Layer 1" xmlns="http://www.w3.org/2000/svg" viewBox="0 0 32 32"><defs><style>.cls-1{fill:#747987;}</style></defs><title>M Banking</title><path class="cls-1" d="M20.83,3.17H11.17A4,4,0,0,0,7.23,7.11V24.89a4,4,0,0,0,3.94,3.94h9.66a4,4,0,0,0,3.94-3.94V7.11A4,4,0,0,0,20.83,3.17Zm-9.66,2h9.66a1.94,1.94,0,0,1,1.91,1.61H9.26A1.94,1.94,0,0,1,11.17,5.17Zm9.66,21.66H11.17a1.94,1.94,0,0,1-1.91-1.61H22.74A1.94,1.94,0,0,1,20.83,26.83Zm1.94-3.61H9.23V8.78H22.77Z"/><path class="cls-1" d="M14.74,22.08h6a1,1,0,0,0,0-2h-6a1,1,0,0,0,0,2Z"/><path class="cls-1" d="M11.21,22.08h.89a1,1,0,1,0,0-2h-.89a1,1,0,0,0,0,2Z"/><path class="cls-1" d="M14.74,19.08h6a1,1,0,0,0,0-2h-6a1,1,0,0,0,0,2Z"/><path class="cls-1" d="M11.21,19.08h.89a1,1,0,1,0,0-2h-.89a1,1,0,0,0,0,2Z"/><path class="cls-1" d="M14.43,13.79a.64.64,0,0,0-.64.64.64.64,0,0,0,.64.64h.93v.33a.64.64,0,0,0,1.28,0v-.33h.5A1.07,1.07,0,0,0,18.21,14v-.72a1.07,1.07,0,0,0-1.07-1.07H15.07V11.9H17.4a.64.64,0,0,0,0-1.28h-.76v-.33a.64.64,0,1,0-1.28,0v.33h-.5a1.07,1.07,0,0,0-1.07,1.07v.73a1.07,1.07,0,0,0,1.07,1.07h2.07v.3Z"/></svg>