<svg id="Layer_1" data-name="Layer 1" xmlns="http://www.w3.org/2000/svg" viewBox="0 0 32 32"><defs><style>.cls-1{fill:#747987;}</style></defs><title>Meeting</title><path class="cls-1" d="M16,14.43a3.5,3.5,0,1,0-3.5-3.5A3.5,3.5,0,0,0,16,14.43Zm0-5a1.5,1.5,0,1,1-1.5,1.5A1.5,1.5,0,0,1,16,9.43Z"/><path class="cls-1" d="M27,14.32a24.13,24.13,0,0,0-3.85-.57,24.65,24.65,0,0,0-3.9.57A2.53,2.53,0,0,0,18,15a15,15,0,0,0-2-.22A15.28,15.28,0,0,0,14,15a2.5,2.5,0,0,0-1.23-.66,24.65,24.65,0,0,0-3.9-.57A24.13,24.13,0,0,0,5,14.32a2.47,2.47,0,0,0-1.95,2.74l.53,4A2.14,2.14,0,0,0,5.7,22.87h4.46a2.28,2.28,0,0,0,2.24,1.9h7.15a2.28,2.28,0,0,0,2.24-1.9H26.3A2.14,2.14,0,0,0,28.42,21l.53-4A2.47,2.47,0,0,0,27,14.32Zm-7.17,8.21a.28.28,0,0,1-.28.24H12.4a.28.28,0,0,1-.28-.24l-.22-1.66-.37-2.79a.65.65,0,0,1,.51-.71l.62-.12c.79-.15,1.48-.27,2.05-.35A9.69,9.69,0,0,1,16,16.76a9.69,9.69,0,0,1,1.29.14c.57.08,1.26.2,2.05.35l.57.12a.64.64,0,0,1,.51.71l-.37,2.79ZM5.7,20.87a.14.14,0,0,1-.14-.12l-.53-4a.46.46,0,0,1,.36-.51,24.21,24.21,0,0,1,3.46-.53,12.4,12.4,0,0,1,1.68.2,2.62,2.62,0,0,0-1,2.4l.34,2.52Zm20.74-.12a.14.14,0,0,1-.14.12H22.07l.33-2.52a2.64,2.64,0,0,0-1-2.4,12.87,12.87,0,0,1,1.71-.2,24.21,24.21,0,0,1,3.46.53.46.46,0,0,1,.36.51Z"/><path class="cls-1" d="M23.15,13.67a3.22,3.22,0,1,0-3.23-3.22A3.22,3.22,0,0,0,23.15,13.67Zm0-4.44a1.22,1.22,0,1,1-1.23,1.22A1.22,1.22,0,0,1,23.15,9.23Z"/><path class="cls-1" d="M8.85,13.67a3.22,3.22,0,1,0-3.22-3.22A3.23,3.23,0,0,0,8.85,13.67Zm0-4.44a1.22,1.22,0,1,1-1.22,1.22A1.23,1.23,0,0,1,8.85,9.23Z"/></svg>