<svg id="Layer_1" data-name="Layer 1" xmlns="http://www.w3.org/2000/svg" viewBox="0 0 32 32"><defs><style>.cls-1{fill:#747987;}</style></defs><title>Money Saving</title><path class="cls-1" d="M14.72,11.71a.52.52,0,0,0,0,1h.76V13a.52.52,0,0,0,1,0v-.27h.41a.86.86,0,0,0,.86-.87v-.59a.86.86,0,0,0-.86-.87H15.24v-.25h1.9a.52.52,0,0,0,0-1h-.62V8.86a.52.52,0,0,0-1,0v.27h-.41a.86.86,0,0,0-.86.87v.59a.86.86,0,0,0,.86.87h1.69v.25Z"/><path class="cls-1" d="M21.66,11.89a7.36,7.36,0,0,0,.06-.81,5.72,5.72,0,1,0-11.44,0,7.36,7.36,0,0,0,.06.81c-4,1.28-6.63,3.88-6.63,7,0,4.37,5.4,7.8,12.29,7.8s12.29-3.43,12.29-7.8C28.29,15.77,25.63,13.17,21.66,11.89ZM16,7.36a3.73,3.73,0,0,1,3.72,3.72c0,.1,0,.2,0,.3A3.66,3.66,0,0,1,19,13.29a3.68,3.68,0,0,1-5.94,0,3.66,3.66,0,0,1-.72-1.91c0-.1,0-.2,0-.3A3.73,3.73,0,0,1,16,7.36Zm0,17.28c-5.58,0-10.29-2.66-10.29-5.8,0-2.13,2.15-4,5.26-5a5.75,5.75,0,0,0,2.65,2.46H10.48a1,1,0,0,0-1,1v3.14a1,1,0,0,0,1,1h11a1,1,0,0,0,1-1V17.27a1,1,0,0,0-1-1H18.38A5.75,5.75,0,0,0,21,13.81c3.11,1,5.26,2.9,5.26,5C26.29,22,21.58,24.64,16,24.64Zm4.52-6.37v1.14h-9V18.27Z"/></svg>