<svg id="Layer_1" data-name="Layer 1" xmlns="http://www.w3.org/2000/svg" viewBox="0 0 32 32"><defs><style>.cls-1{fill:#747987;}</style></defs><title>New File</title><path class="cls-1" d="M7.64,10.76h4.09a1,1,0,0,0,0-2H7.64a1,1,0,1,0,0,2Z"/><path class="cls-1" d="M12.76,12.55H7.64a1,1,0,0,0,0,2h5.12a1,1,0,1,0,0-2Z"/><path class="cls-1" d="M22.4,14.87V12.62h0a1,1,0,0,0-.2-.6L16.55,4.36l0-.05a1.15,1.15,0,0,0-.33-.26.87.87,0,0,0-.39-.1H4.25a1,1,0,0,0-1,1V25.06a1,1,0,0,0,1,1H17.43a6.59,6.59,0,1,0,5-11.19ZM16.74,8l2.68,3.64H16.74Zm.16,8.36H7.64a1,1,0,0,0,0,2h8.69a7,7,0,0,0-.65,1.79h-8a1,1,0,0,0,0,2h8a6.24,6.24,0,0,0,.5,1.93H5.25V5.94h9.49v6.68a1,1,0,0,0,1,1H20.4V15.1a6.52,6.52,0,0,0-2.78,1.57A1,1,0,0,0,16.9,16.34Zm5.25,9.72c-.17,0-.33,0-.49,0a4.61,4.61,0,0,1-3.29-2,4.49,4.49,0,0,1-.78-2.21c0-.13,0-.26,0-.39a5,5,0,0,1,.1-1,4.61,4.61,0,0,1,2.75-3.29,4.45,4.45,0,0,1,1.75-.36,2.13,2.13,0,0,1,.25,0,4.59,4.59,0,0,1-.25,9.18Z"/><path class="cls-1" d="M23.4,20.43V18.94a1,1,0,0,0-2,0v1.49H19.9a1,1,0,0,0,0,2h1.5v1.49a1,1,0,0,0,2,0V22.43h1.49a1,1,0,0,0,0-2Z"/></svg>