<svg id="Layer_1" data-name="Layer 1" xmlns="http://www.w3.org/2000/svg" viewBox="0 0 32 32"><defs><style>.cls-1{fill:#747987;}</style></defs><title>New Product</title><path class="cls-1" d="M24.2,8.43H20.74V8.12a4.74,4.74,0,1,0-9.48,0v.31H7.8a1,1,0,0,0-1,.93L5.74,25a3.29,3.29,0,0,0,.91,2.5,4.13,4.13,0,0,0,3,1.25H22.36a4.13,4.13,0,0,0,3-1.25,3.29,3.29,0,0,0,.91-2.5L25.2,9.36A1,1,0,0,0,24.2,8.43ZM13.26,8.12a2.74,2.74,0,1,1,5.48,0v.31H13.26Zm-2,2.31v1.11a1,1,0,0,0,2,0V10.43h5.48v1.11a1,1,0,0,0,2,0V10.43h2.53l.8,11.84H7.93l.8-11.84Zm12.63,15.7a2.07,2.07,0,0,1-1.53.62H9.64a2.07,2.07,0,0,1-1.53-.62,1.31,1.31,0,0,1-.38-1l.06-.87H24.21l.06.87A1.31,1.31,0,0,1,23.89,26.13Z"/><path class="cls-1" d="M13.46,18.37H15V19.9a1,1,0,0,0,2,0V18.37h1.54a1,1,0,0,0,0-2H17V14.83a1,1,0,1,0-2,0v1.54H13.46a1,1,0,0,0,0,2Z"/></svg>