<svg id="Layer_1" data-name="Layer 1" xmlns="http://www.w3.org/2000/svg" viewBox="0 0 32 32"><defs><style>.cls-1{fill:#747987;}</style></defs><title>News</title><path class="cls-1" d="M27.78,4.79H10a1,1,0,0,0-1,1V7.25H4.22a1,1,0,0,0-1,1V23.79a3.42,3.42,0,0,0,3.42,3.42H24.39a4.16,4.16,0,0,0,4.39-3.87V5.79A1,1,0,0,0,27.78,4.79ZM9,23.21v.58a1.43,1.43,0,0,1-1.43,1.42H6.64a1.43,1.43,0,0,1-1.42-1.42V9.25H9Zm17.82.13a2.18,2.18,0,0,1-2.39,1.87H10.64A3.36,3.36,0,0,0,11,23.79v-17H26.78Z"/><path class="cls-1" d="M13.12,14.53h4.07a1,1,0,0,0,1-1V9.23a1,1,0,0,0-1-1H13.12a1,1,0,0,0-1,1v4.3A1,1,0,0,0,13.12,14.53Zm1-4.3h2.07v2.3H14.12Z"/><path class="cls-1" d="M20.14,10.32h4.43a1,1,0,0,0,0-2H20.14a1,1,0,0,0,0,2Z"/><path class="cls-1" d="M20.14,14.53h4.43a1,1,0,0,0,0-2H20.14a1,1,0,0,0,0,2Z"/><path class="cls-1" d="M13.11,18.77H24.57a1,1,0,0,0,0-2H13.11a1,1,0,0,0,0,2Z"/><path class="cls-1" d="M13.11,23.1H24.57a1,1,0,0,0,0-2H13.11a1,1,0,0,0,0,2Z"/></svg>