<svg id="Layer_1" data-name="Layer 1" xmlns="http://www.w3.org/2000/svg" viewBox="0 0 32 32"><defs><style>.cls-1{fill:#747987;}</style></defs><title>Partnership</title><path class="cls-1" d="M21.13,4.6a1,1,0,0,0-1.41.09l-2.39,2.7a1,1,0,0,0,.05,1.37l.2.2h0a1,1,0,0,0-.52.32l-.73.84L14.9,8.83l-.47-1.77a1,1,0,0,0-.29-.47l-1.8-1.67a1,1,0,0,0-.73-.26,1,1,0,0,0-.7.34L4.29,12.48a2.64,2.64,0,0,0,.19,3.66L7,18.47l-.29.39a.82.82,0,0,0-.12.25h0a2.26,2.26,0,0,0,1.33,3.56h0a2.28,2.28,0,0,0,.89,1.49,2.31,2.31,0,0,0,1.26.44,2.15,2.15,0,0,0,.79,1.09,2.26,2.26,0,0,0,1.35.45,2.23,2.23,0,0,0,2.13,1.51,1.94,1.94,0,0,0,.34,0,2.3,2.3,0,0,0,1.44-.84l.07.06.06.05h0l.17.15a2.32,2.32,0,0,0,3.26-.26,2.25,2.25,0,0,0,.54-1.27,2.33,2.33,0,0,0,1.17-.72,2.25,2.25,0,0,0,.54-1.27,2.33,2.33,0,0,0,1.17-.73,2.26,2.26,0,0,0,.54-1.27,2.35,2.35,0,0,0,1.17-.73,2.31,2.31,0,0,0-.25-3.26l-.17-.15h0l-.18-.16.79-.93a2.61,2.61,0,0,0,.36-.57h0a1,1,0,0,0,.72-.3l1.61-1.64a2.37,2.37,0,0,0,.67-1.73,2.32,2.32,0,0,0-.78-1.67Zm-12.51,16a.28.28,0,0,1-.38.06.27.27,0,0,1-.05-.38,1.28,1.28,0,0,0,.11-.24h0l.48.42A1.22,1.22,0,0,0,8.62,20.63Zm-.71-6.14a3.75,3.75,0,0,0-.81,1.35L5.84,14.67a.61.61,0,0,1,0-.86l5.94-6.72.84.77L12.9,9.1Zm2.58,7.91a1.2,1.2,0,0,0-.12.11.22.22,0,0,1-.17.1.23.23,0,0,1-.2-.05.24.24,0,0,1-.11-.17.23.23,0,0,1,0-.2.42.42,0,0,0,0-.1.83.83,0,0,0,.21-.16l.12-.14.41.35ZM12.44,24l0,0a.27.27,0,0,1-.38.06.33.33,0,0,1-.11-.18.35.35,0,0,1,0-.18l.26-.29.41.35Zm2.11,1.53a.24.24,0,0,1-.17.11.25.25,0,0,1-.21-.05.27.27,0,0,1-.05-.38.3.3,0,0,0,0-.1l.44.38A.1.1,0,0,1,14.55,25.55Zm8.73-6a.32.32,0,0,1-.44,0L21.38,18.3a1,1,0,1,0-1.3,1.52l1.46,1.24a.38.38,0,0,1,.11.22.32.32,0,0,1-.08.23.33.33,0,0,1-.21.11.32.32,0,0,1-.23-.08L19.67,20.3a1,1,0,0,0-1.3,1.52l1.46,1.24a.32.32,0,0,1-.41.48L18,22.29a1,1,0,1,0-1.3,1.52l1.46,1.25a.32.32,0,0,1-.41.48l-.17-.14h0l-8-6.94a1.61,1.61,0,0,1-.32-.37.72.72,0,0,0-.15-.27s0,0,0-.05,0,0,0-.05a1.93,1.93,0,0,1-.12-.54,1.77,1.77,0,0,1,.48-1.33l4.7-5.07.94.84-1.87,2.14a2.16,2.16,0,0,0,1.47,3.57l1.25.1a1,1,0,0,0,.81-.33l1.83-2,4.59,3.85h0l.16.14A.31.31,0,0,1,23.28,19.51Zm.18-4.5-.79.93-.74-.64s-.09,0-.14-.07l-2.74-2.31a1.29,1.29,0,0,0-.16-.09,1.4,1.4,0,0,0-.17-.09,1.25,1.25,0,0,0-.19,0l-.19,0-.18.05a.67.67,0,0,0-.19,0,1,1,0,0,0-.16.12.76.76,0,0,0-.14.11L15.52,15.4l-.76-.06a.15.15,0,0,1-.14-.1.15.15,0,0,1,0-.17l3.7-4.24.82-.2,4.23,3.59a.54.54,0,0,1,.19.38A.55.55,0,0,1,23.46,15Zm2.8-2.61-1,1a2.66,2.66,0,0,0-.58-.72L20.9,9.47s0,0,0-.06L19.45,8l1.1-1.24,5.69,5.11a.35.35,0,0,1,.12.26A.39.39,0,0,1,26.26,12.4Z"/></svg>