<svg id="Layer_1" data-name="Layer 1" xmlns="http://www.w3.org/2000/svg" viewBox="0 0 32 32"><defs><style>.cls-1{fill:#747987;}</style></defs><title>Payment</title><path class="cls-1" d="M25.78,7.24H6.22a3,3,0,0,0-2.95,2.95V21.81a3,3,0,0,0,2.95,3H25.78a3,3,0,0,0,2.95-3V10.19A3,3,0,0,0,25.78,7.24ZM5.27,12.68h7.11a4.84,4.84,0,0,0,0,6.64H5.27Zm21.46,9.13a1,1,0,0,1-.95,1H6.22a1,1,0,0,1-1-1v-.49H26.73ZM13.06,16A2.94,2.94,0,1,1,16,18.94,2.94,2.94,0,0,1,13.06,16Zm13.67,3.32H19.62a4.84,4.84,0,0,0,0-6.64h7.11Zm0-8.64H5.27v-.49a1,1,0,0,1,1-.95H25.78a1,1,0,0,1,.95.95Z"/><path class="cls-1" d="M16.48,17.92v-.25h.38a.8.8,0,0,0,.8-.8v-.55a.8.8,0,0,0-.8-.8H15.3v-.23h1.75a.48.48,0,0,0,.48-.48.47.47,0,0,0-.48-.48h-.57v-.25a.48.48,0,0,0-1,0v.25h-.38a.8.8,0,0,0-.8.8v.55a.8.8,0,0,0,.8.8H16.7v.23H14.82a.49.49,0,0,0-.48.48.48.48,0,0,0,.48.48h.7v.25a.48.48,0,0,0,1,0Z"/></svg>