<svg id="Layer_1" data-name="Layer 1" xmlns="http://www.w3.org/2000/svg" viewBox="0 0 32 32"><defs><style>.cls-1{fill:#747987;}</style></defs><title>People Focus</title><path class="cls-1" d="M15.5,14.22A5.59,5.59,0,0,0,9.92,19.8v2.06a1,1,0,0,0,1,1H21.08a1,1,0,0,0,1-1V19.8a5.59,5.59,0,0,0-5.58-5.58Zm4.58,5.58v1.06H11.92V19.8a3.59,3.59,0,0,1,3.58-3.58h1A3.59,3.59,0,0,1,20.08,19.8Z"/><path class="cls-1" d="M16,14a3,3,0,1,0-3-3A3,3,0,0,0,16,14Zm0-4a1,1,0,1,1-1,1A1,1,0,0,1,16,10Z"/><path class="cls-1" d="M5.26,11.16a1,1,0,0,0,1-1V5.42a.17.17,0,0,1,.17-.17h4.74a1,1,0,0,0,0-2H6.43A2.17,2.17,0,0,0,4.26,5.42v4.74A1,1,0,0,0,5.26,11.16Z"/><path class="cls-1" d="M25.57,3.25H20.83a1,1,0,0,0,0,2h4.74a.17.17,0,0,1,.17.17v4.74a1,1,0,0,0,2,0V5.42A2.17,2.17,0,0,0,25.57,3.25Z"/><path class="cls-1" d="M26.74,20.84a1,1,0,0,0-1,1v4.74a.17.17,0,0,1-.17.17H20.83a1,1,0,0,0,0,2h4.74a2.17,2.17,0,0,0,2.17-2.17V21.84A1,1,0,0,0,26.74,20.84Z"/><path class="cls-1" d="M11.17,26.75H6.43a.17.17,0,0,1-.17-.17V21.84a1,1,0,0,0-2,0v4.74a2.17,2.17,0,0,0,2.17,2.17h4.74a1,1,0,1,0,0-2Z"/></svg>