<svg id="Layer_1" data-name="Layer 1" xmlns="http://www.w3.org/2000/svg" viewBox="0 0 32 32"><defs><style>.cls-1{fill:#747987;}</style></defs><title>Portfolio</title><path class="cls-1" d="M26,9.48H19.84V8.29a2.1,2.1,0,0,0-2.1-2.1H14.26a2.1,2.1,0,0,0-2.1,2.1V9.48H6a2.1,2.1,0,0,0-2.1,2.09V23.71A2.1,2.1,0,0,0,6,25.81H26a2.1,2.1,0,0,0,2.1-2.1V11.57A2.1,2.1,0,0,0,26,9.48ZM14.16,8.29a.11.11,0,0,1,.1-.1h3.48a.11.11,0,0,1,.1.1V9.48H14.16Zm11.9,15.42a.1.1,0,0,1-.1.1H6a.1.1,0,0,1-.1-.1V15.78l2.56,2a4,4,0,0,0,2.47.86H13.7a1,1,0,0,0,1,.91h2.62a1,1,0,0,0,1-.91H21a4,4,0,0,0,2.47-.86l2.56-2Zm0-10.48-3.8,3a2,2,0,0,1-1.23.43H18.3a1,1,0,0,0-1-.92H14.69a1,1,0,0,0-1,.92H11a2,2,0,0,1-1.23-.43l-3.8-3V11.57a.1.1,0,0,1,.1-.09H26a.1.1,0,0,1,.1.09Z"/></svg>