<svg id="Layer_1" data-name="Layer 1" xmlns="http://www.w3.org/2000/svg" viewBox="0 0 32 32"><defs><style>.cls-1{fill:#747987;}</style></defs><title>Premium</title><path class="cls-1" d="M13,13.21l-.37,2.14a1,1,0,0,0,.4,1,1,1,0,0,0,1.05.07l1.92-1,1.92,1a1,1,0,0,0,.47.12,1,1,0,0,0,.58-.19,1,1,0,0,0,.4-1L19,13.21l1.55-1.51a1,1,0,0,0,.25-1A1,1,0,0,0,20,10l-2.14-.31-1-1.94a1,1,0,0,0-1.79,0l-1,1.94L12,10a1,1,0,0,0-.55,1.71Zm2-1.62a1,1,0,0,0,.75-.55l.29-.6.3.6a1,1,0,0,0,.75.55l.66.09-.48.47A1,1,0,0,0,17,13l.11.66-.59-.31a1,1,0,0,0-.47-.11.92.92,0,0,0-.46.11l-.59.31.11-.66a1,1,0,0,0-.29-.88l-.48-.47Z"/><path class="cls-1" d="M22.36,17.77l2.32-5.47a1,1,0,0,0,0-.77L22.47,6a1,1,0,0,0-.54-.54L16.47,3.15a1,1,0,0,0-.77,0L10.19,5.36a1,1,0,0,0-.55.54L7.32,11.37a1,1,0,0,0,0,.76l2.22,5.51a1,1,0,0,0,.54.55l.7.3L7.92,25.84a1,1,0,0,0,.17,1,1,1,0,0,0,1,.33l2.17-.47,1.29,1.8a1,1,0,0,0,.81.42h.13a1,1,0,0,0,.81-.63L16,23.81l1.73,4.48a1,1,0,0,0,.81.63h.13a1,1,0,0,0,.81-.42l1.29-1.8,2.17.47a1,1,0,0,0,1.14-1.34l-2.83-7.31.56-.23A1,1,0,0,0,22.36,17.77Zm-13-6,2-4.71,4.74-1.91,4.71,2,1.91,4.75-2,4.7-4.74,1.91-4.71-2Zm3.75,14.08-.6-.83a1,1,0,0,0-.81-.42l-.21,0-1,.21,2-5.1,2.61,1Zm7.48-1.23a1,1,0,0,0-1,.4l-.6.83-1.77-4.6-.1-.17.17-.45,2.34-.9,2,5.1Z"/></svg>