<svg id="Layer_1" data-name="Layer 1" xmlns="http://www.w3.org/2000/svg" viewBox="0 0 32 32"><defs><style>.cls-1{fill:#747987;}</style></defs><title>Product Launch</title><path class="cls-1" d="M25.19,19.79l-1.88-1.22,1.74-1.82a1,1,0,0,0-.25-1.57l-1.92-1a1,1,0,0,0-.94,1.77l.75.4L21.56,17.5l-1.92-1.1a1,1,0,0,0-1.36.37,1,1,0,0,0,.37,1.37l.71.4L16,19.75l-3.36-1.21.71-.4a1,1,0,0,0,.37-1.37,1,1,0,0,0-1.36-.37l-1.93,1.1L9.29,16.33l.77-.41a1,1,0,0,0-.94-1.77l-1.94,1a1,1,0,0,0-.52.73,1,1,0,0,0,.27.85l1.76,1.8L6.81,19.79A1,1,0,0,0,7,21.55L9,22.44a1.55,1.55,0,0,0,0,.21v2.86a1,1,0,0,0,.58.91l6,2.77h.05a.9.9,0,0,0,.74,0h.05l6-2.77a1,1,0,0,0,.58-.91V22.65a1.55,1.55,0,0,0,0-.21l2.06-.89a1,1,0,0,0,.14-1.76Zm-3.57.07.92.59-3.3,1.43-1.09-.77Zm-12.16.59.92-.59,3.47,1.25-1.09.77ZM11,23.29l1.51.65a.92.92,0,0,0,.4.08,1,1,0,0,0,.58-.18L15,22.75v4l-4-1.85ZM21,24.87l-4,1.85v-4l1.54,1.09a1,1,0,0,0,.58.18.92.92,0,0,0,.4-.08L21,23.29Z"/><circle class="cls-1" cx="16" cy="8.45" r="0.93"/><path class="cls-1" d="M11.5,15.69a.69.69,0,0,0,.55.49h.11a.7.7,0,0,0,.57-.3s.34-.49.91-1.22c.09.16.17.32.28.48a.66.66,0,0,0,.57.31h3a.71.71,0,0,0,.58-.31c.1-.16.18-.32.27-.48.57.73.91,1.21.91,1.22a.7.7,0,0,0,.57.3H20a.69.69,0,0,0,.55-.49L21.29,13a.68.68,0,0,0-.09-.59L19.39,9.84a11.16,11.16,0,0,0-2.91-5.92.69.69,0,0,0-1,0,12,12,0,0,0-2.84,5.89L10.81,12.4a.68.68,0,0,0-.1.6ZM19.57,14l-.56-.7a8.3,8.3,0,0,0,.31-1.13l.55.79ZM16,5.47c1.07,1.33,3.34,4.85,1.12,8.61H14.87C12.67,10.43,14.94,6.84,16,5.47Zm-3.32,6.68a7,7,0,0,0,.3,1.13c-.21.25-.4.48-.56.69l-.3-1Z"/><path class="cls-1" d="M15,16.82v1.56a1,1,0,1,0,2,0V16.82a1,1,0,0,0-2,0Z"/></svg>