<svg id="Layer_1" data-name="Layer 1" xmlns="http://www.w3.org/2000/svg" viewBox="0 0 32 32"><defs><style>.cls-1{fill:#747987;}</style></defs><title>Promotion</title><path class="cls-1" d="M27.65,12.21a2.92,2.92,0,0,0-1.21-1.85,2.86,2.86,0,0,0-2.13-.46l-1-5.21a1.71,1.71,0,0,0-3.13-.61L18.13,7.31a8,8,0,0,1-5.23,3.52l-2.61.49-3.8.7a2.85,2.85,0,0,0-2.27,3.32L5,19.73a2.85,2.85,0,0,0,2.79,2.32l.28,0,3,5.91a1.31,1.31,0,0,0,1.17.75l.24,0,2.7-.5a1.31,1.31,0,0,0,.91-.68,1.29,1.29,0,0,0,0-1.15l-2.32-4.66a1,1,0,0,0-.82-.54l2.35-.43a7.91,7.91,0,0,1,5.41.92L24,23.48a1.67,1.67,0,0,0,.86.24,1.74,1.74,0,0,0,1-.32,1.71,1.71,0,0,0,.69-1.72l-1.07-5.76a2.88,2.88,0,0,0,2.28-3.35ZM8.86,19.87,8,20a.85.85,0,0,1-.63-.14A.84.84,0,0,1,7,19.36L6.18,15a.84.84,0,0,1,.14-.63A.86.86,0,0,1,6.86,14l2.81-.52,1.13,6-1.94.36Zm5,6.5-1.24.23-2.49-4.93,2-.37.29-.06A1,1,0,0,0,12,22.57Zm7.84-6.47a9.89,9.89,0,0,0-5-1.33,10.1,10.1,0,0,0-1.82.17l-2.19.41-1.12-6,1.62-.3a10,10,0,0,0,6.56-4.41L21.5,5.77l1.12,6h0l.56,3h0l1.23,6.64ZM25.06,14,24.89,13l-.22-1.16a.86.86,0,0,1,.64.14.87.87,0,0,1,.37.57l.07.35A.9.9,0,0,1,25.06,14Z"/></svg>