<svg id="Layer_1" data-name="Layer 1" xmlns="http://www.w3.org/2000/svg" viewBox="0 0 32 32"><defs><style>.cls-1{fill:#747987;}</style></defs><title>Search</title><path class="cls-1" d="M17.83,12.08A1,1,0,0,0,18.69,11,5.09,5.09,0,0,0,13,6.58a1,1,0,0,0,.27,2,3.08,3.08,0,0,1,3.46,2.65,1,1,0,0,0,1,.87Z"/><path class="cls-1" d="M22.2,19.94a1,1,0,0,0-1.4-.2L19.52,18a8.94,8.94,0,1,0-1.63,1.16L19.2,21l-.23.17a1,1,0,0,0-.2,1.4l4.51,6a1,1,0,0,0,.8.4,1,1,0,0,0,.6-.2l1.83-1.38a1,1,0,0,0,.39-.66,1,1,0,0,0-.19-.74ZM12.66,18.2A6.59,6.59,0,1,1,17.57,17,6.56,6.56,0,0,1,12.66,18.2Z"/></svg>