<svg id="Layer_1" data-name="Layer 1" xmlns="http://www.w3.org/2000/svg" viewBox="0 0 32 32"><defs><style>.cls-1{fill:#747987;}</style></defs><title>Services</title><path class="cls-1" d="M20.09,8.77A1.93,1.93,0,1,0,22,10.69,1.93,1.93,0,0,0,20.09,8.77Zm0,2.35a.43.43,0,1,1,.42-.43A.42.42,0,0,1,20.09,11.12Z"/><path class="cls-1" d="M26,9.1l-1.59-.2,1-1.26a.75.75,0,0,0-.07-1l-1.2-1.21a.75.75,0,0,0-1-.06l-1.27,1L21.7,4.77A.76.76,0,0,0,21,4.11H19.24a.75.75,0,0,0-.74.66l-.2,1.58L17,5.37a.75.75,0,0,0-1,.06L14.84,6.64a.74.74,0,0,0-.06,1l1,1.26-1.59.2a.74.74,0,0,0-.65.74v1.71a.74.74,0,0,0,.65.74l1.59.2-1,1.27a.75.75,0,0,0,.07,1L16,16a.79.79,0,0,0,.53.22A.76.76,0,0,0,17,16l1.26-1,.2,1.59a.76.76,0,0,0,.75.66h1.7a.76.76,0,0,0,.75-.66l.2-1.58,1.26,1a.74.74,0,0,0,.46.16.75.75,0,0,0,.53-.22l1.21-1.21a.75.75,0,0,0,.06-1l-1-1.26L26,12.3a.75.75,0,0,0,.66-.74V9.85A.76.76,0,0,0,26,9.1Zm-.85,1.8-1.8.22a.74.74,0,0,0-.64.67.74.74,0,0,0,0,.93l1.11,1.44-.27.27-1.43-1.12a.77.77,0,0,0-.93,0,.75.75,0,0,0-.68.64l-.23,1.81h-.38L19.66,14a.71.71,0,0,0-.66-.63.74.74,0,0,0-.94,0l-1.43,1.12-.28-.27,1.12-1.44a.74.74,0,0,0,0-.92.74.74,0,0,0-.64-.68L15,10.88v-.39l1.8-.22a.75.75,0,0,0,.64-.67.74.74,0,0,0,0-.93L16.37,7.23,16.64,7l1.43,1.11a.74.74,0,0,0,.93,0,.74.74,0,0,0,.68-.63l.23-1.81h.38l.23,1.81a.74.74,0,0,0,.67.64.74.74,0,0,0,.93,0L23.55,7l.27.27L22.71,8.68a.74.74,0,0,0,0,.92.74.74,0,0,0,.64.68l1.8.23Z"/><path class="cls-1" d="M24.89,18.13a2.39,2.39,0,0,0-2.11-.4l-.13.05-6,2.7a2.86,2.86,0,0,0,.22-1.08,2.81,2.81,0,0,0-1.6-2.53l-4.31-2a2.08,2.08,0,0,0-1.28-.15l-2.58.52v-.36a1,1,0,0,0-2,0v10.8a1,1,0,0,0,2,0v-.33L14,27.89a3.87,3.87,0,0,0,3.71-.54L24.89,22a2.42,2.42,0,0,0,1-1.92A2.39,2.39,0,0,0,24.89,18.13Zm-1.2,2.24-7.17,5.38a1.87,1.87,0,0,1-1.81.27L7.08,23.18V17.25l3-.6,4.31,2a.8.8,0,0,1,.45.72.79.79,0,0,1-.33.64.78.78,0,0,1-.72.1l-2.05-.72a1,1,0,1,0-.67,1.88l4.44,1.57a1,1,0,0,0,.74,0l7.12-3.19a.39.39,0,0,1,.31.07.41.41,0,0,1,.16.33A.4.4,0,0,1,23.69,20.37Z"/></svg>