<svg id="Layer_1" data-name="Layer 1" xmlns="http://www.w3.org/2000/svg" viewBox="0 0 32 32"><defs><style>.cls-1{fill:#747987;}</style></defs><title>Solution</title><path class="cls-1" d="M16,7.51a1,1,0,0,0,1-1V4.39a1,1,0,0,0-2,0V6.51A1,1,0,0,0,16,7.51Z"/><path class="cls-1" d="M10.1,9.36a1,1,0,0,0,.71.3A1,1,0,0,0,11.52,8L10,6.45A1,1,0,0,0,8.61,7.87Z"/><path class="cls-1" d="M8.66,13.84a1,1,0,0,0-1-1H5.55a1,1,0,0,0,0,2H7.66A1,1,0,0,0,8.66,13.84Z"/><path class="cls-1" d="M8.1,19.32l-1.49,1.5a1,1,0,0,0,.71,1.71,1,1,0,0,0,.71-.3l1.49-1.49A1,1,0,0,0,8.1,19.32Z"/><path class="cls-1" d="M23.9,19.32a1,1,0,0,0-1.42,1.42L24,22.23a1,1,0,0,0,.71.3,1,1,0,0,0,.71-1.71Z"/><path class="cls-1" d="M26.45,12.84H24.34a1,1,0,0,0,0,2h2.11a1,1,0,0,0,0-2Z"/><path class="cls-1" d="M21.19,9.66a1,1,0,0,0,.71-.3l1.49-1.49A1,1,0,1,0,22,6.45L20.48,8a1,1,0,0,0,.71,1.71Z"/><path class="cls-1" d="M17.19,13.48l-1.62,2.37L14.65,15a1,1,0,0,0-1.34,1.49l1.77,1.59a1,1,0,0,0,.67.25h.12a1,1,0,0,0,.71-.43l2.26-3.31a1,1,0,0,0-1.65-1.13Z"/><path class="cls-1" d="M20,21.15a6.8,6.8,0,1,0-8,0,1.94,1.94,0,0,1,.8,1.56V23a1,1,0,0,0,0,2v.57a3.12,3.12,0,0,0,3.11,3.11h.18A3.12,3.12,0,0,0,19.2,25.5v-.57a1,1,0,0,0,0-2v-.22A2,2,0,0,1,20,21.15ZM17.2,25.5a1.11,1.11,0,0,1-1.11,1.11h-.18A1.11,1.11,0,0,1,14.8,25.5V25h2.4Zm1.65-6a4,4,0,0,0-1.65,3.21V23H14.8v-.21a3.94,3.94,0,0,0-1.62-3.18A4.8,4.8,0,0,1,16,10.87a5.24,5.24,0,0,1,1,.1,4.81,4.81,0,0,1,1.8,8.57Z"/></svg>