<svg id="Layer_1" data-name="Layer 1" xmlns="http://www.w3.org/2000/svg" viewBox="0 0 32 32"><defs><style>.cls-1{fill:#747987;}</style></defs><title>StartUp</title><path class="cls-1" d="M27.64,3.4a22.27,22.27,0,0,0-8.79,1.76.93.93,0,0,0-.54.23,19.63,19.63,0,0,0-6.46,4.69A9.14,9.14,0,0,0,3.56,14a1,1,0,0,0,1.19,1.47A3.08,3.08,0,0,1,8.14,16l-.14.3a1,1,0,0,0,.08.91,1,1,0,0,0,.78.47A5.86,5.86,0,0,1,11.7,18.9l-.45.45a2.6,2.6,0,0,0-1.86-.27,2.63,2.63,0,0,0-1.91,1.69L6.09,24.64a1,1,0,0,0,.24,1.05A1,1,0,0,0,7,26a1,1,0,0,0,.34-.06l3.88-1.39a2.62,2.62,0,0,0,1.69-1.91,2.66,2.66,0,0,0-.27-1.86l.39-.39a8.93,8.93,0,0,1,1.32,2.94,1,1,0,0,0,1,.75,1.09,1.09,0,0,0,.39-.08l.3-.13a3,3,0,0,1,.5,3.42,1,1,0,0,0,.32,1.12,1,1,0,0,0,.62.22,1,1,0,0,0,.54-.15,9.11,9.11,0,0,0,3.92-8.35,19.62,19.62,0,0,0,4.71-6.55.91.91,0,0,0,.15-.35,21.94,21.94,0,0,0,1.79-8.87A1,1,0,0,0,27.64,3.4ZM11,22.18a.65.65,0,0,1-.41.47l-1.89.68.68-1.89A.62.62,0,0,1,9.83,21L10,21a.63.63,0,0,1,.45.19l.38.39A.63.63,0,0,1,11,22.18ZM9,14.11a4.85,4.85,0,0,0-2-.83,6.92,6.92,0,0,1,3.22-1.21A20.12,20.12,0,0,0,9,14.11ZM18.73,25a4.86,4.86,0,0,0-.85-2A20.94,20.94,0,0,0,20,21.67,6.77,6.77,0,0,1,18.73,25ZM16,21.69a8.79,8.79,0,0,0-5.63-5.76,17.76,17.76,0,0,1,8.41-8.59l5.86,5.86A17.8,17.8,0,0,1,16,21.69ZM25.44,11.2,20.75,6.51a20.23,20.23,0,0,1,5.83-1.12A20.74,20.74,0,0,1,25.44,11.2Z"/><path class="cls-1" d="M17.22,14.8a2.73,2.73,0,0,0,3.82,0h0A2.71,2.71,0,0,0,21,11a2.77,2.77,0,0,0-3.82,0A2.71,2.71,0,0,0,17.22,14.8Zm1.42-2.41a.7.7,0,0,1,1,0,.7.7,0,1,1-1,0Z"/></svg>