<svg id="Layer_1" data-name="Layer 1" xmlns="http://www.w3.org/2000/svg" viewBox="0 0 32 32"><defs><style>.cls-1{fill:#747987;}</style></defs><title>Stock</title><path class="cls-1" d="M17.64,7.29H14.36a1,1,0,0,0,0,2h3.28a1,1,0,1,0,0-2Z"/><path class="cls-1" d="M27.23,15H22.61V4.77a1,1,0,0,0-1-1H10.39a1,1,0,0,0-1,1V15H4.77a1,1,0,0,0-1,1V27.23a1,1,0,0,0,1,1H27.23a1,1,0,0,0,1-1V16A1,1,0,0,0,27.23,15ZM15,26.23H5.77V17H15ZM11.39,15V5.77h9.22V15H11.39ZM26.23,26.23H17V17h9.23Z"/><path class="cls-1" d="M19,19.52a1,1,0,0,0,1,1h3.29a1,1,0,0,0,0-2H20A1,1,0,0,0,19,19.52Z"/><path class="cls-1" d="M7.74,19.52a1,1,0,0,0,1,1H12a1,1,0,0,0,0-2H8.74A1,1,0,0,0,7.74,19.52Z"/></svg>