<svg id="Layer_1" data-name="Layer 1" xmlns="http://www.w3.org/2000/svg" viewBox="0 0 32 32"><defs><style>.cls-1{fill:#747987;}</style></defs><title>Target</title><path class="cls-1" d="M26.63,6.21l-1.5.48.31-1.49a1,1,0,1,0-2-.4l-.59,2.84-.83.84a10.86,10.86,0,0,0-7-2.56,11,11,0,1,0,8.43,4l.85-.85,2.91-.93a1,1,0,0,0-.6-1.91ZM24,17a9,9,0,1,1-9-9,8.87,8.87,0,0,1,5.6,2L19,11.58A6.57,6.57,0,0,0,15,10.27,6.71,6.71,0,1,0,20.39,13l1.66-1.67A9,9,0,0,1,24,17Zm-9.68.71A1,1,0,0,0,15,18a1,1,0,0,0,.71-.3L19,14.44A4.64,4.64,0,1,1,15,12.27a4.6,4.6,0,0,1,2.51.75l-3.22,3.23A1,1,0,0,0,14.34,17.67Z"/></svg>