<svg id="Layer_1" data-name="Layer 1" xmlns="http://www.w3.org/2000/svg" viewBox="0 0 32 32"><defs><style>.cls-1{fill:#747987;}</style></defs><title>Task</title><path class="cls-1" d="M23.1,6.63H18.62a2.86,2.86,0,0,0,.11-.73,2.73,2.73,0,0,0-5.46,0,2.86,2.86,0,0,0,.11.73H8.9A2.83,2.83,0,0,0,6.07,9.46V26.19A2.83,2.83,0,0,0,8.9,29H23.1a2.83,2.83,0,0,0,2.83-2.83V9.46A2.83,2.83,0,0,0,23.1,6.63ZM15.27,5.9a.73.73,0,1,1,.73.73A.73.73,0,0,1,15.27,5.9Zm3.41,2.73V9.75H13.32V8.63Zm5.25,17.56a.83.83,0,0,1-.83.83H8.9a.83.83,0,0,1-.83-.83V9.46a.83.83,0,0,1,.83-.83h2.42v2.12a1,1,0,0,0,1,1h7.36a1,1,0,0,0,1-1V8.63H23.1a.83.83,0,0,1,.83.83Z"/><path class="cls-1" d="M21.16,14.82H16.67a1,1,0,0,0,0,2h4.49a1,1,0,1,0,0-2Z"/><path class="cls-1" d="M13.33,14.17l-1.5,1.35-.24-.27a1,1,0,0,0-1.41-.09,1,1,0,0,0-.09,1.42l.9,1a1,1,0,0,0,.69.34h.06a1,1,0,0,0,.67-.25l2.26-2a1,1,0,1,0-1.34-1.49Z"/><path class="cls-1" d="M21.16,21.23H16.67a1,1,0,0,0,0,2h4.49a1,1,0,0,0,0-2Z"/><path class="cls-1" d="M13.33,20.24l-1.5,1.35-.24-.26a1,1,0,0,0-1.41-.09,1,1,0,0,0-.09,1.41l.9,1a1,1,0,0,0,.69.33h.06a1,1,0,0,0,.67-.25l2.26-2a1,1,0,0,0,.08-1.41A1,1,0,0,0,13.33,20.24Z"/></svg>