<svg id="Layer_1" data-name="Layer 1" xmlns="http://www.w3.org/2000/svg" viewBox="0 0 32 32"><defs><style>.cls-1{fill:#747987;}</style></defs><title>Think Different</title><path class="cls-1" d="M8.68,8.08H20.12L18.79,9a1,1,0,0,0,.57,1.82,1,1,0,0,0,.57-.17L23.88,7.9,24,7.81l.05,0a1.27,1.27,0,0,0,.18-.27.14.14,0,0,0,0-.06.89.89,0,0,0,.08-.35,1,1,0,0,0-.07-.35l0-.07A1.27,1.27,0,0,0,24,6.39l-.05,0-.11-.1L19.71,3.36A1,1,0,0,0,18.57,5l1.55,1.07H8.68a1,1,0,0,0,0,2Z"/><path class="cls-1" d="M23.32,14.92H11.88L13.21,14a1,1,0,0,0-1.14-1.65l-4,2.74L8,15.19s0,0,0,.05a1.27,1.27,0,0,0-.18.27.14.14,0,0,0,0,.06.89.89,0,0,0-.08.35,1,1,0,0,0,.07.35l0,.07a1.27,1.27,0,0,0,.18.27l0,0,.11.1,4.17,2.89a1,1,0,0,0,.57.17A1,1,0,0,0,13.43,18l-1.55-1.07H23.32a1,1,0,0,0,0-2Z"/><path class="cls-1" d="M24.32,25.08a1,1,0,0,0-.07-.35l0-.07a1.27,1.27,0,0,0-.18-.27l-.05,0-.11-.1-4.17-2.89A1,1,0,0,0,18.57,23l1.55,1.07H8.68a1,1,0,0,0,0,2H20.12L18.79,27a1,1,0,0,0,.57,1.82,1,1,0,0,0,.57-.17l3.95-2.74.11-.09.05,0a1.27,1.27,0,0,0,.18-.27.14.14,0,0,0,0-.06A.89.89,0,0,0,24.32,25.08Z"/></svg>