<svg id="Layer_1" data-name="Layer 1" xmlns="http://www.w3.org/2000/svg" viewBox="0 0 32 32"><defs><style>.cls-1{fill:#747987;}</style></defs><title>Time is Money</title><path class="cls-1" d="M14.59,8.16a1,1,0,0,0-1,1v5.66H10.32a1,1,0,0,0,0,2h4.27a1,1,0,0,0,1-1V9.16A1,1,0,0,0,14.59,8.16Z"/><path class="cls-1" d="M24.46,15.13a10.7,10.7,0,1,0-6.87,10,6.33,6.33,0,1,0,6.87-10ZM13.8,23.83a8.67,8.67,0,1,1,8.65-9,6.34,6.34,0,0,0-6.26,6.33,6.22,6.22,0,0,0,.4,2.2A8.6,8.6,0,0,1,13.8,23.83Zm8.72,1.67a4.32,4.32,0,0,1-3.08-1.3,4.25,4.25,0,0,1-1-1.71,4.17,4.17,0,0,1-.23-1.33,4.31,4.31,0,0,1,4.11-4.31l.22,0a4.37,4.37,0,0,1,4.34,4.34A4.35,4.35,0,0,1,22.52,25.5Z"/><path class="cls-1" d="M23.69,20.61H21.91v-.26h2a.55.55,0,0,0,0-1.1h-.65V19a.55.55,0,1,0-1.1,0v.28h-.43a.92.92,0,0,0-.91.92v.62a.92.92,0,0,0,.91.92h1.78V22H21.37a.55.55,0,0,0,0,1.1h.79v.28a.55.55,0,0,0,1.1,0v-.28h.43a.92.92,0,0,0,.91-.92v-.62A.92.92,0,0,0,23.69,20.61Z"/></svg>