<svg id="Layer_1" data-name="Layer 1" xmlns="http://www.w3.org/2000/svg" viewBox="0 0 32 32"><defs><style>.cls-1{fill:#747987;}</style></defs><path class="cls-1" d="M23.39,12.73a3,3,0,0,0-2.92-2.57h0V9.45a4.5,4.5,0,0,0-9,0v.71a3,3,0,0,0-2.83,2.57l-1,7.56a5.08,5.08,0,0,0,5,5.72h6.62a5.08,5.08,0,0,0,5-5.72ZM15.94,7a2.5,2.5,0,0,1,2.5,2.5v.71h-5V9.45A2.5,2.5,0,0,1,15.94,7Zm5.68,16a3.1,3.1,0,0,1-2.31,1H12.69a3.07,3.07,0,0,1-3-3.47l1-7.56a.94.94,0,0,1,.93-.82h8.94a.94.94,0,0,1,.93.82l1,7.56A3.11,3.11,0,0,1,21.62,23Z"/><path class="cls-1" d="M13.34,14a.9.9,0,1,0,.89.9A.9.9,0,0,0,13.34,14Z"/><path class="cls-1" d="M18.66,14a.9.9,0,1,0,.9.9A.89.89,0,0,0,18.66,14Z"/></svg>