<svg id="Layer_1" data-name="Layer 1" xmlns="http://www.w3.org/2000/svg" viewBox="0 0 32 32"><defs><style>.cls-1{fill:#747987;}</style></defs><path class="cls-1" d="M12.91,26h6.18a5.41,5.41,0,0,0,5.41-5.41V11.41A5.41,5.41,0,0,0,19.09,6H12.91A5.41,5.41,0,0,0,7.5,11.41v9.18A5.41,5.41,0,0,0,12.91,26ZM9.5,11.41A3.41,3.41,0,0,1,12.91,8h6.18a3.41,3.41,0,0,1,3.41,3.41v9.18A3.41,3.41,0,0,1,19.09,24H12.91A3.41,3.41,0,0,1,9.5,20.59Z"/><path class="cls-1" d="M13.13,13.19h4.12a1,1,0,0,0,0-2H13.13a1,1,0,0,0,0,2Z"/><path class="cls-1" d="M13.13,17h5.62a1,1,0,0,0,0-2H13.13a1,1,0,0,0,0,2Z"/><path class="cls-1" d="M13.13,20.81h5.62a1,1,0,0,0,0-2H13.13a1,1,0,1,0,0,2Z"/></svg>