<svg id="Layer_1" data-name="Layer 1" xmlns="http://www.w3.org/2000/svg" viewBox="0 0 32 32"><defs><style>.cls-1{fill:#747987;}</style></defs><path class="cls-1" d="M20.76,7.81A5.79,5.79,0,0,0,16,9s0,0,0,0a5.8,5.8,0,0,0-4.75-1.21,6.08,6.08,0,0,0-4.77,6.91c.84,6.52,8.8,10.12,9.13,10.27a1,1,0,0,0,.82,0c.33-.15,8.29-3.75,9.13-10.27A6.08,6.08,0,0,0,20.76,7.81Zm2.79,6.66C23,19.11,17.54,22.18,16,23c-1.54-.78-7-3.85-7.56-8.49a4.09,4.09,0,0,1,3.14-4.69,3.49,3.49,0,0,1,.71-.07,3.81,3.81,0,0,1,2.43.87h0a2,2,0,0,0,2.56,0,3.85,3.85,0,0,1,3.14-.8A4.08,4.08,0,0,1,23.55,14.47Z"/></svg>