<svg id="Layer_1" data-name="Layer 1" xmlns="http://www.w3.org/2000/svg" viewBox="0 0 32 32"><defs><style>.cls-1{fill:#747987;}</style></defs><path class="cls-1" d="M20.61,7.49H11.39A5.4,5.4,0,0,0,6,12.89v6.22a5.4,5.4,0,0,0,5.4,5.4h9.22a5.4,5.4,0,0,0,5.4-5.4V12.89A5.4,5.4,0,0,0,20.61,7.49ZM24,19.11a3.4,3.4,0,0,1-3.4,3.4H11.39A3.4,3.4,0,0,1,8,19.11V12.89a3.4,3.4,0,0,1,3.4-3.4h9.22a3.4,3.4,0,0,1,3.4,3.4Z"/><path class="cls-1" d="M20.89,12.48l-3.77,3.77a1.36,1.36,0,0,1-1.92,0l-3.77-3.77a1,1,0,0,0-1.41,0,1,1,0,0,0,0,1.41l3.76,3.77a3.38,3.38,0,0,0,4.76,0l3.76-3.77a1,1,0,0,0-1.41-1.41Z"/></svg>