<svg id="Layer_1" data-name="Layer 1" xmlns="http://www.w3.org/2000/svg" viewBox="0 0 32 32"><defs><style>.cls-1{fill:#747987;}</style></defs><path class="cls-1" d="M20.24,14V9.73a4.24,4.24,0,1,0-8.48,0V14a4.24,4.24,0,0,0,8.48,0Zm-6.48,0V9.73a2.24,2.24,0,1,1,4.48,0V14a2.24,2.24,0,0,1-4.48,0Z"/><path class="cls-1" d="M23.06,14.33a1,1,0,0,0-1,1A4.69,4.69,0,0,1,17.38,20H14.62a4.69,4.69,0,0,1-4.68-4.68,1,1,0,0,0-2,0A6.69,6.69,0,0,0,14.62,22H15v1.57H12.05a1,1,0,1,0,0,2H20a1,1,0,1,0,0-2H17V22h.38a6.69,6.69,0,0,0,6.68-6.68A1,1,0,0,0,23.06,14.33Z"/></svg>