<svg id="Layer_1" data-name="Layer 1" xmlns="http://www.w3.org/2000/svg" viewBox="0 0 32 32"><defs><style>.cls-1{fill:#747987;}</style></defs><path class="cls-1" d="M16,5.19a7.8,7.8,0,0,0-7.75,7.22l-.43,6a3.93,3.93,0,0,0,1,2.92,3.89,3.89,0,0,0,2.83,1.23h8.64a3.89,3.89,0,0,0,2.83-1.23,3.93,3.93,0,0,0,1-2.92l-.43-6A7.8,7.8,0,0,0,16,5.19ZM21.69,20a1.85,1.85,0,0,1-1.37.6H11.68a1.87,1.87,0,0,1-1.86-2l.42-6a5.77,5.77,0,0,1,11.52,0l.42,6A1.85,1.85,0,0,1,21.69,20Z"/><path class="cls-1" d="M16,9.51a4,4,0,0,0-3.95,3.68A1,1,0,0,0,13,14.26h.07a1,1,0,0,0,1-.93A2,2,0,0,1,16,11.51a1,1,0,0,0,0-2Z"/><path class="cls-1" d="M18.05,24.39H14a1,1,0,0,0,0,2h4.1a1,1,0,0,0,0-2Z"/></svg>