<svg id="Layer_1" data-name="Layer 1" xmlns="http://www.w3.org/2000/svg" viewBox="0 0 32 32"><defs><style>.cls-1{fill:#747987;}</style></defs><path class="cls-1" d="M20.61,7.71H11.39A5.41,5.41,0,0,0,6,13.12v5.76a5.41,5.41,0,0,0,5.4,5.41h9.22A5.41,5.41,0,0,0,26,18.88V13.12A5.41,5.41,0,0,0,20.61,7.71ZM24,18.88a3.41,3.41,0,0,1-3.4,3.41H11.39A3.41,3.41,0,0,1,8,18.88V13.12a3.41,3.41,0,0,1,3.4-3.41h9.22A3.41,3.41,0,0,1,24,13.12Z"/><path class="cls-1" d="M21.88,17.14,19,15.33a3.4,3.4,0,0,0-3.68,0l-4.61,2.9a1,1,0,0,0,.53,1.84,1,1,0,0,0,.53-.15L16.4,17a1.41,1.41,0,0,1,1.54,0l2.87,1.81a1,1,0,0,0,1.38-.31A1,1,0,0,0,21.88,17.14Z"/><circle class="cls-1" cx="12.55" cy="13.44" r="1.3"/></svg>