<svg id="Layer_1" data-name="Layer 1" xmlns="http://www.w3.org/2000/svg" viewBox="0 0 32 32"><defs><style>.cls-1{fill:#747987;}</style></defs><path class="cls-1" d="M9.12,25.19a2.43,2.43,0,0,0,1.22.33,2.36,2.36,0,0,0,1.2-.33L16,22.63l4.46,2.56a2.42,2.42,0,0,0,3.63-2.1V12a4.47,4.47,0,0,0-4.47-4.46H12.38A4.47,4.47,0,0,0,7.91,12V23.09A2.41,2.41,0,0,0,9.12,25.19ZM9.91,12a2.47,2.47,0,0,1,2.47-2.46h7.24A2.47,2.47,0,0,1,22.09,12V23.09a.39.39,0,0,1-.21.36.42.42,0,0,1-.43,0L16.5,20.61a1,1,0,0,0-1,0l-4.95,2.85a.42.42,0,0,1-.43,0,.39.39,0,0,1-.21-.36Z"/></svg>