<svg id="Layer_1" data-name="Layer 1" xmlns="http://www.w3.org/2000/svg" viewBox="0 0 32 32"><defs><style>.cls-1{fill:#747987;}</style></defs><path class="cls-1" d="M6.3,20.11l1.29,2.24a2.53,2.53,0,0,0,2.89,1.06L11.94,23l.4,1.44a2.54,2.54,0,0,0,2.37,2h2.58a2.54,2.54,0,0,0,2.37-2l.4-1.44,1.46.37a2.54,2.54,0,0,0,2.89-1.06l1.29-2.24a2.53,2.53,0,0,0-.53-3L24.12,16l1.05-1.07a2.53,2.53,0,0,0,.53-3L24.41,9.65a2.53,2.53,0,0,0-2.89-1.06L20.06,9l-.4-1.44a2.54,2.54,0,0,0-2.37-2H14.71a2.54,2.54,0,0,0-2.37,2L11.94,9l-1.46-.37A2.53,2.53,0,0,0,7.59,9.65L6.3,11.89a2.53,2.53,0,0,0,.53,3l1,1.07-1,1.07A2.53,2.53,0,0,0,6.3,20.11Zm3.62-3.94c0-.06,0-.11,0-.17s0-.11,0-.17V15.7A1,1,0,0,0,9.65,15L8.26,13.53C8,13.28,8,13,8,12.89l1.29-2.24c.07-.12.33-.21.67-.12l1.92.49a1,1,0,0,0,.79-.13c.17-.11.35-.21.53-.31a1,1,0,0,0,.5-.61l.54-1.91c.09-.34.29-.52.44-.52h2.58c.15,0,.35.18.44.52L18.27,10a1,1,0,0,0,.5.61c.18.1.36.2.53.31a1,1,0,0,0,.79.13L22,10.53c.34-.09.6,0,.67.12L24,12.89c.07.12,0,.39-.23.64L22.35,15a1,1,0,0,0-.28.75v.13c0,.06,0,.11,0,.17s0,.11,0,.17v.13a1,1,0,0,0,.28.75l1.39,1.42c.25.25.3.52.23.64l-1.29,2.24c-.07.12-.33.21-.67.12L20.09,21a1,1,0,0,0-.79.13c-.17.11-.35.21-.53.31a1,1,0,0,0-.5.61l-.54,1.91c-.09.34-.29.52-.44.52H14.71c-.15,0-.35-.18-.44-.52L13.73,22a1,1,0,0,0-.5-.61c-.18-.1-.36-.2-.53-.31a1,1,0,0,0-.54-.16,1,1,0,0,0-.25,0L10,21.47c-.34.09-.6,0-.67-.12L8,19.11c-.07-.12,0-.39.23-.64l1.39-1.42a1,1,0,0,0,.28-.75Z"/><path class="cls-1" d="M16,19.46A3.46,3.46,0,1,0,12.54,16,3.46,3.46,0,0,0,16,19.46Zm0-4.92A1.46,1.46,0,1,1,14.54,16,1.46,1.46,0,0,1,16,14.54Z"/></svg>