<svg width="591" height="216" viewBox="0 0 591 216" fill="none" xmlns="http://www.w3.org/2000/svg">
<path fill-rule="evenodd" clip-rule="evenodd" d="M165.161 33.4373H216.731C225.701 33.4373 233 40.7893 233 49.8262V79.1084C233 86.2582 228.484 92.529 221.762 94.712L219.843 95.3332L219.761 191.108C219.761 204.555 208.6 215.5 194.883 215.5H36.9448C23.2253 215.5 12.0639 204.555 12.0639 191.103V94.9816L11.2258 94.7062C4.51554 92.529 0 86.2582 0 79.1084V49.7852C0 40.7717 7.2612 33.4373 16.1868 33.4373H66.4965V19.8086C66.4965 8.88749 75.3869 0 86.3139 0H145.347C156.271 0 165.161 8.88749 165.161 19.8086V33.4373ZM86.3139 8.31609C79.9757 8.31609 74.8185 13.4734 74.8185 19.8086V33.4197H156.842V19.8086C156.842 13.4734 151.685 8.31609 145.347 8.31609H86.3139ZM194.883 207.181C204.014 207.181 211.439 199.967 211.439 191.103L211.518 98.032L145.25 119.517C142.637 126.782 136.492 134.026 127.622 140.137C127.63 140.178 127.636 140.219 127.642 140.26L132.728 176.289C132.84 177.148 132.758 177.992 132.48 178.813C132.199 179.637 131.754 180.355 131.138 180.972L120.129 191.969C119.605 192.49 119.002 192.894 118.318 193.178C117.633 193.459 116.919 193.601 116.18 193.598C115.438 193.601 114.726 193.459 114.042 193.178C113.357 192.894 112.754 192.49 112.231 191.969L101.219 180.972C100.605 180.355 100.158 179.634 99.8798 178.813C99.6017 177.989 99.5171 177.146 99.6317 176.286L105.35 140.26C105.356 140.219 105.362 140.177 105.369 140.136C96.6551 134.131 90.5709 127.028 87.8845 119.886L20.3859 97.7155V191.103C20.3859 199.967 27.8141 207.181 36.9448 207.181H194.883ZM109.72 142.912L105.168 177.028L116.18 188.023L127.192 177.028L122.685 143.255C121.487 143.948 120.251 144.622 118.978 145.274C118.207 145.675 117.354 145.874 116.504 145.874C115.649 145.874 114.79 145.672 114.008 145.271C112.528 144.513 111.098 143.726 109.72 142.912ZM101.024 100.476C96.1654 102.515 94.9083 109.293 94.7794 110.061C93.3787 118.497 102.257 129.515 116.499 137.183C130.745 129.509 139.618 118.494 138.221 110.061C138.092 109.293 136.835 102.515 131.973 100.476C129.362 99.3858 126.045 99.6671 123.531 101.194C122.494 101.827 121.585 102.668 120.832 103.696C118.802 106.459 114.192 106.451 112.173 103.705C111.412 102.668 110.503 101.827 109.466 101.194C107.974 100.282 106.196 99.8136 104.449 99.8136C103.26 99.8136 102.085 100.033 101.024 100.476ZM219.193 86.7974C222.474 85.7337 224.678 82.6423 224.678 79.1084V49.8262C224.678 45.3752 221.112 41.7563 216.731 41.7563H16.1868C11.85 41.7563 8.32195 45.3576 8.32195 49.7852V79.1084C8.32195 82.6423 10.5255 85.7337 13.8103 86.7974L86.3754 110.632C86.4164 109.985 86.4662 109.337 86.5717 108.695C87.0406 105.876 89.2354 96.3999 97.8064 92.8044C102.879 90.677 109.006 91.1693 113.8 94.0937C114.764 94.6827 115.666 95.3567 116.499 96.1215C117.334 95.3596 118.236 94.6827 119.197 94.0937C123.991 91.1723 130.121 90.6829 135.194 92.8044C143.765 96.3999 145.959 105.876 146.428 108.695C146.503 109.159 146.54 109.629 146.577 110.098C146.583 110.178 146.589 110.257 146.595 110.336L219.193 86.7974Z" fill="#191825"/>
<path d="M258 88.8C258 81.8667 259.5 75.7 262.5 70.3C265.5 64.8333 269.667 60.6 275 57.6C280.4 54.5333 286.5 53 293.3 53C301.633 53 308.767 55.2 314.7 59.6C320.633 64 324.6 70 326.6 77.6H307.8C306.4 74.6667 304.4 72.4333 301.8 70.9C299.267 69.3667 296.367 68.6 293.1 68.6C287.833 68.6 283.567 70.4333 280.3 74.1C277.033 77.7667 275.4 82.6667 275.4 88.8C275.4 94.9333 277.033 99.8333 280.3 103.5C283.567 107.167 287.833 109 293.1 109C296.367 109 299.267 108.233 301.8 106.7C304.4 105.167 306.4 102.933 307.8 100H326.6C324.6 107.6 320.633 113.6 314.7 118C308.767 122.333 301.633 124.5 293.3 124.5C286.5 124.5 280.4 123 275 120C269.667 116.933 265.5 112.7 262.5 107.3C259.5 101.9 258 95.7333 258 88.8Z" fill="#865DFF"/>
<path d="M330.672 96C330.672 90.2667 331.739 85.2333 333.872 80.9C336.072 76.5667 339.039 73.2333 342.772 70.9C346.505 68.5667 350.672 67.4 355.272 67.4C359.205 67.4 362.639 68.2 365.572 69.8C368.572 71.4 370.872 73.5 372.472 76.1V68.2H389.572V124H372.472V116.1C370.805 118.7 368.472 120.8 365.472 122.4C362.539 124 359.105 124.8 355.172 124.8C350.639 124.8 346.505 123.633 342.772 121.3C339.039 118.9 336.072 115.533 333.872 111.2C331.739 106.8 330.672 101.733 330.672 96ZM372.472 96.1C372.472 91.8333 371.272 88.4667 368.872 86C366.539 83.5333 363.672 82.3 360.272 82.3C356.872 82.3 353.972 83.5333 351.572 86C349.239 88.4 348.072 91.7333 348.072 96C348.072 100.267 349.239 103.667 351.572 106.2C353.972 108.667 356.872 109.9 360.272 109.9C363.672 109.9 366.539 108.667 368.872 106.2C371.272 103.733 372.472 100.367 372.472 96.1Z" fill="#865DFF"/>
<path d="M416.043 77.5C418.043 74.4333 420.543 72.0333 423.543 70.3C426.543 68.5 429.876 67.6 433.543 67.6V85.7H428.843C424.576 85.7 421.376 86.6333 419.243 88.5C417.11 90.3 416.043 93.5 416.043 98.1V124H398.943V68.2H416.043V77.5Z" fill="#865DFF"/>
<path d="M491.316 95.2C491.316 96.8 491.216 98.4667 491.016 100.2H452.316C452.583 103.667 453.683 106.333 455.616 108.2C457.616 110 460.05 110.9 462.916 110.9C467.183 110.9 470.15 109.1 471.816 105.5H490.016C489.083 109.167 487.383 112.467 484.916 115.4C482.516 118.333 479.483 120.633 475.816 122.3C472.15 123.967 468.05 124.8 463.516 124.8C458.05 124.8 453.183 123.633 448.916 121.3C444.65 118.967 441.316 115.633 438.916 111.3C436.516 106.967 435.316 101.9 435.316 96.1C435.316 90.3 436.483 85.2333 438.816 80.9C441.216 76.5667 444.55 73.2333 448.816 70.9C453.083 68.5667 457.983 67.4 463.516 67.4C468.916 67.4 473.716 68.5333 477.916 70.8C482.116 73.0667 485.383 76.3 487.716 80.5C490.116 84.7 491.316 89.6 491.316 95.2ZM473.816 90.7C473.816 87.7667 472.816 85.4333 470.816 83.7C468.816 81.9667 466.316 81.1 463.316 81.1C460.45 81.1 458.016 81.9333 456.016 83.6C454.083 85.2667 452.883 87.6333 452.416 90.7H473.816Z" fill="#865DFF"/>
<path d="M549.938 95.2C549.938 96.8 549.838 98.4667 549.638 100.2H510.938C511.204 103.667 512.304 106.333 514.237 108.2C516.237 110 518.671 110.9 521.537 110.9C525.804 110.9 528.771 109.1 530.438 105.5H548.638C547.704 109.167 546.004 112.467 543.537 115.4C541.137 118.333 538.104 120.633 534.438 122.3C530.771 123.967 526.671 124.8 522.138 124.8C516.671 124.8 511.804 123.633 507.538 121.3C503.271 118.967 499.938 115.633 497.538 111.3C495.138 106.967 493.938 101.9 493.938 96.1C493.938 90.3 495.104 85.2333 497.438 80.9C499.838 76.5667 503.171 73.2333 507.438 70.9C511.704 68.5667 516.604 67.4 522.138 67.4C527.538 67.4 532.337 68.5333 536.537 70.8C540.737 73.0667 544.004 76.3 546.338 80.5C548.738 84.7 549.938 89.6 549.938 95.2ZM532.438 90.7C532.438 87.7667 531.438 85.4333 529.438 83.7C527.438 81.9667 524.937 81.1 521.938 81.1C519.071 81.1 516.638 81.9333 514.638 83.6C512.704 85.2667 511.504 87.6333 511.038 90.7H532.438Z" fill="#865DFF"/>
<path d="M573.059 77.5C575.059 74.4333 577.559 72.0333 580.559 70.3C583.559 68.5 586.892 67.6 590.559 67.6V85.7H585.859C581.592 85.7 578.392 86.6333 576.259 88.5C574.125 90.3 573.059 93.5 573.059 98.1V124H555.959V68.2H573.059V77.5Z" fill="#865DFF"/>
<path d="M258 166.8C258 159.867 259.5 153.7 262.5 148.3C265.5 142.833 269.667 138.6 275 135.6C280.4 132.533 286.5 131 293.3 131C301.633 131 308.767 133.2 314.7 137.6C320.633 142 324.6 148 326.6 155.6H307.8C306.4 152.667 304.4 150.433 301.8 148.9C299.267 147.367 296.367 146.6 293.1 146.6C287.833 146.6 283.567 148.433 280.3 152.1C277.033 155.767 275.4 160.667 275.4 166.8C275.4 172.933 277.033 177.833 280.3 181.5C283.567 185.167 287.833 187 293.1 187C296.367 187 299.267 186.233 301.8 184.7C304.4 183.167 306.4 180.933 307.8 178H326.6C324.6 185.6 320.633 191.6 314.7 196C308.767 200.333 301.633 202.5 293.3 202.5C286.5 202.5 280.4 201 275 198C269.667 194.933 265.5 190.7 262.5 185.3C259.5 179.9 258 173.733 258 166.8Z" fill="#191825"/>
<path d="M351.172 155.5C353.172 152.433 355.672 150.033 358.672 148.3C361.672 146.5 365.005 145.6 368.672 145.6V163.7H363.972C359.705 163.7 356.505 164.633 354.372 166.5C352.239 168.3 351.172 171.5 351.172 176.1V202H334.072V146.2H351.172V155.5Z" fill="#191825"/>
<path d="M428.945 146.2V202H411.845V194.4C410.112 196.867 407.745 198.867 404.745 200.4C401.812 201.867 398.545 202.6 394.945 202.6C390.679 202.6 386.912 201.667 383.645 199.8C380.379 197.867 377.845 195.1 376.045 191.5C374.245 187.9 373.345 183.667 373.345 178.8V146.2H390.345V176.5C390.345 180.233 391.312 183.133 393.245 185.2C395.179 187.267 397.779 188.3 401.045 188.3C404.379 188.3 407.012 187.267 408.945 185.2C410.879 183.133 411.845 180.233 411.845 176.5V146.2H428.945Z" fill="#191825"/>
<path d="M460.928 202.8C456.061 202.8 451.728 201.967 447.928 200.3C444.128 198.633 441.128 196.367 438.928 193.5C436.728 190.567 435.495 187.3 435.228 183.7H452.128C452.328 185.633 453.228 187.2 454.828 188.4C456.428 189.6 458.395 190.2 460.728 190.2C462.861 190.2 464.495 189.8 465.628 189C466.828 188.133 467.428 187.033 467.428 185.7C467.428 184.1 466.595 182.933 464.928 182.2C463.261 181.4 460.561 180.533 456.828 179.6C452.828 178.667 449.495 177.7 446.828 176.7C444.161 175.633 441.861 174 439.928 171.8C437.995 169.533 437.028 166.5 437.028 162.7C437.028 159.5 437.895 156.6 439.628 154C441.428 151.333 444.028 149.233 447.428 147.7C450.895 146.167 454.995 145.4 459.728 145.4C466.728 145.4 472.228 147.133 476.228 150.6C480.295 154.067 482.628 158.667 483.228 164.4H467.428C467.161 162.467 466.295 160.933 464.828 159.8C463.428 158.667 461.561 158.1 459.228 158.1C457.228 158.1 455.695 158.5 454.628 159.3C453.561 160.033 453.028 161.067 453.028 162.4C453.028 164 453.861 165.2 455.528 166C457.261 166.8 459.928 167.6 463.528 168.4C467.661 169.467 471.028 170.533 473.628 171.6C476.228 172.6 478.495 174.267 480.428 176.6C482.428 178.867 483.461 181.933 483.528 185.8C483.528 189.067 482.595 192 480.728 194.6C478.928 197.133 476.295 199.133 472.828 200.6C469.428 202.067 465.461 202.8 460.928 202.8Z" fill="#191825"/>
<path d="M525.29 145.6C531.69 145.6 536.823 147.733 540.69 152C544.556 156.2 546.49 162 546.49 169.4V202H529.49V171.7C529.49 167.967 528.523 165.067 526.59 163C524.657 160.933 522.057 159.9 518.79 159.9C515.523 159.9 512.923 160.933 510.99 163C509.057 165.067 508.09 167.967 508.09 171.7V202H490.99V128H508.09V153.7C509.823 151.233 512.19 149.267 515.19 147.8C518.19 146.333 521.557 145.6 525.29 145.6Z" fill="#191825"/>
</svg>
