<svg width="182" height="144" viewBox="0 0 182 144" fill="none" xmlns="http://www.w3.org/2000/svg">
<mask id="mask0_8_247" style="mask-type:luminance" maskUnits="userSpaceOnUse" x="0" y="0" width="182" height="144">
<path d="M182 0.562988H0.100098V143.5H182V0.562988Z" fill="white"/>
</mask>
<g mask="url(#mask0_8_247)">
<mask id="mask1_8_247" style="mask-type:luminance" maskUnits="userSpaceOnUse" x="0" y="0" width="182" height="144">
<path d="M182 0.562988H0.100098V143.5H182V0.562988Z" fill="white"/>
</mask>
<g mask="url(#mask1_8_247)">
<path d="M75.175 122.793C75.0861 123.068 74.983 123.339 74.866 123.603C74.6155 124.189 74.2754 124.732 73.8581 125.214C73.4515 125.684 72.9555 126.068 72.399 126.345C71.8589 126.606 71.2701 126.752 70.6704 126.772C70.0707 126.792 69.4735 126.687 68.917 126.462C68.194 126.186 67.516 125.803 66.905 125.328C66.4903 125.012 66.0995 124.665 65.736 124.291C65.559 124.107 65.46 123.991 65.46 123.991C65.46 123.991 64.4291 121.653 64.7291 121.061C65.0291 120.469 66.229 116.961 69.064 115.436C71.899 113.911 75.697 119.256 75.697 119.256C75.709 120.456 75.5336 121.65 75.1771 122.796" fill="#F8CE76"/>
<path d="M61.4712 120.992C61.4712 120.992 62.8272 124.362 64.9712 124.049C65.3984 124.003 65.7923 123.796 66.0735 123.472C66.3548 123.147 66.5026 122.727 66.4872 122.298C66.4872 122.298 70.7302 122.875 70.6222 118.108C70.5392 114.425 69.1432 114.86 65.9002 116.864C64.1217 117.875 62.6051 119.289 61.4722 120.992" fill="#231F20"/>
<path d="M69.6232 120.197C69.5062 120.443 69.3498 120.669 69.1602 120.865C69.1121 120.914 69.0614 120.961 69.0082 121.005C68.4726 121.432 67.8119 121.671 67.1272 121.687C67.0462 121.687 66.9732 121.693 66.9062 121.693C66.7933 121.694 66.6804 121.688 66.5682 121.676L66.3532 121.649L66.0862 121.616L65.8312 121.583L65.8562 122.178L65.8622 122.326C65.8756 122.601 65.7803 122.871 65.5968 123.077C65.4133 123.283 65.1563 123.408 64.8812 123.426C64.8245 123.434 64.7674 123.439 64.7102 123.441H64.6912C63.7562 123.441 62.9192 122.364 62.4332 121.519C62.3332 121.348 62.2492 121.185 62.1802 121.043C62.2302 120.97 62.2912 120.884 62.3662 120.786C62.4852 120.627 62.6352 120.44 62.8212 120.229C63.2734 119.712 63.7652 119.231 64.2922 118.791C64.7523 118.404 65.2337 118.043 65.7342 117.71L65.9822 117.547C66.0632 117.495 66.1452 117.447 66.2282 117.393C66.3912 117.293 66.5542 117.193 66.7142 117.093C67.4791 116.543 68.3498 116.158 69.2712 115.962C69.4572 115.962 69.9452 115.962 69.9932 118.116C70.0369 118.827 69.9093 119.539 69.6212 120.191" fill="#E6E7E8"/>
<path d="M69.0072 121.004C68.4717 121.431 67.8109 121.671 67.1262 121.686C67.0452 121.686 66.9722 121.692 66.9052 121.692C66.7923 121.693 66.6795 121.687 66.5672 121.675L66.3522 121.648L66.0852 121.615L65.8302 121.582L65.8612 122.325C65.8747 122.6 65.7794 122.87 65.5959 123.076C65.4123 123.282 65.1553 123.407 64.8802 123.425C64.8235 123.433 64.7665 123.438 64.7092 123.44H64.6902C63.5652 123.44 62.5842 121.883 62.1792 121.04C62.2292 120.967 62.2902 120.881 62.3652 120.783C64.4752 121.679 66.8436 121.756 69.0072 120.998" fill="#D1D1D1"/>
<g opacity="0.4">
<mask id="mask2_8_247" style="mask-type:luminance" maskUnits="userSpaceOnUse" x="64" y="117" width="3" height="7">
<path d="M66.085 117.713H64.292V123.444H66.085V117.713Z" fill="white"/>
</mask>
<g mask="url(#mask2_8_247)">
<path d="M65.83 121.583L65.861 122.326C65.8744 122.601 65.7791 122.871 65.5956 123.077C65.4121 123.283 65.1551 123.408 64.88 123.426C64.8233 123.434 64.7662 123.439 64.709 123.441L64.292 118.791C64.7521 118.404 65.2335 118.043 65.734 117.71L66.085 121.61L65.83 121.583Z" fill="white"/>
</g>
</g>
<g opacity="0.4">
<mask id="mask3_8_247" style="mask-type:luminance" maskUnits="userSpaceOnUse" x="65" y="117" width="3" height="5">
<path d="M67.1272 117.099H65.9832V121.693H67.1272V117.099Z" fill="white"/>
</mask>
<g mask="url(#mask3_8_247)">
<path d="M67.1271 121.687C67.0461 121.687 66.9731 121.693 66.9061 121.693C66.7932 121.694 66.6804 121.688 66.5681 121.676L66.3531 121.649L65.9841 117.549C66.0651 117.497 66.1471 117.449 66.2301 117.395C66.3931 117.295 66.5561 117.195 66.7161 117.095L67.1271 121.687Z" fill="white"/>
</g>
</g>
<path d="M65.452 117.745C65.452 117.745 69.842 116.6 69.999 119.058C69.999 119.058 70.825 118.19 70.399 117.685C69.8837 117.186 69.2986 116.764 68.662 116.433C68.1585 116.286 67.6416 116.189 67.119 116.143C66.7635 116.092 66.4025 116.092 66.047 116.143C65.832 116.251 65.447 117.743 65.447 117.743" fill="#231F20"/>
<path d="M113.198 79.12C113.062 79.8 112.912 80.489 112.741 81.186C112.549 81.9813 112.335 82.7876 112.098 83.605C111.814 84.5883 111.498 85.5883 111.15 86.605C110.833 87.5383 110.487 88.481 110.113 89.433L102.668 86.526L96.502 84.119C96.702 83.61 96.902 83.084 97.091 82.545C97.381 81.735 97.659 80.896 97.915 80.045C98.153 79.252 98.3721 78.445 98.5641 77.626C99.0568 75.6434 99.333 73.6132 99.388 71.571C99.4138 70.4215 99.3213 69.2725 99.112 68.142C98.8741 66.8232 98.3998 65.5582 97.712 64.408C97.633 64.281 97.551 64.155 97.466 64.03C94.571 59.768 88.401 58.113 84.41 57.599C83.575 57.49 82.8361 57.434 82.2411 57.413C82.1011 57.413 81.968 57.405 81.841 57.405V56.405L81.826 53.381V52.909L81.78 42.792C85.2261 42.8518 88.6518 43.3347 91.98 44.23C99.671 46.269 105.724 50.241 109.48 55.718C113.794 62.003 115.032 69.848 113.189 79.126" fill="#E6E7E8"/>
<path d="M100.078 69.917C99.8878 70.481 99.6575 71.0307 99.3891 71.562C99.5424 68.9107 98.8725 66.2769 97.4711 64.021C94.5761 59.759 88.4061 58.104 84.4151 57.59C83.7281 56.1831 83.1895 54.7085 82.8081 53.19C83.1691 52.708 90.0281 46.029 90.0281 46.029C90.0281 46.029 105.192 55.056 100.078 69.917Z" fill="#E0E0E0"/>
<path d="M131.405 79.326C130.844 80.286 130.266 81.203 129.671 82.077C128.724 83.4714 127.705 84.8159 126.619 86.105C126.366 86.4076 126.112 86.7026 125.857 86.99C125.7 87.167 125.542 87.345 125.383 87.518C125.35 87.556 125.316 87.591 125.283 87.629C125.281 87.6347 125.278 87.6399 125.273 87.644C125.248 87.669 125.225 87.696 125.2 87.723L125.194 87.729L125.1 87.829L124.977 87.96C124.929 88.012 124.877 88.066 124.829 88.119L124.787 88.163L124.716 88.238L124.622 88.338C124.522 88.438 124.428 88.538 124.332 88.638C124.301 88.671 124.269 88.703 124.238 88.738C124.013 88.97 123.787 89.1976 123.562 89.421L123.489 89.494L123.189 89.786C123.118 89.855 123.049 89.922 122.98 89.986L122.942 90.024L122.919 90.045C122.808 90.154 122.698 90.258 122.587 90.36C122.556 90.3913 122.524 90.4206 122.493 90.448L122.468 90.473C122.405 90.529 122.345 90.586 122.284 90.642C122.192 90.728 122.098 90.813 122.006 90.897C122.006 90.897 122.006 90.897 122.006 90.903C122.006 90.909 122.006 90.903 122 90.903L121.917 90.978C121.873 91.018 121.831 91.057 121.788 91.095L121.617 91.249C121.502 91.349 121.387 91.449 121.273 91.549C121.25 91.57 121.229 91.589 121.208 91.605C121.141 91.663 121.077 91.722 121.008 91.778C120.939 91.834 120.893 91.878 120.837 91.926L120.783 91.972C120.718 92.028 120.651 92.085 120.583 92.139C120.447 92.254 120.314 92.366 120.183 92.479L120.068 92.579L119.957 92.671C119.953 92.673 119.95 92.6757 119.947 92.679C119.924 92.6956 119.903 92.7123 119.884 92.729L119.584 92.973C119.484 93.054 119.384 93.134 119.284 93.213L119.109 93.353C119.109 93.353 119.109 93.353 119.103 93.353C118.974 93.453 118.844 93.553 118.715 93.653C118.648 93.705 118.584 93.753 118.515 93.805C118.482 93.832 118.448 93.857 118.415 93.88C118.382 93.903 118.361 93.924 118.334 93.943C118.134 94.091 117.946 94.237 117.752 94.379C117.671 94.44 117.591 94.498 117.51 94.556C117.429 94.614 117.326 94.692 117.237 94.756L117.216 94.771L117.062 94.882C117.062 94.882 117.056 94.888 117.054 94.888C117.037 94.9016 117.019 94.9142 117 94.926C116.977 94.943 116.956 94.959 116.935 94.972C116.914 94.985 116.889 95.005 116.868 95.02L116.64 95.181L116.621 95.194C116.512 95.271 116.404 95.346 116.298 95.419L116.265 95.442L115.885 95.701C115.869 95.714 115.851 95.7257 115.833 95.736C115.816 95.749 115.802 95.759 115.785 95.769L115.702 95.823C115.641 95.865 115.581 95.904 115.52 95.944C115.459 95.984 115.409 96.021 115.353 96.057C115.297 96.093 115.221 96.145 115.153 96.186C115.12 96.209 115.084 96.232 115.053 96.253C115.039 96.2627 115.024 96.2717 115.009 96.28C114.981 96.3001 114.953 96.3188 114.923 96.336C114.918 96.3401 114.912 96.3434 114.906 96.346C114.902 96.35 114.897 96.3534 114.891 96.356L114.797 96.414C114.737 96.454 114.678 96.491 114.62 96.527L114.443 96.64C114.428 96.6517 114.412 96.6621 114.395 96.671C114.286 96.74 114.178 96.809 114.069 96.871L113.745 97.071L113.326 97.328C112.888 97.591 112.462 97.837 112.049 98.071L111.803 98.209L111.623 98.309C111.604 98.319 111.588 98.328 111.571 98.338L111.561 98.344L111.542 98.352C111.517 98.3686 111.49 98.3834 111.463 98.396L111.163 98.563C110.194 99.085 109.316 99.521 108.552 99.878C106.761 100.715 105.609 101.116 105.467 101.166L103.945 96.708L102.711 93.091L101.336 89.063L100.747 87.339C100.914 87.276 101.615 87.007 102.673 86.5C103.291 86.2 104.032 85.826 104.86 85.36C106.084 84.67 107.271 83.9169 108.417 83.104C109.3 82.478 110.217 81.774 111.139 80.992C111.826 80.406 112.519 79.775 113.203 79.099C113.903 78.406 114.603 77.663 115.284 76.868C119.526 71.919 122.255 65.8548 123.147 59.398C123.291 58.4193 123.4 57.4223 123.473 56.407C123.569 55.067 123.602 53.6963 123.573 52.295C123.426 47.3734 122.677 42.4884 121.342 37.749L127.228 36.149L128.407 35.83L129.678 35.486L135.443 33.923C135.852 35.4343 136.213 36.915 136.524 38.365C140.467 56.665 136.833 70.02 131.406 79.304" fill="#E6E7E8"/>
<path d="M131.404 79.326C130.843 80.286 130.265 81.203 129.67 82.077C128.723 83.4715 127.704 84.8159 126.618 86.105C126.365 86.4076 126.111 86.7027 125.856 86.99C122.34 90.9369 118.258 94.3406 113.744 97.09C109.27 94.9814 105.095 92.2882 101.329 89.081L100.74 87.357C100.907 87.294 101.608 87.025 102.667 86.518L96.501 84.111C96.701 83.602 96.901 83.076 97.09 82.537C97.38 81.727 97.658 80.888 97.915 80.037C98.153 79.244 98.372 78.437 98.564 77.618C102.573 79.3379 106.804 80.4826 111.133 81.018C111.676 81.087 112.212 81.143 112.74 81.191C119.023 81.7861 125.362 81.1544 131.404 79.331" fill="#E0E0E0"/>
<path d="M126.618 86.106C126.365 86.4086 126.111 86.7036 125.856 86.991C121.01 92.4121 115.123 96.8023 108.545 99.9C106.988 98.934 105.445 97.861 103.938 96.729L100.738 87.359C100.905 87.296 101.606 87.027 102.665 86.52L96.499 84.113C96.699 83.604 96.899 83.078 97.088 82.539C99.5847 83.719 102.183 84.6699 104.852 85.38C106.922 85.9302 109.027 86.3375 111.152 86.599C116.303 87.2307 121.52 87.0637 126.62 86.104" fill="#C1C1C1"/>
<path d="M136.522 38.388C136.522 38.388 133.222 54.888 123.141 59.419C124.095 52.9523 123.495 45.736 121.341 37.77L127.227 36.17L136.522 38.388Z" fill="#E0E0E0"/>
<path d="M78.2162 118.487C78.2356 119.139 78.0651 119.783 77.7254 120.34C77.3856 120.897 76.8913 121.343 76.3026 121.624C75.7139 121.905 75.0562 122.009 74.4095 121.923C73.7629 121.837 73.1551 121.565 72.6602 121.14C72.5432 121.04 72.4302 120.94 72.3202 120.823C72.1262 120.629 71.9382 120.423 71.7562 120.199C71.5992 120.011 71.4472 119.819 71.2932 119.621C70.9152 119.139 70.5352 118.634 70.1072 118.154C69.7024 117.688 69.2443 117.272 68.7422 116.914C68.5247 116.759 68.2975 116.618 68.0622 116.492C67.5013 116.225 66.8793 116.113 66.2606 116.167C65.6419 116.222 65.049 116.44 64.5432 116.801C64.0109 117.123 63.5135 117.499 63.0592 117.924C62.8672 118.101 62.6792 118.285 62.4952 118.473C62.4762 118.492 62.4572 118.513 62.4412 118.531C61.8067 119.203 61.2202 119.919 60.6862 120.673C60.2066 118.691 60.4242 116.604 61.3022 114.764C62.1802 112.923 63.6651 111.441 65.5074 110.566C67.3496 109.692 69.4368 109.478 71.418 109.961C73.3992 110.445 75.1536 111.595 76.3862 113.22C76.604 113.504 76.8043 113.801 76.9862 114.109C77.0762 114.259 77.1612 114.409 77.2412 114.572C77.3582 114.797 77.4642 115.031 77.5622 115.272C77.6622 115.529 77.7622 115.79 77.8402 116.057C78.0072 116.611 78.1191 117.181 78.1742 117.757C78.1952 117.968 78.2072 118.183 78.2122 118.398C78.2122 118.429 78.2122 118.463 78.2122 118.498" fill="#175ABB"/>
<path d="M69.3271 117.372C68.4766 117.033 67.5493 116.934 66.6465 117.086C65.7436 117.238 64.8998 117.635 64.2071 118.234C63.8458 118.534 63.5112 118.865 63.2071 119.223C62.9711 119.499 62.7641 119.768 62.5831 120.014C62.3571 120.348 62.1124 120.669 61.8501 120.976C61.0421 121.784 60.6812 120.676 60.6812 120.676C60.8382 120.457 61.0091 120.225 61.1921 119.987C61.3921 119.728 61.6071 119.463 61.8331 119.198C62.0881 118.898 62.3611 118.603 62.6451 118.319C64.2251 116.737 66.2001 115.519 68.0571 116.495C68.5126 116.737 68.9373 117.033 69.3221 117.376" fill="#0064C9"/>
<path d="M64.793 118.389C65.7022 117.788 66.7712 117.474 67.861 117.489C67.1685 117.373 66.4615 117.373 65.769 117.489C65.4606 117.595 65.1878 117.784 64.981 118.036C64.961 118.097 64.793 118.393 64.793 118.393" fill="#231F20"/>
<path d="M102.219 128.278C101.862 129.18 101.41 130.042 100.871 130.849C100.433 131.507 99.94 132.127 99.397 132.702C98.5733 133.571 97.653 134.342 96.654 135.002C94.0151 136.68 91.065 137.81 87.98 138.323L86.698 131.569L86.441 130.216L86.257 129.245L86.073 128.274C86.864 128.128 87.6455 127.935 88.413 127.694C90.719 126.959 92.157 125.901 92.702 124.532C94.151 120.892 90.634 114.2 88.702 111.532L96.967 105.51C97.912 106.804 106.101 118.449 102.216 128.284" fill="#E6E7E8"/>
<path d="M100.871 130.85C100.433 131.508 99.9402 132.128 99.3972 132.703C98.5735 133.572 97.6532 134.343 96.6542 135.003C94.0136 136.681 91.0618 137.81 87.9752 138.322L86.6932 131.568L86.4362 130.216L86.2522 129.245C86.9119 128.651 87.6349 128.13 88.4082 127.694C88.4082 127.694 93.7952 132.781 100.865 130.852" fill="#E0E0E0"/>
<path d="M85.173 99.402L80.6861 108.592C76.9984 106.678 72.8804 105.745 68.728 105.883C67.4877 105.945 66.2561 106.125 65.05 106.421C64.0833 106.658 63.1365 106.97 62.218 107.354C60.2622 108.144 58.4686 109.287 56.927 110.727L49.467 103.727C50.958 102.228 52.6362 100.928 54.46 99.859C55.09 99.477 55.779 99.095 56.524 98.724C57.0894 98.44 57.6894 98.1637 58.324 97.895C58.675 97.749 59.034 97.605 59.403 97.467C65.036 95.359 74.08 93.981 85.174 99.4" fill="#E6E7E8"/>
<path d="M68.728 105.882C67.4877 105.944 66.2561 106.124 65.05 106.42C64.0833 106.657 63.1365 106.969 62.218 107.353C60.2622 108.143 58.4686 109.286 56.927 110.726L49.467 103.726C50.958 102.227 52.6362 100.927 54.46 99.858C55.09 99.476 55.779 99.094 56.524 98.723C57.0894 98.439 57.6894 98.1626 58.324 97.894C60.597 101.828 64.337 104.699 68.724 105.88" fill="#E0E0E0"/>
<path d="M65.0471 106.424C64.0804 106.661 63.1336 106.973 62.2151 107.357C60.2593 108.147 58.4657 109.29 56.9241 110.73L49.4641 103.73C50.9551 102.231 52.6333 100.931 54.4571 99.862C55.0871 99.48 55.7761 99.098 56.5211 98.727" fill="#D1D1D1"/>
<path d="M62.8782 120.166C62.6986 120.376 62.5742 120.628 62.5164 120.898C62.4586 121.168 62.4692 121.449 62.5472 121.714C62.7982 122.673 62.0032 121.529 62.0032 121.529V121.129L62.2862 120.637L62.8782 120.166Z" fill="#231F20"/>
<path d="M74.9812 136.205C70.7522 136.341 70.6172 139.438 69.3252 141.054C68.3252 142.302 67.3862 141.177 67.0102 140.603C66.9702 140.545 66.9392 140.49 66.9102 140.446C66.8622 140.363 66.8352 140.31 66.8352 140.31C66.8352 140.31 66.8452 140.289 66.8502 140.279C67.6042 138.649 69.3592 136.428 71.3712 135.76C71.744 135.648 72.1286 135.581 72.5172 135.56C72.8072 135.537 73.1172 135.527 73.4272 135.527C73.8442 135.527 74.2662 135.548 74.6562 135.579C74.6612 135.578 74.6663 135.578 74.6712 135.579C75.1653 135.612 75.6559 135.686 76.1382 135.798C76.1432 135.797 76.1482 135.797 76.1532 135.798L76.2202 135.817C76.2221 135.816 76.2243 135.816 76.2262 135.817C76.2305 135.818 76.2349 135.818 76.2392 135.817C76.7392 135.973 76.5522 136.143 74.9762 136.193" fill="#175ABB"/>
<path d="M72.5261 135.558C70.5832 136.109 68.9383 137.408 67.9531 139.171C67.8747 139.431 67.7341 139.668 67.5434 139.861C67.3528 140.054 67.1179 140.197 66.8591 140.279C67.6131 138.649 69.3681 136.428 71.3801 135.76C71.7529 135.648 72.1376 135.581 72.5261 135.56" fill="#0C2F4C"/>
<path d="M115.463 96.697C115.442 96.851 115.417 96.997 115.388 97.133C114.745 100.172 112.232 99.283 112.232 99.283L108.832 96.783L105.244 94.149L101.111 91.118L93.4111 85.464C93.4111 85.464 94.0311 81.586 96.5361 81.747C98.4691 81.87 108.993 88.595 113.468 93.289C114.018 93.8479 114.513 94.458 114.946 95.111C115.292 95.5651 115.477 96.1219 115.47 96.693" fill="#2D292A"/>
<path d="M115.463 96.696C114.979 100.253 112.232 99.282 112.232 99.282L101.109 91.121C105.093 92.4633 109.258 93.1952 113.461 93.292C114.78 94.678 115.573 95.886 115.461 96.692" fill="#232021"/>
<path d="M115.463 96.696C114.979 100.253 112.232 99.282 112.232 99.282L105.242 94.152C108.424 94.8659 111.682 95.189 114.942 95.114C115.288 95.5681 115.473 96.125 115.466 96.696" fill="#191718"/>
<path d="M115.387 97.132C114.744 100.171 112.231 99.282 112.231 99.282L108.831 96.782C111.003 97.085 113.197 97.2008 115.389 97.128" fill="#0C0B0C"/>
<path d="M112.231 99.286C112.231 99.286 100.557 110.165 90.326 114.235C89.4757 114.577 88.6078 114.874 87.726 115.124C86.749 115.405 85.7487 115.597 84.7371 115.698C83.6912 115.854 82.6247 115.797 81.6012 115.532C80.5777 115.267 79.6182 114.798 78.7801 114.153C78.0088 113.5 77.4499 112.631 77.175 111.659C76.9871 111.025 76.8813 110.37 76.86 109.71C76.8426 109.257 76.8529 108.803 76.891 108.351C77.291 103.571 80.604 97.201 85.714 91.808C86.3467 91.1413 87.0057 90.4907 87.691 89.856C88.3577 89.238 89.0487 88.641 89.7641 88.065C90.9241 87.1279 92.1397 86.2617 93.404 85.471C96.3688 86.5632 99.2224 87.9361 101.926 89.571C103.842 90.7157 105.655 92.0253 107.344 93.485C109.207 95.0725 110.806 96.9458 112.082 99.035C112.134 99.118 112.182 99.202 112.23 99.288" fill="#E6E7E8"/>
<path d="M112.084 99.03C103.622 90.892 90.7531 91.28 85.7161 91.804C88.0008 89.375 90.5844 87.2457 93.4051 85.467C93.4051 85.467 106.805 90.067 112.084 99.03Z" fill="#E0E0E0"/>
<path d="M107.345 93.48C100.363 89.704 92.2821 89.544 87.6921 89.852C89.4542 88.2138 91.367 86.7456 93.4051 85.467C98.474 87.3256 103.189 90.0355 107.346 93.48" fill="#D1D1D1"/>
<path d="M57.3442 114.768C57.5367 115.217 57.6997 115.678 57.8322 116.148C58.0353 116.831 58.1559 117.536 58.1912 118.248C58.2525 118.754 58.1876 119.267 58.0023 119.742C57.817 120.216 57.517 120.638 57.1292 120.968C55.5842 122.103 54.7932 121.317 54.4472 120.703C54.3579 120.544 54.2852 120.377 54.2302 120.203C54.2242 120.178 54.2202 120.165 54.2202 120.165C54.2202 120.165 54.2142 120.182 54.2032 120.213C54.1512 120.361 53.9842 120.831 53.7402 121.428C53.5882 121.802 53.4042 122.228 53.1992 122.645C52.8395 123.605 52.2239 124.448 51.4192 125.083C51.1239 125.236 50.7805 125.266 50.4627 125.169C50.1449 125.071 49.878 124.853 49.7192 124.561C49.612 124.408 49.5224 124.244 49.4522 124.071C49.3395 124.295 49.2091 124.509 49.0622 124.712C48.7282 125.264 48.2484 125.712 47.6756 126.008C47.1028 126.304 46.4593 126.436 45.8162 126.39C45.2413 126.297 44.7206 125.997 44.3534 125.545C43.9862 125.093 43.7982 124.522 43.8252 123.94C43.8172 123.829 43.8122 123.723 43.8122 123.629C43.8099 123.458 43.8182 123.288 43.8372 123.118C43.8372 123.118 43.7032 123.041 43.5012 122.897C43.0264 122.562 42.6001 122.163 42.2342 121.711C41.8509 121.251 41.6006 120.694 41.5102 120.102C41.493 119.971 41.4873 119.84 41.4932 119.708C41.5742 117.708 42.9082 113.06 45.7362 110.798L49.4512 101.224C49.4512 101.224 59.5242 99.11 62.8762 108.254C62.8762 108.254 57.7762 113.048 57.3432 114.77" fill="#175ABB"/>
<path d="M57.129 120.966C55.584 122.101 54.793 121.315 54.447 120.701C54.3577 120.542 54.285 120.375 54.23 120.201C54.224 120.176 54.22 120.163 54.22 120.163C54.22 120.163 54.214 120.18 54.203 120.211C54.151 120.359 53.984 120.829 53.74 121.426C53.588 121.8 53.404 122.226 53.199 122.643C52.8393 123.603 52.2237 124.446 51.419 125.081C51.1237 125.234 50.7803 125.264 50.4625 125.167C50.1447 125.069 49.8778 124.851 49.719 124.559C49.6118 124.406 49.5222 124.242 49.452 124.069C49.3393 124.293 49.2089 124.507 49.062 124.71C48.7285 125.262 48.2488 125.711 47.6759 126.007C47.1029 126.303 46.4592 126.435 45.816 126.388C45.2411 126.296 44.7204 125.995 44.3532 125.543C43.986 125.091 43.798 124.52 43.825 123.938C43.817 123.827 43.812 123.721 43.812 123.627C43.8097 123.456 43.818 123.286 43.837 123.116C43.837 123.116 43.703 123.039 43.501 122.895C43.0263 122.56 42.5999 122.161 42.234 121.71C41.8508 121.249 41.6004 120.693 41.51 120.101C47.245 120.724 53.0176 119.326 57.832 116.148C58.0351 116.831 58.1556 117.536 58.191 118.248C58.2523 118.754 58.1874 119.267 58.0021 119.742C57.8168 120.216 57.5168 120.637 57.129 120.968" fill="#145199"/>
<path d="M72.4812 135.613C67.7932 135.964 66.7702 142.643 64.4812 142.186C64.254 142.147 64.0371 142.062 63.8437 141.937C63.6503 141.811 63.4844 141.648 63.3562 141.456C63.2279 141.265 63.14 141.049 63.0977 140.822C63.0554 140.596 63.0597 140.363 63.1102 140.138C63.1102 140.115 63.1102 140.09 63.1102 140.067L63.1232 139.944C63.1738 139.531 63.2746 139.126 63.4232 138.738C64.1109 137.736 64.996 136.884 66.0242 136.236C67.0525 135.588 68.2023 135.156 69.4032 134.968C70.1354 134.833 70.8799 134.776 71.6242 134.797H71.6702L71.7492 134.803C73.0101 134.93 72.4731 135.609 72.4731 135.609" fill="#175ABB"/>
<path d="M71.9452 135.095C67.7942 134.769 67.6792 137.007 65.4772 139.378C64.4252 140.511 63.6512 140.384 63.1272 139.944C63.1779 139.531 63.2786 139.126 63.4272 138.738C64.1149 137.736 65 136.884 66.0283 136.236C67.0565 135.588 68.2063 135.156 69.4072 134.968C70.1799 134.82 70.9676 134.766 71.7532 134.807C71.8762 134.982 71.9412 135.095 71.9412 135.095" fill="#0C2F4C"/>
<path d="M90.1211 134.447C90.0775 135.886 89.9241 137.32 89.6622 138.736C89.6622 138.736 88.6232 138.92 86.7062 139.13C86.1362 139.193 85.4892 139.259 84.7692 139.324C84.1845 139.376 83.5512 139.426 82.8692 139.474C82.6752 139.489 82.4772 139.503 82.2742 139.516C81.7902 139.549 81.2852 139.579 80.7572 139.608L80.1121 139.639C80.0201 139.639 79.9331 139.639 79.8411 139.645C79.6951 139.758 79.5151 139.889 79.3111 140.031C77.8671 141.031 75.1721 142.609 74.3111 143.231C73.7858 143.475 73.191 143.526 72.6318 143.374C72.0726 143.223 71.585 142.878 71.2551 142.402C71.0716 142.149 70.9704 141.845 70.9652 141.532C70.9649 141.433 70.976 141.334 70.9982 141.238C71.0527 141.02 71.1332 140.81 71.2381 140.612C71.9353 139.454 72.7838 138.395 73.7612 137.462C73.2188 136.932 72.7835 136.303 72.4791 135.608C68.1421 134.316 66.5262 137.522 66.3382 138.088C66.1502 138.654 65.6912 140.403 62.4382 139.595C59.1852 138.787 61.4381 134.156 64.0741 131.678C66.7101 129.2 75.6941 130.978 75.6941 130.978C78.6941 126.292 86.7501 124.622 86.7501 124.622C88.1096 125.578 89.082 126.989 89.4912 128.6C89.7469 129.467 89.9216 130.356 90.0131 131.255C90.123 132.314 90.1584 133.38 90.1192 134.444" fill="#175ABB"/>
<path d="M90.5432 50.391C90.487 51.7353 90.2896 53.07 89.9542 54.373C89.4369 56.3832 88.5821 58.291 87.4262 60.015C87.4262 60.015 69.5702 58.884 68.0362 60.499C68.0362 60.499 66.0842 59.109 63.3002 57.189C60.5682 55.304 57.0362 52.908 53.7662 50.817C52.2902 49.874 50.8712 48.993 49.6002 48.25C48.3844 47.5092 47.1203 46.851 45.8162 46.28C45.8162 46.28 51.7962 40.868 66.8242 44.827C66.8242 44.827 77.7322 38.766 88.8002 40.868C89.6964 42.9453 90.2571 45.1518 90.4612 47.405C90.5596 48.3974 90.5867 49.3957 90.5422 50.392" fill="#175ABB"/>
<path d="M45.8172 46.281L44.9282 48.781C44.9282 48.781 59.3102 56.914 65.1282 61.547L68.0372 60.497C68.0372 60.497 49.8312 47.543 45.8182 46.277" fill="#231F20"/>
<path d="M137.805 37.045C136.676 38.3462 135.386 39.4991 133.967 40.476C129.923 43.4341 124.891 44.7098 119.926 44.035C119.926 44.035 118.957 41.62 117.643 38.594C117.025 37.171 116.33 35.609 115.623 34.102C114.692 32.0263 113.623 30.0151 112.423 28.082C112.128 27.5276 111.69 27.0627 111.154 26.736C111.154 26.736 114.806 6.02698 114.44 0.561981C114.44 0.561981 121.898 3.63198 124.782 18.904C124.782 18.904 133.2 24.904 136.869 34.204C137.212 35.0661 137.506 35.9468 137.75 36.842C137.769 36.909 137.785 36.978 137.804 37.042" fill="#175ABB"/>
<path d="M114.44 0.562988L111.797 0.836988C111.797 0.836988 110.631 17.319 108.953 24.563L111.153 26.738C111.153 26.738 115.022 4.72999 114.44 0.562988Z" fill="#231F20"/>
<path d="M48.7052 116.852C48.6822 116.909 48.6424 116.959 48.591 116.993C48.5397 117.028 48.4791 117.046 48.4172 117.046C48.3764 117.047 48.3358 117.039 48.2982 117.023C47.956 116.885 47.6276 116.715 47.3172 116.516C46.0272 117.516 44.5992 121.431 43.8252 123.938C43.8034 123.664 43.8078 123.389 43.8382 123.116C43.8382 123.116 43.7042 123.039 43.5022 122.895C44.2412 120.63 45.5022 117.312 46.8102 116.132C46.5878 115.949 46.4016 115.726 46.2612 115.475C46.2255 115.4 46.2211 115.314 46.249 115.235C46.2768 115.157 46.3346 115.093 46.4097 115.057C46.4848 115.022 46.5709 115.017 46.6492 115.045C46.7275 115.073 46.7915 115.131 46.8272 115.206C47.2468 115.794 47.8468 116.229 48.5362 116.446C48.5741 116.462 48.6085 116.484 48.6375 116.513C48.6665 116.542 48.6895 116.577 48.7052 116.614C48.7209 116.652 48.729 116.693 48.729 116.734C48.729 116.775 48.7209 116.815 48.7052 116.853" fill="#231F20"/>
<path d="M52.925 117.341C52.5693 117.547 52.1648 117.653 51.754 117.648C51.716 117.648 51.679 117.648 51.641 117.648C50.729 118.798 50.08 122.179 49.719 124.565C49.6118 124.412 49.5223 124.248 49.452 124.075C49.3393 124.299 49.2089 124.513 49.062 124.716C49.4 122.424 50.028 119.049 50.955 117.544C50.6593 117.468 50.3739 117.357 50.105 117.212C50.0681 117.192 50.0356 117.165 50.0093 117.133C49.983 117.1 49.9636 117.063 49.952 117.022C49.9405 116.982 49.9372 116.94 49.9422 116.899C49.9472 116.857 49.9605 116.817 49.9813 116.781C50.0021 116.744 50.03 116.713 50.0632 116.687C50.0965 116.662 50.1346 116.643 50.1751 116.633C50.2156 116.623 50.2578 116.62 50.2992 116.627C50.3406 116.633 50.3803 116.647 50.416 116.669C50.7459 116.858 51.115 116.969 51.4946 116.993C51.8743 117.016 52.2542 116.952 52.605 116.805C52.6768 116.763 52.7624 116.751 52.843 116.771C52.9236 116.792 52.9927 116.844 53.035 116.916C53.0773 116.988 53.0894 117.073 53.0686 117.154C53.0478 117.235 52.9958 117.304 52.924 117.346" fill="#231F20"/>
<path d="M55.609 116.595C55.0458 117.908 54.6549 119.288 54.446 120.701C54.3493 120.532 54.2728 120.352 54.218 120.165C54.218 120.165 54.034 120.703 53.738 121.428C53.8952 119.672 54.3342 117.952 55.038 116.335C55.0552 116.298 55.0795 116.264 55.1096 116.236C55.1398 116.208 55.1752 116.186 55.2138 116.172C55.2524 116.157 55.2934 116.151 55.3345 116.152C55.3757 116.154 55.4161 116.163 55.4535 116.181C55.4909 116.198 55.5246 116.222 55.5526 116.252C55.5807 116.282 55.6025 116.318 55.6168 116.356C55.6312 116.395 55.6378 116.436 55.6363 116.477C55.6348 116.518 55.6252 116.559 55.608 116.596" fill="#231F20"/>
<path d="M76.2252 135.821C76.2262 135.821 76.2272 135.82 76.2282 135.82C76.2292 135.82 76.2303 135.821 76.2312 135.821L76.1582 135.8L76.2252 135.819" fill="#145199"/>
<path d="M82.2782 139.518C81.5975 139.564 80.8769 139.605 80.1162 139.641C80.0242 139.641 79.9372 139.641 79.8452 139.647C78.6702 140.561 75.2992 142.523 74.3122 143.235C73.1542 144.07 70.6492 142.805 71.0002 141.242C71.0547 141.024 71.1353 140.814 71.2402 140.616C73.3562 139.272 78.1702 136.859 82.2792 139.516" fill="#145199"/>
<path d="M90.1221 134.453C90.0785 135.892 89.925 137.326 89.6631 138.742C89.6631 138.742 88.6241 138.926 86.7071 139.136C86.1371 139.199 85.4901 139.265 84.7701 139.33C84.1855 139.382 83.5521 139.432 82.8701 139.48C86.266 136.729 88.6054 132.888 89.4911 128.608C89.7469 129.475 89.9216 130.364 90.0131 131.263C90.1229 132.322 90.1584 133.388 90.1191 134.452" fill="#145199"/>
<path d="M78.2162 118.487C78.2356 119.139 78.0651 119.783 77.7254 120.34C77.3857 120.897 76.8914 121.343 76.3027 121.624C75.714 121.905 75.0562 122.009 74.4095 121.923C73.7629 121.837 73.1551 121.565 72.6602 121.14C72.5432 121.04 72.4302 120.94 72.3202 120.823C72.1262 120.629 71.9382 120.423 71.7562 120.199C71.5992 120.011 71.4472 119.819 71.2932 119.621C70.9152 119.139 70.5352 118.634 70.1072 118.154C69.7024 117.689 69.2443 117.272 68.7422 116.914C71.7175 116.795 74.6256 115.993 77.2422 114.572C77.3592 114.797 77.4652 115.031 77.5632 115.272C77.6632 115.529 77.7632 115.79 77.8412 116.057C78.0082 116.611 78.1201 117.181 78.1752 117.757C78.1962 117.968 78.2082 118.183 78.2132 118.398C78.2132 118.429 78.2132 118.463 78.2132 118.498" fill="#145199"/>
<path d="M75.175 122.793C74.9756 123.542 74.6269 124.242 74.1499 124.853C73.6728 125.463 73.0773 125.971 72.399 126.345C69.489 127.787 66.6221 125.205 65.7371 124.291C65.8961 124.383 70.423 126.931 75.175 122.791" fill="#F9C364"/>
<path d="M90.3241 114.231C89.4738 114.573 88.6059 114.87 87.7241 115.12C86.7471 115.401 85.7467 115.593 84.7351 115.694C83.6893 115.85 82.6228 115.794 81.5993 115.528C80.5758 115.263 79.6162 114.794 78.7781 114.149C78.0068 113.496 77.448 112.627 77.1731 111.655C76.9852 111.021 76.8793 110.366 76.8581 109.706C76.8406 109.253 76.851 108.799 76.8891 108.347C79.2561 110.372 84.3571 114.058 90.3221 114.231" fill="#E0E0E0"/>
<path d="M87.4282 60.015C87.4282 60.015 69.5722 58.884 68.0382 60.499C68.0382 60.499 56.5582 52.323 49.6022 48.249C49.0818 47.3205 48.6108 46.3651 48.1912 45.387C48.4442 45.521 71.4382 57.616 90.4632 47.403C90.9587 51.8323 89.8847 56.2951 87.4282 60.014" fill="#145199"/>
<path d="M137.805 37.046C137.805 37.046 130.882 45.622 119.926 44.036C119.926 44.036 115.173 32.174 112.426 28.083C115.91 30.583 125.202 36.142 136.874 34.203C137.243 35.1309 137.555 36.0803 137.809 37.046" fill="#145199"/>
<path d="M64.2071 118.234C63.8458 118.534 63.5112 118.865 63.2071 119.223C62.9711 119.499 62.7641 119.768 62.5831 120.014C62.3571 120.348 62.1124 120.669 61.8501 120.976C61.0421 121.784 60.6812 120.676 60.6812 120.676C60.8382 120.457 61.0091 120.225 61.1921 119.987C61.3921 119.728 61.6071 119.463 61.8331 119.198C62.0881 118.898 62.3611 118.603 62.6451 118.319C63.1654 118.328 63.6857 118.301 64.2021 118.238" fill="#0060AF"/>
<path d="M63.2162 119.223C62.9802 119.499 62.7732 119.768 62.5922 120.014C62.3662 120.348 62.1214 120.669 61.8592 120.976C61.0512 121.784 60.6902 120.676 60.6902 120.676C60.8472 120.457 61.0182 120.225 61.2012 119.987C61.4012 119.728 61.6162 119.463 61.8422 119.198C62.2983 119.245 62.7575 119.255 63.2152 119.227" fill="#005B99"/>
<path d="M62.587 120.014C62.361 120.348 62.1163 120.669 61.854 120.976C61.046 121.784 60.6851 120.676 60.6851 120.676C60.8421 120.457 61.013 120.225 61.196 119.987C61.6577 120.036 62.1227 120.046 62.5861 120.018" fill="#00507C"/>
<path d="M85.4542 103.567H82.3262V102.003L85.2892 97.775H87.3652V101.924H88.1082V103.565H87.3652V104.724H85.4542V103.567ZM85.5992 101.926V99.909L84.2672 101.926H85.5992Z" fill="#231F20"/>
<path d="M91.6791 97.524C93.7061 97.524 94.4881 99.011 94.4881 101.096C94.4881 103.21 93.7061 104.687 91.6791 104.687C89.6521 104.687 88.8792 103.21 88.8792 101.096C88.8792 99.011 89.6511 97.524 91.6791 97.524ZM91.6791 99.31C90.8391 99.31 90.7431 100.121 90.7431 101.096C90.7431 102.096 90.8431 102.901 91.6791 102.901C92.5151 102.901 92.6151 102.101 92.6151 101.096C92.6151 100.121 92.5151 99.31 91.6791 99.31Z" fill="#231F20"/>
<path d="M98.4662 103.567H95.3381V102.003L98.3011 97.775H100.377V101.924H101.12V103.565H100.377V104.724H98.4662V103.567ZM98.6111 101.926V99.909L97.2791 101.926H98.6111Z" fill="#231F20"/>
<path d="M68.6611 84.893C68.6611 84.928 68.6611 84.964 68.6611 84.993C68.6427 86.4262 68.1987 87.8216 67.3854 89.0018C66.5721 90.182 65.4263 91.0938 64.0936 91.6213C62.7608 92.1487 61.3014 92.268 59.9007 91.964C58.5 91.66 57.2213 90.9464 56.2271 89.914C56.0074 89.6886 55.8039 89.448 55.6181 89.194C53.5122 91.1364 50.7357 92.1876 47.8714 92.1268C45.0071 92.066 42.2777 90.898 40.2561 88.868C38.0724 90.3438 35.6056 91.3492 33.0124 91.8203C30.4192 92.2913 27.7563 92.2176 25.1931 91.604C24.6278 91.4706 24.0724 91.3106 23.5271 91.124C22.1975 90.6724 20.9229 90.073 19.7271 89.337C19.3271 89.093 18.9341 88.837 18.5541 88.561C18.5141 88.607 18.4731 88.653 18.4271 88.699C17.2426 89.9953 15.7532 90.9755 14.0941 91.5507C12.435 92.126 10.6586 92.278 8.92582 91.9932C7.19307 91.7084 5.55879 90.9956 4.17114 89.9195C2.78348 88.8434 1.68631 87.4381 0.979088 85.8308C0.271861 84.2235 -0.023064 82.4651 0.121045 80.715C0.265155 78.9649 0.843742 77.2785 1.80436 75.8085C2.76498 74.3386 4.07726 73.1316 5.62225 72.297C7.16724 71.4624 8.8961 71.0265 10.6521 71.029H10.7711C11.2776 66.5185 13.384 62.3389 16.7083 59.2485C20.0325 56.1582 24.3543 54.3616 28.8897 54.1849C33.4251 54.0082 37.8736 55.4629 41.4282 58.2853C44.9829 61.1076 47.4082 65.1106 48.2641 69.568C48.2894 69.6953 48.3124 69.8226 48.3331 69.95C50.7325 69.9995 53.0512 70.8253 54.9417 72.3037C56.8322 73.782 58.1926 75.8333 58.8191 78.15C59.9148 77.7245 61.0976 77.5726 62.2652 77.7074C63.4328 77.8422 64.5499 78.2596 65.5198 78.9235C66.4897 79.5873 67.2832 80.4777 67.8314 81.5173C68.3796 82.557 68.6661 83.7146 68.6661 84.89" fill="#CEE1ED"/>
<path d="M68.6611 84.893C68.6611 84.928 68.6611 84.964 68.6611 84.993C68.6414 86.4252 68.1966 87.8193 67.3832 88.9982C66.5697 90.1772 65.4243 91.0879 64.0924 91.6147C62.7605 92.1416 61.302 92.2608 59.9022 91.9573C58.5023 91.6538 57.2243 90.9412 56.2301 89.91C56.0105 89.6846 55.807 89.444 55.6211 89.19C53.5143 91.1306 50.7382 92.1805 47.8745 92.1197C45.0108 92.0589 42.2817 90.8922 40.2591 88.864C37.2434 90.9068 33.7029 92.0376 30.0613 92.1209C26.4197 92.2043 22.8312 91.2367 19.7251 89.334C19.3251 89.09 18.9321 88.834 18.5521 88.558C18.5121 88.604 18.4711 88.65 18.4251 88.696C17.4402 89.7731 16.2423 90.6339 14.9074 91.2238C13.5724 91.8138 12.1294 92.12 10.6699 92.1231C9.21038 92.1262 7.76612 91.8261 6.42864 91.2419C5.09117 90.6576 3.88962 89.8019 2.90015 88.729C22.9851 86.615 38.5521 77.264 48.2621 69.566C48.2875 69.6933 48.3105 69.8206 48.3311 69.948C50.731 69.9959 53.0505 70.8211 54.9413 72.2997C56.8321 73.7783 58.1921 75.8305 58.8171 78.148C59.9128 77.7223 61.0958 77.5703 62.2635 77.705C63.4313 77.8396 64.5486 78.257 65.5186 78.9209C66.4886 79.5848 67.2822 80.4752 67.8305 81.515C68.3787 82.5548 68.6653 83.7125 68.6651 84.888" fill="#B5D9EA"/>
<path d="M33.375 13.65V55.445" stroke="#231F20" stroke-width="2" stroke-miterlimit="10" stroke-linecap="round"/>
<path d="M126.713 77.617V102.643" stroke="#231F20" stroke-width="2" stroke-miterlimit="10" stroke-linecap="round"/>
<path d="M92.9182 14.224V39.25" stroke="#231F20" stroke-width="2" stroke-miterlimit="10" stroke-linecap="round"/>
<path d="M126.713 70.815V75.487" stroke="#231F20" stroke-width="2" stroke-miterlimit="10" stroke-linecap="round"/>
<path d="M64.292 36.653V78.448" stroke="#231F20" stroke-width="2" stroke-miterlimit="10" stroke-linecap="round"/>
<path d="M33.375 59.419V67.603" stroke="#231F20" stroke-width="2" stroke-miterlimit="10" stroke-linecap="round"/>
<path d="M64.292 30.229V34.153" stroke="#231F20" stroke-width="2" stroke-miterlimit="10" stroke-linecap="round"/>
<path d="M64.292 81.745V83.42" stroke="#231F20" stroke-width="2" stroke-miterlimit="10" stroke-linecap="round"/>
<path d="M182 59.516C182.001 61.2994 181.463 63.0416 180.457 64.5139C179.45 65.9861 178.022 67.1197 176.36 67.7658C174.697 68.4119 172.879 68.5405 171.142 68.1345C169.405 67.7285 167.832 66.8071 166.628 65.491C166.59 65.453 166.555 65.415 166.521 65.375C166.202 65.604 165.875 65.823 165.538 66.027C164.118 66.8991 162.569 67.5404 160.948 67.927C158.797 68.4403 156.563 68.5009 154.388 68.105C152.213 67.709 150.143 66.8652 148.311 65.627C146.614 67.3288 144.325 68.3078 141.922 68.3587C139.52 68.4096 137.19 67.5284 135.423 65.9C135.266 66.1113 135.095 66.3117 134.911 66.5C134.077 67.3655 133.005 67.9636 131.83 68.2184C130.656 68.4732 129.432 68.3732 128.314 67.931C127.196 67.4889 126.235 66.7246 125.553 65.7351C124.87 64.7457 124.497 63.5758 124.481 62.374C124.481 62.345 124.481 62.316 124.481 62.287C124.481 61.3008 124.721 60.3295 125.181 59.4571C125.641 58.5848 126.307 57.8378 127.121 57.2808C127.935 56.7238 128.872 56.3736 129.852 56.2605C130.831 56.1475 131.824 56.275 132.743 56.632C133.267 54.6868 134.408 52.9644 135.995 51.7236C137.582 50.4829 139.529 49.791 141.543 49.752C142.19 45.9722 144.18 42.553 147.147 40.1229C150.113 37.6928 153.857 36.415 157.69 36.5245C161.524 36.634 165.188 38.1233 168.011 40.7188C170.834 43.3143 172.626 46.8414 173.056 50.652H173.156C173.591 50.6522 174.026 50.684 174.456 50.747C176.555 51.0593 178.471 52.1152 179.856 53.7222C181.242 55.3292 182.004 57.3803 182.003 59.502" fill="#CEE1ED"/>
<path d="M182 59.516C182.001 61.3129 181.454 63.0674 180.433 64.5461C179.412 66.0248 177.965 67.1576 176.285 67.7937C174.604 68.4298 172.77 68.5391 171.026 68.107C169.282 67.6749 167.71 66.722 166.521 65.375C163.876 67.275 160.713 68.3186 157.457 68.3649C154.201 68.4112 151.009 67.4581 148.311 65.634C146.614 67.3358 144.325 68.3148 141.922 68.3657C139.519 68.4166 137.19 67.5355 135.423 65.907C134.668 66.9279 133.613 67.6863 132.404 68.0754C131.196 68.4645 129.896 68.4646 128.688 68.0758C127.479 67.6869 126.423 66.9287 125.669 65.9079C124.914 64.8872 124.498 63.6553 124.481 62.386C150.367 64.079 164.229 52.021 170.594 43.795C171.938 45.8636 172.78 48.218 173.051 50.67H173.151C174.313 50.6701 175.464 50.8991 176.537 51.3439C177.611 51.7888 178.586 52.4407 179.408 53.2625C180.23 54.0843 180.881 55.0599 181.326 56.1335C181.77 57.2072 181.999 58.3579 181.999 59.52" fill="#B5D9EA"/>
<path d="M128.872 66.2C130.96 66.3893 132.973 66.493 134.911 66.511C134.304 67.1399 133.569 67.6303 132.755 67.9487C131.942 68.2672 131.069 68.4061 130.196 68.3559C129.324 68.3058 128.473 68.0678 127.701 67.6583C126.929 67.2487 126.255 66.6772 125.724 65.983C126.674 66.023 127.723 66.0953 128.872 66.2Z" fill="#9ED3E8"/>
<path d="M85.105 23.764C85.1058 24.9431 84.7501 26.0949 84.0847 27.0683C83.4192 28.0417 82.475 28.7912 81.376 29.2184C80.277 29.6457 79.0745 29.7307 77.9263 29.4624C76.7781 29.1941 75.7379 28.585 74.942 27.715C74.917 27.69 74.894 27.664 74.871 27.638C74.66 27.79 74.444 27.938 74.221 28.069C73.2823 28.6462 72.2579 29.0708 71.186 29.327C69.7642 29.6667 68.2873 29.7072 66.849 29.4459C65.4107 29.1846 64.0425 28.6271 62.831 27.809C61.7089 28.9335 60.1952 29.5803 58.6069 29.6141C57.0187 29.6478 55.4789 29.0658 54.31 27.99C54.2066 28.1308 54.0937 28.2645 53.972 28.39C53.4207 28.9633 52.7113 29.3597 51.9341 29.5287C51.1569 29.6978 50.347 29.6319 49.6073 29.3395C48.8677 29.0471 48.2317 28.5413 47.7802 27.8864C47.3288 27.2316 47.0823 26.4573 47.072 25.662C47.072 25.643 47.072 25.624 47.072 25.604C47.072 24.9519 47.231 24.3097 47.5351 23.7329C47.8393 23.1562 48.2795 22.6622 48.8176 22.294C49.3557 21.9257 49.9755 21.6941 50.6232 21.6194C51.271 21.5446 51.9272 21.6289 52.535 21.865C52.8816 20.5793 53.636 19.4407 54.6849 18.6204C55.7339 17.8001 57.0207 17.3424 58.352 17.316C58.7793 14.8159 60.0949 12.5541 62.0569 10.9467C64.0189 9.33936 66.4953 8.49447 69.0306 8.56748C71.5659 8.64048 73.9896 9.62648 75.8558 11.3441C77.722 13.0617 78.9053 15.3954 79.188 17.916H79.254C79.5422 17.9161 79.8299 17.9372 80.115 17.979C81.5026 18.1854 82.7699 18.8835 83.6858 19.9462C84.6018 21.0088 85.1054 22.3651 85.105 23.768" fill="#CEE1ED"/>
<path d="M85.1052 23.765C85.1053 24.9528 84.7439 26.1126 84.0688 27.09C83.3938 28.0674 82.4372 28.8162 81.3263 29.2367C80.2153 29.6573 79.0027 29.7296 77.8496 29.4442C76.6966 29.1588 75.6577 28.5292 74.8712 27.639C73.1226 28.8952 71.0309 29.5851 68.8781 29.6157C66.7252 29.6462 64.6148 29.016 62.8312 27.81C61.7092 28.9347 60.1955 29.5817 58.6071 29.6155C57.0188 29.6492 55.479 29.0671 54.3102 27.991C53.8114 28.6662 53.1133 29.1678 52.3143 29.4252C51.5153 29.6826 50.6556 29.6827 49.8566 29.4256C49.0575 29.1684 48.3592 28.667 47.8602 27.992C47.3612 27.317 47.0866 26.5023 47.0752 25.663C64.1902 26.783 73.3562 18.81 77.5642 13.371C78.4528 14.7382 79.0093 16.2943 79.1892 17.915H79.2552C80.0236 17.9151 80.7844 18.0666 81.4942 18.3607C82.204 18.6549 82.849 19.086 83.3922 19.6294C83.9354 20.1728 84.3663 20.8179 84.6602 21.5278C84.9541 22.2377 85.1053 22.9986 85.1052 23.767" fill="#B5D9EA"/>
<path d="M49.977 28.183C51.3577 28.3083 52.6887 28.377 53.97 28.389C53.5689 28.8048 53.0828 29.1291 52.5448 29.3397C52.0068 29.5502 51.4297 29.6421 50.8529 29.6089C50.2761 29.5758 49.7133 29.4184 49.2029 29.1476C48.6926 28.8769 48.2468 28.499 47.896 28.04C48.5247 28.0666 49.2183 28.1143 49.977 28.183Z" fill="#9ED3E8"/>
<path d="M149.236 29.494V71.289" stroke="#231F20" stroke-width="2" stroke-miterlimit="10" stroke-linecap="round"/>
<path d="M149.236 21.369V27.418" stroke="#231F20" stroke-width="2" stroke-miterlimit="10" stroke-linecap="round"/>
<path d="M149.236 17.235V19.54" stroke="#231F20" stroke-width="2" stroke-miterlimit="10" stroke-linecap="round"/>
</g>
</g>
</svg>
