<svg width="498" height="407" viewBox="0 0 498 407" fill="none" xmlns="http://www.w3.org/2000/svg">
<path d="M497.46 375.55H0.5V378.55H497.46V375.55Z" fill="#C7C7C7"/>
<path d="M465.88 313.66H56.09C52.2797 313.657 48.6261 312.143 45.9318 309.448C43.2375 306.754 41.7227 303.1 41.72 299.29V49.88C41.72 46.0679 43.2337 42.4118 45.9283 39.7153C48.6229 37.0189 52.2779 35.5027 56.09 35.5H465.88C469.69 35.5026 473.344 37.0175 476.038 39.7118C478.733 42.4061 480.247 46.0597 480.25 49.87V299.29C480.245 303.1 478.729 306.752 476.035 309.445C473.342 312.139 469.69 313.655 465.88 313.66ZM56.09 47.5C55.4614 47.5 54.8586 47.7497 54.4142 48.1942C53.9697 48.6386 53.72 49.2414 53.72 49.87V299.29C53.72 299.919 53.9697 300.521 54.4142 300.966C54.8586 301.41 55.4614 301.66 56.09 301.66H465.88C466.509 301.66 467.111 301.41 467.556 300.966C468 300.521 468.25 299.919 468.25 299.29V49.88C468.251 49.5679 468.191 49.2587 468.072 48.97C467.954 48.6813 467.78 48.4188 467.559 48.1977C467.339 47.9766 467.077 47.8011 466.789 47.6814C466.501 47.5616 466.192 47.5 465.88 47.5H56.09Z" fill="#CCCCCC"/>
<path d="M279.28 135.93H270.5V118.88C270.552 116.836 270.195 114.802 269.449 112.898C268.702 110.995 267.583 109.259 266.155 107.795C264.728 106.331 263.022 105.167 261.138 104.373C259.254 103.578 257.23 103.169 255.185 103.169C253.14 103.169 251.116 103.578 249.232 104.373C247.348 105.167 245.642 106.331 244.215 107.795C242.787 109.259 241.668 110.995 240.921 112.898C240.175 114.802 239.818 116.836 239.87 118.88V135.93H231.12V118.88C231.055 115.679 231.629 112.496 232.809 109.519C233.989 106.543 235.751 103.831 237.992 101.544C240.233 99.2566 242.908 97.4395 245.861 96.199C248.813 94.9585 251.983 94.3196 255.185 94.3196C258.387 94.3196 261.557 94.9585 264.509 96.199C267.462 97.4395 270.137 99.2566 272.378 101.544C274.619 103.831 276.381 106.543 277.561 109.519C278.741 112.496 279.315 115.679 279.25 118.88L279.28 135.93Z" fill="#485E61"/>
<path d="M287.23 131.23H224.53C222.067 131.23 220.07 133.227 220.07 135.69V198.39C220.07 200.853 222.067 202.85 224.53 202.85H287.23C289.693 202.85 291.69 200.853 291.69 198.39V135.69C291.69 133.227 289.693 131.23 287.23 131.23Z" fill="#5DBA3E"/>
<path d="M262.64 160.75C262.645 159.54 262.325 158.351 261.714 157.307C261.102 156.263 260.222 155.403 259.164 154.815C258.107 154.227 256.911 153.934 255.702 153.966C254.492 153.998 253.314 154.354 252.289 154.996C251.264 155.639 250.43 156.545 249.875 157.62C249.319 158.695 249.062 159.899 249.131 161.107C249.199 162.314 249.591 163.482 250.264 164.487C250.938 165.492 251.869 166.298 252.96 166.82V174.99C252.96 175.765 253.268 176.507 253.815 177.055C254.363 177.603 255.106 177.91 255.88 177.91C256.654 177.91 257.397 177.603 257.945 177.055C258.492 176.507 258.8 175.765 258.8 174.99V166.82C259.946 166.272 260.915 165.412 261.594 164.338C262.274 163.265 262.636 162.021 262.64 160.75Z" fill="white"/>
<path d="M307.65 242.5H204.11C202.25 242.55 200.399 242.227 198.666 241.549C196.933 240.872 195.353 239.854 194.02 238.556C192.686 237.258 191.627 235.706 190.903 233.992C190.18 232.278 189.807 230.436 189.807 228.575C189.807 226.714 190.18 224.872 190.903 223.158C191.627 221.444 192.686 219.892 194.02 218.594C195.353 217.296 196.933 216.278 198.666 215.601C200.399 214.923 202.25 214.6 204.11 214.65H307.65C309.51 214.6 311.361 214.923 313.094 215.601C314.827 216.278 316.407 217.296 317.74 218.594C319.074 219.892 320.133 221.444 320.857 223.158C321.58 224.872 321.953 226.714 321.953 228.575C321.953 230.436 321.58 232.278 320.857 233.992C320.133 235.706 319.074 237.258 317.74 238.556C316.407 239.854 314.827 240.872 313.094 241.549C311.361 242.227 309.51 242.55 307.65 242.5ZM204.11 217.16C201.141 217.248 198.323 218.489 196.254 220.62C194.185 222.751 193.028 225.605 193.028 228.575C193.028 231.545 194.185 234.399 196.254 236.53C198.323 238.661 201.141 239.902 204.11 239.99H307.65C310.619 239.902 313.437 238.661 315.506 236.53C317.575 234.399 318.732 231.545 318.732 228.575C318.732 225.605 317.575 222.751 315.506 220.62C313.437 218.489 310.619 217.248 307.65 217.16H204.11Z" fill="#CCCCCC"/>
<path d="M96.96 378.41C96.96 378.41 99.66 384.59 86.6 389.41C78.73 392.3 76.41 404.52 86.6 406.27C96.79 408.02 117.5 392.5 117.5 392.5V376.38L96.96 378.41Z" fill="#121E20"/>
<path d="M173.9 378.41C173.9 378.41 171.2 384.59 184.26 389.41C192.13 392.3 194.45 404.52 184.26 406.27C174.07 408.02 153.35 392.5 153.35 392.5V376.38L173.9 378.41Z" fill="#121E20"/>
<path d="M95.99 249.87C95.99 249.87 95.17 347.87 89.43 379.41C89.43 379.41 105.01 388.02 120.79 383.1L130.67 268.32L146.82 382.32C146.82 382.32 172.65 385.19 179.2 378.63C179.2 378.63 169.78 327.39 168.55 302.8C167.32 278.21 162.81 235.5 162.81 235.5L95.99 249.87Z" fill="#22393D"/>
<path d="M129.81 254.25V262.04H132.88V252.1L129.81 254.25Z" fill="#121E20"/>
<path d="M112.97 250.85L101.178 387.562L102.174 387.648L113.967 250.936L112.97 250.85Z" fill="#121E20"/>
<path d="M150.727 249.37L149.73 249.455L161.403 386.178L162.4 386.093L150.727 249.37Z" fill="#121E20"/>
<path d="M103.58 137.56L95.13 142.33C93.3689 143.322 91.8668 144.716 90.746 146.398C89.6252 148.08 88.9173 150.003 88.68 152.01C86.9 167.01 82.93 201.23 85.13 203.76C87.79 206.84 95.99 216.06 95.99 216.06L93.99 249.26C93.99 249.26 130.39 261.89 168.52 246.97L165.5 215.03C165.5 215.03 177.14 205.41 177.37 197.42C177.74 184.13 176.69 163.35 176.03 152.21C175.891 149.897 175.13 147.664 173.828 145.747C172.526 143.83 170.73 142.301 168.63 141.32L160.63 137.56H103.58Z" fill="#4358EB"/>
<path d="M116.9 130.32L103.58 137.56L111.5 167.89H118.46L114.43 176.91L129.81 200.07L147.64 174.04L143.68 168.51L150.38 165.75L160.55 137.56L145.18 129.22L116.9 130.32Z" fill="#203ED3"/>
<path d="M126.9 143.15L121.9 147.8L124.36 159.18L137.17 159.08L140.24 148.35L136.02 143.01C136.02 143.01 129.99 139.58 126.9 143.15Z" fill="#BCBDBF"/>
<path d="M119.8 127.04L116.9 130.32L121.92 147.8L131.71 138.78L140.26 148.35L145.18 129.22L143.02 127.58L119.8 127.04Z" fill="#96999A"/>
<path d="M127.76 146.78L124.38 159.18L130.32 186.95L137.19 159.08L134.42 146.78C134.42 146.78 131.24 141.76 127.76 146.78Z" fill="#231F20"/>
<path d="M95.99 216.06C98.25 218.06 100.41 220.17 102.55 222.3C104.69 224.43 106.77 226.6 108.85 228.78C110.93 230.96 112.95 233.19 114.95 235.45C116.95 237.71 118.95 239.99 120.79 242.36C118.54 240.36 116.37 238.25 114.24 236.12C112.11 233.99 110.01 231.82 107.94 229.64C105.87 227.46 103.83 225.23 101.84 222.97C99.85 220.71 97.87 218.43 95.99 216.06Z" fill="#203ED3"/>
<path d="M130.81 195.23H128.81V253.03H130.81V195.23Z" fill="#203ED3"/>
<path d="M126.39 228.36C126.39 228.36 120.59 231.98 118.88 233.24C117.17 234.5 113.69 235.39 114.88 236.83C116.07 238.27 120.53 236.83 120.53 236.83L115.53 241.13C115.53 241.13 114.78 243.8 117.53 243.52C117.53 243.52 117.05 247.08 120.06 246.39C120.06 246.39 119.58 250.01 122.38 249.33C122.38 249.33 122.59 252.52 125.38 251.45C130.18 249.62 135.98 243.83 137.81 242.36L126.39 228.36Z" fill="#FFCDC2"/>
<path d="M130.36 224.12L126.36 228.36C126.36 228.36 132.79 239.36 137.77 242.36L141.19 239.63C141.19 239.63 132.27 231.02 130.36 224.12Z" fill="#203ED3"/>
<path d="M137.33 242.13C137.33 242.13 135.22 242.19 135.87 243.83C135.87 243.83 133.03 243.77 133.51 246.12C133.51 246.12 130.71 245.58 130.98 248.12C130.98 248.12 128.04 247.33 128.56 250.34C128.56 250.34 131.19 253 132.35 249.55C132.95 249.641 133.563 249.496 134.059 249.146C134.554 248.795 134.895 248.266 135.01 247.67C135.541 247.576 136.036 247.34 136.445 246.989C136.853 246.637 137.159 246.181 137.33 245.67C137.546 245.66 137.757 245.602 137.949 245.501C138.14 245.4 138.307 245.258 138.438 245.085C138.568 244.913 138.66 244.713 138.705 244.502C138.75 244.29 138.749 244.071 138.7 243.86C138.36 242.26 137.33 242.13 137.33 242.13Z" fill="#E0A4AB"/>
<path d="M103.58 155.8C103.58 158.69 103.58 161.58 103.58 164.47C103.58 167.36 103.51 170.25 103.45 173.14C103.343 178.913 103.193 184.687 103 190.46L102.91 190.12C104.84 193.2 106.91 196.25 108.98 199.24C111.05 202.23 113.24 205.18 115.5 208.05C117.76 210.92 120.09 213.74 122.55 216.45C125.006 219.166 127.628 221.728 130.4 224.12C132.1 232.12 110.12 202.94 107.99 199.94C105.86 196.94 103.79 193.94 101.86 190.76L101.77 190.6V190.42C101.99 184.64 102.25 178.867 102.55 173.1C102.7 170.22 102.86 167.33 103.04 164.45C103.22 161.57 103.35 158.68 103.58 155.8Z" fill="#203ED3"/>
<path d="M158.09 160.1C158.29 162.66 158.44 165.22 158.6 167.78C158.76 170.34 158.9 172.9 159.04 175.46L159.4 183.14L159.72 190.83V191.05L159.57 191.23C154.86 196.96 131.57 225.67 130.44 226.94C129.11 228.45 130.94 223.22 129.59 224.71C131.84 221.71 142.14 210.5 144.47 207.62C149.137 201.86 153.86 196.14 158.64 190.46L158.51 190.87L158.31 183.18L158.16 175.49C158.16 172.93 158.09 170.36 158.09 167.8C158.09 165.24 158.07 162.67 158.09 160.1Z" fill="#203ED3"/>
<path d="M141.22 239.63C143.17 237.49 145.22 235.43 147.22 233.38C149.22 231.33 151.3 229.31 153.34 227.29L159.5 221.29C161.5 219.29 163.6 217.29 165.5 215.07C163.968 217.534 162.204 219.844 160.23 221.97C158.31 224.12 156.29 226.19 154.23 228.22C152.17 230.25 150.06 232.22 147.9 234.13C145.74 236.04 143.5 237.87 141.22 239.63Z" fill="#203ED3"/>
<path d="M120.5 236.83C121.004 236.206 121.597 235.661 122.26 235.21C122.908 234.736 123.623 234.358 124.38 234.09C123.876 234.717 123.283 235.266 122.62 235.72C121.969 236.188 121.255 236.561 120.5 236.83Z" fill="#E0A4AB"/>
<path d="M117.5 243.5C118.313 242.315 119.453 241.391 120.78 240.84C119.973 242.031 118.832 242.956 117.5 243.5Z" fill="#E0A4AB"/>
<path d="M119.95 246.19C120.342 245.586 120.832 245.052 121.4 244.61C121.947 244.15 122.565 243.782 123.23 243.52C122.842 244.123 122.355 244.658 121.79 245.1C121.239 245.559 120.618 245.927 119.95 246.19Z" fill="#E0A4AB"/>
<path d="M122.44 249.4C122.831 248.799 123.317 248.265 123.88 247.82C124.432 247.362 125.053 246.994 125.72 246.73C125.332 247.333 124.845 247.867 124.28 248.31C123.727 248.767 123.106 249.135 122.44 249.4Z" fill="#E0A4AB"/>
<path d="M119.8 117.7V127.04C119.8 127.04 126.46 137.56 130.97 137.56C135.48 137.56 142.09 130.04 143.02 127.56L143.68 117.68L119.8 117.7Z" fill="#E0A4AB"/>
<path d="M152.42 104.5C152.42 104.5 154.06 111.88 147.42 111.88C140.78 111.88 149.42 97.1102 152.42 104.5Z" fill="#E0A4AB"/>
<path d="M112.32 103.12C111.728 103.933 111.442 104.927 111.51 105.93C111.63 107.83 112.51 110.93 117.31 110.93C123.73 110.91 116.17 97.9001 112.32 103.12Z" fill="#E0A4AB"/>
<path d="M115.39 104.5C115.39 104.5 115.8 115.02 119.77 118.99C123.74 122.96 129.2 127.59 133.57 127.59C137.94 127.59 146 118.71 147.23 116.05C148.46 113.39 149.63 103.53 149.63 103.53C150.395 101.055 150.577 98.4358 150.16 95.8785C149.744 93.3212 148.741 90.895 147.23 88.7902C142.04 81.6802 144.64 77.1802 130.83 79.7902C117.02 82.4002 113.65 94.2502 114.57 98.2402C115.103 100.285 115.378 102.387 115.39 104.5Z" fill="#FFCDC2"/>
<path d="M149.28 104.5C149.28 104.5 151.05 101.9 151.79 103.7C151.79 103.7 153.4 98.7 152.6 94.7H154.5C154.5 94.7 154.17 87.95 149.62 84.31C150.51 84.0547 151.434 83.9367 152.36 83.96C150.36 81.38 143.36 78.35 141.26 77.71C141.692 77.6049 142.08 77.3686 142.372 77.0338C142.664 76.6989 142.845 76.2819 142.89 75.84C140.548 75.7199 138.21 76.1443 136.06 77.08C133.749 75.8346 131.093 75.3815 128.5 75.79L130.69 77.3C126.044 77.0038 121.456 78.4676 117.84 81.4L120.5 81.5C120.5 81.5 113.94 85.5 111.62 90.79L113.94 90.65C113.94 90.65 112.02 93.04 112.71 102.74C112.71 102.74 113.53 101.58 115.44 104.45C115.44 104.45 115.58 97.07 116.95 95.02L116.26 101.86C118.05 96.04 121.75 91.17 126.26 86.69C126.26 86.69 123.18 92.27 120.66 94.34C125.159 92.617 129.003 89.5249 131.65 85.5C130.299 88.3075 128.342 90.7802 125.92 92.74C125.92 92.74 136.3 90.83 137.26 82.08C137.26 82.08 138.49 89.74 144.36 93.97L143.5 90.04C143.994 91.3951 144.757 92.636 145.743 93.6879C146.73 94.7398 147.919 95.5808 149.24 96.16C149.738 98.9166 149.751 101.739 149.28 104.5Z" fill="#424143"/>
<path d="M120.09 100.75C121.625 99.945 123.332 99.5244 125.065 99.5244C126.798 99.5244 128.505 99.945 130.04 100.75C130.358 100.923 130.628 101.172 130.829 101.473C131.029 101.774 131.153 102.12 131.19 102.48C131.42 104.95 131.27 110.65 125.01 110.65C118.75 110.65 118.6 105.09 118.82 102.57C118.856 102.183 118.992 101.812 119.215 101.493C119.438 101.174 119.739 100.918 120.09 100.75Z" fill="#424143"/>
<path d="M135.55 100.75C137.085 99.945 138.792 99.5244 140.525 99.5244C142.258 99.5244 143.965 99.945 145.5 100.75C145.818 100.923 146.088 101.172 146.289 101.473C146.489 101.774 146.613 102.12 146.65 102.48C146.88 104.95 146.74 110.65 140.47 110.65C134.2 110.65 134.06 105.09 134.28 102.57C134.316 102.183 134.452 101.812 134.675 101.493C134.898 101.174 135.199 100.918 135.55 100.75Z" fill="#424143"/>
<path d="M149.28 105H115.39C115.22 105 115.08 104.77 115.08 104.49C115.08 104.21 115.22 103.99 115.39 103.99H149.28C149.45 103.99 149.59 104.21 149.59 104.49C149.59 104.77 149.5 105 149.28 105Z" fill="#424143"/>
<path d="M127.5 119.71C127.5 119.71 131.87 114.49 137.81 119.56C137.77 119.56 132.1 118.22 127.5 119.71Z" fill="#EA7185"/>
<path d="M132.85 108.32C132.859 108.88 132.816 109.439 132.72 109.99C132.64 110.52 132.53 110.99 132.44 111.52C132.391 111.745 132.354 111.972 132.33 112.2C132.34 112.337 132.34 112.474 132.33 112.61L132.39 112.67L132.53 112.79C132.62 112.878 132.717 112.959 132.82 113.03C133.037 113.202 133.268 113.355 133.51 113.49C133.225 113.605 132.915 113.646 132.61 113.61C132.458 113.59 132.308 113.56 132.16 113.52L131.94 113.45H131.83L131.66 113.34C131.509 113.199 131.387 113.029 131.303 112.84C131.219 112.651 131.174 112.447 131.17 112.24C131.148 111.929 131.169 111.616 131.23 111.31C131.341 110.744 131.537 110.198 131.81 109.69C132.073 109.175 132.425 108.711 132.85 108.32Z" fill="#E0A4AB"/>
<path d="M126.22 140.33L127.76 146.78H134.42L137.19 140.33C137.19 140.33 135.75 134.79 131.71 134.79C127.67 134.79 126.22 140.33 126.22 140.33Z" fill="#404041"/>
<path d="M223.78 227.83H221.5L223.14 226.19C223.279 226.046 223.356 225.855 223.356 225.655C223.356 225.455 223.279 225.264 223.14 225.12C222.999 224.98 222.809 224.901 222.61 224.901C222.411 224.901 222.221 224.98 222.08 225.12L220.44 226.76V224.5C220.44 224.301 220.361 224.11 220.22 223.97C220.08 223.829 219.889 223.75 219.69 223.75C219.491 223.75 219.3 223.829 219.16 223.97C219.019 224.11 218.94 224.301 218.94 224.5V226.82L217.3 225.17C217.159 225.03 216.969 224.951 216.77 224.951C216.571 224.951 216.381 225.03 216.24 225.17C216.101 225.314 216.024 225.505 216.024 225.705C216.024 225.905 216.101 226.096 216.24 226.24L217.88 227.88H215.5C215.301 227.88 215.11 227.959 214.97 228.1C214.829 228.24 214.75 228.431 214.75 228.63C214.75 228.829 214.829 229.02 214.97 229.16C215.11 229.301 215.301 229.38 215.5 229.38H217.82L216.18 231.02C216.04 231.161 215.961 231.351 215.961 231.55C215.961 231.749 216.04 231.939 216.18 232.08C216.321 232.22 216.511 232.299 216.71 232.299C216.909 232.299 217.099 232.22 217.24 232.08L218.88 230.44V232.75C218.88 232.949 218.959 233.14 219.1 233.28C219.24 233.421 219.431 233.5 219.63 233.5C219.829 233.5 220.02 233.421 220.16 233.28C220.301 233.14 220.38 232.949 220.38 232.75V230.44L222.02 232.08C222.161 232.22 222.351 232.299 222.55 232.299C222.749 232.299 222.939 232.22 223.08 232.08C223.22 231.939 223.299 231.749 223.299 231.55C223.299 231.351 223.22 231.161 223.08 231.02L221.5 229.33H223.82C224.019 229.33 224.21 229.251 224.35 229.11C224.491 228.97 224.57 228.779 224.57 228.58C224.57 228.381 224.491 228.19 224.35 228.05C224.21 227.909 224.019 227.83 223.82 227.83H223.78Z" fill="#CCCCCC"/>
<path d="M241.89 227.83H239.58L241.22 226.19C241.359 226.046 241.436 225.855 241.436 225.655C241.436 225.455 241.359 225.264 241.22 225.12C241.079 224.98 240.889 224.901 240.69 224.901C240.491 224.901 240.301 224.98 240.16 225.12L238.5 226.76V224.5C238.5 224.301 238.421 224.11 238.28 223.97C238.14 223.829 237.949 223.75 237.75 223.75C237.551 223.75 237.36 223.829 237.22 223.97C237.079 224.11 237 224.301 237 224.5V226.82L235.36 225.17C235.214 225.049 235.029 224.988 234.84 224.997C234.651 225.006 234.472 225.085 234.338 225.218C234.205 225.352 234.126 225.531 234.117 225.72C234.108 225.909 234.169 226.094 234.29 226.24L235.93 227.88H233.62C233.421 227.88 233.23 227.959 233.09 228.1C232.949 228.24 232.87 228.431 232.87 228.63C232.87 228.829 232.949 229.02 233.09 229.16C233.23 229.301 233.421 229.38 233.62 229.38H235.93L234.29 231.02C234.15 231.161 234.071 231.351 234.071 231.55C234.071 231.749 234.15 231.939 234.29 232.08C234.432 232.221 234.625 232.3 234.825 232.3C235.025 232.3 235.218 232.221 235.36 232.08L237 230.44V232.75C237 232.949 237.079 233.14 237.22 233.28C237.36 233.421 237.551 233.5 237.75 233.5C237.949 233.5 238.14 233.421 238.28 233.28C238.421 233.14 238.5 232.949 238.5 232.75V230.44L240.14 232.08C240.281 232.221 240.471 232.3 240.67 232.3C240.868 232.296 241.057 232.217 241.2 232.08C241.34 231.939 241.419 231.749 241.419 231.55C241.419 231.351 241.34 231.161 241.2 231.02L239.56 229.38H241.87C242.069 229.38 242.26 229.301 242.4 229.16C242.541 229.02 242.62 228.829 242.62 228.63C242.62 228.431 242.541 228.24 242.4 228.1C242.26 227.959 242.069 227.88 241.87 227.88L241.89 227.83Z" fill="#CCCCCC"/>
<path d="M260.01 227.83H257.69L259.33 226.19C259.469 226.046 259.546 225.855 259.546 225.655C259.546 225.455 259.469 225.264 259.33 225.12C259.189 224.98 258.999 224.901 258.8 224.901C258.601 224.901 258.411 224.98 258.27 225.12L256.63 226.76V224.5C256.63 224.301 256.551 224.11 256.41 223.97C256.27 223.829 256.079 223.75 255.88 223.75C255.681 223.75 255.49 223.829 255.35 223.97C255.209 224.11 255.13 224.301 255.13 224.5V226.82L253.5 225.12C253.359 224.98 253.169 224.901 252.97 224.901C252.771 224.901 252.581 224.98 252.44 225.12C252.301 225.264 252.224 225.455 252.224 225.655C252.224 225.855 252.301 226.046 252.44 226.19L254.08 227.83H251.76C251.561 227.83 251.37 227.909 251.23 228.05C251.089 228.19 251.01 228.381 251.01 228.58C251.01 228.779 251.089 228.97 251.23 229.11C251.37 229.251 251.561 229.33 251.76 229.33H254.08L252.44 230.97C252.3 231.111 252.221 231.301 252.221 231.5C252.221 231.699 252.3 231.889 252.44 232.03C252.581 232.17 252.771 232.249 252.97 232.249C253.169 232.249 253.359 232.17 253.5 232.03L255.14 230.39V232.7C255.14 232.899 255.219 233.09 255.36 233.23C255.5 233.371 255.691 233.45 255.89 233.45C256.089 233.45 256.28 233.371 256.42 233.23C256.561 233.09 256.64 232.899 256.64 232.7V230.39L258.28 232.03C258.421 232.17 258.611 232.249 258.81 232.249C259.009 232.249 259.199 232.17 259.34 232.03C259.48 231.889 259.559 231.699 259.559 231.5C259.559 231.301 259.48 231.111 259.34 230.97L257.7 229.33H260.02C260.219 229.33 260.41 229.251 260.55 229.11C260.691 228.97 260.77 228.779 260.77 228.58C260.77 228.381 260.691 228.19 260.55 228.05C260.41 227.909 260.219 227.83 260.02 227.83H260.01Z" fill="#CCCCCC"/>
<path d="M278.12 227.83H275.8L277.44 226.19C277.51 226.12 277.566 226.038 277.604 225.946C277.643 225.855 277.663 225.757 277.663 225.659C277.664 225.56 277.645 225.462 277.607 225.37C277.57 225.279 277.515 225.195 277.445 225.125C277.375 225.055 277.293 224.999 277.201 224.961C277.11 224.922 277.012 224.902 276.914 224.902C276.815 224.901 276.717 224.92 276.625 224.958C276.534 224.995 276.45 225.05 276.38 225.12L274.74 226.76V224.5C274.74 224.301 274.661 224.11 274.52 223.97C274.38 223.829 274.189 223.75 273.99 223.75C273.791 223.75 273.6 223.829 273.46 223.97C273.319 224.11 273.24 224.301 273.24 224.5V226.82L271.6 225.17C271.459 225.03 271.269 224.951 271.07 224.951C270.871 224.951 270.681 225.03 270.54 225.17C270.401 225.314 270.324 225.505 270.324 225.705C270.324 225.905 270.401 226.096 270.54 226.24L272.18 227.88H269.86C269.661 227.88 269.47 227.959 269.33 228.1C269.189 228.24 269.11 228.431 269.11 228.63C269.11 228.829 269.189 229.02 269.33 229.16C269.47 229.301 269.661 229.38 269.86 229.38H272.18L270.5 230.97C270.36 231.111 270.281 231.301 270.281 231.5C270.281 231.699 270.36 231.889 270.5 232.03C270.643 232.167 270.832 232.246 271.03 232.25C271.229 232.25 271.419 232.171 271.56 232.03L273.2 230.39V232.7C273.2 232.899 273.279 233.09 273.42 233.23C273.56 233.371 273.751 233.45 273.95 233.45C274.149 233.45 274.34 233.371 274.48 233.23C274.621 233.09 274.7 232.899 274.7 232.7V230.39L276.34 232.03C276.483 232.167 276.672 232.246 276.87 232.25C277.069 232.25 277.259 232.171 277.4 232.03C277.471 231.961 277.527 231.879 277.565 231.788C277.604 231.697 277.624 231.599 277.624 231.5C277.624 231.401 277.604 231.303 277.565 231.212C277.527 231.121 277.471 231.039 277.4 230.97L275.76 229.33H278.08C278.279 229.33 278.47 229.251 278.61 229.11C278.751 228.97 278.83 228.779 278.83 228.58C278.83 228.381 278.751 228.19 278.61 228.05C278.47 227.909 278.279 227.83 278.08 227.83H278.12Z" fill="#CCCCCC"/>
<path d="M296.24 227.83H293.92L295.56 226.19C295.699 226.046 295.776 225.855 295.776 225.655C295.776 225.455 295.699 225.264 295.56 225.12C295.419 224.98 295.229 224.901 295.03 224.901C294.831 224.901 294.641 224.98 294.5 225.12L292.86 226.76V224.5C292.86 224.301 292.781 224.11 292.64 223.97C292.5 223.829 292.309 223.75 292.11 223.75C291.911 223.75 291.72 223.829 291.58 223.97C291.439 224.11 291.36 224.301 291.36 224.5V226.82L289.72 225.17C289.578 225.029 289.386 224.951 289.186 224.952C288.987 224.953 288.796 225.033 288.655 225.175C288.514 225.317 288.436 225.509 288.437 225.709C288.438 225.908 288.518 226.099 288.66 226.24L290.3 227.88H287.98C287.781 227.88 287.59 227.959 287.45 228.1C287.309 228.24 287.23 228.431 287.23 228.63C287.23 228.829 287.309 229.02 287.45 229.16C287.59 229.301 287.781 229.38 287.98 229.38H290.3L288.66 231.02C288.589 231.089 288.533 231.171 288.495 231.262C288.456 231.353 288.436 231.451 288.436 231.55C288.436 231.649 288.456 231.747 288.495 231.838C288.533 231.929 288.589 232.011 288.66 232.08C288.802 232.219 288.992 232.298 289.19 232.3C289.388 232.296 289.577 232.217 289.72 232.08L291.36 230.44V232.75C291.36 232.949 291.439 233.14 291.58 233.28C291.72 233.421 291.911 233.5 292.11 233.5C292.309 233.5 292.5 233.421 292.64 233.28C292.781 233.14 292.86 232.949 292.86 232.75V230.44L294.5 232.08C294.642 232.219 294.832 232.298 295.03 232.3C295.228 232.296 295.417 232.217 295.56 232.08C295.7 231.939 295.779 231.749 295.779 231.55C295.779 231.351 295.7 231.161 295.56 231.02L293.92 229.38H296.24C296.439 229.38 296.63 229.301 296.77 229.16C296.911 229.02 296.99 228.829 296.99 228.63C296.99 228.431 296.911 228.24 296.77 228.1C296.63 227.959 296.439 227.88 296.24 227.88V227.83Z" fill="#CCCCCC"/>
<path d="M414.44 187.41H410.28V374.61H414.44V187.41Z" fill="#AFAFAF"/>
<path d="M426.73 377.28C428.403 377.28 429.76 375.923 429.76 374.25C429.76 372.577 428.403 371.22 426.73 371.22H397.35C395.677 371.22 394.32 372.577 394.32 374.25C394.32 375.923 395.677 377.28 397.35 377.28H426.73Z" fill="#AFAFAF"/>
<path d="M443.55 200.7H381.16L385.89 138.32H438.82L443.55 200.7Z" fill="#FFC300"/>
<path d="M30.42 285.96C30.42 285.96 16.98 271.5 22.21 260.27C22.2406 260.194 22.2932 260.13 22.3609 260.084C22.4286 260.038 22.5084 260.014 22.59 260.014C22.6716 260.014 22.7514 260.038 22.8191 260.084C22.8868 260.13 22.9393 260.194 22.97 260.27C24.03 263.17 27.76 272.22 33.21 273.08V286.86L30.42 285.96Z" fill="#449935"/>
<path d="M45.73 288.5C47.9991 284.927 50.6369 281.602 53.6 278.58C54.83 277.44 55.71 275.69 57.28 275.06C77.9 266.74 70.5 245.68 70.5 245.68C70.4884 245.53 70.4322 245.386 70.3386 245.267C70.245 245.149 70.1182 245.061 69.9745 245.015C69.8307 244.969 69.6764 244.966 69.5314 245.008C69.3863 245.05 69.257 245.134 69.16 245.25L67.58 247.1L41.86 278.93L45.73 288.5Z" fill="#59AA48"/>
<path d="M37.23 234.5C37.23 234.5 42.48 224.99 46.43 225.23C50.38 225.47 56.09 237.05 55.55 240.84L55.24 246.5L43.41 261.93L37.23 234.5Z" fill="#6FCE5B"/>
<path d="M34.96 263.01C34.96 263.01 21.5 252.8 17.12 242.14C14.8071 236.42 13.1531 230.455 12.19 224.36C12.1428 224.079 12.1561 223.792 12.229 223.517C12.3018 223.242 12.4325 222.985 12.6124 222.765C12.7922 222.544 13.017 222.365 13.2719 222.238C13.5267 222.111 13.8056 222.04 14.09 222.03C18.09 221.8 27.31 222.85 37.22 234.71C37.22 234.71 45.41 245.03 47.03 252.71C47.03 252.71 53.86 240.08 63.21 234C63.3934 233.881 63.6053 233.813 63.8238 233.803C64.0424 233.793 64.2597 233.841 64.4533 233.943C64.6468 234.045 64.8098 234.196 64.9252 234.382C65.0406 234.568 65.1044 234.781 65.11 235C65.5157 238.491 66.4602 241.898 67.91 245.1C67.91 245.1 73.01 257.63 53.76 268.64C53.76 268.64 45.87 274.79 44.83 281.05L34.96 263.01Z" fill="#449935"/>
<path d="M32.5 324.27L33.43 317.66C33.43 317.66 16.5 311.28 9.43 297.25C9.43 297.25 15.17 299.98 19.43 300.09C23.69 300.2 30.56 304.09 33.43 307.57C36.3 311.05 28.11 296.57 21.04 291.96C9.5 284.42 8.34 269.58 8.34 269.58C8.34 269.58 20.86 271.82 23.95 276.15L27.05 280.48L30.6 286.04L39.03 296.92C39.03 296.92 52.5 275.99 63.5 269.58C63.5 269.58 66.12 282.72 51.82 298.26C51.82 298.26 46.18 305.6 44.71 306.61C44.71 306.61 54.07 302.74 67.59 310.32C67.59 310.32 62.03 316.81 50.74 315.11C46.18 314.42 43.41 314.69 41.74 315.26C40.9705 315.531 40.3092 316.043 39.855 316.721C39.4008 317.399 39.178 318.205 39.22 319.02L39.47 324.27H32.5Z" fill="#6FCE5B"/>
<path d="M36.76 312.29C36.76 312.29 28.41 290.37 30.5 277.29C32.04 267.62 35.29 261.55 36.88 259.03C36.9515 258.918 37.0546 258.83 37.1764 258.777C37.2981 258.723 37.433 258.708 37.5638 258.731C37.6945 258.755 37.8153 258.817 37.9108 258.909C38.0063 259.001 38.0722 259.12 38.1 259.25C38.6942 262.345 39.8463 265.307 41.5 267.99C43.82 271.3 47.33 291.14 44.87 295.3C44.4775 295.901 44.1427 296.537 43.87 297.2C41.9095 302.413 39.5317 307.459 36.76 312.29Z" fill="#6FCE5B"/>
<path d="M51.94 376.84H19.57C19.0044 376.84 18.4591 376.629 18.0411 376.248C17.623 375.867 17.3623 375.343 17.31 374.78L12.68 325.78C12.6508 325.466 12.6875 325.149 12.7878 324.849C12.8881 324.55 13.0497 324.274 13.2624 324.041C13.4751 323.808 13.7342 323.621 14.023 323.494C14.3119 323.366 14.6242 323.3 14.94 323.3H55.5C55.9573 323.299 56.4096 323.394 56.828 323.579C57.2464 323.763 57.6216 324.033 57.9295 324.371C58.2375 324.709 58.4713 325.108 58.616 325.542C58.7608 325.976 58.8132 326.435 58.77 326.89L54.2 374.78C54.1477 375.343 53.8869 375.867 53.4689 376.248C53.0509 376.629 52.5056 376.84 51.94 376.84Z" fill="#395356"/>
<path d="M51.94 376.84C52.5056 376.84 53.0509 376.629 53.4689 376.248C53.887 375.867 54.1477 375.343 54.2 374.78L58.72 326.86C58.7629 326.409 58.7118 325.954 58.5701 325.524C58.4283 325.093 58.199 324.697 57.8964 324.36C57.5939 324.022 57.2248 323.751 56.8123 323.564C56.3999 323.376 55.953 323.276 55.5 323.27H48.5C48.5 323.27 61.5 365.01 43.78 376.84H51.94Z" fill="#121E21"/>
<path d="M45 234.56C45.8616 236.548 46.5054 238.623 46.92 240.75C47.3599 242.878 47.6208 245.039 47.7 247.21C47.7603 249.394 47.5995 251.578 47.22 253.73C46.8152 255.873 46.0655 257.937 45 259.84C45.4733 257.771 45.8074 255.673 46 253.56C46.14 251.46 46.2 249.36 46.14 247.26C46.08 245.16 45.91 243.05 45.71 240.93C45.51 238.81 45.27 236.71 45 234.56Z" fill="#449935"/>
<path d="M49.5 237.69C49.9706 238.411 50.2747 239.227 50.39 240.08C50.5234 240.941 50.4962 241.819 50.31 242.67C50.107 243.546 49.6992 244.362 49.12 245.05C48.5412 245.727 47.7528 246.192 46.88 246.37C47.3558 245.744 47.771 245.075 48.12 244.37C48.4143 243.709 48.6485 243.023 48.82 242.32C49.16 240.89 49.28 239.39 49.5 237.69Z" fill="#449935"/>
<path d="M23.55 233.87C26.4449 236.257 29.1435 238.872 31.62 241.69C34.1265 244.496 36.4258 247.481 38.5 250.62C40.5992 253.755 42.3528 257.108 43.73 260.62C45.1678 264.124 45.8821 267.883 45.83 271.67C45.2825 268.002 44.201 264.435 42.62 261.08C41.86 259.41 41.03 257.76 40.1 256.16C39.17 254.56 38.24 252.97 37.21 251.43C35.21 248.33 32.98 245.36 30.7 242.43C28.42 239.5 26.02 236.68 23.55 233.87Z" fill="#6FCE5B"/>
<path d="M30.5 234.23C31.0791 234.795 31.5621 235.45 31.93 236.17C32.3025 236.873 32.5879 237.618 32.78 238.39C32.9924 239.175 33.0801 239.988 33.04 240.8C33.0394 241.647 32.7581 242.47 32.24 243.14C32.1698 242.383 32.0359 241.634 31.84 240.9L31.29 238.77C30.8784 237.286 30.6138 235.766 30.5 234.23Z" fill="#6FCE5B"/>
<path d="M37.95 242.42C38.3955 243.086 38.733 243.819 38.95 244.59C39.1882 245.35 39.3326 246.136 39.38 246.93C39.4359 247.742 39.3719 248.557 39.19 249.35C39.0402 250.176 38.626 250.93 38.01 251.5C38.0798 250.745 38.0798 249.985 38.01 249.23L37.87 247.04C37.7419 245.501 37.7687 243.954 37.95 242.42Z" fill="#6FCE5B"/>
<path d="M25.81 245C26.6345 244.736 27.4942 244.598 28.36 244.59C29.2122 244.568 30.0642 244.642 30.9 244.81C31.7553 244.974 32.5834 245.256 33.36 245.65C34.1787 246.025 34.8528 246.657 35.28 247.45C34.5247 247.148 33.7407 246.924 32.94 246.78L30.6 246.32C29.81 246.16 29.02 245.99 28.22 245.79C27.3989 245.584 26.5935 245.32 25.81 245Z" fill="#6FCE5B"/>
<path d="M31.71 254.29C32.5313 254.027 33.3875 253.889 34.25 253.88C35.1055 253.859 35.9608 253.932 36.8 254.1C37.6537 254.257 38.4793 254.541 39.25 254.94C40.0737 255.312 40.752 255.944 41.18 256.74C40.4213 256.438 39.6339 256.214 38.83 256.07L36.5 255.61C35.72 255.45 34.93 255.28 34.13 255.07C33.3044 254.873 32.4953 254.612 31.71 254.29Z" fill="#6FCE5B"/>
<path d="M58.22 249.62C57.1576 250.555 56.2017 251.605 55.37 252.75C54.5304 253.874 53.7526 255.042 53.04 256.25C51.6119 258.663 50.3748 261.184 49.34 263.79C48.23 266.37 47.34 269.06 46.45 271.73C46.07 273.09 45.63 274.44 45.22 275.8C44.81 277.16 44.5 278.5 44.01 279.9C44.12 278.48 44.31 277.06 44.48 275.63C44.65 274.2 45 272.82 45.3 271.41C45.6 270 46.01 268.63 46.44 267.26C46.87 265.89 47.35 264.53 47.92 263.2C48.49 261.87 49.11 260.57 49.75 259.28L50.84 257.41C51.2 256.78 51.64 256.2 52.04 255.6C52.44 255 52.91 254.44 53.35 253.87C53.79 253.3 54.3 252.77 54.81 252.26C55.804 251.21 56.9543 250.319 58.22 249.62Z" fill="#6FCE5B"/>
<path d="M57.5 259.84C55.3101 261.014 53.2518 262.419 51.36 264.03C50.4386 264.826 49.5764 265.689 48.78 266.61C47.95 267.53 47.25 268.55 46.43 269.61C46.6491 268.309 47.1177 267.063 47.81 265.94C48.4879 264.809 49.3458 263.795 50.35 262.94C51.3493 262.071 52.4757 261.359 53.69 260.83C54.8819 260.251 56.1769 259.914 57.5 259.84Z" fill="#6FCE5B"/>
<path d="M49.17 254.62C49.622 255.112 49.9631 255.695 50.17 256.33C50.387 256.945 50.5117 257.589 50.54 258.24C50.5688 258.915 50.4878 259.591 50.3 260.24C50.116 260.891 49.7722 261.486 49.3 261.97C49.19 261.27 49.16 260.68 49.11 260.09C49.06 259.5 49.03 258.93 49.01 258.34C48.99 257.75 49.01 257.17 49.01 256.57C49.0153 255.917 49.0687 255.265 49.17 254.62Z" fill="#6FCE5B"/>
<path d="M41.5 283.38C41.38 284.61 41.22 285.79 41.05 286.96L40.58 290.5C40.42 291.66 40.27 292.82 40.13 293.99C39.99 295.16 39.9 296.33 39.7 297.56C39.2597 296.407 39 295.193 38.93 293.96C38.8432 292.736 38.8868 291.505 39.06 290.29C39.2223 289.078 39.5071 287.885 39.91 286.73C40.2764 285.543 40.8119 284.415 41.5 283.38Z" fill="#6FCE5B"/>
<path d="M17.14 279.9C20.2204 281.473 22.9782 283.61 25.27 286.2C27.6177 288.764 29.6335 291.613 31.27 294.68C32.0517 296.226 32.7527 297.812 33.37 299.43C33.66 300.25 34 301.04 34.24 301.87C34.48 302.7 34.72 303.53 34.95 304.36C35.1896 305.188 35.3799 306.03 35.52 306.88L35.99 309.42C36.21 311.12 36.34 312.84 36.45 314.54C36 312.88 35.67 311.21 35.25 309.54L34.5 307.12L34.16 305.9C34.05 305.5 33.89 305.1 33.76 304.7C33.47 303.91 33.19 303.11 32.93 302.31C32.67 301.51 32.29 300.75 31.98 299.97C31.39 298.39 30.59 296.91 29.87 295.4C28.3008 292.427 26.4561 289.608 24.36 286.98C22.2619 284.325 19.8359 281.946 17.14 279.9Z" fill="#449935"/>
<path d="M54.85 287.5C51.3732 291.466 48.1151 295.619 45.09 299.94L43.97 301.56L42.97 303.22C42.6 303.77 42.28 304.34 41.97 304.9C41.66 305.46 41.28 306.02 40.97 306.6C39.66 308.88 38.57 311.26 37.44 313.69C37.9499 311.057 38.7759 308.495 39.9 306.06C41.0277 303.615 42.3661 301.273 43.9 299.06C45.4108 296.86 47.082 294.774 48.9 292.82C50.7125 290.864 52.7045 289.083 54.85 287.5Z" fill="#449935"/>
<path d="M35.28 273.5C36.8157 276.614 37.961 279.905 38.69 283.3C38.87 284.14 39.08 284.99 39.21 285.85L39.63 288.42C39.82 290.15 39.99 291.88 40.05 293.62L40.1 294.93V296.23C40.1 297.1 40.1 297.97 40.03 298.84C39.86 300.57 39.79 302.31 39.45 304.02C38.9178 307.444 38.0055 310.798 36.73 314.02C37.4115 310.661 37.9222 307.27 38.26 303.86C38.5762 300.463 38.6564 297.048 38.5 293.64C38.3855 290.242 38.0515 286.855 37.5 283.5C36.9699 280.124 36.2285 276.784 35.28 273.5Z" fill="#449935"/>
<path d="M33.5 287.08C34.521 287.316 35.475 287.781 36.29 288.44C37.5473 289.418 38.518 290.717 39.1 292.2C39.2881 292.698 39.4222 293.214 39.5 293.74C39.6899 294.772 39.6316 295.835 39.33 296.84C38.97 295.84 38.74 294.93 38.33 294.06C37.9791 293.198 37.5542 292.368 37.06 291.58C36.5893 290.788 36.0682 290.026 35.5 289.3C34.84 288.56 34.19 287.84 33.5 287.08Z" fill="#449935"/>
<path d="M33.5 295.17C34.4865 295.435 35.3952 295.932 36.15 296.62C36.9363 297.286 37.5909 298.093 38.08 299C38.5963 299.901 38.9357 300.892 39.08 301.92C39.23 302.925 39.1479 303.952 38.84 304.92C38.5 303.92 38.26 303.06 37.92 302.2C37.5969 301.352 37.216 300.526 36.78 299.73C35.8475 298.101 34.7483 296.572 33.5 295.17Z" fill="#449935"/>
<path d="M18.41 303.4C20.2453 303.804 22.042 304.366 23.78 305.08C25.5237 305.769 27.2177 306.578 28.85 307.5C29.66 307.98 30.46 308.5 31.24 309.02C32.0293 309.577 32.7841 310.182 33.5 310.83C34.217 311.474 34.8609 312.195 35.42 312.98C35.989 313.756 36.3598 314.659 36.5 315.61C36.0685 314.813 35.4998 314.099 34.82 313.5C34.1577 312.884 33.4526 312.316 32.71 311.8C31.23 310.8 29.71 309.8 28.08 308.89C24.91 307.02 21.63 305.34 18.41 303.4Z" fill="#449935"/>
<path d="M57.06 310.75C55.2178 310.359 53.3495 310.101 51.47 309.98C49.6401 309.854 47.8018 309.935 45.99 310.22L44.66 310.48L43.37 310.88C42.9343 311.009 42.5096 311.173 42.1 311.37C41.6783 311.534 41.2704 311.732 40.88 311.96C39.2493 312.871 37.7491 313.998 36.42 315.31C36.66 314.9 36.91 314.48 37.18 314.08C37.4234 313.655 37.7191 313.262 38.06 312.91L39.06 311.84C39.43 311.52 39.84 311.24 40.24 310.94C41.8741 309.791 43.7479 309.029 45.72 308.71C47.6702 308.401 49.6589 308.428 51.6 308.79C53.5212 309.117 55.3696 309.78 57.06 310.75Z" fill="#449935"/>
<path d="M39.31 297.21C39.0979 296.445 39.0536 295.644 39.18 294.86C39.2928 294.071 39.5397 293.306 39.91 292.6C40.3035 291.875 40.8452 291.242 41.5 290.74C42.1611 290.247 42.9653 289.984 43.79 289.99C43.2648 290.491 42.78 291.033 42.34 291.61C41.9563 292.161 41.6024 292.732 41.28 293.32C40.62 294.5 40.09 295.82 39.31 297.21Z" fill="#449935"/>
<path d="M454.79 86.2302C454.794 81.5216 453.271 76.9387 450.449 73.1695C447.627 69.4002 443.658 66.6481 439.139 65.3261C434.62 64.0042 429.794 64.1838 425.385 65.8379C420.977 67.4921 417.224 70.5316 414.69 74.5002C412.65 72.9527 410.243 71.9631 407.705 71.6289C405.166 71.2947 402.585 71.6274 400.214 72.5942C397.844 73.561 395.766 75.1286 394.185 77.1427C392.604 79.1567 391.576 81.5477 391.2 84.0802C389.495 83.2254 387.62 82.7677 385.713 82.7414C383.806 82.7151 381.918 83.1208 380.191 83.9282C378.463 84.7356 376.941 85.9237 375.738 87.4033C374.535 88.883 373.683 90.6157 373.246 92.4717C372.808 94.3277 372.796 96.2586 373.211 98.1197C373.627 99.9809 374.458 101.724 375.643 103.218C376.827 104.712 378.335 105.918 380.053 106.747C381.77 107.575 383.653 108.003 385.56 108H434.41C439.941 107.651 445.131 105.204 448.918 101.158C452.706 97.1117 454.806 91.7724 454.79 86.2302Z" fill="#ECECEC"/>
<path d="M15.08 28.5501C15.0446 22.4681 16.9904 16.54 20.6233 11.6622C24.2562 6.78436 29.3785 3.22204 35.2158 1.51391C41.053 -0.194223 47.2877 0.0447304 52.9771 2.19464C58.6665 4.34454 63.5011 8.28848 66.75 13.4301C69.379 11.44 72.4807 10.1684 75.7501 9.74021C79.0195 9.31204 82.344 9.74207 85.3969 10.988C88.4497 12.234 91.1258 14.253 93.1619 16.8465C95.1981 19.44 96.5242 22.5188 97.01 25.7801C99.2568 24.6407 101.741 24.048 104.26 24.0501C106.397 24.0501 108.512 24.4709 110.486 25.2886C112.46 26.1062 114.254 27.3046 115.765 28.8154C117.275 30.3263 118.474 32.1199 119.292 34.0938C120.109 36.0678 120.53 38.1835 120.53 40.3201C120.53 42.4567 120.109 44.5724 119.292 46.5463C118.474 48.5203 117.275 50.3139 115.765 51.8247C114.254 53.3355 112.46 54.534 110.486 55.3516C108.512 56.1692 106.397 56.5901 104.26 56.5901H41.34V56.5001C34.2282 56.0573 27.5528 52.9197 22.6737 47.7266C17.7946 42.5335 15.079 35.6756 15.08 28.5501Z" fill="#ECECEC"/>
</svg>
