<svg width="470" height="491" viewBox="0 0 470 491" fill="none" xmlns="http://www.w3.org/2000/svg">
<path d="M366.17 0H280.49V134.15H366.17V0Z" fill="#EFEFEF"/>
<path d="M462.87 0H377.19V134.15H462.87V0Z" fill="#EFEFEF"/>
<path d="M366.17 146.22H280.49V280.37H366.17V146.22Z" fill="#EFEFEF"/>
<path d="M462.87 146.22H377.19V280.37H462.87V146.22Z" fill="#EFEFEF"/>
<path d="M231.48 401.44C109.15 401.44 9.97998 421.34 9.97998 445.89C9.97998 470.44 109.15 490.33 231.48 490.33C353.81 490.33 453 470.43 453 445.89C453 421.35 353.83 401.44 231.5 401.44" fill="#EBEBEB"/>
<path d="M148.43 307.24H13.16V343.63H148.43V307.24Z" fill="#333333"/>
<path d="M191.94 278.66H12.72C9.91441 278.66 7.64001 280.934 7.64001 283.74V374.07C7.64001 376.876 9.91441 379.15 12.72 379.15H191.94C194.746 379.15 197.02 376.876 197.02 374.07V283.74C197.02 280.934 194.746 278.66 191.94 278.66Z" fill="#D1D1D1"/>
<path d="M156.05 278.66H5.08C2.27439 278.66 0 280.934 0 283.74V374.07C0 376.876 2.27439 379.15 5.08 379.15H156.05C158.856 379.15 161.13 376.876 161.13 374.07V283.74C161.13 280.934 158.856 278.66 156.05 278.66Z" fill="#EDEDED"/>
<path d="M148.22 289.04H13.36C11.5043 289.04 10 290.544 10 292.4V322.07C10 323.926 11.5043 325.43 13.36 325.43H148.22C150.076 325.43 151.58 323.926 151.58 322.07V292.4C151.58 290.544 150.076 289.04 148.22 289.04Z" fill="#F4F4F4"/>
<path d="M148.22 332.71H13.36C11.5043 332.71 10 334.214 10 336.07V365.74C10 367.596 11.5043 369.1 13.36 369.1H148.22C150.076 369.1 151.58 367.596 151.58 365.74V336.07C151.58 334.214 150.076 332.71 148.22 332.71Z" fill="#F4F4F4"/>
<path d="M91.0401 304.51H67.9901C66.7861 304.51 65.8101 305.486 65.8101 306.69V307.79C65.8101 308.994 66.7861 309.97 67.9901 309.97H91.0401C92.244 309.97 93.2201 308.994 93.2201 307.79V306.69C93.2201 305.486 92.244 304.51 91.0401 304.51Z" fill="white"/>
<path d="M91.82 348.18H68.77C67.566 348.18 66.59 349.156 66.59 350.36V351.46C66.59 352.664 67.566 353.64 68.77 353.64H91.82C93.024 353.64 94 352.664 94 351.46V350.36C94 349.156 93.024 348.18 91.82 348.18Z" fill="white"/>
<path d="M406.07 204.7C397.47 216.5 403.18 224.79 404.71 226.64L404.47 225.34C404.451 225.248 404.451 225.153 404.47 225.061C404.489 224.969 404.526 224.881 404.579 224.804C404.632 224.727 404.7 224.661 404.78 224.61C404.859 224.56 404.947 224.526 405.04 224.51H405.17C405.336 224.509 405.497 224.567 405.625 224.673C405.753 224.779 405.84 224.927 405.87 225.09L405.96 225.54C413.72 211.93 406.07 204.71 406.07 204.71" fill="#D2D2D2"/>
<path d="M416.13 236.86H415.88C411.39 237.18 410.55 244.86 410.5 250.08L411.22 254.02C413.49 250.39 421.56 236.85 416.13 236.86Z" fill="#D2D2D2"/>
<path d="M394.91 230.68C394.91 230.68 399.56 238.68 407.44 241.42L406.49 236.26C404.57 234.72 399.14 230.68 394.91 230.68Z" fill="#D2D2D2"/>
<path d="M379.33 230.26C377.731 230.272 376.136 230.413 374.56 230.68C374.56 230.68 376.05 239.12 389.31 239.68L387.61 237.24C387.554 237.163 387.514 237.076 387.492 236.983C387.471 236.891 387.468 236.795 387.485 236.701C387.502 236.608 387.538 236.519 387.59 236.439C387.643 236.36 387.711 236.292 387.79 236.24C387.906 236.154 388.046 236.109 388.19 236.11C388.306 236.11 388.42 236.139 388.523 236.193C388.626 236.247 388.714 236.325 388.78 236.42L390.2 238.42C390 235.84 388.51 230.2 379.33 230.2" fill="#D2D2D2"/>
<path d="M383.84 245.64C381.2 245.628 378.578 246.089 376.1 247C376.1 247 382.44 251 388.91 251C391.353 251.071 393.757 250.372 395.78 249L395.07 248C391.508 246.523 387.696 245.739 383.84 245.69" fill="#D2D2D2"/>
<path d="M399.2 259.81L399.31 259.96C399.386 259.983 399.459 260.014 399.53 260.05L399.2 259.81ZM381.09 251.23C378.34 251.23 376.56 252.79 377.09 257.23C377.49 260.92 379.52 262.02 382.09 262.02C385.31 262.02 389.36 260.26 391.97 259.76C393.195 259.515 394.441 259.388 395.69 259.38C396.27 259.38 396.77 259.38 397.22 259.45L397.01 259.17C396.898 259.041 396.837 258.876 396.837 258.705C396.837 258.534 396.898 258.369 397.01 258.24C393.15 255.67 385.76 251.24 381.13 251.24" fill="#D2D2D2"/>
<path d="M394.91 263.39C394.91 263.39 391.98 266.84 396.35 271.7L388.92 268.78C388.92 268.78 391.71 273.53 396.54 273.53C397.651 273.519 398.749 273.288 399.77 272.85L399.04 272.25C398.898 272.128 398.809 271.955 398.792 271.768C398.775 271.582 398.832 271.396 398.95 271.25C399.017 271.169 399.101 271.103 399.196 271.058C399.291 271.013 399.395 270.99 399.5 270.99C399.668 270.994 399.83 271.054 399.96 271.16L400.65 271.73C400.32 269.51 396.92 263.55 394.91 263.4" fill="#D2D2D2"/>
<path d="M419.75 245.64C416.12 257 421.09 263 422 263.93L422.68 262.76C427.05 251.43 419.74 245.64 419.74 245.64" fill="#D2D2D2"/>
<path d="M437.92 250.37C435.09 250.37 431.24 253.04 429.1 254.72L427.95 256.72C429.36 258.19 431.95 258.94 434.41 258.94C438.48 258.94 442.41 256.94 441.06 252.84C440.902 252.134 440.501 251.505 439.927 251.063C439.354 250.621 438.644 250.393 437.92 250.42" fill="#D2D2D2"/>
<path d="M430.35 225.21C424.16 234.86 430.35 246.31 431.35 248.08L433 245.3C436.47 235.9 430.36 225.21 430.36 225.21" fill="#D2D2D2"/>
<path d="M465.34 211C458.71 211 452.69 229.68 452.69 229.68C441.51 233.01 438.12 236.95 437.09 239.05C437.217 239.049 437.342 239.084 437.45 239.15C437.578 239.223 437.68 239.335 437.74 239.47C439.315 238.341 441.225 237.778 443.16 237.87C445.941 238 448.694 238.487 451.35 239.32C453.587 240.068 455.902 240.557 458.25 240.78C458.759 240.795 459.266 240.707 459.74 240.52C463.96 238.72 449.49 234.24 449.49 234.24C472.96 224.09 462.14 222.84 462.14 222.84C462.14 222.84 474.61 215.89 467.27 211.56C466.685 211.202 466.015 211.009 465.33 211" fill="#D2D2D2"/>
<path d="M458.9 250.94C454.71 250.94 448.57 258.17 445.25 262.52L445.72 262.08C445.785 262.016 445.861 261.965 445.945 261.931C446.029 261.897 446.119 261.879 446.21 261.88C446.307 261.878 446.404 261.897 446.493 261.935C446.583 261.973 446.663 262.029 446.73 262.1C446.86 262.234 446.932 262.413 446.932 262.6C446.932 262.786 446.86 262.966 446.73 263.1L444.31 265.4C449.26 264.21 465.81 259.69 461.82 252.78C461.559 252.23 461.149 251.765 460.636 251.438C460.123 251.111 459.528 250.935 458.92 250.93" fill="#D2D2D2"/>
<path d="M451.72 270.2C447.09 270.2 440.85 270.84 438.28 271.13L438.21 271.19C441.21 271.35 444.32 274.3 447.05 277.25C449.78 280.2 452.28 283.33 453.85 283.33C454.023 283.33 454.194 283.29 454.349 283.212C454.504 283.133 454.638 283.02 454.74 282.88C457.47 279.58 447.17 271.7 447.17 271.7C449.526 272.121 451.908 272.372 454.3 272.45C456.12 272.45 457.51 272.17 457.25 271.26C456.99 270.35 454.7 270.2 451.72 270.2Z" fill="#D2D2D2"/>
<path d="M415.08 282.74L415.15 283.15L415.29 283.01L415.08 282.74ZM415.59 277.63L414.48 279.51V279.66L416.28 281.99L416.35 281.92L415.56 277.63M413.56 274.4L414.11 277.4L414.8 276.21L413.56 274.43M405.19 224.53H405C404.907 224.546 404.819 224.58 404.74 224.63C404.66 224.681 404.592 224.747 404.539 224.824C404.486 224.902 404.449 224.989 404.43 225.081C404.411 225.173 404.411 225.268 404.43 225.36L404.67 226.66L406.45 236.28L407.4 241.44L412.91 271L414.91 273.83L411.22 254L410.5 250.06L406 225.53L405.91 225.08C405.88 224.917 405.793 224.769 405.665 224.663C405.537 224.557 405.376 224.5 405.21 224.5" fill="#B9B9B9"/>
<path d="M416.48 276.12L415.69 277.47L417.8 280.47L418.8 279.47L416.45 276.12M388.16 236.12C388.016 236.118 387.876 236.164 387.76 236.25C387.681 236.302 387.612 236.37 387.56 236.449C387.508 236.528 387.472 236.618 387.455 236.711C387.438 236.805 387.441 236.901 387.462 236.993C387.484 237.086 387.524 237.173 387.58 237.25L389.28 239.69L395.04 247.93L395.75 248.93L413.51 274.36L414.75 276.14L415.55 274.79L414.86 273.79L412.86 270.96L390.2 238.48L388.78 236.48C388.714 236.385 388.626 236.307 388.523 236.253C388.42 236.199 388.306 236.17 388.19 236.17" fill="#B9B9B9"/>
<path d="M414.45 279.58L413.66 280.9L415.08 282.74L415.29 283.01L416.29 282.01L414.49 279.68L414.43 279.6M397.43 258.07C397.274 258.071 397.123 258.124 397 258.22L396.91 258.29C396.798 258.419 396.737 258.584 396.737 258.755C396.737 258.926 396.798 259.091 396.91 259.22L397.12 259.5L412.7 279.7L413.48 278.37L399.31 260L399.2 259.85L398.06 258.37C397.993 258.283 397.906 258.212 397.808 258.164C397.709 258.115 397.6 258.09 397.49 258.09" fill="#B9B9B9"/>
<path d="M413 282L412.46 282.92L413.32 284.12L413.79 284.51L414.79 283.51L413 282ZM410 279.53L411.53 281.65L411.87 281.08L410 279.53ZM399.5 271C399.395 271 399.291 271.023 399.196 271.068C399.101 271.113 399.017 271.179 398.95 271.26C398.832 271.406 398.775 271.592 398.792 271.778C398.809 271.965 398.898 272.138 399.04 272.26L399.77 272.86L403.39 275.86L404.47 274.86L400.65 271.7L399.96 271.13C399.83 271.023 399.668 270.963 399.5 270.96" fill="#B9B9B9"/>
<path d="M437.1 239C436.976 238.999 436.855 239.031 436.748 239.093C436.641 239.154 436.552 239.243 436.49 239.35L433 245.3L431.36 248.08L422.7 262.76L422.02 263.93L415.59 274.83L414.79 276.18L414.1 277.37L413.51 278.37L412.73 279.7L411.93 281.07L411.59 281.64L412.5 282.91L413 282L413.63 280.93L414.42 279.61V279.54L415.53 277.66L415.63 277.5L416.42 276.15L428 256.67L429.15 254.67L437.76 240.06C437.813 239.958 437.841 239.845 437.841 239.73C437.841 239.615 437.813 239.502 437.76 239.4C437.7 239.265 437.598 239.153 437.47 239.08C437.362 239.014 437.237 238.979 437.11 238.98" fill="#B9B9B9"/>
<path d="M446.21 261.88C446.119 261.879 446.029 261.897 445.945 261.931C445.861 261.965 445.784 262.016 445.72 262.08L445.25 262.52L430 277L430.84 278.18L438.23 271.18L438.3 271.12L444.3 265.4L446.72 263.1C446.85 262.966 446.922 262.786 446.922 262.6C446.922 262.413 446.85 262.234 446.72 262.1C446.653 262.029 446.573 261.973 446.483 261.935C446.394 261.897 446.297 261.879 446.2 261.88" fill="#B9B9B9"/>
<path d="M414.51 331.43C407.67 325.51 409.51 313.48 409.51 313.48C418.43 322.4 414.51 331.43 414.51 331.43ZM407.42 308.33C404.42 308.33 402.88 300.66 402.88 300.66C406.53 300.66 411.54 306.82 408.13 308.18C407.905 308.275 407.664 308.325 407.42 308.33ZM417.3 313.48L407.44 295.42L414.28 288.35L422.09 297.93L417.3 313.48ZM402.88 295L399 285.62L404.92 280.37L410.17 287.67L402.87 294.96M426.35 271.96L418.82 279.49L417.82 280.49L416.4 281.91L416.33 281.98L415.33 282.98L415.19 283.12L414.88 283.43L413.88 284.43L413.77 284.54L413.41 284.04L412.55 282.84L411.64 281.57L410.11 279.45L405.91 273.6L404.53 274.83L403.45 275.83L396.33 282.19L403.85 380.66H415.93L422.93 308.39C422.902 305.207 423.21 302.029 423.85 298.91L424.71 290L422.18 292.25L418.59 284.58L424.68 278.48L425.68 279.48L426.41 271.89" fill="#E5E5E5"/>
<path d="M426.36 271.94L425.63 279.53L430.69 284.59L424.62 290L423.76 298.91C424.76 294.3 426.58 290.26 429.69 290.26C430.027 290.261 430.363 290.305 430.69 290.39C438.69 292.44 423.4 312.05 423.4 312.05C423.08 311.78 422.87 310.38 422.84 308.39L415.84 380.66H427L438.29 278.77L433.84 282.53L430.78 278.21L430 277L426.38 271.9" fill="#D7D7D7"/>
<path d="M409.49 313.48C409.49 313.48 407.67 325.48 414.49 331.43C414.49 331.43 418.39 322.43 409.49 313.48Z" fill="#F7F7F7"/>
<path d="M402.88 300.66C402.88 300.66 404.45 308.33 407.42 308.33C407.664 308.325 407.905 308.274 408.13 308.18C411.54 306.82 406.53 300.66 402.88 300.66Z" fill="#F7F7F7"/>
<path d="M414.28 288.35L407.44 295.42L417.3 313.48L422.09 297.93L414.28 288.35Z" fill="#F7F7F7"/>
<path d="M404.94 280.38L399.01 285.62L402.88 294.96L410.18 287.67L404.94 280.38Z" fill="#F7F7F7"/>
<path d="M424.59 278.49L418.5 284.59L422.09 292.26L424.62 290.01L430.69 284.59L425.63 279.53L424.59 278.49Z" fill="#F7F7F7"/>
<path d="M429.69 290.27C426.58 290.27 424.74 294.27 423.76 298.92C423.12 302.039 422.812 305.216 422.84 308.4C422.84 310.4 423.08 311.79 423.4 312.06C423.4 312.06 438.67 292.45 430.69 290.4C430.364 290.315 430.028 290.271 429.69 290.27Z" fill="#F7F7F7"/>
<path d="M281.38 428.67C281.38 428.67 283.31 439.67 256.65 460.67C255.836 461.31 255.276 462.219 255.071 463.234C254.866 464.249 255.028 465.304 255.53 466.21C255.815 466.722 256.202 467.171 256.665 467.529C257.129 467.888 257.66 468.149 258.227 468.297C258.795 468.444 259.386 468.476 259.966 468.388C260.545 468.301 261.101 468.098 261.6 467.79C271.36 461.79 296.7 444.67 306.36 423.89C308.046 420.313 310.324 417.047 313.1 414.23C314.081 413.22 315.288 412.46 316.622 412.011C317.957 411.562 319.378 411.438 320.77 411.65C327.24 412.65 338.46 416.23 343.11 429.38C343.321 429.949 343.655 430.465 344.087 430.891C344.52 431.318 345.04 431.644 345.612 431.847C346.184 432.05 346.794 432.125 347.399 432.067C348.003 432.009 348.587 431.819 349.11 431.51C349.868 431.058 350.463 430.376 350.808 429.564C351.153 428.751 351.231 427.85 351.03 426.99C349.48 420.6 343.76 405.88 323.29 399.72L281.38 428.67Z" fill="#22393D"/>
<path d="M329.07 372.33C329.07 372.33 325.07 404.33 318.16 408.89C317.568 409.379 317.046 409.948 316.61 410.58L308.23 419.2L315.87 366.72L329.07 372.33Z" fill="#477FFF"/>
<path d="M244.36 336.29C244.36 336.29 260.88 276.06 266.36 250.45C271.84 224.84 268.57 216.85 308.5 217.13C348.43 217.41 381.5 212.72 360.82 274.68C360.82 274.68 330.03 347.68 329.04 372.33L244.36 336.29Z" fill="#477FFF"/>
<path d="M230.85 336.29C230.85 336.29 247.37 276.06 252.85 250.45C258.33 224.84 255.05 216.85 294.98 217.13C334.91 217.41 367.98 212.72 347.31 274.68C347.31 274.68 316.52 347.68 315.53 372.33L230.85 336.29Z" fill="#58A6FF"/>
<path d="M230.85 334.2L174.41 349.92C171.788 350.647 169.478 352.215 167.834 354.383C166.19 356.551 165.303 359.199 165.31 361.92V399.11C165.313 401.209 165.928 403.261 167.081 405.014C168.234 406.768 169.874 408.146 171.8 408.98L217.63 428.84C235.912 436.763 256.513 437.477 275.3 430.84L308.23 419.22L317.55 371C318.214 367.566 317.664 364.008 315.995 360.935C314.326 357.862 311.641 355.463 308.4 354.15C288.79 346.23 249.21 331.56 230.85 334.2Z" fill="#58A6FF"/>
<path d="M275.3 430.82L308.23 419.2L317.55 371C318.214 367.566 317.664 364.008 315.995 360.935C314.326 357.861 311.641 355.463 308.4 354.15C288.79 346.22 249.21 331.55 230.85 334.15C230.85 334.15 277.94 344.73 276.7 356.5C276.7 356.5 277.53 378.12 244.28 384.55C244.28 384.55 268.28 406.26 247.58 435.27C257.016 435.513 266.415 434.005 275.3 430.82Z" fill="#5091FF"/>
<path d="M250.13 386.77C241.638 386.715 233.178 385.709 224.91 383.77C224.47 383.66 213.76 380.92 190.56 370.04C166.45 358.74 166.33 357.54 166.24 356.66C166.198 356.265 166.314 355.869 166.564 355.56C166.813 355.251 167.175 355.053 167.57 355.01C167.828 354.984 168.089 355.025 168.327 355.128C168.565 355.231 168.773 355.394 168.93 355.6C169.37 355.98 172.52 358.27 191.83 367.33C214.72 378.06 225.53 380.83 225.64 380.86C225.96 380.94 257.56 388.74 277.12 378.02C279.93 376.515 282.84 375.206 285.83 374.1L316.08 362.58C316.267 362.495 316.469 362.45 316.674 362.446C316.879 362.443 317.082 362.482 317.272 362.56C317.461 362.638 317.633 362.754 317.776 362.902C317.918 363.049 318.029 363.223 318.102 363.415C318.175 363.607 318.207 363.812 318.198 364.016C318.188 364.221 318.137 364.422 318.046 364.606C317.956 364.79 317.829 364.954 317.673 365.087C317.517 365.22 317.336 365.32 317.14 365.38L286.9 377C284.037 378.052 281.25 379.302 278.56 380.74C270 385.38 259.54 386.77 250.13 386.77Z" fill="#477FFF"/>
<path d="M200.91 421.38C200.91 421.38 200.38 430.1 187.49 438.09C187.046 438.366 186.667 438.736 186.38 439.173C186.093 439.611 185.905 440.105 185.828 440.623C185.751 441.14 185.787 441.668 185.934 442.17C186.081 442.672 186.336 443.136 186.68 443.53C187.122 444.034 187.696 444.404 188.337 444.6C188.978 444.797 189.662 444.81 190.31 444.64C195.31 443.32 207.63 438.98 213.66 427.07" fill="#FD6FFF"/>
<path d="M207 440.37L210.93 461.81C214.93 475.76 200.4 473.54 188.73 478.96C175.67 485.03 160.12 492.05 160.13 484.46C160.46 479.04 161.73 478.1 176.58 466.86C191.75 455.38 186.15 437.72 186.15 437.72L207 440.37Z" fill="#8C858C"/>
<path d="M166.21 419.64C164.11 417.92 162.96 433.64 155.88 446.52C150.31 456.66 135.8 467 132 470.34C126.32 473.73 131.7 485.48 146 481.7C176.66 473.61 170.84 448.23 184 432.18C185.74 430.45 166.21 419.64 166.21 419.64Z" fill="#8C858C"/>
<path d="M241.05 311.62C241.05 311.62 203.99 313.62 184.05 325.85C175.5 331.09 170 339.78 175.41 393.41C177.11 410.26 186.47 434.6 186.04 446.18C186.04 446.18 206.65 448.48 210.61 444.56V377.21C211.4 350.57 234.87 337.12 278.37 335.35L268.45 315.82L244.86 310.24L241.05 311.62Z" fill="#1C3133"/>
<path d="M316.69 334.82C319.51 387.51 283.19 369.66 223.69 363.25C220.55 368.32 219.91 377.94 187.47 429.77L180.86 441.43C172.637 438.943 164.982 434.866 158.33 429.43C167.03 408.96 184.57 366.82 192.95 346.48C200.3 318.29 233.34 337.3 263.19 319.85C263.19 319.85 268.58 317.11 269.19 313.63C269.8 310.15 316.69 334.82 316.69 334.82Z" fill="#22393D"/>
<path d="M315.58 213.61C315.58 213.61 331.85 216.39 332.08 237.04C332.29 256.4 316.49 293.39 315.61 302.59C313.97 319.76 318.27 332.9 317.61 336.23C317.61 336.23 275.23 313.11 241.35 311.64C241.35 311.64 247.67 293.7 248.35 279.98C248.35 279.98 240.58 299.93 227.59 292.25C227.59 292.25 217.88 287.09 224.7 272.83L231.6 241.03C231.6 241.03 235.93 223.08 242.41 212.62C243.582 210.703 245.188 209.089 247.099 207.908C249.01 206.726 251.172 206.011 253.41 205.82C257.341 205.568 261.278 206.204 264.93 207.68C276.76 212.21 315.58 213.61 315.58 213.61Z" fill="#F84D8A"/>
<path d="M250.16 231.85C249.626 233.4 249.241 234.997 249.01 236.62C248.77 238.18 248.6 239.72 248.5 241.24C248.39 242.77 248.31 244.24 248.24 245.77C248.219 247.334 248.041 248.892 247.71 250.42C248.095 250.208 248.457 249.957 248.79 249.67C249.101 249.353 249.395 249.019 249.67 248.67C249.91 248.31 250.14 247.94 250.35 247.56C250.549 247.177 250.726 246.783 250.88 246.38C251.475 244.812 251.833 243.164 251.94 241.49C252.054 239.857 251.977 238.216 251.71 236.6C251.459 234.942 250.935 233.337 250.16 231.85Z" fill="#DF307E"/>
<path d="M203.5 228C204.95 228.515 206.303 229.273 207.5 230.24C208.94 231.32 213.13 234.4 213.03 242.35L215.2 242.51V242.24C215.2 242.24 214.81 231.55 207.7 228.24C206.47 227.686 205.089 227.563 203.78 227.89L203.5 227.96V228Z" fill="#ABB3B7"/>
<path d="M242.76 240.29L262.54 273.07L255.02 270.84L240.08 244.89L242.76 240.29Z" fill="#989DA0"/>
<path d="M242.76 240.29L239.15 246.51L212.41 246.33L214.07 242.28L242.76 240.29Z" fill="#ABB3B7"/>
<path d="M214.07 242.28L212.41 246.51L210.63 245.66L199.24 235.86L202.38 232.84L214.07 242.28Z" fill="#989DA0"/>
<path d="M212.58 246.13L199.24 235.86L209.66 270.46L231.82 283.34L212.58 246.13Z" fill="#04679E"/>
<path d="M255.74 270.89L240.08 244.89L212.58 246.13L231.82 283.34L249.34 280.03L252.81 270.26L255.74 270.89Z" fill="#0090E0"/>
<path d="M304.25 202.62L315.58 213.62C315.58 213.62 303.27 221.45 278.04 215.73C275.82 215.223 273.59 214.777 271.35 214.39C266.5 213.57 256.8 211.22 252.35 205.19C252.35 205.19 265.26 204.58 267.35 201.71C269.44 198.84 268.82 191.48 268.82 191.48L297.91 187.25L304.25 202.62Z" fill="#E0A4AB"/>
<path d="M285.81 189.91C285.81 189.91 279.42 197.16 262.18 194.66C260.747 194.449 259.374 193.942 258.148 193.17C256.922 192.399 255.87 191.38 255.06 190.18C252.171 185.756 250.682 180.563 250.79 175.28L252 156.52L267.81 144.91L282.34 161.68L287.49 182.59L285.81 189.91Z" fill="#FFCDC2"/>
<path d="M257.588 170.133C257.715 169.165 257.188 168.298 256.412 168.196C255.636 168.094 254.903 168.796 254.776 169.764C254.649 170.732 255.175 171.599 255.952 171.701C256.728 171.803 257.461 171.101 257.588 170.133Z" fill="#414042"/>
<path d="M271.916 171.622C272.055 170.449 271.402 169.407 270.458 169.296C269.515 169.185 268.638 170.047 268.5 171.22C268.362 172.394 269.015 173.436 269.958 173.547C270.902 173.658 271.778 172.796 271.916 171.622Z" fill="#414042"/>
<path d="M255.54 167C255.199 166.814 254.818 166.715 254.43 166.71C254.055 166.708 253.682 166.772 253.33 166.9C253.429 167.104 253.584 167.275 253.777 167.394C253.97 167.513 254.193 167.574 254.42 167.57C254.64 167.578 254.858 167.53 255.054 167.431C255.25 167.331 255.417 167.183 255.54 167Z" fill="#414042"/>
<path d="M270.45 169.42C270.546 169.652 270.696 169.857 270.887 170.019C271.078 170.18 271.306 170.294 271.55 170.35C271.792 170.43 272.051 170.445 272.301 170.392C272.55 170.339 272.781 170.221 272.97 170.05C272.6 169.818 272.2 169.639 271.78 169.52C271.347 169.401 270.896 169.367 270.45 169.42Z" fill="#414042"/>
<path d="M298.34 200C298.48 206.94 314.45 212.48 314.45 212.48C314.45 212.48 330.3 175 313 144.75C301.39 124.44 286.11 128.75 283 129.75C283 129.75 262.3 120.86 250.72 144.55C246.03 154.15 241.72 176.65 250.64 205.39L254.69 214.39C254.69 214.39 252.41 196.9 254.49 189.34C254.49 189.34 249.44 181.25 251.87 162.58C252.201 160.655 252.914 158.816 253.967 157.17C255.019 155.525 256.391 154.107 258 153C258 153 264.81 149.15 267 146.46C267 146.46 268.8 149.7 277.94 158.94C277.94 158.94 287.27 168.6 284.75 190.74C284.75 190.74 282.19 213.81 274.75 219.54C274.575 219.674 274.434 219.847 274.337 220.044C274.239 220.242 274.189 220.46 274.19 220.68C274.19 221.68 275.25 222.58 282.1 218.1C282.1 218.1 295.1 208.48 297.62 197.6L297.75 197.8C298.147 198.464 298.351 199.226 298.34 200Z" fill="#414042"/>
<path d="M301.08 179.09C300.533 180.653 300.101 182.254 299.79 183.88C299.48 185.43 299.24 186.97 299.01 188.49L298.36 193.04L297.61 197.82C299.054 196.823 300.207 195.46 300.95 193.87C301.688 192.328 302.183 190.683 302.42 188.99C302.66 187.334 302.687 185.653 302.5 183.99C302.326 182.284 301.845 180.624 301.08 179.09Z" fill="#121E21"/>
<path d="M289 162.75L289.69 165.8C289.82 166.4 289.15 166.69 288.54 166.8C286.79 167.02 283.84 167.52 282.85 168.22L281.08 163.88L287.8 162.05C288.052 161.989 288.318 162.027 288.541 162.158C288.765 162.288 288.93 162.501 289 162.75Z" fill="#F84D8A"/>
<path d="M253.23 158.65L251 156.52C250.866 156.391 250.687 156.318 250.5 156.318C250.314 156.318 250.134 156.391 250 156.52L248.7 157.82C248.568 157.953 248.494 158.133 248.494 158.32C248.494 158.507 248.568 158.687 248.7 158.82L252.01 161.74L253.23 158.65Z" fill="#F84D8A"/>
<path d="M259.82 174.09C259.271 174.329 258.791 174.7 258.42 175.17C258.052 175.627 257.774 176.15 257.6 176.71C257.401 177.338 257.401 178.012 257.6 178.64C257.72 178.986 257.943 179.286 258.24 179.5C258.383 179.602 258.546 179.675 258.717 179.715C258.889 179.754 259.066 179.759 259.24 179.73C258.985 179.333 258.892 178.854 258.98 178.39C259.05 178.02 259.17 177.63 259.28 177.19C259.39 176.75 259.54 176.28 259.65 175.77C259.763 175.217 259.82 174.654 259.82 174.09Z" fill="#E0A4AB"/>
<path d="M273.53 165.17C273.564 164.868 273.533 164.563 273.438 164.275C273.343 163.986 273.187 163.722 272.98 163.5C272.558 163.038 272.002 162.72 271.39 162.59C270.806 162.473 270.202 162.514 269.64 162.71C269.374 162.817 269.119 162.951 268.88 163.11C268.65 163.288 268.445 163.497 268.27 163.73C268.537 163.82 268.811 163.887 269.09 163.93C269.34 163.93 269.58 164.03 269.8 164.06C270.25 164.14 270.66 164.2 271.03 164.28C271.903 164.452 272.745 164.751 273.53 165.17Z" fill="#414042"/>
<path d="M258.08 161.28C258.013 160.835 257.785 160.429 257.44 160.14C257.115 159.857 256.716 159.674 256.29 159.61C255.836 159.513 255.362 159.595 254.967 159.839C254.572 160.083 254.286 160.47 254.17 160.92C254.67 161.03 254.98 161.07 255.27 161.16C255.56 161.25 255.78 161.28 256.04 161.32C256.325 161.357 256.612 161.377 256.9 161.38C257.295 161.375 257.69 161.342 258.08 161.28Z" fill="#414042"/>
<path d="M266.78 184.68C265.538 185.372 264.124 185.692 262.705 185.602C261.286 185.512 259.924 185.014 258.78 184.17" fill="#F75291"/>
<path d="M266.78 184.68C265.91 184.55 265.22 184.49 264.57 184.45L262.75 184.33C262.18 184.33 261.6 184.28 260.97 184.23C260.34 184.18 259.66 184.14 258.76 184.17C259.047 184.967 259.57 185.657 260.26 186.148C260.95 186.64 261.773 186.909 262.62 186.92C263.453 186.964 264.283 186.792 265.03 186.42C265.796 186.058 266.414 185.444 266.78 184.68Z" fill="#EF5EA0"/>
<path d="M252.93 271.35C249.285 269.745 246.058 267.324 243.497 264.275C240.936 261.225 239.11 257.627 238.16 253.76C238.16 253.76 234.48 251.21 235.16 258.57C235.16 258.57 235.85 263.31 234.43 264.93C233.29 266.24 230.06 262.83 227.53 259.57C226.573 258.318 225.736 256.979 225.03 255.57C223.52 252.57 220.22 246.68 218.03 248.17C218.03 248.17 217.08 249.17 218.13 251C218.13 251 216.62 248.84 215.49 249.87C214.36 250.9 215.74 253.38 215.74 253.38L216.16 254.74C216.16 254.74 213.03 253.74 214.37 257.36C214.51 257.76 214.65 258.16 214.77 258.57C216.921 265.331 221.267 271.18 227.12 275.19C227.12 275.19 229.58 277.97 243.28 279.85C245.613 280.16 247.857 280.95 249.87 282.17C249.87 282.17 251.71 281.34 252.93 271.35Z" fill="#FFCDC2"/>
<path d="M218.05 251.31C218.491 253.08 219.097 254.804 219.86 256.46C220.6 258.121 221.455 259.729 222.42 261.27C222.91 262.04 223.42 262.79 223.96 263.53C224.5 264.27 225.08 264.98 225.73 265.64C226.94 267.04 228.42 268.183 230.08 269C228.881 267.681 227.778 266.278 226.78 264.8C225.78 263.34 224.813 261.857 223.88 260.35C222 257.36 220.17 254.28 218.05 251.31Z" fill="#E0A4AB"/>
<path d="M216.27 255.13C216.339 256.675 216.66 258.198 217.22 259.64C217.752 261.099 218.457 262.489 219.32 263.78C219.752 264.425 220.219 265.046 220.72 265.64C221.227 266.227 221.772 266.782 222.35 267.3C223.49 268.355 224.798 269.214 226.22 269.84C225.22 268.63 224.22 267.56 223.33 266.38C222.44 265.2 221.57 264.04 220.76 262.82C219.95 261.6 219.17 260.37 218.44 259.08C217.71 257.79 217 256.49 216.27 255.13Z" fill="#E0A4AB"/>
<path d="M304.68 249.91L296.79 278.47L262.54 273.07C262.54 273.07 274.94 274.22 282.87 260.73C284.986 256.933 288.202 253.867 292.096 251.935C295.989 250.004 300.377 249.298 304.68 249.91Z" fill="#DF307E"/>
<path d="M318.2 292.43C318.2 292.43 313.3 307.23 304.84 304.06C296.38 300.89 247.84 283.95 247.84 283.95L247.1 291.04C247.1 291.04 261.24 289.71 279.1 303.96C296.96 318.21 303.86 326.46 315.77 321.02C315.81 321 312.43 303.21 318.2 292.43Z" fill="#DF307E"/>
<path d="M123.72 72.23L128.17 104.15H130.63C130.472 99.3981 130.572 94.641 130.93 89.9C130.11 81.68 128.08 74.42 123.72 72.24" fill="#D9D9D9"/>
<path d="M137.47 72.1699C133.47 74.3799 131.63 81.6599 130.93 89.8899C130.572 94.631 130.472 99.388 130.63 104.14H133.63L137.49 72.1899" fill="#E4E4E4"/>
<path d="M136.58 104.11L133.61 104.12L133.43 104.13L130.63 104.14L128.17 104.15H127.37H128.2L124.87 128.61L140.13 128.65L136.58 104.11Z" fill="#DADADA"/>
<path d="M128.2 104.15H127.37L125.05 104.16L121.72 128.6L124.87 128.61L128.2 104.15Z" fill="#EEEEEE"/>
<path d="M76.0701 86.26L76.0601 92.55L84.9901 92.57L92.0301 92.59L91.9401 128.52L95.7901 128.53L95.8901 86.32L102.03 86.33H102.73H100.02L76.0701 86.26Z" fill="#EEEEEE"/>
<path d="M95.89 86.3201L95.79 128.53L102.63 128.55L102.73 86.3301H102.03L95.89 86.3201Z" fill="#DADADA"/>
<path d="M68.78 92.53L68.76 97.32L74.74 97.34L80.46 100.33L71.39 128.47L84.9 128.5L84.99 92.57L76.06 92.55L68.78 92.53Z" fill="#DADADA"/>
<path d="M84.99 92.5701L84.9 128.5L91.94 128.52L92.03 92.5901L84.99 92.5701Z" fill="#CACACA"/>
<path d="M58.27 97.3L46.96 127.17L64.69 127.22L74.74 97.34L68.76 97.32L58.27 97.3Z" fill="#EEEEEE"/>
<path d="M74.7399 97.3401L64.6899 127.22L67.1699 128.46L71.3899 128.47L80.4599 100.33L74.7399 97.3401Z" fill="#E4E4E4"/>
<path d="M46.96 127.17L49.12 128.41L67.17 128.46L64.69 127.22L46.96 127.17Z" fill="white"/>
<path d="M52.34 135.45L52.29 159.13L59.01 159.15L59.06 135.47L52.34 135.45Z" fill="#E3E3E3"/>
<path d="M49 128.41L48.99 135.44L52.34 135.45L59.06 135.47L141.53 135.68L148.24 135.7L178.06 135.78L178.07 128.75L148.26 128.67L141.54 128.65H140.13L124.87 128.61L121.72 128.6L102.63 128.55L95.79 128.53L91.94 128.52L84.9 128.5L71.39 128.47L67.17 128.46L49.12 128.41H49Z" fill="#CACACA"/>
<path d="M19.65 128.33L19.64 135.36L48.99 135.44L49 128.41L19.65 128.33Z" fill="#E3E3E3"/>
<path d="M141.53 135.68L141.47 159.36H148.19L148.24 135.68H141.53Z" fill="#E3E3E3"/>
<path d="M41.51 258C41.51 258 44.19 252.64 37.68 246.51C31.17 240.38 33.85 230 26.58 226.21C26.58 226.21 33.47 223.52 36.58 234.63C39.69 245.74 44.58 251.48 42.13 257.63L41.51 258Z" fill="#6FCE5B"/>
<path d="M43.8101 258.37C43.8101 258.37 51.0801 215.48 37.6801 209.74C37.6801 209.74 43.4201 243.44 41.5101 257.99L43.8101 258.37Z" fill="#449935"/>
<path d="M43.42 258.75C43.42 258.75 42.27 250.33 46.1 243.82C49.93 237.31 48.02 225.82 51.85 223.52C51.85 223.52 57.59 231.95 52.23 238.46C46.87 244.97 54.53 244.58 43.42 258.75Z" fill="#6FCE5B"/>
<path d="M35 257.6V276C35 276.711 35.2824 277.393 35.785 277.895C36.2876 278.398 36.9692 278.68 37.68 278.68H47.68V257.6H35Z" fill="#EF8560"/>
<path d="M53 276V257.6H47.63V278.66H50.32C51.0273 278.66 51.706 278.381 52.208 277.882C52.71 277.384 52.9947 276.707 53 276Z" fill="#BC5B35"/>
<path d="M53.1901 255.69H34.8101C34.147 255.69 33.5111 255.953 33.0423 256.422C32.5734 256.891 32.3101 257.527 32.3101 258.19C32.3101 258.853 32.5734 259.489 33.0423 259.958C33.5111 260.427 34.147 260.69 34.8101 260.69H53.1901C53.8531 260.69 54.489 260.427 54.9578 259.958C55.4267 259.489 55.6901 258.853 55.6901 258.19C55.6901 257.527 55.4267 256.891 54.9578 256.422C54.489 255.953 53.8531 255.69 53.1901 255.69Z" fill="#EF8560"/>
<path d="M53 260.05H35V262.05H53V260.05Z" fill="#BC5B35"/>
<path d="M127.71 277.36H80.52V278.79H127.71V277.36Z" fill="#BDCCD4"/>
<path d="M127.71 276.01H80.52V277.44H127.71V276.01Z" fill="#E6E6E6"/>
<path d="M127.71 274.66H80.52V276.09H127.71V274.66Z" fill="#BDCCD4"/>
<path d="M127.71 273.31H80.52V274.74H127.71V273.31Z" fill="#E6E6E6"/>
<path d="M127.71 271.96H80.52V273.39H127.71V271.96Z" fill="#BDCCD4"/>
<path d="M127.71 270.61H80.52V272.04H127.71V270.61Z" fill="#E6E6E6"/>
<path d="M127.71 269.26H80.52V270.69H127.71V269.26Z" fill="#BDCCD4"/>
<path d="M127.71 267.91H80.52V269.34H127.71V267.91Z" fill="#E6E6E6"/>
<path d="M127.71 266.56H80.52V267.99H127.71V266.56Z" fill="#BDCCD4"/>
<path d="M127.71 265.21H80.52V266.64H127.71V265.21Z" fill="#E6E6E6"/>
<path d="M127.71 263.86H80.52V265.29H127.71V263.86Z" fill="#BDCCD4"/>
<path d="M127.71 262.51H80.52V263.94H127.71V262.51Z" fill="#E6E6E6"/>
<path d="M127.71 261.16H80.52V262.59H127.71V261.16Z" fill="#BDCCD4"/>
<path d="M127.71 259.81H80.52V261.24H127.71V259.81Z" fill="#E6E6E6"/>
<path d="M127.71 258.45H80.52V259.88H127.71V258.45Z" fill="#BDCCD4"/>
<path d="M127.71 257.1H80.52V258.53H127.71V257.1Z" fill="#E6E6E6"/>
<path d="M127.71 255.75H80.52V257.18H127.71V255.75Z" fill="#BDCCD4"/>
<path d="M127.71 254.4H80.52V255.83H127.71V254.4Z" fill="#E6E6E6"/>
<path d="M127.71 253.05H80.52V254.48H127.71V253.05Z" fill="#BDCCD4"/>
<path d="M127.71 251.7H80.52V253.13H127.71V251.7Z" fill="#E6E6E6"/>
<path d="M127.71 250.35H80.52V251.78H127.71V250.35Z" fill="#BDCCD4"/>
<path d="M127.71 249H80.52V250.43H127.71V249Z" fill="#E6E6E6"/>
<path d="M127.71 277.36H80.52V278.79H127.71V277.36Z" fill="#BDCCD4"/>
<path d="M127.71 276.01H80.52V277.44H127.71V276.01Z" fill="#E6E6E6"/>
<path d="M127.71 274.66H80.52V276.09H127.71V274.66Z" fill="#BDCCD4"/>
<path d="M127.71 273.31H80.52V274.74H127.71V273.31Z" fill="#E6E6E6"/>
<path d="M127.71 271.96H80.52V273.39H127.71V271.96Z" fill="#BDCCD4"/>
<path d="M127.71 270.61H80.52V272.04H127.71V270.61Z" fill="#E6E6E6"/>
<path d="M127.71 269.26H80.52V270.69H127.71V269.26Z" fill="#BDCCD4"/>
<path d="M127.71 267.91H80.52V269.34H127.71V267.91Z" fill="#E6E6E6"/>
<path d="M127.71 266.56H80.52V267.99H127.71V266.56Z" fill="#BDCCD4"/>
<path d="M127.71 265.21H80.52V266.64H127.71V265.21Z" fill="#E6E6E6"/>
<path d="M127.71 263.86H80.52V265.29H127.71V263.86Z" fill="#BDCCD4"/>
<path d="M127.71 262.51H80.52V263.94H127.71V262.51Z" fill="#E6E6E6"/>
<path d="M127.71 261.16H80.52V262.59H127.71V261.16Z" fill="#BDCCD4"/>
<path d="M127.71 259.81H80.52V261.24H127.71V259.81Z" fill="#E6E6E6"/>
<path d="M127.71 258.45H80.52V259.88H127.71V258.45Z" fill="#BDCCD4"/>
<path d="M127.71 257.1H80.52V258.53H127.71V257.1Z" fill="#E6E6E6"/>
<path d="M127.71 255.75H80.52V257.18H127.71V255.75Z" fill="#BDCCD4"/>
<path d="M127.71 254.4H80.52V255.83H127.71V254.4Z" fill="#E6E6E6"/>
<path d="M127.71 253.05H80.52V254.48H127.71V253.05Z" fill="#BDCCD4"/>
<path d="M127.71 251.7H80.52V253.13H127.71V251.7Z" fill="#E6E6E6"/>
<path d="M127.71 250.35H80.52V251.78H127.71V250.35Z" fill="#BDCCD4"/>
<path d="M127.71 249H80.52V250.43H127.71V249Z" fill="#E6E6E6"/>
<path d="M146.54 277.36H127.71V278.79H146.54V277.36Z" fill="#D3E3EA"/>
<path d="M146.54 276.01H127.71V277.44H146.54V276.01Z" fill="#F4F4F4"/>
<path d="M146.54 274.66H127.71V276.09H146.54V274.66Z" fill="#D3E3EA"/>
<path d="M146.54 273.31H127.71V274.74H146.54V273.31Z" fill="#F4F4F4"/>
<path d="M146.54 271.96H127.71V273.39H146.54V271.96Z" fill="#D3E3EA"/>
<path d="M146.54 270.61H127.71V272.04H146.54V270.61Z" fill="#F4F4F4"/>
<path d="M146.54 269.26H127.71V270.69H146.54V269.26Z" fill="#D3E3EA"/>
<path d="M146.54 267.91H127.71V269.34H146.54V267.91Z" fill="#F4F4F4"/>
<path d="M146.54 266.56H127.71V267.99H146.54V266.56Z" fill="#D3E3EA"/>
<path d="M146.54 265.21H127.71V266.64H146.54V265.21Z" fill="#F4F4F4"/>
<path d="M146.54 263.86H127.71V265.29H146.54V263.86Z" fill="#D3E3EA"/>
<path d="M146.54 262.51H127.71V263.94H146.54V262.51Z" fill="#F4F4F4"/>
<path d="M146.54 261.16H127.71V262.59H146.54V261.16Z" fill="#D3E3EA"/>
<path d="M146.54 259.81H127.71V261.24H146.54V259.81Z" fill="#F4F4F4"/>
<path d="M146.54 258.45H127.71V259.88H146.54V258.45Z" fill="#D3E3EA"/>
<path d="M146.54 257.1H127.71V258.53H146.54V257.1Z" fill="#F4F4F4"/>
<path d="M146.54 255.75H127.71V257.18H146.54V255.75Z" fill="#D3E3EA"/>
<path d="M146.54 254.4H127.71V255.83H146.54V254.4Z" fill="#F4F4F4"/>
<path d="M146.54 253.05H127.71V254.48H146.54V253.05Z" fill="#D3E3EA"/>
<path d="M146.54 251.7H127.71V253.13H146.54V251.7Z" fill="#F4F4F4"/>
<path d="M146.54 250.35H127.71V251.78H146.54V250.35Z" fill="#D3E3EA"/>
<path d="M146.54 249H127.71V250.43H146.54V249Z" fill="#F4F4F4"/>
</svg>
