<svg width="525" height="424" viewBox="0 0 525 424" fill="none" xmlns="http://www.w3.org/2000/svg">
<path d="M500 342.79V288.79H468.45V342.79H454.45V399H450.08V320.44H445.08V293.68H440.52V262.68H435.36V237.37H430.8V216.37H426.43L423.91 204.5H427.82V196.78H422.27L418.59 179.47L415.38 196.78H409.38V204.5H414L411.8 216.37H407.8V237.54H402.64V263.1H397.09V293.1H393.09V320.16H387.14V330.67H334V320.44H329V293.68H324.44V262.68H319.3V237.37H314.74V216.37H310.37L307.85 204.5H312.26V196.78H306.21L302.54 179.47L299.33 196.78H293.81V204.5H297.89L295.69 216.37H291.69V237.54H286.53V263.1H281V293.1H277V320.16H271V399H263.56V382.71H240.73V327.35L227.16 323.16V313.64L208.83 300.06L189.83 314.12V323.6L177 327.35V421.89H524V342.79H500ZM387.16 340.14V366.83H380.11V359.11H371.48V345.21H352.14V359.11H339.94V366.83H333.94V340.14H387.16Z" fill="#DEDEDE"/>
<path d="M88.12 359.15L77.43 359.32V331.86H70.45V324.65H54.47L46.82 332.31V337.04L38.94 344.91V419.87H33.31V371.02H27.01V364.27H8.1V370.8H0V419.87V421.89H257.72V385.12L250.74 380.7V357.18L239.6 349.64V343.68L222.16 326.23H214.73V395.11H211.13V417.16H200.1V328.26H167.46V372.15H153.73V351.67H137.97V358.08H128.41L122.22 351.89V321.73L103.31 311.6L88.12 317.17V359.15Z" fill="#DEDEDE"/>
<path d="M332.11 420.78C332.11 420.78 344.6 385.72 329.17 372.71C313.74 359.7 334.76 346.52 320.4 333.05C306.04 319.58 327.71 306.13 309.91 293.41C309.91 293.41 283.83 302 298.68 320.41C313.53 338.82 279.43 340.11 304.03 362.94C331.06 388 292.23 398.59 332.11 420.78Z" fill="#4C9B2F"/>
<path d="M332.13 420.1C333.13 423.1 362.64 419.64 361.13 397.1C359.62 374.56 386.21 391.3 381.6 365.21C376.99 339.12 398.6 353.48 393.6 331.42C393.6 331.42 372.05 320.75 371.31 341.96C370.57 363.17 343.31 348.83 347.22 375.16C351.13 401.49 320.9 387.56 332.13 420.1Z" fill="#4C9B2F"/>
<path d="M332.11 420.66C332.11 420.66 357.11 408.52 350.05 389.21C342.99 369.9 369.63 366.27 359.42 348.99C349.21 331.71 370.82 318.47 363.12 303.13C355.42 287.79 379.73 288.84 367.55 259.27C367.55 259.27 342.92 264.54 345.95 284.74C348.98 304.94 328.08 296.56 334.82 322.45C341.56 348.34 312.05 351.83 321.82 365.1C331.59 378.37 308.22 398.38 332.11 420.66Z" fill="#5DBA3E"/>
<path d="M362.86 269.48C360.98 275.17 359.14 280.87 357.45 286.63C355.76 292.39 354.03 298.11 352.45 303.89C349.28 315.43 346.31 327.04 343.78 338.74C341.25 350.44 339.07 362.21 337.3 374.05C336.56 379.99 335.69 385.92 335.3 391.89C334.6 397.89 334.53 403.84 334.17 409.83C334.17 403.83 334.08 397.83 334.52 391.83C334.77 385.83 335.52 379.83 336.09 373.89C336.47 370.89 336.91 367.94 337.34 364.97C337.57 363.48 337.76 361.97 338.02 360.52L338.8 356.08L339.59 351.65C339.84 350.17 340.11 348.65 340.43 347.22L342.23 338.4C344.91 326.69 347.86 315.05 351.3 303.55C353.03 297.8 354.82 292.07 356.73 286.39C357.73 283.55 358.73 280.72 359.73 277.89C360.73 275.06 361.75 272.26 362.86 269.48Z" fill="#449935"/>
<path d="M164.37 365.62C162.062 365.617 159.849 364.698 158.218 363.065C156.586 361.432 155.67 359.218 155.67 356.91V343.86C155.673 341.553 156.59 339.342 158.221 337.711C159.852 336.08 162.063 335.163 164.37 335.16V338.39C162.919 338.39 161.528 338.966 160.502 339.992C159.476 341.018 158.9 342.409 158.9 343.86V356.91C158.9 358.361 159.476 359.752 160.502 360.778C161.528 361.804 162.919 362.38 164.37 362.38V365.62Z" fill="#7A7B7C"/>
<path d="M288.88 308.25C288.88 308.25 289.24 327.25 291.23 340.09C293.22 352.93 296.8 395.5 296.8 395.5L311.94 394.89C311.94 394.89 310.87 375.59 313.29 365.72C315.71 355.85 316.86 322.78 311.38 310.39C305.9 298 288.88 308.25 288.88 308.25Z" fill="#FFCDC2"/>
<path d="M269.26 48.0899C269.26 48.0899 268.76 61.6899 267.26 68.6299C265.61 76.0999 265.95 86.8099 277.98 88.9299C289.72 91.0099 299.24 78.4799 299.24 78.4799C299.24 78.4799 312.9 73.4799 309.24 61.7999C305.58 50.1199 289.18 33.1899 281.24 36.1299C273.3 39.0699 269.26 48.0899 269.26 48.0899Z" fill="#FFCDC2"/>
<path d="M272.41 44.74L271 46.86C271 46.86 284.72 47.93 291.63 54.63C293.615 56.4631 295.089 58.7817 295.906 61.3576C296.724 63.9334 296.856 66.6776 296.29 69.32C296.29 69.32 301.4 60.44 304 66C305.58 69.43 302.73 74.1 297.36 75.59L294.77 81.43C294.77 81.43 313.26 81.95 311.71 57.43C311.71 57.43 289.83 39.23 283.33 39.79C279.251 40.2182 275.42 41.9547 272.41 44.74Z" fill="#414042"/>
<path d="M256.73 313.35C256.73 313.35 256.33 331.35 257.81 343.49C259.29 355.63 261.16 395.99 261.16 395.99H276.31C276.31 395.99 276.01 377.73 278.82 368.51C281.63 359.29 284.11 328.12 279.13 316.23C274.15 304.34 256.73 313.35 256.73 313.35Z" fill="#FFCDC2"/>
<path d="M279 420.74H230.7C230.7 420.74 223.94 404.62 241.33 404.55C258.72 404.48 258.64 394.73 258.64 394.73C264.04 394.65 270.82 395.15 279.13 395.04L279 420.74Z" fill="#16242B"/>
<path d="M315.18 420.74H266.87C266.87 420.74 260.11 404.62 277.5 404.55C294.89 404.48 294.81 394.73 294.81 394.73C300.21 394.65 306.98 395.15 315.3 395.04L315.18 420.74Z" fill="#16242B"/>
<path d="M268.2 47.5999C268.2 47.5999 258.07 53.5999 259.68 56.2599C261.29 58.9199 265.73 47.9899 276.75 51.3099C287.77 54.6299 290.75 62.3099 293.82 62.3099C297.013 62.1334 300.195 61.7829 303.35 61.2599C303.35 61.2599 291.09 37.9999 268.2 47.5999Z" fill="#11937D"/>
<path d="M268.2 47.5999C268.2 47.5999 281.81 27.9999 295.79 36.0599C309.77 44.1199 300.09 61.3799 300.09 61.3799C296.384 57.7752 292.431 54.4337 288.26 51.3799C277.5 43.7899 268.2 47.5999 268.2 47.5999Z" fill="#22393D"/>
<path d="M204.25 236.66H199.98V311.51H204.25V236.66Z" fill="#979A9B"/>
<path d="M231.91 236.66H227.64V311.51H231.91V236.66Z" fill="#979A9B"/>
<path d="M199.29 237.92V225.37C199.255 224.552 199.544 223.754 200.095 223.149C200.645 222.544 201.413 222.181 202.23 222.14H230.06C230.878 222.179 231.647 222.541 232.198 223.146C232.75 223.752 233.038 224.552 233 225.37V237.92C233.038 238.738 232.75 239.538 232.198 240.143C231.647 240.749 230.878 241.111 230.06 241.15H229.2C228.382 241.111 227.613 240.749 227.062 240.143C226.51 239.538 226.222 238.738 226.26 237.92V233.85C226.298 233.031 226.01 232.23 225.459 231.623C224.908 231.016 224.139 230.651 223.32 230.61H208.11C207.291 230.651 206.522 231.016 205.971 231.623C205.42 232.23 205.132 233.031 205.17 233.85V237.92C205.208 238.738 204.92 239.538 204.368 240.143C203.817 240.749 203.048 241.111 202.23 241.15C201.412 241.111 200.643 240.749 200.092 240.143C199.54 239.538 199.252 238.738 199.29 237.92Z" fill="#7A7B7C"/>
<path d="M253.75 222.14C253.75 222.14 242.85 289.73 245.97 315.4C245.97 315.4 279.97 335.4 293.97 317.99C293.97 317.99 308.23 322.14 317.05 314.11C317.05 314.11 310.89 287.66 312.05 266.11C313.21 244.56 312.05 216.59 312.05 216.59L253.75 222.14Z" fill="#22393D"/>
<path d="M293.94 318C293.94 318 292.94 291.66 297.57 270.86C302.2 250.06 306.13 222.15 306.13 222.15" stroke="#121E21" stroke-linecap="round" stroke-linejoin="round"/>
<path d="M267.1 226.46C267.1 226.46 264.51 245.02 274.82 246.05L279.42 223.61L267.1 226.46Z" fill="#121E21"/>
<path d="M278.25 228.92C278.25 228.92 273.32 248.63 273.06 263.54C273.06 263.54 265.76 301.4 265.06 322.79" stroke="#121E21" stroke-linecap="round" stroke-linejoin="round"/>
<path d="M231.06 198.28C231.06 198.28 223.93 202.99 219.78 205.07C215.63 207.15 203.05 214.92 204.35 216.61C205.65 218.3 213.42 216.61 213.42 216.61C213.42 216.61 209.2 226.5 207.24 228.89C207.184 228.956 207.143 229.034 207.121 229.118C207.098 229.201 207.093 229.289 207.108 229.375C207.122 229.46 207.154 229.542 207.203 229.613C207.252 229.685 207.316 229.745 207.39 229.79C208.005 230.2 208.745 230.376 209.479 230.288C210.212 230.2 210.89 229.853 211.39 229.31C211.39 229.31 212.56 232.44 215.39 230.31C215.57 230.626 215.816 230.899 216.111 231.111C216.406 231.324 216.743 231.471 217.099 231.542C217.455 231.613 217.823 231.607 218.177 231.524C218.531 231.44 218.862 231.282 219.15 231.06C219.15 231.06 221.61 233.74 224.59 229.72C227.57 225.7 243.39 209.72 243.39 209.72L231.06 198.28Z" fill="#FFCDC2"/>
<path d="M270 98.5099C270 98.5099 260 114.25 257.16 144.33C254.32 174.41 247.16 226.11 247.16 226.11C247.16 226.11 304.9 238.43 321.49 231.93C321.49 231.93 325.64 206.06 327.02 203.64C328.4 201.22 342.41 123.5 328.75 109.25C315.09 94.9999 296.36 81.5399 270 98.5099Z" fill="#12B89F"/>
<path d="M293.34 34.9199C293.34 34.9199 318.16 39.7099 311.04 67.9199C311.04 67.9199 297.85 61.4999 294.04 55.1099C290.23 48.7199 293.34 34.9199 293.34 34.9199Z" fill="#121E21"/>
<path d="M332.19 124.68C332.19 124.68 324.19 107.68 308.37 102.34C308.37 102.34 281.06 118.93 285.21 131.55C289.36 144.17 311.31 173.22 315.98 189.12L313.21 198.28C313.21 198.28 309.41 188.28 304.74 181.17C300.07 174.06 278.99 146.77 274.84 141.06C270.69 135.35 268.84 124.64 274.84 109.77C280.84 94.9 303.53 87.99 315.84 91.1C328.15 94.21 329.15 105.1 329.15 105.1L336.15 115.91C336.15 115.91 333.4 118.29 332.19 124.68Z" fill="#121E21"/>
<path d="M270 98.5101C271.631 93.7366 275.012 89.7592 279.46 87.3801C285.8 83.9601 315.25 73.3001 324.58 76.9301C333.91 80.5601 345.33 98.7101 331.15 107.52C331.15 107.52 319.64 91.7901 304.39 93.5201C289.14 95.2501 280.24 110.61 270 98.5101Z" fill="#11937D"/>
<path d="M228.33 194.48C228.33 194.48 234.33 210.56 241.47 216.61C241.47 216.61 282.27 200.87 299.9 165.95C317.53 131.03 314.9 128.79 314.9 128.79C314.9 128.79 323.55 108.04 308.68 100.79C293.81 93.54 286.38 104.6 283.09 120.5C279.8 136.4 273.24 156.5 262 167.5C250.76 178.5 228.33 194.48 228.33 194.48Z" fill="#11937D"/>
<path d="M382 154.89C382 154.89 391.5 137.6 373.7 125.33C355.9 113.06 337.88 105.9 333.7 117.33C329.52 128.76 329.39 152.33 322.13 168.54C314.87 184.75 308.99 208.3 313.49 221.26C317.99 234.22 348 233 355.39 229.74C355.39 229.74 369.74 218.51 374.06 192.74C378.38 166.97 382 154.89 382 154.89Z" fill="#22393D"/>
<path d="M372.9 152.86C372.394 152.863 371.898 152.997 371.46 153.25C371.022 153.502 370.656 153.864 370.4 154.3C367.57 159.1 358.54 175.21 361.62 180.04C365.25 185.75 379.12 191.84 381.71 181.34C384.3 170.84 391.71 158.34 384.55 155.28C380.876 153.677 376.909 152.853 372.9 152.86Z" fill="#121E21"/>
<path d="M341.42 193.67C340.42 198.67 337.98 210 335.93 214.33C335.819 214.562 335.771 214.818 335.79 215.075C335.81 215.331 335.896 215.577 336.04 215.79C338.04 218.79 346.31 229.63 358.63 230.32C358.837 230.332 359.043 230.3 359.237 230.226C359.43 230.152 359.605 230.037 359.75 229.89C362.59 227.04 377.16 211.81 371.82 203.89C371.613 203.598 371.301 203.398 370.95 203.33C367.82 202.62 351.71 198.78 343.76 192.75C343.559 192.597 343.322 192.498 343.072 192.463C342.821 192.428 342.566 192.458 342.331 192.551C342.096 192.643 341.888 192.795 341.729 192.991C341.569 193.187 341.463 193.421 341.42 193.67Z" fill="#121E21"/>
<path d="M357.71 115.88C357.71 115.88 344.89 126.24 341.91 154.5H343.73C343.73 154.5 349.55 124.97 360.32 117.18L357.71 115.88Z" fill="#121E21"/>
<path d="M170.64 411.6H169.52C168.206 411.6 167.14 412.666 167.14 413.98V419.51C167.14 420.825 168.206 421.89 169.52 421.89H170.64C171.954 421.89 173.02 420.825 173.02 419.51V413.98C173.02 412.666 171.954 411.6 170.64 411.6Z" fill="#414042"/>
<path d="M252.49 411.6H251.37C250.056 411.6 248.99 412.666 248.99 413.98V419.51C248.99 420.825 250.056 421.89 251.37 421.89H252.49C253.804 421.89 254.87 420.825 254.87 419.51V413.98C254.87 412.666 253.804 411.6 252.49 411.6Z" fill="#414042"/>
<path d="M175.85 293.1H244.26C245.267 293.1 246.265 293.298 247.195 293.684C248.126 294.069 248.971 294.634 249.684 295.347C250.396 296.059 250.961 296.904 251.346 297.835C251.732 298.765 251.93 299.763 251.93 300.77V411.6H168.17V300.77C168.17 299.762 168.369 298.764 168.755 297.833C169.141 296.901 169.707 296.055 170.42 295.343C171.133 294.631 171.98 294.066 172.912 293.681C173.844 293.296 174.842 293.099 175.85 293.1Z" fill="#22393D"/>
<mask id="mask0_89_1027" style="mask-type:luminance" maskUnits="userSpaceOnUse" x="168" y="293" width="84" height="119">
<path d="M175.85 293.1H244.26C245.267 293.1 246.265 293.298 247.195 293.684C248.126 294.069 248.971 294.634 249.684 295.347C250.396 296.059 250.961 296.904 251.346 297.835C251.732 298.765 251.93 299.763 251.93 300.77V411.6H168.17V300.77C168.17 299.762 168.369 298.764 168.755 297.833C169.141 296.901 169.707 296.055 170.42 295.343C171.133 294.631 171.98 294.066 172.912 293.681C173.844 293.296 174.842 293.099 175.85 293.1Z" fill="white"/>
</mask>
<g mask="url(#mask0_89_1027)">
<path d="M246.75 289.21L143.8 393.19L190.73 380.49L279.16 304.77L246.75 289.21Z" fill="#DF307E"/>
<path d="M244.15 350.41L226.78 423.27H263.08L263.54 352.35L244.15 350.41Z" fill="#F2C3BB"/>
<path d="M190.99 286.88L265.42 340.04L261.27 367.26L153.91 302.7L190.99 286.88Z" fill="#FBB040"/>
<path d="M162.99 371.41H260.23V393.19H158.58L162.99 371.41Z" fill="#822ABC"/>
</g>
<path d="M169.14 397.86H171.36C172.625 397.86 173.838 398.362 174.733 399.257C175.627 400.152 176.13 401.365 176.13 402.63V413.42H164.37V402.63C164.37 401.365 164.873 400.152 165.767 399.257C166.662 398.362 167.875 397.86 169.14 397.86Z" fill="#979A9B"/>
<path d="M250.82 397.86H253C254.265 397.86 255.478 398.362 256.373 399.257C257.267 400.152 257.77 401.365 257.77 402.63V413.42H246.05V402.63C246.05 401.365 246.553 400.152 247.447 399.257C248.342 398.362 249.555 397.86 250.82 397.86Z" fill="#979A9B"/>
<path d="M237.67 322.14H228.16V327.67H237.67V322.14Z" fill="#979A9B"/>
<path d="M168.17 332.17H162.64V341.68H168.17V332.17Z" fill="#979A9B"/>
<path d="M168.17 360H162.64V369.51H168.17V360Z" fill="#979A9B"/>
<path d="M260.1 268.08L254.78 289L282 293.1C282 293.1 283.95 271.58 284.72 269.37C285.49 267.16 260.1 268.08 260.1 268.08Z" fill="#121E21"/>
<path d="M260.49 261.21L257.63 269.25L285.12 273.13L288.49 263.8L260.49 261.21Z" fill="#040607"/>
<path d="M260.49 260.43L257.63 268.47L285.12 272.36L288.49 263.02L260.49 260.43Z" fill="#121E21"/>
<path d="M211.35 229.31C212.02 227.76 212.75 226.31 213.44 224.77C213.81 224.02 214.14 223.27 214.49 222.52C214.84 221.77 215.16 221 215.49 220.24C215.283 221.922 214.796 223.558 214.05 225.08C213.689 225.841 213.281 226.579 212.83 227.29C212.402 228.009 211.907 228.686 211.35 229.31Z" fill="#F2C3BB"/>
<path d="M215.37 230.29C215.95 228.73 216.64 227.29 217.28 225.75C217.92 224.21 218.55 222.75 219.09 221.19C219.099 222.027 218.992 222.862 218.77 223.67C218.573 224.465 218.315 225.244 218 226C217.662 226.758 217.281 227.495 216.86 228.21C216.428 228.948 215.93 229.644 215.37 230.29Z" fill="#F2C3BB"/>
<path d="M219.13 231C219.599 229.695 220.154 228.422 220.79 227.19C221.42 225.97 222.05 224.76 222.79 223.57C222.544 224.951 222.082 226.284 221.42 227.52C220.808 228.773 220.038 229.942 219.13 231Z" fill="#F2C3BB"/>
<path d="M283.51 61.9301C283.513 61.5956 283.588 61.2657 283.732 60.9635C283.875 60.6612 284.083 60.3939 284.34 60.1801C284.633 59.9358 284.979 59.7619 285.35 59.6718C285.721 59.5816 286.107 59.5776 286.48 59.6601C287.172 59.8254 287.78 60.2379 288.19 60.8201C288.351 61.0894 288.485 61.3741 288.59 61.6701C288.672 61.9798 288.709 62.2998 288.7 62.6201C288.404 62.54 288.116 62.4329 287.84 62.3001C287.59 62.1901 287.34 62.1101 287.13 61.9901C286.781 61.8425 286.424 61.7156 286.06 61.6101C285.729 61.5542 285.391 61.5542 285.06 61.6101C284.537 61.6805 284.019 61.7875 283.51 61.9301Z" fill="#414042"/>
<path d="M270.29 60.6699C270.293 60.3354 270.368 60.0055 270.512 59.7033C270.655 59.401 270.863 59.1337 271.12 58.9199C271.412 58.6764 271.756 58.503 272.125 58.4128C272.494 58.3227 272.879 58.3183 273.25 58.3999C273.959 58.5507 274.585 58.9654 275 59.5599C275.169 59.8267 275.306 60.1119 275.41 60.4099C275.498 60.7357 275.535 61.0729 275.52 61.4099C275.223 61.3332 274.935 61.2259 274.66 61.0899C274.418 61 274.181 60.8965 273.95 60.7799C273.598 60.6321 273.237 60.5052 272.87 60.3999C272.539 60.344 272.201 60.344 271.87 60.3999C271.338 60.4522 270.81 60.5424 270.29 60.6699Z" fill="#414042"/>
<path d="M286.509 67.6366C286.815 66.7079 286.466 65.7594 285.732 65.5181C284.997 65.2767 284.154 65.8339 283.849 66.7626C283.544 67.6912 283.892 68.6398 284.627 68.8811C285.361 69.1225 286.204 68.5653 286.509 67.6366Z" fill="#414042"/>
<path d="M273.441 65.1327C273.746 64.204 273.398 63.2555 272.664 63.0141C271.929 62.7728 271.086 63.33 270.781 64.2586C270.476 65.1873 270.824 66.1359 271.559 66.3772C272.293 66.6186 273.136 66.0614 273.441 65.1327Z" fill="#414042"/>
<path d="M277.81 66.4399C277.764 67.8533 277.586 69.2594 277.28 70.6399C277.227 70.9036 277.197 71.1712 277.19 71.4399C277.18 71.5564 277.18 71.6735 277.19 71.7899V72.1899C277.208 72.4576 277.255 72.7225 277.33 72.9799L277.69 74.0699C277.251 74.1245 276.806 74.0369 276.42 73.8199C275.991 73.5977 275.642 73.2484 275.42 72.8199C275.318 72.6188 275.238 72.4077 275.18 72.1899C275.117 71.9619 275.083 71.7266 275.08 71.4899C275.083 71.0517 275.154 70.6165 275.29 70.1999C275.535 69.4929 275.872 68.8206 276.29 68.1999C276.706 67.541 277.219 66.9478 277.81 66.4399Z" fill="#E0A4AB"/>
<path d="M272.37 78.3601C273.29 78.5701 274.06 78.7301 274.82 78.8601C275.545 78.9817 276.276 79.0652 277.01 79.1101C277.73 79.1101 278.46 79.1801 279.23 79.1101C279.62 79.1101 280.01 79.1101 280.44 79.1101C280.886 79.0806 281.334 79.0806 281.78 79.1101C281.484 79.4789 281.149 79.8142 280.78 80.1101C280.408 80.3829 280.005 80.6111 279.58 80.7901C278.715 81.157 277.777 81.3179 276.84 81.2601C275.891 81.2064 274.97 80.9177 274.16 80.4201C273.353 79.9489 272.724 79.2249 272.37 78.3601Z" fill="#EA7185"/>
<path d="M297.3 72.1399C297.315 72.3252 297.372 72.5046 297.468 72.6642C297.563 72.8237 297.694 72.9591 297.85 73.0599C298.02 73.1484 298.205 73.202 298.396 73.2174C298.587 73.2329 298.778 73.21 298.96 73.1499C299.652 72.9089 300.291 72.5353 300.84 72.05C301.422 71.5715 301.881 70.9613 302.18 70.2699C302.499 69.5508 302.583 68.7495 302.42 67.98C302.332 67.5746 302.135 67.2011 301.85 66.8999C301.7 66.7348 301.513 66.6078 301.305 66.5296C301.096 66.4513 300.871 66.424 300.65 66.4499C300.241 66.5199 299.863 66.7157 299.57 67.0099C299.293 67.2597 299.051 67.5456 298.85 67.8599C298.43 68.4775 298.153 69.1814 298.04 69.9199C297.999 70.1108 297.998 70.3081 298.038 70.4993C298.077 70.6904 298.156 70.8712 298.27 71.0299C298.355 71.0854 298.454 71.115 298.555 71.115C298.656 71.115 298.755 71.0854 298.84 71.0299C299 70.9476 299.149 70.8432 299.28 70.7199C299.132 70.8113 298.975 70.8852 298.81 70.9399C298.739 70.9665 298.663 70.9731 298.589 70.959C298.515 70.9449 298.446 70.9106 298.39 70.8599C298.327 70.713 298.295 70.5548 298.295 70.3949C298.295 70.2351 298.327 70.0769 298.39 69.9299C298.553 69.2695 298.856 68.6521 299.28 68.1199C299.7 67.6299 300.23 67.1199 300.74 67.0399C301.25 66.9599 301.74 67.4999 301.81 68.0999C301.908 68.7469 301.843 69.4082 301.619 70.0232C301.395 70.6382 301.021 71.1872 300.53 71.6199C300.06 72.1079 299.504 72.5046 298.89 72.7899C298.748 72.8637 298.591 72.9071 298.431 72.9175C298.271 72.9278 298.111 72.9048 297.96 72.8499C297.807 72.783 297.67 72.6854 297.557 72.5633C297.443 72.4412 297.356 72.2971 297.3 72.1399Z" fill="#E0A4AB"/>
<path d="M298.22 69.5801C298.52 69.2301 298.99 68.8301 299.22 69.0901C299.355 69.231 299.446 69.4083 299.481 69.6002C299.517 69.7921 299.496 69.9902 299.42 70.1701C299.257 70.5636 298.996 70.9082 298.66 71.1701C298.334 71.4974 297.892 71.684 297.43 71.6901C297.654 71.8178 297.92 71.8536 298.17 71.7901C298.426 71.74 298.67 71.6415 298.89 71.5001C299.358 71.2254 299.712 70.7928 299.89 70.2801C299.994 70.0052 300.003 69.7034 299.916 69.4227C299.829 69.1419 299.651 68.8982 299.41 68.7301C299.269 68.6551 299.105 68.6338 298.95 68.6701C298.813 68.7104 298.688 68.7863 298.59 68.8901C298.418 69.0906 298.292 69.326 298.22 69.5801Z" fill="#E0A4AB"/>
<path d="M524.05 420.48H0V423.3H524.05V420.48Z" fill="#C7C7C7"/>
<path d="M15.54 40.42H153.25C153.25 40.42 151.31 20.92 134.75 25.42C118.19 29.92 120.32 -2.91 96.28 8.17C77.54 16.8 63.62 -15.58 49.51 10.17C36.75 33.38 24.1 13.67 15.54 40.42Z" fill="#ECECEC"/>
<path d="M186.83 155.51H96.34C96.34 155.51 97.61 142.31 108.49 145.35C119.37 148.39 117.98 126.16 133.77 133.66C146.09 139.51 155.23 117.57 164.5 134.99C172.89 150.75 181.2 137.39 186.83 155.51Z" fill="#ECECEC"/>
<path d="M501.46 46.86H411C411 46.86 412.27 33.65 423.15 36.7C434.03 39.75 432.63 17.5 448.43 25C460.75 30.85 469.89 8.92001 479.16 26.34C487.53 42.09 495.84 28.74 501.46 46.86Z" fill="#ECECEC"/>
</svg>
