<svg width="520" height="433" viewBox="0 0 520 433" fill="none" xmlns="http://www.w3.org/2000/svg">
<path d="M55.81 233.35C55.32 234.44 54.87 235.5 54.47 236.51C55.2256 237.115 55.8141 237.904 56.18 238.8L56.42 238.69C56.0105 236.94 55.8058 235.148 55.81 233.35ZM61.28 232.07C61.28 232.42 61.28 232.76 61.28 233.07C61.28 232.79 61.28 232.52 61.35 232.24L61.23 232.08M53.92 224.14C53.638 225.457 53.0639 226.694 52.24 227.76L51.89 228.18C51.9967 228.952 52.1775 229.712 52.43 230.45C53.08 230.79 53.58 231.52 53.43 233C53.66 233.47 53.91 233.94 54.18 234.42C55.05 232.36 56.08 230.17 57.26 227.98C56.96 227.33 55.52 224.39 53.89 224.14M72.16 208.5C69.16 208.5 67.75 213.03 67.75 213.03C67.738 212.216 67.4413 211.433 66.9115 210.815C66.3817 210.198 65.6523 209.786 64.85 209.65C62.54 209.65 60.64 214.65 60.94 220.08C60.73 218.51 60.12 216.03 58.35 216.03C57.8928 216.045 57.4463 216.172 57.05 216.4C53.47 218.3 56.9 226.84 57.39 228C59.97 223.21 63.29 218.45 67.39 215.11L68.02 215.88C63.88 219.25 60.55 224.11 58.02 228.96C58.3383 228.83 58.6765 228.755 59.02 228.74C59.4666 228.752 59.8963 228.913 60.2406 229.198C60.585 229.482 60.8241 229.874 60.92 230.31L61.81 229.9C62.1916 227.877 63.0371 225.971 64.28 224.33C64.0378 224.217 63.787 224.123 63.53 224.05C67.97 222.24 69.53 220.64 69.53 220.64C71.23 218.46 68.13 217.8 66.62 217.64H67.25C70.76 217.64 72.17 215.8 72.17 215.8C75.58 211.98 73.17 208.51 72.17 208.51" fill="#DFDFDF"/>
<path d="M53.5 236.24C53.2895 236.25 53.0841 236.308 52.9 236.41C51.66 237.04 51.24 238.97 51.59 241.49C52.08 240 52.71 238.21 53.5 236.24ZM73.5 222.87C70.69 222.87 68.93 226.87 68.93 226.87C69.0165 226.06 68.8154 225.246 68.362 224.57C67.9086 223.893 67.2318 223.398 66.45 223.17H66.21C65.8142 223.209 65.4313 223.332 65.0865 223.53C64.7418 223.729 64.443 223.998 64.21 224.32C62.967 225.961 62.1216 227.867 61.74 229.89C61.5663 230.669 61.4361 231.457 61.35 232.25C61.35 232.53 61.35 232.8 61.28 233.08C61.28 232.78 61.28 232.44 61.28 232.08C61.2296 231.47 61.102 230.868 60.9 230.29C60.8041 229.854 60.5649 229.462 60.2206 229.178C59.8762 228.893 59.4465 228.732 59 228.72C58.6565 228.736 58.3183 228.81 58 228.94C57.22 230.43 56.5 231.94 55.86 233.36C55.8558 235.158 56.0605 236.95 56.47 238.7C56.71 239.82 56.94 240.58 56.96 240.64C56.7583 240.014 56.5144 239.403 56.23 238.81C55.8614 237.904 55.2656 237.109 54.5 236.5C53.38 239.31 52.56 241.78 52.04 243.5C52.04 243.62 52.1 243.74 52.14 243.86H57.14C57.98 240.06 60.61 231.86 67.96 228.86L68.34 229.78C61.64 232.54 59.06 240.12 58.18 243.83H58.67L58.43 243.75L61.6 242.7C68.88 239.5 63.5 237.31 63.5 237.31C68.11 236.04 69.86 234.63 69.86 234.63C71.86 232.63 68.86 231.63 67.33 231.28C67.8976 231.383 68.4731 231.437 69.05 231.44C70.501 231.525 71.9301 231.057 73.05 230.13C76.89 226.74 74.85 223 73.91 222.89C73.7935 222.88 73.6765 222.88 73.56 222.89" fill="#DFDFDF"/>
<path d="M42.91 226.19C42.6419 226.182 42.3765 226.245 42.141 226.373C41.9055 226.502 41.7084 226.69 41.57 226.92C41.4023 227.207 41.3031 227.529 41.28 227.86C41.5189 227.456 41.8383 227.105 42.2185 226.83C42.5987 226.555 43.0316 226.361 43.49 226.26C43.2994 226.218 43.1051 226.195 42.91 226.19ZM52.59 204.36C52.5075 204.343 52.4225 204.343 52.34 204.36C49.58 205.64 50.24 210.36 50.24 210.36C49.974 209.759 49.5376 209.249 48.9849 208.894C48.4321 208.538 47.7872 208.353 47.13 208.36C46.8127 208.358 46.4965 208.398 46.19 208.48C44.04 209.39 44.43 214.8 46.99 219.6C46.26 218.47 44.99 216.85 43.64 216.85C43.2934 216.869 42.9561 216.97 42.6555 217.143C42.355 217.317 42.0996 217.559 41.91 217.85C41.5498 218.328 41.3597 218.912 41.37 219.51C41.7082 220.173 41.8863 220.906 41.89 221.65C43.3 224.84 47.07 228.21 47.19 228.32C46.3693 227.606 45.4622 226.998 44.49 226.51C45.78 227.51 45.71 230.19 44.49 233.33C45.3578 234.147 46.2872 234.896 47.27 235.57C47.54 229.83 48.06 222.27 49.03 214.75L50.03 214.88C48.76 224.78 48.27 234.76 48.08 240.52C48.5786 240.317 49.0386 240.029 49.44 239.67C50.4079 238.818 51.2437 237.828 51.92 236.73L52.47 235.85C53.0223 234.97 53.3644 233.974 53.47 232.94C53.59 231.46 53.09 230.73 52.47 230.39C52.074 230.201 51.6387 230.108 51.2 230.12C50.8394 230.121 50.4803 230.165 50.13 230.25L51.93 228.12L52.28 227.7C53.1038 226.634 53.678 225.397 53.96 224.08C54.18 222.32 52.71 222.08 51.77 222.08C51.5188 222.079 51.2679 222.099 51.02 222.14C54.29 218.64 55.02 216.52 55.02 216.52C55.38 214.99 54.53 214.52 53.46 214.52C52.6591 214.556 51.8675 214.707 51.11 214.97C54.81 213.51 55.39 210.97 55.39 210.97C56.76 206.46 53.73 204.31 52.57 204.31" fill="#DFDFDF"/>
<path d="M67.35 215.08C63.24 218.42 59.92 223.18 57.35 227.97C56.17 230.16 55.14 232.35 54.27 234.41C54.01 235.03 53.76 235.64 53.52 236.24C52.73 238.24 52.1 240 51.61 241.49C51.31 242.41 51.06 243.21 50.86 243.86H51.86C51.86 243.75 51.93 243.63 51.97 243.5C52.49 241.79 53.31 239.32 54.43 236.5C54.83 235.5 55.28 234.43 55.77 233.34C56.41 231.9 57.13 230.41 57.91 228.92C60.47 224.07 63.8 219.21 67.91 215.84L67.28 215.07" fill="#C1C1C1"/>
<path d="M49.06 214.85C48.06 222.37 47.57 229.93 47.3 235.67C47.12 239.27 47.04 242.15 47.01 243.86H48.01C48.01 243.04 48.01 241.94 48.1 240.62C48.29 234.86 48.78 224.88 50.05 214.98L49.05 214.85" fill="#C1C1C1"/>
<path d="M67.96 228.89C60.61 231.89 57.96 240.06 57.14 243.89H58.14C59.02 240.18 61.6 232.6 68.3 229.84L67.92 228.92" fill="#C1C1C1"/>
<path d="M25.13 210.62C24.19 210.62 21.72 214.09 25.13 217.92C25.2656 218.081 25.4163 218.228 25.58 218.36C25.7875 218.467 25.9793 218.601 26.15 218.76C27.3355 219.449 28.6892 219.795 30.06 219.76C30.26 219.76 30.47 219.76 30.69 219.76C29.69 219.89 27.93 220.23 27.42 221.11C27.5741 221.65 27.6844 222.202 27.75 222.76C28.6214 223.555 29.5971 224.228 30.65 224.76C30.7487 224.779 30.8457 224.805 30.94 224.84C31.2258 224.932 31.4861 225.089 31.7 225.3C32.3 225.6 32.98 225.9 33.75 226.21C33.328 226.336 32.9245 226.518 32.55 226.75C32.9063 227.935 33.0452 229.175 32.96 230.41C33.5863 230.935 34.2553 231.407 34.96 231.82L37.96 233.23C37.96 233.23 34.14 233.83 36.05 237.14C36.5849 238.031 37.3212 238.785 38.2 239.34L39.07 239.92C40.4201 240.809 41.9216 241.442 43.5 241.79C36.38 222.11 29.63 216.26 29.5 216.2L30.15 215.44C30.42 215.67 36.15 220.6 42.7 236.99C43.4016 235.858 44.0039 234.667 44.5 233.43C45.69 230.29 45.76 227.63 44.5 226.61L44.38 226.53C44.1379 226.356 43.8479 226.262 43.55 226.26C43.0915 226.361 42.6587 226.555 42.2785 226.83C41.8983 227.105 41.5788 227.456 41.34 227.86C40.7999 228.608 40.3375 229.409 39.96 230.25C40.01 230.13 42.11 225.25 41.96 221.75C41.9563 221.006 41.7782 220.273 41.44 219.61C41.1806 219.13 40.7788 218.742 40.29 218.5C39.8937 218.272 39.4472 218.145 38.99 218.13C37.23 218.13 36.61 220.61 36.4 222.19C36.7 216.79 34.8 211.76 32.5 211.76C31.677 211.873 30.9216 212.276 30.3711 212.899C29.8206 213.521 29.5115 214.32 29.5 215.15C29.5 215.15 28.13 210.62 25.09 210.62" fill="#DFDFDF"/>
<path d="M16.1 213.58C15.9406 213.579 15.7821 213.602 15.63 213.65C14.8914 213.986 14.2938 214.57 13.9412 215.301C13.5886 216.032 13.5033 216.863 13.7 217.65C13.7 217.65 11.63 214.32 9.03999 214.32C8.78007 214.32 8.52124 214.354 8.26999 214.42C7.35999 214.66 5.86999 218.66 10.16 221.42C11.0567 221.983 12.1023 222.261 13.16 222.22C14.1165 222.213 15.0655 222.051 15.97 221.74C14.55 222.31 11.73 223.74 13.97 225.41C13.97 225.41 15.89 226.56 20.65 227.15C20.0138 227.518 19.4914 228.054 19.14 228.7C20.3827 229.377 21.3461 230.472 21.86 231.79C22.28 231.95 22.75 232.1 23.28 232.25L26.56 232.83C26.3769 232.922 26.1998 233.025 26.03 233.14C27.61 233.46 28.92 235.79 29.55 239.06C30.844 239.468 32.1932 239.674 33.55 239.67H34.15C28.7711 231.412 21.7401 224.357 13.5 218.95L14.01 218.1C20.9969 222.686 27.1459 228.436 32.19 235.1C32.6244 233.55 32.886 231.957 32.97 230.35C33.0552 229.115 32.9163 227.875 32.56 226.69C32.3937 226.147 32.1026 225.65 31.71 225.24C31.4961 225.029 31.2358 224.872 30.95 224.78C30.8557 224.745 30.7587 224.719 30.66 224.7H30.5C28.4 224.7 27.68 229.41 27.66 229.54C27.9823 227.281 28.026 224.99 27.79 222.72C27.7244 222.162 27.6141 221.61 27.46 221.07C27.2563 220.195 26.8171 219.393 26.19 218.75C25.8542 218.441 25.4443 218.224 25 218.12C24.7483 218.055 24.4898 218.022 24.23 218.02C21.93 218.02 21.97 220.95 22.23 222.68C21.23 217.68 18.36 213.57 16.17 213.57" fill="#DFDFDF"/>
<path d="M25.66 233.15C23.4 233.15 23.74 237.3 23.88 238.41C26.3848 240.035 28.7557 241.857 30.97 243.86H31.1L29.95 242.81C29.9193 241.568 29.7888 240.331 29.56 239.11C28.93 235.84 27.62 233.51 26.04 233.19C25.9272 233.175 25.8128 233.175 25.7 233.19M8.76999 226.76C8.416 226.761 8.06937 226.861 7.76999 227.05C7.16345 227.591 6.76613 228.328 6.64734 229.132C6.52855 229.936 6.69583 230.757 7.11999 231.45C7.11999 231.45 4.83999 229.5 2.62999 229.5C2.03308 229.49 1.44609 229.653 0.939989 229.97C0.139989 230.48 -0.0600109 234.73 4.83999 236.14C5.24147 236.263 5.6602 236.32 6.07999 236.31C7.68551 236.258 9.23309 235.698 10.5 234.71C9.32999 235.71 7.05999 237.89 9.66999 238.82C10.3491 238.946 11.0396 238.999 11.73 238.98C13.3507 238.958 14.9666 238.798 16.56 238.5C16.56 238.5 12.75 242.59 20.13 242.59H20.59L23.89 242.17C23.3901 242.628 23.015 243.207 22.8 243.85H29.5C23.4139 238.683 16.3844 234.743 8.79999 232.25L9.07999 231.25C14.3103 232.96 19.2931 235.35 23.9 238.36C23.5137 236.094 22.8417 233.887 21.9 231.79C21.3861 230.471 20.4227 229.377 19.18 228.7C18.8638 228.567 18.523 228.502 18.18 228.51H17.98C14.84 228.75 15.86 231.95 16.66 233.71C14.41 229.71 10.94 226.71 8.76999 226.71" fill="#DFDFDF"/>
<path d="M30.26 215.4L29.61 216.16C29.69 216.22 36.44 222.07 43.61 241.75C43.86 242.44 44.11 243.14 44.35 243.86H45.41C44.55 241.36 43.7 239.057 42.86 236.95C36.27 220.56 30.5 215.63 30.26 215.4Z" fill="#C1C1C1"/>
<path d="M14.03 218.1L13.52 218.95C21.7569 224.371 28.7813 231.439 34.15 239.71C34.98 241.04 35.77 242.42 36.49 243.86H37.61C36.083 240.787 34.2753 237.861 32.21 235.12C27.1659 228.456 21.0169 222.706 14.03 218.12" fill="#C1C1C1"/>
<path d="M9.04999 231.3L8.76999 232.3C16.3619 234.778 23.4017 238.704 29.5 243.86H31C28.7857 241.857 26.4148 240.035 23.91 238.41C19.2906 235.397 14.2942 233.007 9.04999 231.3Z" fill="#C1C1C1"/>
<path d="M23.5 249.98H23.42V279.7H23.5V249.98ZM32.22 249.98H29.62V279.7H32.22V249.98ZM38.38 249.98H35.24V279.7H38.4V249.98M44.56 249.98H41.4V279.7H44.56V249.98ZM50.21 249.98H47.56V279.7H50.21V249.98ZM60.98 249.98H57.82V279.7H60.98V249.98Z" fill="#F5F5F5"/>
<path d="M57.82 249.98H56.33V279.7H57.82V249.98Z" fill="#E2E2E2"/>
<path d="M23.5 279.7H23.42V281.2H21.17V282.7H23.5V279.7ZM50.19 279.7H47.56V281.2H44.56V279.7H41.4V281.2H38.4V279.7H35.24V281.2H32.24V279.7H29.64V282.7H50.21V279.7M60.98 279.7H56.33V282.7H63.23V281.2H60.98V279.7Z" fill="#E2E2E2"/>
<path d="M8.12997 243.86V419.73C8.12997 420.153 8.21326 420.572 8.37508 420.962C8.5369 421.353 8.77409 421.708 9.07309 422.007C9.3721 422.306 9.72707 422.543 10.1177 422.705C10.5084 422.867 10.9271 422.95 11.35 422.95H14.25V249.95H8.12997V243.83" fill="#DCDCDC"/>
<path d="M56.33 249.98H50.21V279.7V282.7V422.95H56.33V282.7V279.7V249.98Z" fill="#DCDCDC"/>
<path d="M29.64 249.98H29.08H26.08H23.52V279.7V282.7V422.95H29.64V282.7V279.7V249.98Z" fill="#DCDCDC"/>
<path d="M71.21 249.98H65.09V422.98H67.99C68.844 422.98 69.663 422.641 70.2669 422.037C70.8707 421.433 71.21 420.614 71.21 419.76V249.98Z" fill="#DCDCDC"/>
<path d="M71.21 243.86H58.67H58.18H57.14H52.11H50.85H48.01H47.01H45.36H44.3H37.61H36.49H31.1H30.97H29.47H22.8H8.12997V249.98H14.25H20.44H23.44H32.24H35.24H38.4H41.4H44.56H47.56H50.21H56.33H60.98H63.98H65.09H71.21V243.86Z" fill="#DCDCDC"/>
<path d="M68.61 422.95H11.19L12.29 427.32C12.4136 427.815 12.6974 428.255 13.0971 428.571C13.4969 428.888 13.9901 429.063 14.5 429.07H65.27C65.7833 429.067 66.2812 428.894 66.685 428.577C67.0888 428.26 67.3756 427.818 67.5 427.32L68.6 422.95" fill="#DCDCDC"/>
<path d="M35.24 249.98H32.24V279.7V281.2H35.24V279.7V249.98Z" fill="#E2E2E2"/>
<path d="M41.4 249.98H38.4V279.7V281.2H41.4V279.7V249.98Z" fill="#E2E2E2"/>
<path d="M47.56 249.98H44.56V279.7V281.2H47.56V279.7V249.98Z" fill="#E2E2E2"/>
<path d="M63.98 249.98H60.98V279.7V281.2H63.23H63.98V249.98Z" fill="#E2E2E2"/>
<path d="M23.44 249.98H20.44V281.2H21.17H23.44V279.7V249.98Z" fill="#E2E2E2"/>
<path d="M238.76 0.5H161.03V117.79H238.76V0.5Z" fill="#EFEFEF"/>
<path d="M326.48 0.5H248.75V117.79H326.48V0.5Z" fill="#EFEFEF"/>
<path d="M412.59 0.5H334.86V117.79H412.59V0.5Z" fill="#EFEFEF"/>
<path d="M238.76 129.59H161.03V246.88H238.76V129.59Z" fill="#EFEFEF"/>
<path d="M326.48 129.59H248.75V246.88H326.48V129.59Z" fill="#EFEFEF"/>
<path d="M412.59 129.59H334.86V246.88H412.59V129.59Z" fill="#EFEFEF"/>
<path d="M375.24 431.2H365.98C365.581 431.2 365.195 431.062 364.886 430.811C364.576 430.56 364.362 430.21 364.28 429.82L358.74 404.03H376.98V429.5C376.97 429.955 376.782 430.387 376.456 430.705C376.131 431.022 375.695 431.2 375.24 431.2Z" fill="#333333"/>
<path d="M481.8 431.2H472.55C472.151 431.198 471.764 431.06 471.453 430.81C471.142 430.559 470.926 430.21 470.84 429.82L465.3 404.03H483.5V429.5C483.49 429.948 483.307 430.374 482.991 430.691C482.674 431.007 482.248 431.19 481.8 431.2Z" fill="#333333"/>
<path d="M56.86 431.2H47.6C47.2014 431.2 46.8151 431.062 46.5057 430.811C46.1963 430.56 45.9824 430.21 45.9 429.82L40.36 404.03H58.6V429.5C58.5895 429.955 58.4016 430.387 58.0764 430.705C57.7512 431.022 57.3146 431.2 56.86 431.2Z" fill="#333333"/>
<path d="M147.36 431.2H138.11C137.711 431.2 137.325 431.062 137.016 430.811C136.706 430.56 136.492 430.21 136.41 429.82L130.86 404.03H149.11V429.5C149.097 429.955 148.907 430.388 148.58 430.705C148.253 431.023 147.816 431.2 147.36 431.2Z" fill="#333333"/>
<path d="M357.5 404.79V323.25H22.5C21.4452 323.25 20.4008 323.459 19.4269 323.864C18.4531 324.269 17.5689 324.863 16.8254 325.611C16.0819 326.359 15.4936 327.247 15.0946 328.223C14.6955 329.2 14.4934 330.245 14.5 331.3V404.79H357.5Z" fill="#D7E1FF"/>
<path d="M470.21 233.5L163.43 234.26C159.577 234.263 155.882 235.79 153.151 238.509C150.421 241.228 148.878 244.917 148.86 248.77V323.32H470.21V233.5Z" fill="#D7E1FF"/>
<path d="M463.29 233.43H471.76C472.641 233.43 473.485 233.78 474.108 234.402C474.73 235.025 475.08 235.869 475.08 236.75V270.04H448.19V248.5C448.198 244.5 449.792 240.667 452.623 237.842C455.454 235.017 459.29 233.43 463.29 233.43Z" fill="#6483F4"/>
<path d="M52.91 267.12H148.86V323.25H52.91" fill="#8398FF"/>
<path d="M428.55 404.79L424.65 269.5L422.86 269.4C414.562 270.128 406.839 273.943 401.218 280.091C395.596 286.238 392.486 294.27 392.5 302.6V404.79" fill="#D7E1FF"/>
<path d="M427.55 404.82L423.68 270.41L422.88 270.36C414.821 271.043 407.318 274.743 401.87 280.721C396.423 286.698 393.433 294.513 393.5 302.6V404.79H391.5V302.6C391.433 294.002 394.616 285.697 400.413 279.348C406.21 272.998 414.192 269.073 422.76 268.36H422.83L425.6 268.53L429.53 404.77L427.55 404.82Z" fill="#8398FF"/>
<path d="M421.65 269.65C421.647 269.423 421.69 269.198 421.777 268.988C421.863 268.778 421.99 268.587 422.152 268.428C422.313 268.268 422.505 268.142 422.716 268.059C422.927 267.975 423.153 267.935 423.38 267.94L486.38 269.36C488.236 269.359 490.075 269.724 491.79 270.434C493.505 271.144 495.063 272.186 496.374 273.5C497.686 274.813 498.726 276.373 499.434 278.089C500.142 279.805 500.504 281.644 500.5 283.5V402.36C500.5 402.804 500.324 403.23 500.012 403.544C499.699 403.859 499.274 404.037 498.83 404.04L424.54 404.78C424.319 404.783 424.099 404.741 423.893 404.659C423.688 404.576 423.501 404.454 423.343 404.299C423.185 404.143 423.059 403.958 422.973 403.754C422.886 403.55 422.841 403.331 422.84 403.11L421.65 269.65Z" fill="#8398FF"/>
<path d="M393.3 404.71H337.18V389.43H391.3L393.3 404.71Z" fill="#D7E1FF"/>
<path d="M337.17 403.41V342.41C337.17 331.81 344.49 323.22 353.51 323.22L392.51 323.3L392.78 403.38" fill="#D7E1FF"/>
<path d="M337.18 404.41C336.915 404.41 336.66 404.305 336.473 404.117C336.285 403.93 336.18 403.675 336.18 403.41V342.41C336.18 331.27 343.95 322.22 353.51 322.22L393.51 322.3L393.79 403.38C393.79 403.645 393.685 403.9 393.497 404.087C393.31 404.275 393.055 404.38 392.79 404.38C392.525 404.38 392.27 404.275 392.083 404.087C391.895 403.9 391.79 403.645 391.79 403.38L391.5 324.33L353.5 324.25C345.05 324.25 338.17 332.41 338.17 342.44V403.44C338.162 403.698 338.055 403.943 337.87 404.124C337.686 404.305 337.438 404.408 337.18 404.41Z" fill="#8398FF"/>
<path d="M421.677 268.491L421.638 270.491L475.088 271.536L475.127 269.536L421.677 268.491Z" fill="#8398FF"/>
<path d="M52.91 267.12C73.61 267.12 90.4 284.87 90.4 306.76V324.92H52.91" fill="#D7E1FF"/>
<path d="M364.85 324.25H53.85C53.5848 324.25 53.3304 324.145 53.1429 323.957C52.9553 323.77 52.85 323.515 52.85 323.25C52.85 322.985 52.9553 322.73 53.1429 322.543C53.3304 322.355 53.5848 322.25 53.85 322.25H364.85C365.115 322.25 365.37 322.355 365.557 322.543C365.745 322.73 365.85 322.985 365.85 323.25C365.85 323.515 365.745 323.77 365.557 323.957C365.37 324.145 365.115 324.25 364.85 324.25Z" fill="#8398FF"/>
<path d="M172.85 225.5C172.85 225.5 196.1 267.84 204.18 269.58C207.67 270.33 216.45 268.93 220.18 256.5C223.91 244.07 227.04 223.68 233.82 218.83C240.6 213.98 245.61 208.46 244.72 205.23C243.83 202 241.09 194.73 239.55 194.81C238.01 194.89 238.91 197.81 238.91 197.81C238.91 197.81 235.03 196.52 234.63 197.89C234.23 199.26 237.63 199.58 238.55 201.03C239.47 202.48 239.08 202.97 238.89 202.73C237.71 201.24 234.02 201.43 234.02 201.43C234.02 201.43 233.5 198.54 232.29 199.83C231.08 201.12 232.45 207.34 230.19 209.11C227.93 210.88 222.68 213.11 222.28 217.03C221.88 220.95 208.38 248.5 207.09 248.73C205.8 248.96 196.59 224.99 190.29 217C183.99 209.01 180.51 209.16 173.29 208.68C166.62 208.24 172.85 225.5 172.85 225.5Z" fill="#FFCDC2"/>
<path d="M121.34 268.91C121.34 268.91 123.94 275.71 113.61 287.66C103.28 299.61 104.26 321.15 122.25 323.82C134.89 325.69 142.52 324.4 149.15 326.5C155.78 328.6 179.5 279.57 179.5 279.57C179.5 279.57 164.26 270.44 170.74 259.94C190.15 228.49 169.92 237.24 173.3 207.94C161.16 207.64 127.91 202.31 124.12 204.39C117.75 207.9 117.01 240.97 117.5 244.2C117.99 247.43 121.34 268.91 121.34 268.91Z" fill="#F84D8A"/>
<path d="M121.35 207.31C121.35 207.31 135.67 202.4 133.05 221.25C129.85 244.25 130 258.4 130.05 258.98C130.17 260.98 144.05 264.9 159.11 267.92C175.37 271.2 192.92 273.77 194.82 281.27C196.42 287.62 192.97 296.38 191.02 294.97C189.07 293.56 194.88 284.62 190.02 282.82C185.16 281.02 127.19 281.12 119.08 272.92C110.97 264.72 112.78 238.92 112.78 238.92C112.78 238.92 111.63 221.72 113.5 215.05C113.984 213.169 114.97 211.456 116.353 210.092C117.735 208.729 119.463 207.767 121.35 207.31Z" fill="#FFCDC2"/>
<path d="M141.5 207.39C141.5 207.39 135.25 224.5 150.92 224.5C166.59 224.5 160.06 208.5 160.06 208.5C160.06 208.5 158.89 200.39 161.41 197.12C163.93 193.85 145.46 180.89 140.28 185.12C135.1 189.35 141.5 207.39 141.5 207.39Z" fill="#E0A4AB"/>
<path d="M150.55 158.44C150.55 158.44 126.55 143.2 116.82 163.79C111.96 174.1 124.89 177.84 117.82 183.65C110.75 189.46 112.96 191.08 115.59 197.16C118.32 203.43 117.25 202.34 112.02 206.37C106.79 210.4 114.75 216.27 111.2 220.63C107.65 224.99 104.51 228.13 108.71 234.27C112.91 240.41 112.81 249.54 112.81 249.54C112.81 249.54 111.68 225.54 115.28 215.72C117.39 209.99 123.46 206.72 129.53 207.36C134.43 207.88 141.15 208.36 141.53 207.36C142.17 205.74 145.4 196.7 142.82 191.36C140.24 186.02 131.19 187.5 131.5 179.29C131.81 171.08 150.55 158.44 150.55 158.44Z" fill="#121E21"/>
<path d="M144.11 194.5C144.11 194.5 147.02 205.32 156.06 207.42C165.1 209.52 169.21 209.68 170.34 202.74C170.7 200.51 170.95 196.66 171.93 196.36C173.93 195.74 175.75 195.94 175.75 193.73C175.75 192.92 171.19 189.26 172.06 182.91C172.8 177.47 174.86 168.8 170.34 165.25C165.82 161.7 130.34 164.95 133.45 179.32C136.56 193.69 144.11 194.5 144.11 194.5Z" fill="#FFCDC2"/>
<path d="M147.44 188.19C147.44 188.19 149.94 191.79 150.55 189.64C156.2 169.64 173.08 175.41 173.08 175.41C173.08 175.41 176.94 155.63 150.25 156.7C129.63 157.53 123.9 183.79 132 196.1C137.46 204.4 142 206.1 142 206.1C143.494 202.431 144.209 198.491 144.1 194.53C144.1 194.53 136.35 189.85 139.9 185.33C143.45 180.81 147.44 188.19 147.44 188.19Z" fill="#414042"/>
<path d="M137.76 325.06C136.37 306.6 139.76 293.06 153.36 290.11C153.36 290.11 195.73 301.34 188.88 325.27C186.36 334.07 167.68 352.71 157.99 360.33C148.3 367.95 135.99 380.58 133.33 393.33C130.67 406.08 137.17 419.41 137.17 419.41C137.17 419.41 120.7 423.15 117.3 399.5C117.3 399.5 130.75 370.42 130.75 370.06C130.75 369.7 145.88 326.55 145.88 326.55C145.88 326.55 143.75 325.96 137.76 325.06Z" fill="#E0A4AB"/>
<path d="M143.24 295.72C143.24 295.72 171.08 268.18 187.77 277.67C206.36 288.24 179.52 314.67 165.47 330.41C151.42 346.15 142.96 354.7 134.97 368.99C126.98 383.28 125.28 387.64 125.28 387.64C125.28 387.64 108.08 393.5 110.5 374.32C110.5 374.32 125.89 358.22 133.26 345.49C136.83 339.33 144.41 323.94 144.41 323.94L161.41 297.54C161.5 296.15 147.77 295.34 143.24 295.72Z" fill="#FFCDC2"/>
<path d="M109.08 397.89L106.18 420.16C106.792 420.707 107.548 421.067 108.358 421.196C109.168 421.325 109.998 421.219 110.75 420.89C110.75 420.89 113.14 412.47 113.75 412.84C114.36 413.21 120.64 431.55 132.98 431.41C145.32 431.27 137.47 417.08 137.47 417.08C137.47 417.08 128.12 417.08 124.85 411.97C119.64 403.86 119.63 396.8 119.63 396.8L109.08 397.89Z" fill="#121E21"/>
<path d="M113.35 372.62C113.35 372.62 97.35 385.62 99.86 393.82C102.37 402.02 110.86 404.59 117.79 399.32C124.72 394.05 125.79 390.32 125.79 390.32C123.419 390.638 121.007 390.409 118.739 389.652C116.47 388.894 114.404 387.628 112.7 385.95C106.95 380.19 113.35 372.62 113.35 372.62Z" fill="#22393D"/>
<path d="M113.35 371.77C113.35 371.77 97.35 384.77 99.86 392.97C102.37 401.17 110.86 403.74 117.79 398.48C124.72 393.22 125.79 389.48 125.79 389.48C123.419 389.794 121.007 389.563 118.739 388.804C116.47 388.045 114.405 386.778 112.7 385.1C106.95 379.34 113.35 371.77 113.35 371.77Z" fill="#121E21"/>
<path d="M121.5 362.5C124.638 366.875 129.096 370.127 134.22 371.78L132.79 374.38C132.79 374.38 123.71 370.82 119.79 364.52L121.5 362.5Z" fill="#121E21"/>
<path d="M239.07 198.04C239.679 198.283 240.246 198.621 240.75 199.04C241.262 199.449 241.72 199.923 242.11 200.45C242.495 200.999 242.78 201.612 242.95 202.26C243.096 202.906 243.065 203.58 242.86 204.21C242.8 203.594 242.659 202.989 242.44 202.41C242.202 201.858 241.904 201.335 241.55 200.85C241.195 200.352 240.807 199.878 240.39 199.43C239.97 198.957 239.53 198.493 239.07 198.04Z" fill="#E0A4AB"/>
<path d="M239.07 202.94C239.458 203.261 239.795 203.638 240.07 204.06C240.368 204.478 240.613 204.932 240.8 205.41C240.993 205.893 241.118 206.402 241.17 206.92C241.224 207.44 241.148 207.966 240.95 208.45C240.812 207.49 240.55 206.552 240.17 205.66C239.85 204.77 239.43 203.9 239.07 202.94Z" fill="#E0A4AB"/>
<path d="M234.22 201.27C233.869 201.553 233.565 201.891 233.32 202.27C233.203 202.437 233.14 202.636 233.14 202.84C233.148 202.932 233.178 203.02 233.229 203.097C233.28 203.174 233.349 203.237 233.43 203.28C233.829 203.461 234.244 203.605 234.67 203.71C234.899 203.794 235.117 203.905 235.32 204.04C235.519 204.179 235.709 204.329 235.89 204.49C236.592 205.177 237.037 206.084 237.15 207.06C237.26 208.027 237.105 209.005 236.7 209.89C235.874 211.579 234.614 213.018 233.05 214.06C232.309 214.602 231.534 215.096 230.73 215.54C229.92 215.96 229.08 216.33 228.25 216.7C229.815 215.793 231.312 214.773 232.73 213.65C234.142 212.597 235.286 211.227 236.07 209.65C236.457 208.891 236.611 208.034 236.513 207.187C236.416 206.34 236.07 205.541 235.52 204.89C235.371 204.739 235.214 204.595 235.05 204.46C234.882 204.335 234.701 204.228 234.51 204.14C234.063 204 233.633 203.809 233.23 203.57C233.12 203.49 233.031 203.385 232.97 203.263C232.909 203.141 232.878 203.006 232.88 202.87C232.905 202.619 233.006 202.382 233.17 202.19C233.458 201.819 233.815 201.507 234.22 201.27Z" fill="#E0A4AB"/>
<path d="M170.71 198.26C170.71 198.26 163.58 197.53 164.05 199.62C164.52 201.71 169.97 203.47 169.97 203.47L170.71 198.26Z" fill="#EA7185"/>
<path d="M165.82 180.99C166.37 180.83 166.82 180.7 167.15 180.63C167.442 180.563 167.741 180.536 168.04 180.55C168.352 180.569 168.662 180.605 168.97 180.66C169.16 180.66 169.36 180.76 169.59 180.79C169.841 180.862 170.099 180.909 170.36 180.93C170.34 180.654 170.272 180.383 170.16 180.13C170.034 179.89 169.876 179.668 169.69 179.47C169.257 179.041 168.679 178.791 168.07 178.77C167.759 178.763 167.45 178.82 167.162 178.939C166.875 179.058 166.615 179.235 166.4 179.46C166.201 179.66 166.046 179.899 165.946 180.163C165.846 180.427 165.803 180.708 165.82 180.99Z" fill="#414042"/>
<path d="M168.528 184.675C168.599 183.756 168.153 182.971 167.531 182.923C166.908 182.875 166.346 183.581 166.275 184.501C166.204 185.42 166.65 186.205 167.273 186.253C167.895 186.301 168.457 185.595 168.528 184.675Z" fill="#414042"/>
<path d="M168.1 183.35C167.862 183.065 167.546 182.856 167.19 182.75C166.839 182.639 166.461 182.639 166.11 182.75C166.344 183.035 166.657 183.243 167.01 183.35C167.366 183.456 167.744 183.456 168.1 183.35Z" fill="#414042"/>
<path d="M233.6 203.75C233.6 203.75 235.77 206.75 231.65 209.48C230.471 210.249 229.529 211.33 228.929 212.603C228.329 213.876 228.094 215.291 228.25 216.69C230.502 215.739 232.575 214.409 234.38 212.76C237.5 209.72 238.75 204.98 233.6 203.75Z" fill="#E0A4AB"/>
<path d="M162.89 280.98C163.024 280.511 163.304 280.098 163.69 279.8C164.057 279.478 164.451 279.191 164.87 278.94C165.693 278.434 166.552 277.989 167.44 277.61C169.222 276.861 171.07 276.278 172.96 275.87C176.768 274.953 180.724 274.834 184.58 275.52C186.572 275.908 188.462 276.705 190.13 277.86C191.81 279.081 193.071 280.793 193.74 282.76C194.059 283.712 194.257 284.699 194.33 285.7C194.39 286.68 194.37 287.663 194.27 288.64C194.027 290.55 193.543 292.422 192.83 294.21C193.151 292.354 193.315 290.474 193.32 288.59C193.339 286.778 192.999 284.98 192.32 283.3C191.652 281.691 190.521 280.316 189.07 279.35C187.592 278.36 185.928 277.68 184.18 277.35C182.394 276.985 180.573 276.821 178.75 276.86C176.899 276.874 175.051 277.018 173.22 277.29C171.373 277.556 169.546 277.944 167.75 278.45C166.849 278.698 165.963 279.002 165.1 279.36C164.67 279.53 164.255 279.738 163.86 279.98C163.432 280.193 163.09 280.546 162.89 280.98Z" fill="#E0A4AB"/>
<path d="M145.89 191.19C145.875 191.375 145.818 191.555 145.722 191.714C145.627 191.874 145.496 192.009 145.34 192.11C145.169 192.2 144.982 192.255 144.79 192.272C144.598 192.289 144.404 192.268 144.22 192.21C143.522 191.964 142.877 191.587 142.32 191.1C141.738 190.612 141.276 189.996 140.97 189.3C140.651 188.577 140.567 187.773 140.73 187C140.818 186.592 141.015 186.215 141.3 185.91C141.455 185.754 141.644 185.636 141.852 185.565C142.06 185.493 142.282 185.471 142.5 185.5C142.912 185.576 143.292 185.774 143.59 186.07C143.868 186.326 144.113 186.614 144.32 186.93C144.742 187.55 145.019 188.258 145.13 189C145.174 189.192 145.176 189.392 145.136 189.585C145.097 189.778 145.016 189.96 144.9 190.12C144.815 190.175 144.716 190.205 144.615 190.205C144.514 190.205 144.415 190.175 144.33 190.12C144.17 190.037 144.022 189.933 143.89 189.81C144.038 189.901 144.195 189.975 144.36 190.03C144.431 190.056 144.507 190.063 144.581 190.049C144.655 190.035 144.724 190.001 144.78 189.95C144.902 189.648 144.902 189.311 144.78 189.01C144.61 188.345 144.3 187.725 143.87 187.19C143.45 186.69 142.92 186.14 142.4 186.1C141.88 186.06 141.45 186.56 141.32 187.17C141.22 187.822 141.286 188.488 141.514 189.107C141.741 189.727 142.122 190.278 142.62 190.71C143.088 191.207 143.648 191.608 144.27 191.89C144.412 191.965 144.568 192.01 144.728 192.022C144.888 192.034 145.048 192.013 145.2 191.96C145.362 191.887 145.507 191.78 145.626 191.648C145.745 191.515 145.835 191.359 145.89 191.19Z" fill="#E0A4AB"/>
<path d="M144.96 188.61C144.66 188.25 144.19 187.86 143.96 188.12C143.823 188.26 143.73 188.437 143.693 188.628C143.656 188.82 143.676 189.019 143.75 189.2C143.911 189.611 144.176 189.973 144.52 190.25C144.682 190.414 144.875 190.545 145.088 190.634C145.301 190.723 145.529 190.769 145.76 190.77C145.534 190.904 145.265 190.943 145.01 190.88C144.755 190.822 144.511 190.72 144.29 190.58C143.82 190.307 143.465 189.874 143.29 189.36C143.183 189.084 143.173 188.78 143.26 188.497C143.347 188.214 143.527 187.968 143.77 187.8C143.908 187.717 144.073 187.692 144.23 187.73C144.372 187.771 144.5 187.851 144.6 187.96C144.765 188.148 144.888 188.37 144.96 188.61Z" fill="#E0A4AB"/>
<path d="M175.34 175.58C177.897 175.58 179.97 173.507 179.97 170.95C179.97 168.393 177.897 166.32 175.34 166.32C172.783 166.32 170.71 168.393 170.71 170.95C170.71 173.507 172.783 175.58 175.34 175.58Z" fill="#414042"/>
<path d="M169.5 176.59C172.339 176.59 174.64 174.289 174.64 171.45C174.64 168.611 172.339 166.31 169.5 166.31C166.661 166.31 164.36 168.611 164.36 171.45C164.36 174.289 166.661 176.59 169.5 176.59Z" fill="#414042"/>
<path d="M171.58 170.95C173.883 170.95 175.75 169.083 175.75 166.78C175.75 164.477 173.883 162.61 171.58 162.61C169.277 162.61 167.41 164.477 167.41 166.78C167.41 169.083 169.277 170.95 171.58 170.95Z" fill="#414042"/>
<path d="M292.47 330.64L282.87 346.07L296.1 354.54L304.18 341.94L292.47 330.64Z" fill="#FFCDC2"/>
<path d="M286.64 374.2C276.7 367.75 262.97 359.12 250.1 348.69C250.1 348.69 251.18 335.04 264.86 343.36C278.54 351.68 283.17 343.99 283.17 343.99C287.45 346.53 292.52 350.18 299.1 354.09L286.64 374.2Z" fill="#16242B"/>
<path d="M343.65 380.79L346.23 398.77L361.8 396.74L359.88 381.89L343.65 380.79Z" fill="#FFCDC2"/>
<path d="M348.09 394.36C352.128 395.112 356.287 394.886 360.22 393.7C360.704 393.538 361.22 393.491 361.726 393.563C362.231 393.635 362.713 393.825 363.133 394.116C363.552 394.407 363.898 394.793 364.142 395.241C364.387 395.69 364.523 396.189 364.54 396.7C364.75 402.11 365.32 410.44 366.54 414.7C368.3 421.1 367.44 430.21 354.82 430.81C342.2 431.41 340.98 422.54 343.21 411.26C344.113 406.82 344.449 402.284 344.21 397.76C344.185 397.264 344.273 396.77 344.466 396.313C344.66 395.856 344.954 395.448 345.328 395.121C345.701 394.794 346.143 394.556 346.622 394.424C347.1 394.292 347.602 394.27 348.09 394.36Z" fill="#121E21"/>
<path d="M334.79 203.19L332.61 199.19C332.61 199.19 347.35 194.94 347.67 194.81C347.99 194.68 339.98 203.76 339.98 203.76L334.79 203.19Z" fill="#112E7F"/>
<path d="M398.08 286.15C398.08 286.15 377.03 281.22 363.87 274.44C350.71 267.66 322.5 273.5 322.5 273.5L282.1 334.34L308.1 349.56C312.45 345.88 324.21 324.41 330.28 315.56L331.35 310.89C331.35 310.89 333.77 299.89 347.67 301.14C361.57 302.39 364.67 307.41 364.67 328.94C364.67 330.08 364.74 331.29 364.86 332.56V326.7C364.86 326.7 386.22 338.7 399.41 318.94C410.1 302.89 398.08 286.15 398.08 286.15Z" fill="#22393D"/>
<path d="M347.67 301.11C333.77 299.85 331.35 310.86 331.35 310.86L330.28 315.5L331.86 313.2C330.59 326.67 338.67 388.44 338.67 388.44C347.39 391.61 364.82 386.86 364.82 386.86V332.5C364.7 331.23 364.63 330.02 364.63 328.88C364.63 307.38 361.57 302.37 347.67 301.11Z" fill="#121E21"/>
<path d="M413.97 274.97C412.282 277.507 411.286 280.44 411.08 283.48C410.87 288.25 407.23 290.2 406.88 290.87C406.53 291.54 410.18 292.66 412.04 290.87C413.9 289.08 415.69 286.17 416.1 286.17L415.55 292.36C415.55 292.36 416.24 294.82 419.06 292.36C419.06 292.36 421.06 294.15 422.36 291.99C422.36 291.99 424.56 294.45 426.01 291.69C426.01 291.69 427.93 293.03 428.34 289.69C428.75 286.35 429.03 279.02 426.07 276.33C423.11 273.64 413.97 274.97 413.97 274.97Z" fill="#FFCDC2"/>
<path d="M333.72 206.13C333.72 206.13 322.63 201.64 315.5 213.71C308.37 225.78 315.5 258.71 315.5 258.71L328.18 276.17C328.18 276.17 341.65 272.68 351.79 277.28C361.93 281.88 387.13 290.44 398.5 288.5C391.85 267.64 386.6 247.64 384.5 229.6C384.5 229.6 392.7 238.35 404.65 251.7L410.82 275.19C410.82 275.19 422.76 281.56 430.05 276.65C430.05 276.65 427.15 252.25 422.63 241.21C419.63 233.94 407.81 216.86 397.35 203.39C386.89 189.92 376.98 188.88 368.5 194.04C360.02 199.2 357.09 198.62 357.09 198.62L333.72 206.13Z" fill="#4358EB"/>
<path d="M351.931 256.271L349.944 256.498L352.155 275.872L354.142 275.645L351.931 256.271Z" fill="#203ED3"/>
<path d="M346.5 216.38L344.7 243.38C344.641 244.213 344.749 245.05 345.02 245.84L351.76 265.56L354.13 243.3C354.199 242.717 354.182 242.128 354.08 241.55L349.22 213.55C349.22 213.55 348.91 207.55 351.6 205.68C354.29 203.81 348.97 196.49 347.27 199.34C346.11 201.34 337.13 203.49 338.98 206.16C339.41 206.7 347.5 215.18 346.5 216.38Z" fill="#F84D8A"/>
<path d="M335.62 196.62L336.42 203.43C336.42 203.43 344.57 205.22 346.83 211.32C346.465 208.903 346.934 206.434 348.16 204.32L359.78 189.91C359.78 189.91 364.31 182.03 357.78 181.91C351.25 181.79 335.62 196.62 335.62 196.62Z" fill="#E0A4AB"/>
<path d="M321.25 166.41C322.557 172.253 323.505 178.171 324.09 184.13C324.64 190.92 333.09 200.27 340.36 199.49C349 198.57 356.7 183.74 356.7 183.74C356.7 183.74 365.42 179.98 361.93 167.14C358.44 154.3 337.53 144.63 328.81 151.77C320.09 158.91 321.25 166.41 321.25 166.41Z" fill="#FFCDC2"/>
<path d="M329.96 162.94C329.96 162.94 325.01 161.83 322.31 165.32C322.31 165.32 319.62 154.06 329.36 154.86C339.1 155.66 339.59 161.67 339.59 161.67C339.59 161.67 333.8 159.85 329.96 162.94Z" fill="#535254"/>
<path d="M364.31 157.83C355.5 137.74 332.1 149.5 332.1 149.5C325.8 147.36 315.85 151.84 315.49 162.69C315.18 171.94 320.77 172.01 320.77 172.01C319.819 171.185 319.061 170.16 318.55 169.01C320.42 171.01 323.94 171.44 323.94 171.44C323.189 170.921 322.567 170.239 322.12 169.443C321.673 168.648 321.413 167.761 321.36 166.85C322.55 169.52 326.14 171.14 326.14 171.14C326.14 171.14 321.88 165.57 324.02 161.65C326.16 157.73 329.96 162.96 329.96 162.96C329.96 162.96 331.39 157.85 335.31 158.44C339.23 159.03 339.71 169.21 339.71 169.21C341.56 165.98 342.04 163.55 341.87 161.76C342.581 163.769 343.129 165.833 343.51 167.93C345.24 165.21 345.6 163.1 345.38 161.54C346.091 163.752 346.553 166.036 346.76 168.35C347.845 167.048 348.575 165.487 348.88 163.82C349.087 165.478 349.188 167.149 349.18 168.82C349.845 168.476 350.434 168.004 350.915 167.431C351.396 166.857 351.758 166.194 351.98 165.48C351.972 166.832 351.787 168.176 351.43 169.48C352.471 168.933 353.369 168.149 354.05 167.19C353.666 168.612 353.119 169.984 352.42 171.28C354.98 170.28 356.31 168.91 356.96 167.6C356.774 168.631 356.472 169.637 356.06 170.6C353.81 175.82 355.06 178.6 355.06 178.6C355.06 178.6 357.27 170.39 361.34 173.93C365.41 177.47 356.72 183.83 356.72 183.83L357.67 192.39C357.67 192.39 373.11 177.92 364.31 157.83Z" fill="#414042"/>
<path d="M314.79 236.5C314.79 236.5 314.48 233.13 313.12 232.27C313.002 230.472 312.428 228.733 311.452 227.217C310.475 225.702 309.129 224.461 307.54 223.61C302.09 220.75 300.42 218.45 300.1 217.9C299.51 216.9 296.98 220.25 302.26 224.29C302.73 224.65 302.98 225.05 301.77 225.29C301.77 225.29 295.77 223.91 294.3 221.8C292.83 219.69 292.77 217.39 291.59 218.35C289.99 219.65 291.95 223.3 291.95 223.3C291.95 223.3 290.35 225.95 293.45 228.03C293.304 228.293 293.227 228.589 293.227 228.89C293.227 229.191 293.304 229.487 293.45 229.75C293.76 230.325 294.213 230.811 294.764 231.161C295.316 231.511 295.948 231.714 296.6 231.75C296.608 232.543 296.904 233.306 297.431 233.898C297.959 234.49 298.683 234.871 299.47 234.97C299.47 234.97 303.91 234.83 304.03 241.11L314.79 236.5Z" fill="#FFCDC2"/>
<path d="M344.7 213.86L344.97 214.74C345.163 215.337 345.564 215.844 346.1 216.169C346.637 216.494 347.272 216.615 347.89 216.51C348.25 216.445 348.592 216.303 348.893 216.096C349.194 215.888 349.447 215.619 349.636 215.306C349.825 214.993 349.946 214.643 349.99 214.28C350.033 213.917 349.999 213.549 349.89 213.2L349.62 212.32C349.511 211.967 349.328 211.642 349.084 211.365C348.839 211.088 348.538 210.867 348.202 210.716C347.865 210.564 347.5 210.486 347.13 210.487C346.761 210.488 346.396 210.567 346.06 210.72C345.489 210.987 345.035 211.454 344.785 212.032C344.534 212.611 344.504 213.261 344.7 213.86Z" fill="#DF307E"/>
<path d="M301.87 240.36L318.19 234.66C318.19 234.66 342.51 276.15 324.91 282.17C312.63 286.38 307.91 268.24 305.2 254.78C303.56 246.68 301.87 240.36 301.87 240.36Z" fill="#4358EB"/>
<path d="M419.06 292.36C419.06 291.36 419.11 290.44 419.06 289.5V288.08C419.035 287.59 419.035 287.1 419.06 286.61C419.505 287.502 419.744 288.483 419.76 289.48C419.76 289.98 419.71 290.48 419.61 290.97C419.518 291.464 419.331 291.936 419.06 292.36Z" fill="#E0A4AB"/>
<path d="M422.36 291.99C422.319 291.09 422.339 290.188 422.42 289.29C422.5 288.4 422.56 287.54 422.7 286.61C423.048 287.475 423.179 288.412 423.08 289.34C423.025 290.263 422.78 291.166 422.36 291.99Z" fill="#E0A4AB"/>
<path d="M426.01 291.69C425.928 290.843 425.904 289.99 425.94 289.14L426.01 286.61C426.454 287.38 426.662 288.263 426.61 289.15C426.617 289.602 426.58 290.054 426.5 290.5C426.386 290.915 426.222 291.315 426.01 291.69Z" fill="#E0A4AB"/>
<path d="M339.97 172.02C339.898 171.719 339.892 171.406 339.953 171.102C340.013 170.798 340.138 170.511 340.32 170.26C340.527 169.976 340.795 169.743 341.105 169.578C341.415 169.414 341.759 169.322 342.11 169.31C342.77 169.297 343.411 169.528 343.91 169.96C344.121 170.162 344.308 170.387 344.47 170.63C344.614 170.89 344.718 171.17 344.78 171.46C344.498 171.454 344.217 171.424 343.94 171.37C343.69 171.32 343.44 171.31 343.23 171.25C342.883 171.192 342.532 171.162 342.18 171.16C341.875 171.166 341.574 171.227 341.29 171.34C340.837 171.54 340.396 171.767 339.97 172.02Z" fill="#414042"/>
<path d="M326.02 173.01C325.944 172.71 325.935 172.396 325.994 172.092C326.053 171.788 326.178 171.5 326.36 171.25C326.569 170.966 326.84 170.734 327.151 170.569C327.463 170.405 327.808 170.313 328.16 170.3C328.819 170.291 329.459 170.522 329.96 170.95C330.17 171.15 330.355 171.375 330.51 171.62C330.657 171.879 330.765 172.159 330.83 172.45C330.545 172.444 330.26 172.414 329.98 172.36C329.73 172.31 329.49 172.3 329.28 172.24C328.949 172.189 328.615 172.159 328.28 172.15C327.976 172.161 327.675 172.222 327.39 172.33C326.92 172.528 326.462 172.755 326.02 173.01Z" fill="#414042"/>
<path d="M343.963 176.442C344.025 175.539 343.495 174.766 342.779 174.717C342.063 174.668 341.431 175.36 341.369 176.264C341.307 177.167 341.837 177.94 342.553 177.989C343.27 178.039 343.901 177.346 343.963 176.442Z" fill="#414042"/>
<path d="M329.606 176.943C329.668 176.039 329.138 175.267 328.422 175.217C327.705 175.168 327.074 175.861 327.012 176.764C326.95 177.668 327.48 178.44 328.196 178.49C328.912 178.539 329.544 177.847 329.606 176.943Z" fill="#414042"/>
<path d="M342.21 187.84C340.59 186.63 331.66 188.84 332.07 189.84C332.36 190.56 335.27 192.84 337.88 192.4C340.66 191.94 343.15 188.5 342.21 187.84Z" fill="#EA7185"/>
<path d="M333.92 177.18C334.201 178.459 334.362 179.761 334.4 181.07C334.415 181.319 334.448 181.566 334.5 181.81C334.531 181.915 334.568 182.019 334.61 182.12L334.74 182.46C334.824 182.697 334.924 182.927 335.04 183.15L335.61 184.04C335.227 184.189 334.806 184.21 334.41 184.1C333.987 183.988 333.609 183.747 333.33 183.41C333.192 183.257 333.071 183.09 332.97 182.91C332.859 182.719 332.775 182.514 332.72 182.3C332.621 181.905 332.587 181.496 332.62 181.09C332.66 180.409 332.791 179.736 333.01 179.09C333.215 178.411 333.522 177.767 333.92 177.18Z" fill="#E0A4AB"/>
<path d="M341.99 175.07C342.438 174.815 342.955 174.707 343.468 174.761C343.981 174.815 344.464 175.028 344.85 175.37C344.406 175.639 343.884 175.748 343.37 175.68C342.855 175.634 342.37 175.419 341.99 175.07Z" fill="#414042"/>
<path d="M326.14 175.96C326.505 175.596 326.979 175.36 327.49 175.29C327.998 175.197 328.523 175.278 328.98 175.52C328.623 175.898 328.146 176.138 327.63 176.2C327.12 176.288 326.596 176.204 326.14 175.96Z" fill="#414042"/>
<path d="M293.05 224.33C293.625 224.749 294.238 225.114 294.88 225.42C295.511 225.728 296.159 226.002 296.82 226.24C297.48 226.48 298.15 226.68 298.82 226.87L299.82 227.15C300.17 227.23 300.52 227.31 300.87 227.42C300.143 227.51 299.407 227.51 298.68 227.42C297.951 227.325 297.234 227.154 296.54 226.91C295.835 226.66 295.163 226.324 294.54 225.91C293.941 225.491 293.434 224.953 293.05 224.33Z" fill="#E0A4AB"/>
<path d="M294.3 228.5L296.52 228.95C297.25 229.1 297.98 229.25 298.71 229.36C299.438 229.486 300.173 229.573 300.91 229.62C301.654 229.666 302.4 229.643 303.14 229.55C302.45 229.902 301.693 230.103 300.92 230.14C300.148 230.19 299.373 230.15 298.61 230.02C297.852 229.892 297.106 229.701 296.38 229.45C295.655 229.208 294.958 228.889 294.3 228.5Z" fill="#E0A4AB"/>
<path d="M297.56 231.97C297.81 231.838 298.089 231.773 298.372 231.782C298.654 231.791 298.929 231.873 299.17 232.02C299.291 232.097 299.408 232.18 299.52 232.27C299.611 232.366 299.708 232.456 299.81 232.54C299.971 232.679 300.177 232.754 300.39 232.75C300.884 232.725 301.37 232.62 301.83 232.44C302.33 232.28 302.83 232.11 303.36 231.96C304.405 231.638 305.497 231.496 306.59 231.54C307.151 231.577 307.696 231.745 308.18 232.03C308.65 232.315 309.005 232.758 309.18 233.28C308.905 232.828 308.491 232.477 308 232.28C307.532 232.098 307.032 232.009 306.53 232.02C305.511 232.078 304.503 232.263 303.53 232.57L302 233.01C301.462 233.188 300.896 233.262 300.33 233.23C300.011 233.196 299.716 233.047 299.5 232.81C299.407 232.713 299.32 232.609 299.24 232.5C299.157 232.409 299.067 232.325 298.97 232.25C298.776 232.091 298.546 231.982 298.3 231.933C298.054 231.884 297.8 231.897 297.56 231.97Z" fill="#E0A4AB"/>
<path d="M303.39 225.64C303.809 226.857 304.465 227.978 305.32 228.94C305.744 229.399 306.24 229.784 306.79 230.08C307.364 230.38 307.967 230.621 308.59 230.8C307.913 230.868 307.229 230.782 306.59 230.55C306.261 230.428 305.945 230.27 305.65 230.08C305.364 229.881 305.1 229.653 304.86 229.4C304.384 228.889 304.01 228.292 303.76 227.64C303.503 227.005 303.378 226.325 303.39 225.64Z" fill="#E0A4AB"/>
<path d="M321.2 240.22C323.002 242.472 324.57 244.901 325.88 247.47C327.217 250.028 328.354 252.686 329.28 255.42C330.186 258.176 330.826 261.012 331.19 263.89C331.532 266.774 331.41 269.694 330.83 272.54C330.623 269.72 330.229 266.917 329.65 264.15C329.02 261.41 328.24 258.72 327.38 256.05C326.94 254.72 326.48 253.39 325.98 252.05C325.75 251.38 325.5 250.73 325.24 250.05L324.47 248.05C323.41 245.5 322.32 242.87 321.2 240.22Z" fill="#203ED3"/>
<path d="M323.65 227.67C324.392 229.625 324.997 231.63 325.46 233.67C325.95 235.67 326.33 237.73 326.64 239.78C326.961 241.837 327.171 243.91 327.27 245.99C327.421 248.081 327.358 250.182 327.08 252.26C326.57 250.26 326.08 248.26 325.72 246.18C325.36 244.1 324.97 242.12 324.66 240.08C324.35 238.04 324.1 235.98 323.92 233.92C323.709 231.844 323.619 229.757 323.65 227.67Z" fill="#203ED3"/>
<path d="M385.1 228.98L373.59 219.59C371.874 232.564 374.038 245.755 379.81 257.5C389.44 276.86 388.44 288.83 388.44 288.83H399.68C399.68 288.83 385.27 251.03 385.1 228.98Z" fill="#203ED3"/>
<path d="M330.83 207C330.475 205.649 330.452 204.233 330.761 202.872C331.071 201.51 331.705 200.244 332.61 199.18L343.31 205.81C342.058 207.843 341.39 210.182 341.38 212.57L330.83 207Z" fill="#203ED3"/>
<path d="M358.24 191.5C360.68 193.17 362.01 195.36 361.43 198.5L350.95 211.02C350.615 208.355 349.317 205.904 347.3 204.13L358.24 191.5Z" fill="#203ED3"/>
<path d="M355.96 180.4C355.996 180.568 356.07 180.725 356.176 180.86C356.281 180.995 356.416 181.104 356.57 181.18C356.897 181.293 357.256 181.275 357.57 181.13C358.174 180.822 358.717 180.405 359.17 179.9C359.634 179.378 359.975 178.76 360.17 178.09C360.37 177.391 360.349 176.647 360.11 175.96C359.979 175.598 359.755 175.278 359.46 175.03C359.301 174.898 359.113 174.805 358.911 174.76C358.71 174.715 358.5 174.718 358.3 174.77C357.934 174.882 357.612 175.106 357.38 175.41C357.151 175.673 356.96 175.966 356.81 176.28C356.498 176.902 356.327 177.585 356.31 178.28C356.292 178.462 356.314 178.646 356.375 178.819C356.435 178.991 356.533 179.149 356.66 179.28C356.739 179.332 356.831 179.36 356.925 179.36C357.019 179.36 357.111 179.332 357.19 179.28C357.326 179.186 357.448 179.071 357.55 178.94C357.427 179.042 357.293 179.13 357.15 179.2C357.092 179.238 357.024 179.257 356.955 179.257C356.886 179.257 356.818 179.238 356.76 179.2C356.678 179.076 356.623 178.937 356.597 178.791C356.571 178.644 356.576 178.495 356.61 178.35C356.681 177.722 356.889 177.118 357.22 176.58C357.54 176.07 357.96 175.51 358.43 175.4C358.9 175.29 359.35 175.71 359.54 176.25C359.71 176.835 359.73 177.453 359.597 178.048C359.464 178.642 359.183 179.194 358.78 179.65C358.404 180.153 357.94 180.584 357.41 180.92C357.288 181.003 357.151 181.061 357.007 181.09C356.863 181.119 356.714 181.119 356.57 181.09C356.426 181.024 356.297 180.929 356.191 180.81C356.086 180.691 356.007 180.551 355.96 180.4Z" fill="#E0A4AB"/>
<path d="M356.5 177.94C356.73 177.58 357.12 177.16 357.38 177.36C357.528 177.475 357.638 177.632 357.695 177.811C357.752 177.989 357.754 178.18 357.7 178.36C357.597 178.736 357.401 179.08 357.13 179.36C356.868 179.698 356.484 179.921 356.06 179.98C356.281 180.071 356.529 180.071 356.75 179.98C356.978 179.899 357.191 179.781 357.38 179.63C357.768 179.314 358.039 178.878 358.15 178.39C358.212 178.124 358.184 177.845 358.07 177.597C357.955 177.349 357.762 177.146 357.52 177.02C357.381 176.97 357.229 176.97 357.09 177.02C356.965 177.073 356.858 177.159 356.78 177.27C356.642 177.472 356.546 177.7 356.5 177.94Z" fill="#E0A4AB"/>
<path d="M428.55 404.79L424.65 269.5L422.86 269.4C414.562 270.128 406.839 273.943 401.218 280.091C395.596 286.238 392.486 294.27 392.5 302.6V404.79" fill="#D7E1FF"/>
<path d="M427.55 404.82L423.68 270.41L422.88 270.36C414.821 271.043 407.318 274.743 401.87 280.721C396.423 286.698 393.433 294.513 393.5 302.6V404.79H391.5V302.6C391.433 294.002 394.616 285.697 400.413 279.348C406.21 272.998 414.192 269.073 422.76 268.36H422.83L425.6 268.53L429.53 404.77L427.55 404.82Z" fill="#8398FF"/>
<path d="M421.65 269.65C421.647 269.423 421.69 269.198 421.777 268.988C421.863 268.778 421.99 268.587 422.152 268.428C422.313 268.268 422.505 268.142 422.716 268.059C422.927 267.975 423.153 267.935 423.38 267.94L486.38 269.36C488.236 269.359 490.075 269.724 491.79 270.434C493.505 271.144 495.063 272.186 496.374 273.5C497.686 274.813 498.726 276.373 499.434 278.089C500.142 279.805 500.504 281.644 500.5 283.5V402.36C500.5 402.804 500.324 403.23 500.012 403.544C499.699 403.859 499.274 404.037 498.83 404.04L424.54 404.78C424.319 404.783 424.099 404.741 423.893 404.659C423.688 404.576 423.501 404.454 423.343 404.299C423.185 404.143 423.059 403.958 422.973 403.754C422.886 403.55 422.841 403.331 422.84 403.11L421.65 269.65Z" fill="#8398FF"/>
<path d="M519.25 429.91H3.51999V432.91H519.25V429.91Z" fill="#C7C7C7"/>
<path d="M169.71 176.59C172.549 176.59 174.85 174.289 174.85 171.45C174.85 168.611 172.549 166.31 169.71 166.31C166.871 166.31 164.57 168.611 164.57 171.45C164.57 174.289 166.871 176.59 169.71 176.59Z" fill="#414042"/>
</svg>
