<svg width="368" height="185" viewBox="0 0 368 185" fill="none" xmlns="http://www.w3.org/2000/svg">
<mask id="mask0_8_24" style="mask-type:luminance" maskUnits="userSpaceOnUse" x="0" y="0" width="368" height="185">
<path d="M367.752 0.68399H0.247986V184.34H367.752V0.68399Z" fill="white"/>
</mask>
<g mask="url(#mask0_8_24)">
<path d="M317.64 120.158H312.089C312.089 120.158 311.306 119.258 310.189 117.804C306.294 112.704 298.37 100.712 306.04 96.176C311.289 93.076 313.976 99.754 315.34 106.676C316.54 112.759 317.64 120.155 317.64 120.155" fill="#1EC900"/>
<path d="M327.17 102.664C326.638 108.459 325.812 114.223 324.696 119.934L316.736 119.99C316.736 119.99 315.806 116.648 314.717 113.039C311.598 102.679 307.036 82.291 318.508 79.739C327.39 77.766 328.143 91.022 327.17 102.663" fill="#60F20A"/>
<path d="M329.745 118.339C329.297 118.638 328.81 118.874 328.297 119.039L323.624 120.159C323.563 119.746 322.515 105.078 327.062 101.272C327.888 100.585 328.942 100.234 330.015 100.288C337.758 100.496 335.458 114.581 329.745 118.341" fill="#1EC900"/>
<path d="M339.524 127.959C339.524 128.059 339.515 128.151 339.506 128.248L339.379 130.107L338.609 141.461C338.425 144.174 337.218 146.715 335.231 148.571C333.245 150.428 330.628 151.461 327.909 151.461H313.488C310.771 151.46 308.155 150.427 306.169 148.573C304.183 146.718 302.975 144.179 302.788 141.468L301.975 129.528L301.887 128.25C301.747 126.214 302.192 124.18 303.169 122.388C303.2 122.331 303.23 122.279 303.269 122.226C303.57 121.685 303.92 121.172 304.315 120.695C304.477 120.495 304.647 120.306 304.831 120.122C306.227 118.651 308.013 117.608 309.981 117.116C311.381 118.616 315.581 119.706 320.556 119.706C325.583 119.706 329.827 118.59 331.179 117.063C332.977 117.462 334.639 118.324 336.001 119.563C336.15 119.694 336.29 119.83 336.43 119.97C336.963 120.507 337.437 121.1 337.843 121.738C337.86 121.764 337.878 121.795 337.896 121.821C338.797 123.242 339.345 124.857 339.496 126.533C339.54 127.006 339.554 127.481 339.536 127.955" fill="#389DF9"/>
<path d="M111.415 44.955C111.415 44.955 68.905 86.682 69.415 118.183L69.923 149.683H159.515C159.515 149.683 161.322 128.457 144.103 77.366L128.116 42.499L111.415 44.955Z" fill="#FB3741"/>
<path d="M88.705 29.619C88.963 30.078 89.252 30.538 89.567 30.993C90.1304 31.81 90.7471 32.589 91.413 33.325C91.881 33.854 92.393 34.37 92.936 34.882C104.11 45.382 104.959 60.796 95.303 70.955C85.647 81.114 73.624 73.668 73.624 73.668C88.04 69.883 83.919 62.73 77.378 53.568C75.952 51.568 74.407 49.473 72.915 47.294C66.877 38.473 61.702 28.319 68.54 17.775C81.14 -1.64201 94.511 4.47499 99.897 8.21099C100.282 8.47799 100.623 8.73599 100.925 8.96799C101.025 9.04699 101.125 9.12099 101.218 9.19999C101.614 9.51021 101.994 9.8403 102.356 10.189C102.408 10.2667 102.456 10.3472 102.5 10.43C102.665 10.7308 102.77 11.0604 102.811 11.401C102.871 12.1758 102.691 12.9503 102.295 13.619C101.999 14.1583 101.642 14.6617 101.231 15.119C100.818 15.5935 100.364 16.0312 99.875 16.427C97.5928 15.2836 95.0453 14.7745 92.499 14.953C86.356 15.684 84.645 22.618 88.699 29.623" fill="#3F51B5"/>
<path d="M102.5 10.434C102.216 11.922 101.52 13.659 101.231 15.12C100.818 15.5946 100.363 16.0323 99.874 16.428C97.5918 15.2846 95.0443 14.7755 92.498 14.954C91.96 11.633 97.372 13.896 97.613 11.069C97.6992 10.431 97.9573 9.82855 98.3596 9.326C98.762 8.82345 99.2934 8.43976 99.897 8.21599C100.282 8.48299 100.623 8.74099 100.925 8.97299C101.025 9.05199 101.125 9.12599 101.218 9.20499C101.614 9.51521 101.994 9.8453 102.356 10.194C102.408 10.2718 102.456 10.3523 102.5 10.435" fill="#2A3A98"/>
<path d="M95.298 70.956C85.646 81.12 73.623 73.664 73.623 73.664C88.039 69.88 83.923 62.726 77.377 53.564C75.951 51.564 74.406 49.469 72.914 47.29C79.297 43.672 84.552 50.234 89.395 45.69C94.501 40.908 87.435 38.537 91.408 33.317C91.876 33.847 92.388 34.363 92.93 34.875C104.104 45.375 104.953 60.789 95.297 70.948" fill="#2A3A98"/>
<path d="M88.458 41.665C88.458 42.3165 88.2648 42.9533 87.9029 43.495C87.5409 44.0367 87.0265 44.4589 86.4246 44.7082C85.8227 44.9576 85.1604 45.0228 84.5214 44.8957C83.8824 44.7686 83.2955 44.4549 82.8348 43.9942C82.3741 43.5335 82.0604 42.9466 81.9333 42.3076C81.8062 41.6686 81.8714 41.0063 82.1207 40.4044C82.3701 39.8025 82.7923 39.2881 83.334 38.9261C83.8756 38.5642 84.5125 38.371 85.164 38.371C86.0376 38.371 86.8755 38.718 87.4932 39.3358C88.111 39.9535 88.458 40.7914 88.458 41.665Z" fill="#2A3A98"/>
<path d="M80.604 40.267C80.604 40.7138 80.4715 41.1505 80.2233 41.522C79.9751 41.8935 79.6223 42.183 79.2095 42.354C78.7967 42.525 78.3425 42.5697 77.9043 42.4826C77.4661 42.3954 77.0636 42.1803 76.7476 41.8643C76.4317 41.5484 76.2166 41.1459 76.1294 40.7077C76.0422 40.2695 76.087 39.8153 76.258 39.4025C76.4289 38.9897 76.7185 38.6369 77.09 38.3887C77.4615 38.1405 77.8982 38.008 78.345 38.008C78.9441 38.008 79.5187 38.246 79.9423 38.6696C80.366 39.0933 80.604 39.6679 80.604 40.267Z" fill="#2A3A98"/>
<path d="M114.663 38.588C114.854 39.8556 114.643 41.1512 114.061 42.2932C113.478 43.4351 112.553 44.3662 111.415 44.956C111.415 44.956 117.625 51.856 119.715 51.512C121.805 51.168 128.115 42.499 128.115 42.499C128.115 42.499 125.472 43.044 125.754 38.98L114.663 38.588Z" fill="#F8B278"/>
<path d="M114.663 38.588C116.336 39.9594 118.284 40.956 120.375 41.5104C122.466 42.0649 124.652 42.1643 126.785 41.802L126.262 39.302L114.663 38.588Z" fill="#F79363"/>
<path d="M141.054 21.647C141.051 26.43 139.208 31.0285 135.906 34.489C132.605 37.9496 128.098 40.0068 123.32 40.234C118.543 40.4612 113.861 38.841 110.246 35.7093C106.631 32.5777 104.359 28.1749 103.903 23.4137C103.447 18.6526 104.84 13.8984 107.794 10.1369C110.749 6.3755 115.037 3.89534 119.771 3.21071C124.505 2.52609 129.32 3.68953 133.219 6.45979C137.118 9.23006 139.802 13.3946 140.713 18.09C140.94 19.262 141.055 20.4531 141.054 21.647Z" fill="#F8B278"/>
<path d="M140.712 18.09C138.398 18.3 133.804 18.672 133.471 17.976C133.038 17.076 127.7 19.389 126.786 18.26C125.872 17.131 119.825 17.906 119.037 19.437C118.249 20.968 118.188 22.097 116.889 22.889C115.59 23.681 118.189 27.289 114.489 30.029C114.489 30.029 112.94 20.517 114.012 17.302C114.97 14.419 130.432 9.18598 134.803 7.72098C137.859 10.4341 139.936 14.0782 140.714 18.09" fill="#F79363"/>
<path d="M126.197 24.048C126.197 24.4317 126.083 24.8068 125.87 25.1258C125.657 25.4448 125.354 25.6935 124.999 25.8403C124.645 25.9871 124.255 26.0256 123.879 25.9507C123.502 25.8759 123.157 25.6911 122.885 25.4198C122.614 25.1485 122.429 24.8028 122.354 24.4265C122.279 24.0501 122.318 23.6601 122.465 23.3056C122.612 22.9511 122.86 22.6481 123.179 22.4349C123.498 22.2218 123.873 22.108 124.257 22.108C124.772 22.108 125.265 22.3124 125.629 22.6762C125.993 23.04 126.197 23.5335 126.197 24.048Z" fill="#231F20"/>
<path d="M137.352 24.048C137.352 24.4317 137.238 24.8068 137.025 25.1258C136.812 25.4448 136.509 25.6935 136.154 25.8403C135.8 25.9871 135.41 26.0256 135.034 25.9507C134.657 25.8759 134.312 25.6911 134.04 25.4198C133.769 25.1485 133.584 24.8028 133.509 24.4265C133.434 24.0501 133.473 23.6601 133.62 23.3056C133.767 22.9511 134.015 22.6481 134.334 22.4349C134.653 22.2218 135.028 22.108 135.412 22.108C135.926 22.108 136.42 22.3124 136.784 22.6762C137.148 23.04 137.352 23.5335 137.352 24.048Z" fill="#231F20"/>
<path d="M127 20.624C126.921 20.6242 126.844 20.602 126.777 20.56C124.288 19 121.433 20.555 121.404 20.571C121.356 20.598 121.303 20.6152 121.248 20.6216C121.193 20.6281 121.137 20.6237 121.084 20.6087C121.031 20.5936 120.981 20.5682 120.938 20.534C120.894 20.4997 120.858 20.4572 120.831 20.409C120.804 20.3607 120.787 20.3076 120.78 20.2527C120.774 20.1978 120.778 20.1421 120.793 20.0889C120.808 20.0357 120.834 19.986 120.868 19.9426C120.902 19.8992 120.945 19.863 120.993 19.836C121.127 19.761 124.306 18.018 127.224 19.847C127.302 19.8955 127.361 19.9679 127.394 20.0533C127.427 20.1388 127.431 20.2325 127.405 20.3205C127.38 20.4084 127.327 20.4857 127.254 20.5406C127.18 20.5956 127.091 20.6252 127 20.625" fill="#231F20"/>
<path d="M138.311 20.623C138.232 20.6232 138.155 20.601 138.088 20.559C135.599 18.999 132.743 20.554 132.715 20.57C132.667 20.597 132.614 20.6142 132.559 20.6206C132.504 20.6271 132.448 20.6227 132.395 20.6076C132.342 20.5926 132.292 20.5672 132.249 20.533C132.205 20.4987 132.169 20.4562 132.142 20.408C132.115 20.3597 132.098 20.3066 132.091 20.2517C132.085 20.1968 132.089 20.1411 132.104 20.0879C132.119 20.0347 132.145 19.985 132.179 19.9416C132.213 19.8982 132.256 19.862 132.304 19.835C132.439 19.76 135.618 18.017 138.536 19.846C138.614 19.8945 138.673 19.9669 138.706 20.0523C138.739 20.1378 138.743 20.2315 138.717 20.3195C138.692 20.4074 138.639 20.4847 138.566 20.5396C138.493 20.5945 138.403 20.6242 138.312 20.624" fill="#231F20"/>
<path d="M131.182 28.771H129.009C128.897 28.771 128.79 28.7266 128.711 28.6477C128.632 28.5687 128.588 28.4616 128.588 28.35C128.588 28.2383 128.632 28.1312 128.711 28.0523C128.79 27.9733 128.897 27.929 129.009 27.929H130.194L129.583 24.114C129.565 24.0036 129.592 23.8908 129.658 23.8003C129.723 23.7099 129.822 23.6491 129.933 23.6315C130.043 23.6138 130.156 23.6408 130.246 23.7063C130.337 23.7718 130.397 23.8706 130.415 23.981L131.182 28.771Z" fill="#F77C2D"/>
<path d="M130.081 35.349C129.301 35.6125 128.467 35.6752 127.657 35.5313C126.846 35.3875 126.085 35.0417 125.443 34.526C125.018 34.2469 124.629 33.916 124.286 33.541C121.948 30.878 126.317 28.861 127.632 29.879C129.101 31.018 131.322 30.743 131.68 31.171C132.791 32.496 131.945 34.601 130.08 35.349" fill="#F9AF79"/>
<path d="M130.082 35.35C129.302 35.6135 128.468 35.6762 127.658 35.5324C126.847 35.3885 126.086 35.0427 125.444 34.527C125.017 34.2466 124.627 33.9141 124.282 33.537C124.756 33.1788 125.308 32.9388 125.893 32.8369C126.478 32.7349 127.08 32.7739 127.647 32.9507C128.214 33.1274 128.73 33.4369 129.154 33.8533C129.577 34.2697 129.896 34.781 130.082 35.345" fill="#FB3741"/>
<path d="M104.478 9.57598C105.785 10.055 106.108 12.455 105.199 14.937C104.29 17.419 102.494 19.043 101.187 18.564C99.88 18.085 99.558 15.685 100.466 13.203C101.374 10.721 103.172 9.09698 104.478 9.57598Z" fill="#FB3741"/>
<path d="M142.011 17.202L134.363 17.373L132.88 13.773L132.119 17.247H128.011L125.937 12.036L124.821 17.212L117.934 17.47C118.046 18.1426 117.983 18.8328 117.75 19.4737C117.517 20.1146 117.122 20.6844 116.604 21.128C116.151 21.5505 115.733 22.0086 115.353 22.498C114.08 24.231 116.453 27.28 115.012 29.568C114.33 30.649 113.677 29.805 113.153 28.558C112.575 27.175 112.16 25.303 112.053 25.036C111.839 24.528 110.953 22.625 109.003 24.743C107.053 26.861 107.857 31.275 109.34 34.185C110.666 36.785 114.433 38.485 114.665 38.591C101.342 36.674 101.255 23.343 101.141 21.65C100.929 17.2621 102.12 12.9207 104.541 9.25498C107.241 5.35498 112.053 1.81298 120.563 0.875984C136.257 -0.852016 140.496 9.64398 141.621 14.653C141.817 15.4921 141.948 16.3449 142.015 17.204" fill="#3F51B5"/>
<path d="M142.011 17.202L134.363 17.373L132.88 13.773L132.119 17.247H128.011L125.937 12.036L124.821 17.212L117.934 17.47C118.046 18.1426 117.983 18.8328 117.75 19.4737C117.517 20.1146 117.122 20.6844 116.604 21.128C116.715 19.9281 116.679 18.719 116.495 17.528C115.874 13.35 121.238 16.85 123.325 14.067C125.412 11.284 125.867 10.467 127 11.521C128.133 12.575 129.026 14.592 131.681 12.321C134.336 10.05 134.56 13.187 137.833 14.767C138.425 15.059 139.079 15.2017 139.739 15.1827C140.399 15.1637 141.044 14.9836 141.618 14.658C141.814 15.4971 141.945 16.3499 142.012 17.209" fill="#2A3A98"/>
<path d="M114.663 38.587C101.341 36.671 101.251 23.34 101.139 21.647C100.927 17.2591 102.118 12.9177 104.539 9.25198C105.751 9.95198 107.903 11.527 106.586 13.273C104.81 15.635 101.586 16.655 103.449 20.041C105.312 23.427 103.16 26.052 103.649 26.941C104.138 27.83 105.149 30.625 106.169 27.79C107.189 24.955 108.286 22.072 111.419 22.916C113.869 23.581 113.056 26.285 113.156 28.555C112.578 27.172 112.163 25.3 112.056 25.033C111.842 24.526 110.956 22.622 109.006 24.74C107.056 26.858 107.86 31.272 109.343 34.182C110.669 36.782 114.436 38.482 114.668 38.588" fill="#2A3A98"/>
<path d="M111.763 26.827C111.763 26.827 110.65 24.287 109.705 25.706C108.76 27.125 109.268 29.654 110.133 30.223C110.998 30.792 111.841 28.167 109.897 28.185L111.763 26.827Z" fill="#F79363"/>
<path d="M120.673 150.327C120.561 150.327 120.454 150.283 120.375 150.204C120.296 150.125 120.252 150.018 120.252 149.906V96.092C120.252 95.9803 120.296 95.8732 120.375 95.7943C120.454 95.7153 120.561 95.671 120.673 95.671C120.785 95.671 120.892 95.7153 120.971 95.7943C121.05 95.8732 121.094 95.9803 121.094 96.092V149.906C121.094 150.018 121.05 150.125 120.971 150.204C120.892 150.283 120.785 150.327 120.673 150.327Z" fill="#EA1B39"/>
<path d="M191.466 57.058C191.466 57.058 200.781 12.77 209.079 13.278C217.377 13.786 213.144 25.471 213.144 25.471C213.144 25.471 216.616 20.136 221.782 21.322C226.948 22.508 221.189 30.975 221.189 30.975C221.189 30.975 232.678 37.89 227.71 44.214C222.742 50.538 209.87 35.181 207.387 47.149C204.904 59.117 217.21 54.036 220.033 49.52C222.856 45.004 227.598 46.133 228.275 51.439C228.952 56.745 227.71 66.004 218.452 69.617C209.194 73.23 189.939 63.733 191.467 57.056" fill="#F8B278"/>
<path d="M194.345 45.411C194.271 45.4111 194.198 45.3916 194.134 45.3544C194.07 45.3172 194.016 45.2636 193.98 45.1992C193.943 45.1348 193.924 45.0618 193.924 44.9877C193.925 44.9135 193.945 44.8408 193.983 44.777C199.921 34.691 207.021 31.363 211.937 30.346C215.037 29.6492 218.262 29.7286 221.324 30.577C221.43 30.6128 221.518 30.6893 221.567 30.7896C221.617 30.8899 221.625 31.0059 221.589 31.112C221.553 31.2181 221.477 31.3056 221.376 31.3553C221.276 31.405 221.16 31.4128 221.054 31.377C218.116 30.5863 215.031 30.5194 212.062 31.182C207.33 32.172 200.477 35.409 194.707 45.205C194.67 45.2684 194.617 45.3209 194.553 45.3574C194.49 45.3939 194.417 45.4131 194.344 45.413" fill="#F9803D"/>
<path d="M211.19 31.37C211.148 31.3698 211.106 31.3634 211.066 31.351C210.959 31.318 210.87 31.2441 210.818 31.1455C210.766 31.0469 210.755 30.9316 210.788 30.825C211.161 29.615 212.688 25.5 212.75 25.325C212.768 25.2716 212.797 25.2225 212.834 25.1804C212.871 25.1383 212.917 25.1041 212.968 25.0799C213.019 25.0557 213.074 25.042 213.13 25.0395C213.186 25.037 213.243 25.0458 213.295 25.0654C213.348 25.085 213.396 25.115 213.437 25.1536C213.478 25.1922 213.511 25.2387 213.534 25.2902C213.557 25.3417 213.569 25.3973 213.57 25.4536C213.571 25.5099 213.56 25.5658 213.539 25.618C213.523 25.661 211.959 29.886 211.592 31.073C211.566 31.1592 211.513 31.2348 211.441 31.2888C211.369 31.3428 211.282 31.3723 211.192 31.373" fill="#F9803D"/>
<path d="M119.596 35.339C117.717 35.3957 115.859 34.9401 114.219 34.021C112.58 33.102 111.222 31.7542 110.29 30.122L110.67 29.94C111.627 31.5928 113.035 32.9379 114.731 33.817C116.426 34.6961 118.337 35.0725 120.239 34.902L120.26 35.323C120.035 35.3337 119.814 35.339 119.597 35.339" fill="#808285"/>
<path d="M112.151 28.859C112.151 29.2385 112.038 29.6095 111.828 29.9251C111.617 30.2407 111.317 30.4867 110.966 30.6319C110.616 30.7772 110.23 30.8152 109.858 30.7411C109.485 30.6671 109.143 30.4843 108.875 30.2159C108.607 29.9476 108.424 29.6056 108.35 29.2334C108.276 28.8611 108.314 28.4753 108.459 28.1246C108.604 27.774 108.85 27.4743 109.166 27.2634C109.481 27.0525 109.852 26.94 110.232 26.94C110.741 26.94 111.229 27.1422 111.589 27.502C111.949 27.8619 112.151 28.35 112.151 28.859Z" fill="#404041"/>
<path d="M112.151 28.862C112.153 28.9013 112.153 28.9407 112.151 28.98C112.12 28.4937 111.904 28.0377 111.549 27.7045C111.193 27.3712 110.724 27.1858 110.237 27.1858C109.75 27.1858 109.281 27.3712 108.925 27.7045C108.57 28.0377 108.354 28.4937 108.323 28.98C108.321 28.9407 108.321 28.9013 108.323 28.862C108.323 28.3532 108.525 27.8652 108.885 27.5054C109.245 27.1456 109.733 26.9435 110.241 26.9435C110.75 26.9435 111.238 27.1456 111.598 27.5054C111.958 27.8652 112.16 28.3532 112.16 28.862" fill="#58595B"/>
<path d="M123.785 35.099C123.785 35.681 122.785 36.152 121.562 36.152C120.339 36.152 119.339 35.68 119.339 35.099C119.339 34.518 120.339 34.046 121.562 34.046C122.785 34.046 123.785 34.518 123.785 35.099Z" fill="#404041"/>
<path d="M123.687 34.783C123.11 34.3589 122.402 34.1514 121.687 34.197C120.458 34.197 119.462 34.668 119.464 35.249C119.466 35.3606 119.501 35.4691 119.564 35.561C119.497 35.503 119.443 35.4321 119.404 35.3525C119.365 35.2729 119.343 35.1864 119.339 35.098C119.339 34.517 120.339 34.046 121.565 34.044C121.951 34.0062 122.34 34.0526 122.706 34.1801C123.071 34.3075 123.405 34.5129 123.684 34.782" fill="#58595B"/>
<path d="M148.674 77.615C148.674 77.615 138.721 81.94 137.092 90.07C135.463 98.2 144.156 95.123 142.011 103.52C139.866 111.917 147.932 111.24 146.355 116.32C144.778 121.4 140.314 121.32 145.848 125.932C151.382 130.544 160.806 142.063 159.567 115.812C158.328 89.561 148.674 77.612 148.674 77.612" fill="#EA1B39"/>
<path d="M127.757 42.525L128.116 42.499C127.998 42.5203 127.877 42.529 127.757 42.525Z" fill="#FB3741"/>
<path d="M221.303 68.326C220.796 69.757 208.645 103.712 193.144 130.016C191.062 133.771 188.352 137.141 185.133 139.982C181.454 143.218 176.732 145.02 171.833 145.058C170.473 145.06 169.116 144.916 167.786 144.629C153.186 141.466 149.664 124.129 148.159 116.72C146.299 107.567 145.159 96.83 144.159 87.354C143.826 84.195 143.507 81.215 143.201 78.654C143.001 76.996 142.584 76.672 142.273 76.436C139.6 74.371 132.46 74.008 128.548 74.546L128.657 74.529L124.492 47.119C126.417 44.831 128.11 42.503 128.11 42.503C135.6 41.991 150.222 42.354 161.593 51.003C165.327 53.8539 168.436 57.4412 170.727 61.5428C173.018 65.6443 174.442 70.1725 174.911 74.847C175.244 77.63 175.572 80.719 175.917 83.991C176.201 86.651 176.499 89.447 176.817 92.268C185.235 74.286 191.124 57.849 191.202 57.617L221.303 68.326Z" fill="#FB3741"/>
<path d="M145.53 100.099C145.428 100.099 145.33 100.062 145.253 99.9952C145.177 99.9282 145.127 99.8358 145.113 99.735C143.877 90.635 142.876 79.502 142.866 79.39C142.856 79.2787 142.891 79.1681 142.962 79.0824C143.034 78.9967 143.137 78.9429 143.248 78.933C143.359 78.923 143.47 78.9577 143.556 79.0293C143.641 79.101 143.695 79.2037 143.705 79.315C143.715 79.426 144.714 90.537 145.947 99.621C145.962 99.7316 145.933 99.8436 145.865 99.9325C145.798 100.021 145.698 100.08 145.587 100.095C145.568 100.096 145.549 100.096 145.53 100.095" fill="#231F20"/>
<path d="M146.355 106.404C146.253 106.404 146.155 106.367 146.078 106.3C146.001 106.233 145.952 106.14 145.938 106.039L145.431 102.269C145.416 102.158 145.446 102.046 145.514 101.957C145.581 101.869 145.682 101.81 145.792 101.795C145.903 101.781 146.015 101.81 146.104 101.878C146.193 101.946 146.251 102.046 146.266 102.157L146.773 105.927C146.788 106.038 146.758 106.149 146.69 106.238C146.623 106.327 146.523 106.385 146.412 106.4C146.393 106.401 146.375 106.401 146.356 106.4" fill="#231F20"/>
<path d="M171.4 145.452C171.1 145.452 170.793 145.445 170.485 145.431C157.132 144.815 151.598 130.143 151.544 129.995C151.51 129.891 151.517 129.778 151.565 129.68C151.612 129.581 151.696 129.505 151.799 129.468C151.901 129.43 152.014 129.434 152.114 129.478C152.214 129.522 152.293 129.604 152.334 129.705C152.387 129.848 157.734 144.005 170.523 144.59C183.335 145.179 191.023 132.616 191.094 132.49C191.151 132.394 191.244 132.325 191.353 132.298C191.461 132.27 191.576 132.287 191.671 132.344C191.767 132.402 191.837 132.495 191.864 132.603C191.891 132.711 191.874 132.826 191.817 132.922C191.74 133.05 184.171 145.453 171.399 145.453" fill="#231F20"/>
<path d="M184.88 74.222C184.822 74.2221 184.765 74.2102 184.712 74.187C184.61 74.1424 184.529 74.059 184.488 73.9551C184.447 73.8512 184.449 73.7354 184.494 73.633L185.069 72.315C185.114 72.2126 185.197 72.1322 185.301 72.0914C185.405 72.0506 185.521 72.0528 185.623 72.0975C185.726 72.1422 185.806 72.2257 185.847 72.3297C185.888 72.4337 185.886 72.5496 185.841 72.652L185.266 73.969C185.233 74.0442 185.179 74.1083 185.11 74.1532C185.041 74.1981 184.961 74.222 184.879 74.222" fill="#231F20"/>
<path d="M176.577 93.888L175.01 79.397C175 79.2872 175.034 79.1781 175.104 79.093C175.174 79.008 175.275 78.9537 175.384 78.9419C175.494 78.9302 175.604 78.9618 175.69 79.03C175.777 79.0983 175.833 79.1977 175.847 79.307L177.073 90.646L183.615 75.646C183.66 75.5436 183.743 75.4632 183.847 75.4224C183.951 75.3816 184.067 75.3838 184.17 75.4285C184.272 75.4732 184.352 75.5567 184.393 75.6607C184.434 75.7647 184.432 75.8806 184.387 75.983L176.577 93.888Z" fill="#231F20"/>
<path d="M181.022 104.097C181.022 104.097 172.554 102.772 170.522 109.377C168.49 115.982 169.167 118.977 163.748 117.905C158.329 116.833 153.748 114.735 153.077 118.746C152.406 122.757 171.031 134.781 177.636 127.837C184.241 120.893 181.023 104.097 181.023 104.097" fill="#EA1B39"/>
<path d="M133.262 117.395C133.262 117.395 168.076 117.847 179.715 132.638C179.715 132.638 184.898 135.927 185.134 139.984C185.134 139.984 190.334 143.477 186.612 149.684H132.077C132.077 149.684 121.915 122.135 133.263 117.393" fill="#F8B278"/>
<path d="M86.867 85.441C86.867 85.441 90.867 87.93 89.167 94.815C87.467 101.7 80.586 94.7 79.796 100.684C79.006 106.668 81.682 105.539 84.691 108.362C87.7 111.185 86.57 115.814 93.232 114.685C99.894 113.556 100.067 108.685 107.432 113.33C114.797 117.975 129.032 107.797 131.511 117.395C133.99 126.993 78.765 129.1 75.218 118.11C71.671 107.12 64.691 88.942 86.867 85.442" fill="#EA1B39"/>
<path d="M133.545 149.402C122.756 150.671 116.609 149.984 108.095 149.984C88.262 149.984 74.235 146.943 64.312 142.69C58.2727 140.25 52.8064 136.582 48.26 131.918C44.1928 127.605 41.9035 121.916 41.85 115.988C41.529 102.708 45.3887 89.6619 52.884 78.694C59.0833 69.8911 67.1396 62.5564 76.484 57.208C92.156 47.946 109.714 45.233 111.411 44.953L114.346 76.472C106.491 78.1004 98.9603 81.0186 92.059 85.108C83.772 90.157 78.359 96.282 75.7 103.646C75.2976 104.755 75.1262 105.935 75.1962 107.113C75.2663 108.291 75.5763 109.442 76.1072 110.496C76.6382 111.55 77.3789 112.484 78.2839 113.241C79.1889 113.998 80.2391 114.562 81.37 114.899C90.147 117.533 105.959 119.642 133.255 116.435L133.268 117.905L133.545 149.402Z" fill="#FB3741"/>
<path d="M133.546 149.402C122.757 150.671 116.61 149.984 108.096 149.984C88.263 149.984 74.236 146.943 64.313 142.69C67.993 140.39 75.492 145.053 79.237 141.741C84.177 137.37 95.158 145.959 97.875 141.741C100.592 137.523 104.639 132.917 113.275 134.811C121.911 136.705 119.545 130.887 122.424 123.571C124.257 118.916 129.624 117.971 133.274 117.905L133.546 149.402Z" fill="#EA1B39"/>
<path d="M108.248 118.528C95.514 118.528 86.968 116.98 81.616 115.439C80.3695 115.078 79.2105 114.465 78.2109 113.638C77.2113 112.81 76.3923 111.786 75.805 110.629C75.2233 109.496 74.8842 108.254 74.8095 106.982C74.7348 105.711 74.926 104.437 75.371 103.244C78.1847 96.0179 83.3206 89.9322 89.971 85.944C90.0695 85.8909 90.1851 85.8792 90.2922 85.9114C90.3994 85.9435 90.4894 86.017 90.5425 86.1155C90.5955 86.214 90.6073 86.3296 90.5751 86.4367C90.5429 86.5439 90.4695 86.6339 90.371 86.687C83.8996 90.5745 78.9025 96.5009 76.164 103.536C75.7597 104.621 75.5861 105.778 75.6541 106.934C75.7221 108.09 76.0303 109.219 76.559 110.249C77.094 111.303 77.8398 112.235 78.7501 112.989C79.6604 113.742 80.7159 114.3 81.851 114.629C89.129 116.729 102.383 118.829 124.201 116.964C125.125 116.885 126.065 116.798 127.021 116.705C129.032 116.505 131.116 116.277 133.214 116.018C133.322 116.01 133.428 116.045 133.512 116.114C133.595 116.182 133.648 116.281 133.661 116.388C133.674 116.495 133.645 116.603 133.581 116.69C133.516 116.776 133.42 116.835 133.314 116.853C131.214 117.113 129.114 117.345 127.1 117.542C126.141 117.637 125.198 117.723 124.269 117.802C118.313 118.312 112.989 118.527 108.247 118.527" fill="#231F20"/>
<path d="M115.398 150.67C100.916 150.67 80.149 149.163 62.054 142.134C61.9991 142.117 61.9483 142.089 61.9048 142.051C61.8612 142.014 61.8258 141.968 61.8007 141.916C61.7756 141.864 61.7614 141.808 61.7589 141.75C61.7565 141.693 61.7658 141.636 61.7863 141.582C61.8068 141.528 61.8381 141.479 61.8783 141.438C61.9184 141.397 61.9666 141.364 62.0198 141.343C62.073 141.321 62.1301 141.31 62.1875 141.311C62.245 141.312 62.3017 141.325 62.354 141.349C93.677 153.517 133.097 149.032 133.491 148.984C133.546 148.977 133.602 148.981 133.656 148.995C133.71 149.01 133.76 149.035 133.804 149.069C133.848 149.103 133.884 149.146 133.912 149.194C133.939 149.243 133.956 149.296 133.963 149.352C133.97 149.407 133.965 149.463 133.95 149.516C133.935 149.57 133.909 149.62 133.875 149.663C133.84 149.707 133.797 149.743 133.749 149.77C133.7 149.797 133.646 149.814 133.591 149.82C127.543 150.419 121.468 150.703 115.391 150.67" fill="#231F20"/>
<path d="M44.158 126.354C44.0833 126.354 44.01 126.334 43.9455 126.297C43.881 126.259 43.8277 126.205 43.791 126.14C38.27 116.346 43.527 98.124 43.754 97.353C43.7696 97.2999 43.7955 97.2505 43.8303 97.2074C43.865 97.1644 43.9079 97.1286 43.9565 97.1022C44.005 97.0757 44.0583 97.0591 44.1133 97.0532C44.1683 97.0473 44.2239 97.0524 44.277 97.068C44.33 97.0836 44.3795 97.1095 44.4225 97.1443C44.4656 97.179 44.5013 97.2219 44.5278 97.2704C44.5543 97.319 44.5709 97.3723 44.5768 97.4273C44.5826 97.4823 44.5776 97.5379 44.562 97.591C44.508 97.776 39.18 116.243 44.525 125.727C44.5611 125.791 44.5799 125.863 44.5794 125.937C44.5789 126.01 44.5591 126.082 44.5221 126.146C44.4851 126.209 44.4321 126.262 44.3684 126.299C44.3047 126.336 44.2325 126.355 44.159 126.355" fill="#231F20"/>
<path d="M97.32 137.446C97.32 138.11 97.1231 138.759 96.7541 139.312C96.3851 139.864 95.8606 140.294 95.2471 140.548C94.6335 140.803 93.9583 140.869 93.3069 140.739C92.6555 140.61 92.0572 140.29 91.5875 139.82C91.1179 139.351 90.7981 138.752 90.6685 138.101C90.539 137.45 90.6055 136.775 90.8596 136.161C91.1138 135.547 91.5442 135.023 92.0964 134.654C92.6486 134.285 93.2979 134.088 93.962 134.088C94.8526 134.088 95.7067 134.442 96.3365 135.072C96.9662 135.701 97.32 136.555 97.32 137.446Z" fill="#EA1B39"/>
<path d="M89.601 136.267C89.601 136.643 89.4895 137.01 89.2808 137.323C89.072 137.635 88.7752 137.879 88.4281 138.022C88.0809 138.166 87.6989 138.204 87.3303 138.13C86.9617 138.057 86.6232 137.876 86.3575 137.61C86.0917 137.345 85.9108 137.006 85.8375 136.638C85.7642 136.269 85.8018 135.887 85.9456 135.54C86.0894 135.193 86.3329 134.896 86.6454 134.687C86.9578 134.478 87.3252 134.367 87.701 134.367C88.2049 134.367 88.6882 134.567 89.0445 134.923C89.4008 135.28 89.601 135.763 89.601 136.267Z" fill="#EA1B39"/>
<path d="M111.415 44.955C111.415 44.955 101.253 63.274 120.673 96.091C120.673 96.091 136.688 62.333 128.116 42.498L119.716 51.511L111.248 44.954" fill="#389DF9"/>
<path d="M111.415 44.956C111.415 44.956 106.504 54.756 112.897 56.579C119.29 58.402 119.841 52.415 119.713 51.512L111.415 44.956Z" fill="#002642"/>
<path d="M119.713 51.512C119.713 51.512 123.693 57.383 126.996 55.012C130.299 52.641 130.596 49.378 128.116 42.499L119.713 51.512Z" fill="#002642"/>
<path d="M108.974 63.978C108.974 63.978 102.608 71.61 103.793 78.978C104.978 86.346 111.64 93.648 120.673 96.093C120.673 96.093 110.711 81.356 108.973 63.979" fill="#EA1B39"/>
<path d="M130.534 59.138C130.534 59.138 138.06 66.359 136.988 76.638C135.916 86.917 120.673 96.096 120.673 96.096C120.673 96.096 130.223 75.907 130.534 59.142" fill="#EA1B39"/>
<path d="M111.415 44.956C111.415 44.956 101.507 59.501 103.794 63.65C105.045 66.0493 107.172 67.8739 109.734 68.744C109.734 68.744 106.534 55.569 111.415 44.956Z" fill="#EA1B39"/>
<path d="M86.867 52.443C86.772 52.442 86.6802 52.409 86.6064 52.3493C86.5326 52.2895 86.4812 52.2066 86.4604 52.1139C86.4397 52.0213 86.4509 51.9243 86.4922 51.8388C86.5335 51.7533 86.6025 51.6843 86.688 51.643C91.2975 49.5663 96.095 47.9352 101.015 46.772C101.069 46.76 101.125 46.7587 101.179 46.7682C101.234 46.7778 101.286 46.798 101.332 46.8277C101.379 46.8573 101.419 46.8959 101.451 46.9412C101.483 46.9864 101.505 47.0375 101.518 47.0915C101.53 47.1455 101.531 47.2013 101.521 47.2557C101.512 47.3102 101.491 47.3622 101.462 47.4089C101.432 47.4556 101.394 47.4959 101.348 47.5277C101.303 47.5594 101.252 47.582 101.198 47.594C96.337 48.7425 91.5967 50.3528 87.042 52.403C86.986 52.4293 86.9249 52.443 86.863 52.443" fill="#231F20"/>
<path d="M128.114 42.499C128.114 42.499 136.478 53.375 135.801 57.891C135.124 62.407 129.753 66.819 129.753 66.819C129.753 66.819 132.395 53.866 128.114 42.499Z" fill="#EA1B39"/>
<path d="M120.672 95.236C120.562 95.2358 120.456 95.1926 120.378 95.1156C120.299 95.0386 120.254 94.934 120.251 94.824L119.291 51.524C119.289 51.4125 119.33 51.3046 119.408 51.224C119.485 51.1434 119.59 51.0966 119.702 51.094H119.712C119.822 51.0942 119.928 51.1374 120.006 51.2144C120.085 51.2913 120.13 51.396 120.133 51.506L121.093 94.806C121.095 94.9176 121.053 95.0255 120.976 95.1061C120.899 95.1866 120.793 95.2334 120.681 95.236H120.672Z" fill="#002642"/>
<path d="M123.353 62.75C123.353 62.9017 123.308 63.05 123.224 63.1761C123.139 63.3022 123.02 63.4005 122.879 63.4586C122.739 63.5166 122.585 63.5318 122.436 63.5023C122.288 63.4727 122.151 63.3996 122.044 63.2923C121.936 63.1851 121.863 63.0484 121.834 62.8996C121.804 62.7508 121.819 62.5966 121.877 62.4565C121.935 62.3163 122.034 62.1965 122.16 62.1123C122.286 62.028 122.434 61.983 122.586 61.983C122.789 61.983 122.984 62.0638 123.128 62.2076C123.272 62.3515 123.353 62.5466 123.353 62.75Z" fill="#002642"/>
<path d="M123.353 71.599C123.353 71.7507 123.308 71.899 123.224 72.0251C123.139 72.1512 123.02 72.2495 122.879 72.3076C122.739 72.3657 122.585 72.3808 122.436 72.3512C122.288 72.3216 122.151 72.2486 122.044 72.1413C121.936 72.0341 121.863 71.8974 121.834 71.7486C121.804 71.5998 121.819 71.4456 121.877 71.3055C121.935 71.1653 122.034 71.0455 122.16 70.9612C122.286 70.877 122.434 70.832 122.586 70.832C122.789 70.832 122.984 70.9128 123.128 71.0566C123.272 71.2005 123.353 71.3956 123.353 71.599Z" fill="#002642"/>
<path d="M123.353 80.453C123.353 80.6047 123.308 80.753 123.224 80.8791C123.139 81.0052 123.02 81.1035 122.879 81.1616C122.739 81.2197 122.585 81.2348 122.436 81.2053C122.288 81.1757 122.151 81.1026 122.044 80.9953C121.936 80.8881 121.863 80.7514 121.834 80.6026C121.804 80.4538 121.819 80.2996 121.877 80.1595C121.935 80.0193 122.034 79.8995 122.16 79.8153C122.286 79.731 122.434 79.686 122.586 79.686C122.789 79.686 122.984 79.7668 123.128 79.9106C123.272 80.0545 123.353 80.2496 123.353 80.453Z" fill="#002642"/>
<path d="M162.801 52.379C162.697 52.379 162.596 52.3401 162.519 52.27C155.372 45.821 143.4 43.74 143.28 43.72C143.17 43.7014 143.072 43.6398 143.007 43.5488C142.942 43.4577 142.916 43.3447 142.935 43.2345C142.953 43.1243 143.015 43.026 143.106 42.9612C143.197 42.8964 143.31 42.8704 143.42 42.889C143.543 42.91 155.752 45.029 163.083 51.645C163.146 51.702 163.19 51.7768 163.21 51.8595C163.23 51.9421 163.224 52.0288 163.193 52.1082C163.163 52.1875 163.109 52.2557 163.039 52.3038C162.969 52.352 162.886 52.3778 162.801 52.378" fill="#231F20"/>
<path d="M185.134 140.404H185.087C184.866 140.379 162.972 137.946 157.622 139.839C157.518 139.871 157.406 139.862 157.309 139.813C157.212 139.764 157.137 139.68 157.101 139.577C157.064 139.475 157.069 139.362 157.114 139.263C157.159 139.164 157.24 139.086 157.341 139.046C162.873 137.087 184.273 139.466 185.181 139.568C185.289 139.578 185.389 139.63 185.46 139.713C185.53 139.795 185.567 139.902 185.561 140.01C185.555 140.118 185.507 140.22 185.428 140.295C185.349 140.369 185.244 140.409 185.135 140.408" fill="#F9803D"/>
<path d="M179.715 133.057C179.66 133.057 179.606 133.046 179.555 133.025C179.408 132.964 164.684 127.007 155.906 131.847C155.808 131.901 155.693 131.914 155.586 131.882C155.478 131.851 155.388 131.779 155.334 131.681C155.28 131.583 155.267 131.468 155.299 131.361C155.33 131.253 155.402 131.163 155.5 131.109C164.632 126.074 179.257 131.992 179.876 132.246C179.966 132.283 180.04 132.35 180.086 132.436C180.132 132.522 180.147 132.621 180.128 132.717C180.109 132.812 180.058 132.898 179.983 132.96C179.908 133.022 179.813 133.056 179.716 133.056" fill="#F9803D"/>
<path d="M109.197 18.261C109.197 18.727 109.059 19.1825 108.8 19.5699C108.541 19.9574 108.173 20.2593 107.743 20.4376C107.312 20.616 106.838 20.6626 106.381 20.5717C105.924 20.4808 105.505 20.2564 105.175 19.9269C104.846 19.5974 104.621 19.1776 104.53 18.7206C104.439 18.2636 104.486 17.7899 104.664 17.3594C104.843 16.9289 105.145 16.5609 105.532 16.302C105.92 16.0432 106.375 15.905 106.841 15.905C107.466 15.905 108.065 16.1532 108.507 16.595C108.949 17.0369 109.197 17.6361 109.197 18.261Z" fill="#2A3A98"/>
<path d="M96.286 108.135C96.286 108.894 96.0608 109.637 95.639 110.268C95.2171 110.899 94.6176 111.391 93.9161 111.682C93.2146 111.972 92.4427 112.048 91.698 111.9C90.9533 111.752 90.2693 111.386 89.7324 110.85C89.1955 110.313 88.8299 109.629 88.6817 108.884C88.5336 108.139 88.6096 107.367 88.9002 106.666C89.1908 105.964 89.6828 105.365 90.3141 104.943C90.9455 104.521 91.6877 104.296 92.447 104.296C93.4651 104.296 94.4416 104.7 95.1616 105.42C95.8815 106.14 96.286 107.117 96.286 108.135Z" fill="#EA1B39"/>
<path d="M129.755 67.24C129.67 67.2399 129.587 67.2139 129.516 67.1655C129.446 67.1171 129.392 67.0485 129.362 66.9689C129.332 66.8892 129.326 66.8022 129.346 66.7193C129.367 66.6365 129.411 66.5618 129.475 66.505C129.522 66.463 134.187 62.265 135.193 58.705C135.225 58.6 135.298 58.5119 135.394 58.4594C135.491 58.407 135.604 58.3944 135.71 58.4243C135.815 58.4542 135.905 58.5242 135.96 58.6194C136.015 58.7147 136.03 58.8275 136.003 58.934C134.931 62.734 130.235 66.955 130.036 67.134C129.959 67.2029 129.859 67.241 129.756 67.241" fill="#231F20"/>
<path d="M109.734 69.165C109.685 69.165 109.635 69.1562 109.589 69.139C109.425 69.079 105.541 67.623 103.974 64.111C103.536 63.0581 103.321 61.926 103.342 60.786C103.362 59.6459 103.619 58.5224 104.094 57.486C104.136 57.3836 104.217 57.3019 104.319 57.2588C104.421 57.2156 104.536 57.2145 104.639 57.2555C104.742 57.2966 104.825 57.3766 104.869 57.4781C104.913 57.5797 104.916 57.6946 104.876 57.798C104.445 58.7294 104.21 59.7397 104.187 60.7658C104.163 61.792 104.352 62.8119 104.74 63.762C106.158 66.948 109.84 68.335 109.879 68.349C109.972 68.3832 110.049 68.4488 110.099 68.5345C110.148 68.6202 110.165 68.7204 110.148 68.8176C110.131 68.9149 110.08 69.003 110.004 69.0665C109.928 69.13 109.833 69.1648 109.734 69.165Z" fill="#231F20"/>
<path d="M105.709 55.233C105.644 55.233 105.581 55.2179 105.523 55.189C105.473 55.1645 105.429 55.1305 105.393 55.0889C105.356 55.0473 105.328 54.9989 105.311 54.9465C105.293 54.8942 105.286 54.8388 105.289 54.7836C105.293 54.7285 105.307 54.6746 105.332 54.625L106.007 53.261C106.056 53.1609 106.144 53.0845 106.249 53.0487C106.355 53.0129 106.471 53.0205 106.571 53.07C106.671 53.1194 106.747 53.2067 106.783 53.3124C106.819 53.4182 106.811 53.5339 106.762 53.634L106.087 54.997C106.052 55.0676 105.998 55.127 105.932 55.1685C105.865 55.2101 105.788 55.232 105.709 55.232" fill="#231F20"/>
<path d="M339.524 127.96C339.524 128.06 339.515 128.152 339.506 128.249L339.379 130.108L338.609 141.462C338.425 144.175 337.218 146.716 335.231 148.572C333.245 150.429 330.628 151.462 327.909 151.462H313.485C312.016 151.464 310.562 151.162 309.215 150.574C309.045 146.868 314.115 150.71 316.425 147.993C318.77 145.228 318.825 143.587 323.338 143.815C327.851 144.043 324.357 139.523 328.638 138.622C332.919 137.721 335.87 139.073 335.529 132.974C335.38 130.252 337.323 128.774 339.519 127.96" fill="#002642"/>
<path d="M332.729 134.13C332.729 134.479 332.625 134.82 332.432 135.11C332.238 135.4 331.962 135.626 331.64 135.76C331.318 135.893 330.963 135.928 330.621 135.86C330.279 135.792 329.964 135.624 329.718 135.377C329.471 135.131 329.303 134.816 329.235 134.474C329.167 134.132 329.202 133.777 329.335 133.455C329.469 133.133 329.695 132.857 329.985 132.663C330.275 132.469 330.616 132.366 330.965 132.366C331.433 132.366 331.881 132.552 332.212 132.883C332.543 133.213 332.729 133.662 332.729 134.13Z" fill="#002642"/>
<path d="M306.603 125.734C305.324 125.905 304.274 134.359 307.027 134.134C309.78 133.909 307.874 125.566 306.603 125.734Z" fill="white"/>
<path d="M308.248 139.971C308.248 139.971 309.135 134.655 307.071 135.129C305.007 135.603 307.286 140.46 308.248 139.971Z" fill="white"/>
<path d="M297.308 72.495L294.902 91.82L290.658 125.89C290.288 128.853 288.848 131.579 286.609 133.555C284.371 135.531 281.488 136.622 278.502 136.622H184.52C182.783 136.622 181.066 136.253 179.483 135.539C177.9 134.826 176.487 133.783 175.337 132.482C174.187 131.18 173.327 129.649 172.815 127.99C172.302 126.331 172.147 124.581 172.362 122.858L179.016 69.468C179.384 66.5042 180.823 63.7771 183.061 61.7998C185.3 59.8225 188.183 58.7311 191.17 58.731H285.153C286.889 58.7316 288.605 59.1012 290.188 59.8154C291.771 60.5295 293.183 61.5719 294.333 62.8733C295.482 64.1748 296.341 65.7056 296.854 67.3644C297.367 69.0232 297.521 70.772 297.307 72.495" fill="#A7A9AC"/>
<path d="M294.718 63.34C292.792 62.154 290.574 61.5283 288.313 61.533H194.334C191.347 61.5325 188.462 62.6236 186.223 64.6009C183.984 66.5782 182.544 69.3056 182.175 72.27L175.524 125.66C175.318 127.281 175.441 128.926 175.884 130.499C176.328 132.071 177.083 133.538 178.105 134.813C176.1 133.583 174.493 131.802 173.474 129.682C172.456 127.562 172.07 125.194 172.362 122.86L179.017 69.47C179.386 66.5064 180.824 63.7796 183.063 61.8024C185.301 59.8253 188.184 58.7341 191.171 58.734H285.154C286.992 58.7306 288.808 59.1433 290.464 59.9411C292.12 60.739 293.575 61.9013 294.718 63.341" fill="#D1D3D4"/>
<path d="M294.902 91.821L290.658 125.891C290.288 128.854 288.848 131.581 286.609 133.557C284.369 135.533 281.486 136.624 278.499 136.623H199.484C201.348 130.507 213.371 136.623 220.852 131.08C228.333 125.537 236.235 133.088 242.203 129.523C248.171 125.958 249.951 133.259 257.017 127.961C264.083 122.663 264.179 118.861 272.986 120.161C281.793 121.461 285.009 115.983 284.331 105.036C283.924 98.465 289.988 94.19 294.901 91.823" fill="#939598"/>
<path d="M278.915 110.221C278.915 111.193 278.627 112.143 278.087 112.951C277.547 113.76 276.78 114.39 275.882 114.762C274.984 115.134 273.996 115.231 273.043 115.042C272.089 114.852 271.214 114.384 270.526 113.697C269.839 113.009 269.371 112.134 269.181 111.18C268.992 110.227 269.089 109.239 269.461 108.341C269.833 107.443 270.463 106.676 271.272 106.136C272.08 105.596 273.03 105.308 274.002 105.308C275.305 105.308 276.554 105.826 277.476 106.747C278.397 107.669 278.915 108.918 278.915 110.221Z" fill="#939598"/>
<path d="M242.627 149.074H231.492V118.667C231.492 117.19 232.079 115.774 233.123 114.73C234.167 113.686 235.583 113.099 237.06 113.099C238.536 113.099 239.952 113.686 240.996 114.73C242.04 115.774 242.627 117.19 242.627 118.667V149.074Z" fill="#BCBEC0"/>
<path d="M242.203 116.531L242.181 116.509C241.403 115.731 240.411 115.2 239.331 114.986C238.251 114.771 237.132 114.882 236.115 115.303C235.098 115.725 234.229 116.439 233.618 117.354C233.006 118.27 232.68 119.346 232.681 120.447V149.074H231.495V118.666C231.496 117.379 231.943 116.132 232.76 115.138C233.577 114.143 234.713 113.462 235.975 113.21C237.237 112.959 238.548 113.152 239.683 113.757C240.819 114.363 241.71 115.343 242.205 116.531" fill="#D1D3D4"/>
<path d="M258.439 150.729H215.676C215.676 149.891 215.841 149.061 216.162 148.287C216.482 147.513 216.953 146.809 217.545 146.217C218.138 145.624 218.842 145.154 219.616 144.834C220.391 144.514 221.221 144.349 222.059 144.35H252.059C253.751 144.35 255.373 145.022 256.569 146.219C257.766 147.415 258.438 149.037 258.438 150.729" fill="#BCBEC0"/>
<path d="M258.439 150.727H230.719C231.988 148.819 234.027 148.579 238.039 149.827C242.383 151.179 240.069 148.3 245.096 147.534C250.123 146.768 251.134 150.22 252.262 147.061C252.517 146.542 252.886 146.088 253.341 145.733C253.797 145.377 254.327 145.13 254.892 145.009C255.956 145.537 256.852 146.351 257.478 147.361C258.105 148.37 258.436 149.535 258.436 150.723" fill="#A7A9AC"/>
<path d="M257.017 146.716C255.885 145.801 254.473 145.304 253.017 145.307H223.017C221.492 145.308 220.018 145.855 218.862 146.849C217.706 147.844 216.945 149.22 216.717 150.728H215.68C215.68 149.89 215.845 149.06 216.166 148.286C216.487 147.511 216.957 146.808 217.55 146.215C218.143 145.623 218.847 145.153 219.621 144.833C220.396 144.513 221.226 144.348 222.064 144.349H252.064C253.015 144.348 253.953 144.56 254.811 144.97C255.669 145.379 256.424 145.976 257.021 146.716" fill="#D1D3D4"/>
<path d="M247.44 93.704C247.44 95.6454 246.864 97.5432 245.786 99.1575C244.707 100.772 243.174 102.03 241.38 102.773C239.587 103.516 237.613 103.71 235.709 103.331C233.805 102.953 232.056 102.018 230.683 100.645C229.31 99.2722 228.375 97.5231 227.997 95.619C227.618 93.7149 227.812 91.7412 228.555 89.9476C229.298 88.1539 230.556 86.6209 232.17 85.5423C233.785 84.4637 235.683 83.888 237.624 83.888C240.227 83.888 242.724 84.9222 244.565 86.763C246.406 88.6039 247.44 91.1006 247.44 93.704Z" fill="#BCBEC0"/>
<path d="M245.256 87.528C243.325 86.1457 240.959 85.5101 238.595 85.7389C236.232 85.9677 234.032 87.0454 232.402 88.7723C230.772 90.4993 229.823 92.7584 229.732 95.1311C229.64 97.5039 230.411 99.8294 231.903 101.677C230.766 100.861 229.817 99.8108 229.12 98.5976C228.422 97.3845 227.992 96.0363 227.858 94.6433C227.725 93.2503 227.89 91.8449 228.344 90.5212C228.798 89.1975 229.53 87.9861 230.49 86.9684C231.451 85.9507 232.618 85.1501 233.913 84.6204C235.208 84.0906 236.602 83.844 238 83.897C239.399 83.95 240.769 84.3014 242.021 84.9276C243.272 85.5539 244.375 86.4405 245.256 87.528Z" fill="#D1D3D4"/>
<path d="M27.413 150.755C27.413 150.755 47.556 175.801 70.062 165.639C92.568 155.477 101.662 157.465 106.53 163.076C121.216 180.02 151.568 191.212 170.83 179.527C190.092 167.842 196.618 149.719 213.172 158.357C229.726 166.995 248.442 170.383 261.948 162.845C275.454 155.307 296.285 148.703 311.527 157.345C326.769 165.987 338.794 150.76 338.794 150.76L27.413 150.755Z" fill="black"/>
<path d="M366.91 151.597H1.08999C0.866674 151.597 0.652508 151.508 0.494602 151.35C0.336696 151.192 0.247986 150.978 0.247986 150.755C0.247986 150.532 0.336696 150.318 0.494602 150.16C0.652508 150.002 0.866674 149.913 1.08999 149.913H366.91C367.133 149.913 367.347 150.002 367.505 150.16C367.663 150.318 367.752 150.532 367.752 150.755C367.752 150.978 367.663 151.192 367.505 151.35C367.347 151.508 367.133 151.597 366.91 151.597Z" fill="#552F72"/>
<path d="M210.778 166.383C210.778 167.767 210.367 169.121 209.598 170.272C208.829 171.423 207.736 172.32 206.457 172.85C205.178 173.38 203.77 173.519 202.412 173.248C201.054 172.978 199.807 172.312 198.828 171.333C197.849 170.354 197.183 169.107 196.912 167.749C196.642 166.391 196.781 164.983 197.311 163.704C197.841 162.425 198.738 161.332 199.889 160.563C201.04 159.794 202.393 159.383 203.778 159.383C205.634 159.383 207.415 160.12 208.728 161.433C210.04 162.746 210.778 164.526 210.778 166.383Z" fill="black"/>
<path d="M220.851 169.444C220.851 169.965 220.697 170.474 220.407 170.907C220.118 171.341 219.706 171.678 219.225 171.877C218.744 172.077 218.214 172.129 217.703 172.027C217.192 171.926 216.723 171.675 216.354 171.307C215.986 170.938 215.735 170.469 215.634 169.958C215.532 169.447 215.584 168.917 215.784 168.436C215.983 167.955 216.32 167.543 216.754 167.254C217.187 166.964 217.696 166.81 218.217 166.81C218.563 166.81 218.906 166.878 219.225 167.01C219.545 167.143 219.835 167.337 220.08 167.581C220.324 167.826 220.518 168.116 220.651 168.436C220.783 168.755 220.851 169.098 220.851 169.444Z" fill="black"/>
<path d="M97.875 166.135C97.8752 166.789 97.6814 167.429 97.3181 167.973C96.9548 168.517 96.4383 168.941 95.834 169.191C95.2297 169.441 94.5647 169.507 93.9231 169.38C93.2815 169.252 92.6921 168.937 92.2296 168.474C91.767 168.012 91.4521 167.422 91.3245 166.781C91.1969 166.139 91.2625 165.474 91.5129 164.87C91.7633 164.266 92.1874 163.749 92.7313 163.386C93.2753 163.023 93.9148 162.829 94.569 162.829C95.4458 162.829 96.2867 163.177 96.9067 163.797C97.5267 164.417 97.875 165.258 97.875 166.135Z" fill="black"/>
<path d="M298.218 159.769C298.218 160.423 298.024 161.063 297.661 161.607C297.298 162.151 296.781 162.575 296.177 162.825C295.573 163.075 294.908 163.141 294.266 163.013C293.624 162.886 293.035 162.571 292.573 162.108C292.11 161.646 291.795 161.057 291.668 160.415C291.54 159.773 291.605 159.108 291.856 158.504C292.106 157.9 292.53 157.383 293.074 157.02C293.618 156.657 294.258 156.463 294.912 156.463C295.346 156.463 295.776 156.549 296.177 156.715C296.578 156.881 296.943 157.124 297.25 157.431C297.557 157.738 297.8 158.103 297.966 158.504C298.133 158.905 298.218 159.335 298.218 159.769Z" fill="black"/>
</g>
</svg>
